<svg xmlns="http://www.w3.org/2000/svg" version="1.1" xmlns:xlink="http://www.w3.org/1999/xlink" xmlns:svgjs="http://svgjs.com/svgjs" width="512" height="512" x="0" y="0" viewBox="0 0 512 512" style="enable-background:new 0 0 512 512" xml:space="preserve" class=""><g><linearGradient xmlns="http://www.w3.org/2000/svg" id="SVGID_1_" gradientUnits="userSpaceOnUse" x1="74.981" x2="437.02" y1="437.019" y2="74.98"><stop offset=".1" stop-color="#ff195e"></stop><stop offset="1" stop-color="#ffc5a3"></stop></linearGradient><linearGradient xmlns="http://www.w3.org/2000/svg" id="lg1"><stop offset="0" stop-color="#ff195e"></stop><stop offset=".4462" stop-color="#ff4167" stop-opacity=".554"></stop><stop offset="1" stop-color="#ff6e70" stop-opacity="0"></stop></linearGradient><radialGradient xmlns="http://www.w3.org/2000/svg" id="SVGID_2_" cx="340.161" cy="355.547" gradientUnits="userSpaceOnUse" r="122.464" xmlns:xlink="http://www.w3.org/1999/xlink" xlink:href="#lg1"></radialGradient><radialGradient xmlns="http://www.w3.org/2000/svg" id="SVGID_3_" cx="171.839" cy="355.547" gradientUnits="userSpaceOnUse" r="122.464" xmlns:xlink="http://www.w3.org/1999/xlink" xlink:href="#lg1"></radialGradient><linearGradient xmlns="http://www.w3.org/2000/svg" id="lg2"><stop offset="0" stop-color="#ffb5d3"></stop><stop offset=".4183" stop-color="#ffdbea"></stop><stop offset=".7836" stop-color="#fff5f9"></stop><stop offset="1" stop-color="#fff"></stop></linearGradient><linearGradient xmlns="http://www.w3.org/2000/svg" id="SVGID_4_" gradientUnits="userSpaceOnUse" x1="113.244" x2="232.091" xmlns:xlink="http://www.w3.org/1999/xlink" xlink:href="#lg2" y1="471.063" y2="352.215"></linearGradient><linearGradient xmlns="http://www.w3.org/2000/svg" id="lg3"><stop offset="0" stop-color="#ff195e"></stop><stop offset="1" stop-color="#ffc5a3"></stop></linearGradient><linearGradient xmlns="http://www.w3.org/2000/svg" id="SVGID_5_" gradientUnits="userSpaceOnUse" x1="61.767" x2="231.58" xmlns:xlink="http://www.w3.org/1999/xlink" xlink:href="#lg3" y1="450.126" y2="280.313"></linearGradient><linearGradient xmlns="http://www.w3.org/2000/svg" id="SVGID_6_" gradientUnits="userSpaceOnUse" x1="10.327" x2="235.561" xmlns:xlink="http://www.w3.org/1999/xlink" xlink:href="#lg3" y1="498.44" y2="273.207"></linearGradient><radialGradient xmlns="http://www.w3.org/2000/svg" id="SVGID_7_" cx="340.161" cy="156.453" gradientUnits="userSpaceOnUse" r="122.464" xmlns:xlink="http://www.w3.org/1999/xlink" xlink:href="#lg1"></radialGradient><radialGradient xmlns="http://www.w3.org/2000/svg" id="SVGID_8_" cx="171.839" cy="156.453" gradientUnits="userSpaceOnUse" r="122.464" xmlns:xlink="http://www.w3.org/1999/xlink" xlink:href="#lg1"></radialGradient><linearGradient xmlns="http://www.w3.org/2000/svg" id="SVGID_9_" gradientUnits="userSpaceOnUse" x1="110.665" x2="232.794" xmlns:xlink="http://www.w3.org/1999/xlink" xlink:href="#lg2" y1="274.39" y2="152.262"></linearGradient><linearGradient xmlns="http://www.w3.org/2000/svg" id="SVGID_10_" gradientUnits="userSpaceOnUse" x1="123.645" x2="284.37" y1="190.71" y2="29.985"><stop offset="0" stop-color="#ff79a2"></stop><stop offset=".169" stop-color="#ff8db1"></stop><stop offset=".7324" stop-color="#ffcbdf"></stop><stop offset="1" stop-color="#ffe3f1"></stop></linearGradient><linearGradient xmlns="http://www.w3.org/2000/svg" id="SVGID_11_" gradientUnits="userSpaceOnUse" x1="85.17" x2="312.258" y1="226.11" y2="-.978"><stop offset="0" stop-color="#ff79a2"></stop><stop offset=".1681" stop-color="#ff8db1"></stop><stop offset=".7283" stop-color="#ffcbdf"></stop><stop offset=".9944" stop-color="#ffe3f1"></stop></linearGradient><linearGradient xmlns="http://www.w3.org/2000/svg" id="SVGID_12_" gradientUnits="userSpaceOnUse" x1="279.799" x2="400.994" xmlns:xlink="http://www.w3.org/1999/xlink" xlink:href="#lg2" y1="273.924" y2="152.729"></linearGradient><linearGradient xmlns="http://www.w3.org/2000/svg" id="lg4"><stop offset="0" stop-color="#ff195e"></stop><stop offset=".2007" stop-color="#ff2461"></stop><stop offset=".549" stop-color="#ff4066"></stop><stop offset="1" stop-color="#ff6e70"></stop></linearGradient><linearGradient xmlns="http://www.w3.org/2000/svg" id="SVGID_13_" gradientUnits="userSpaceOnUse" x1="313.443" x2="400.651" xmlns:xlink="http://www.w3.org/1999/xlink" xlink:href="#lg4" y1="167.98" y2="80.771"></linearGradient><linearGradient xmlns="http://www.w3.org/2000/svg" id="SVGID_14_" gradientUnits="userSpaceOnUse" x1="276.387" x2="359.509" xmlns:xlink="http://www.w3.org/1999/xlink" xlink:href="#lg4" y1="201.81" y2="118.688"></linearGradient><linearGradient xmlns="http://www.w3.org/2000/svg" id="SVGID_15_" gradientUnits="userSpaceOnUse" x1="278.239" x2="400.675" xmlns:xlink="http://www.w3.org/1999/xlink" xlink:href="#lg2" y1="472.855" y2="350.42"></linearGradient><linearGradient xmlns="http://www.w3.org/2000/svg" id="SVGID_16_" gradientUnits="userSpaceOnUse" x1="278.016" x2="408.069" y1="401.455" y2="271.402"><stop offset="0" stop-color="#ff91bb"></stop><stop offset=".1961" stop-color="#ffa9ca"></stop><stop offset=".7411" stop-color="#ffe7f0"></stop><stop offset="1" stop-color="#fff"></stop></linearGradient><linearGradient xmlns="http://www.w3.org/2000/svg" id="SVGID_17_" gradientUnits="userSpaceOnUse" x1="284.998" x2="456.294" xmlns:xlink="http://www.w3.org/1999/xlink" xlink:href="#lg2" y1="391.291" y2="219.995"></linearGradient><g xmlns="http://www.w3.org/2000/svg"><circle cx="256" cy="256" fill="url(#SVGID_1_)" r="256" data-original="url(#SVGID_1_)"></circle><path d="m462.545 353.5c-1.631 65.861-58.149 122.829-124.045 124.535-65.917 1.493-120.224-54.42-120.749-122.181-.294-67.791 54.926-122.988 122.79-122.823 67.841.435 123.447 54.577 122.004 120.469z" fill="url(#SVGID_2_)" data-original="url(#SVGID_2_)"></path><path d="m294.249 355.854c-.525 67.761-54.833 123.675-120.749 122.181-65.895-1.706-122.415-58.673-124.045-124.535-1.444-65.892 54.163-120.034 122.005-120.469 67.862-.165 123.084 55.032 122.789 122.823z" fill="url(#SVGID_3_)" data-original="url(#SVGID_3_)"></path><path d="m103.695 392.523c.214 10.113.452 20.226.714 30.339.221 8.374 7.183 15.389 15.528 15.638 35.276 1.037 70.551 1.671 105.827 1.901 8.345.056 15.095-6.809 15.077-15.299-.026-10.249-.05-20.497-.071-30.746-22.867-10.304-45.828-20.721-68.851-31.167-22.841 9.971-45.593 19.777-68.224 29.334z" fill="url(#SVGID_4_)" data-original="url(#SVGID_4_)"></path><path d="m102.321 286.339c.167 35.395.624 70.79 1.373 106.185 45.692 1.111 91.383 1.722 137.075 1.833-45.766-35.982-92.177-72.377-138.448-108.018z" fill="url(#SVGID_5_)" data-original="url(#SVGID_5_)"></path><path d="m225.254 271.367c-35.871-.019-71.742-.072-107.612-.158-8.491-.018-15.359 6.757-15.32 15.13 33.535 49.369 82.446 87.908 138.448 108.018-.026 0-.163-107.611-.137-107.611-.005-8.49-6.888-15.375-15.379-15.379z" fill="url(#SVGID_6_)" data-original="url(#SVGID_6_)"></path><path d="m462.545 158.5c1.443 65.891-54.163 120.034-122.005 120.469-67.862.165-123.083-55.032-122.79-122.823.526-67.761 54.834-123.675 120.75-122.181 65.894 1.707 122.414 58.673 124.045 124.535z" fill="url(#SVGID_7_)" data-original="url(#SVGID_7_)"></path><path d="m294.249 156.146c.294 67.79-54.928 122.987-122.79 122.823-67.841-.434-123.447-54.579-122.004-120.469 1.63-65.862 58.15-122.828 124.045-124.535 65.916-1.494 120.223 54.421 120.749 122.181z" fill="url(#SVGID_8_)" data-original="url(#SVGID_8_)"></path><path d="m102.535 195.323c-.095 10.113-.167 20.226-.214 30.338-.04 8.374 6.829 15.147 15.32 15.13 35.871-.087 71.742-.139 107.612-.158 8.492-.005 15.375-6.889 15.379-15.379.005-10.249.012-20.497.021-30.746-23.01-10.224-45.975-20.38-68.863-30.385-23.044 10.413-46.14 20.84-69.255 31.2z" fill="url(#SVGID_9_)" data-original="url(#SVGID_9_)"></path><path d="m104.408 89.138c-.916 35.395-1.54 70.79-1.873 106.185 46.039-.494 92.079-.766 138.118-.815-46.006-35.821-91.683-71.333-136.245-105.37z" fill="url(#SVGID_10_)" data-original="url(#SVGID_10_)"></path><path d="m225.764 71.599c-35.276.23-70.551.864-105.827 1.901-8.345.249-15.308 7.266-15.528 15.638 31.531 48.208 79.832 85.448 136.245 105.37-.025-.001.162-107.61.187-107.611.017-8.49-6.732-15.353-15.077-15.298z" fill="url(#SVGID_11_)" data-original="url(#SVGID_11_)"></path><path d="m271.346 194.508c.01 10.249.017 20.497.021 30.746.004 8.491 6.887 15.375 15.379 15.379 35.871.019 71.742.072 107.612.158 8.49.016 15.36-6.757 15.32-15.13-.047-10.113-.119-20.226-.214-30.338-23.115-10.36-46.211-20.787-69.255-31.2-22.887 10.005-45.853 20.161-68.863 30.385z" fill="url(#SVGID_12_)" data-original="url(#SVGID_12_)"></path><path d="m271.159 86.898c.091 35.87.154 71.741.187 107.611 46.039.049 92.079.321 138.118.815-46.372-35.89-92.736-72.42-138.305-108.426z" fill="url(#SVGID_13_)" data-original="url(#SVGID_13_)"></path><path d="m392.063 73.5c-35.276-1.037-70.551-1.671-105.827-1.901-8.345-.056-15.095 6.809-15.077 15.299 32.929 49.993 81.681 88.146 138.305 108.426.259.001-1.615-106.184-1.873-106.185-.22-8.374-7.183-15.389-15.528-15.639z" fill="url(#SVGID_14_)" data-original="url(#SVGID_14_)"></path><path d="m271.23 394.357c-.021 10.249-.045 20.497-.071 30.746-.018 8.49 6.732 15.355 15.077 15.299 35.276-.23 70.551-.864 105.827-1.901 8.345-.25 15.308-7.266 15.528-15.638.262-10.113.499-20.226.714-30.339-22.632-9.557-45.384-19.363-68.224-29.334-23.022 10.446-45.983 20.863-68.851 31.167z" fill="url(#SVGID_15_)" data-original="url(#SVGID_15_)"></path><path d="m271.368 286.746c-.017 35.87-.063 71.741-.137 107.611 45.692-.111 91.383-.722 137.075-1.833-44.943-34.284-90.851-69.933-136.938-105.778z" fill="url(#SVGID_16_)" data-original="url(#SVGID_16_)"></path><path d="m394.359 271.208c-35.871.087-71.742.139-107.612.158-8.492.005-15.375 6.889-15.379 15.379 33.278 49.882 81.387 87.476 136.937 105.777.259.001 1.633-106.185 1.373-106.185.041-8.372-6.829-15.145-15.319-15.129z" fill="url(#SVGID_17_)" data-original="url(#SVGID_17_)"></path></g></g></svg>