<svg xmlns="http://www.w3.org/2000/svg" xmlns:svgjs="http://svgjs.com/svgjs" xmlns:xlink="http://www.w3.org/1999/xlink" style="enable-background:new 0 0 512 512" width="512" height="512" x="0" y="0" version="1.1" viewBox="0 0 512 512" xml:space="preserve"><g><linearGradient xmlns="http://www.w3.org/2000/svg" id="SVGID_1_" x1="74.98" x2="437.019" y1="437.019" y2="74.98" gradientUnits="userSpaceOnUse"><stop offset="0" stop-color="#ff4747"/><stop offset="1" stop-color="#ff9ceb"/></linearGradient><radialGradient xmlns="http://www.w3.org/2000/svg" id="SVGID_2_" cx="256" cy="256" r="256" gradientUnits="userSpaceOnUse"><stop offset="0" stop-color="#ff2f2b"/><stop offset="1" stop-color="#ff9ceb" stop-opacity="0"/></radialGradient><linearGradient xmlns="http://www.w3.org/2000/svg" id="lg1"><stop offset="0" stop-color="#ffb5d3"/><stop offset=".418" stop-color="#ffdbea"/><stop offset=".784" stop-color="#fff5f9"/><stop offset="1" stop-color="#fff"/></linearGradient><linearGradient xmlns="http://www.w3.org/2000/svg" xmlns:xlink="http://www.w3.org/1999/xlink" id="SVGID_3_" x1="133.27" x2="748.07" y1="285.085" y2="-592.942" gradientTransform="matrix(.985 .174 -.174 .985 63.988 -34.384)" gradientUnits="userSpaceOnUse" xlink:href="#lg1"/><linearGradient xmlns="http://www.w3.org/2000/svg" xmlns:xlink="http://www.w3.org/1999/xlink" id="SVGID_4_" x1="113.41" x2="791.529" y1="432.892" y2="-245.227" gradientUnits="userSpaceOnUse" xlink:href="#lg1"/><linearGradient xmlns="http://www.w3.org/2000/svg" xmlns:xlink="http://www.w3.org/1999/xlink" id="SVGID_5_" x1="86.63" x2="551.985" y1="340.152" y2="-324.444" gradientTransform="matrix(.985 .174 -.174 .985 63.988 -34.384)" gradientUnits="userSpaceOnUse" xlink:href="#lg1"/><linearGradient xmlns="http://www.w3.org/2000/svg" xmlns:xlink="http://www.w3.org/1999/xlink" id="SVGID_6_" x1="167.304" x2="526.934" y1="361.908" y2="2.278" gradientUnits="userSpaceOnUse" xlink:href="#lg1"/><radialGradient xmlns="http://www.w3.org/2000/svg" id="SVGID_7_" cx="230.538" cy="288.829" r="279.162" gradientUnits="userSpaceOnUse"><stop offset=".108" stop-color="#ff2f2b"/><stop offset=".18" stop-color="#ff4552" stop-opacity=".92"/><stop offset=".267" stop-color="#ff5c7b" stop-opacity=".822"/><stop offset=".36" stop-color="#ff709d" stop-opacity=".718"/><stop offset=".458" stop-color="#ff80ba" stop-opacity=".608"/><stop offset=".563" stop-color="#ff8cd0" stop-opacity=".49"/><stop offset=".678" stop-color="#ff95df" stop-opacity=".362"/><stop offset=".81" stop-color="#ff9ae8" stop-opacity=".213"/><stop offset="1" stop-color="#ff9ceb" stop-opacity="0"/></radialGradient><linearGradient xmlns="http://www.w3.org/2000/svg" xmlns:xlink="http://www.w3.org/1999/xlink" id="SVGID_8_" x1="-106.116" x2="585.832" y1="544.05" y2="-147.897" gradientUnits="userSpaceOnUse" xlink:href="#lg1"/><linearGradient xmlns="http://www.w3.org/2000/svg" id="SVGID_9_" x1="-398.835" x2="715.848" y1="947.83" y2="-166.854" gradientUnits="userSpaceOnUse"><stop offset="0" stop-color="#ffb5d3"/><stop offset=".412" stop-color="#ffdbea"/><stop offset=".771" stop-color="#fff5f9"/><stop offset=".984" stop-color="#fff"/></linearGradient><linearGradient xmlns="http://www.w3.org/2000/svg" xmlns:xlink="http://www.w3.org/1999/xlink" id="SVGID_10_" x1="-360.516" x2="499.94" y1="879.623" y2="19.167" gradientUnits="userSpaceOnUse" xlink:href="#lg1"/><linearGradient xmlns="http://www.w3.org/2000/svg" xmlns:xlink="http://www.w3.org/1999/xlink" id="SVGID_11_" x1="-142.805" x2="361.95" y1="570.724" y2="65.969" gradientUnits="userSpaceOnUse" xlink:href="#lg1"/><linearGradient xmlns="http://www.w3.org/2000/svg" xmlns:xlink="http://www.w3.org/1999/xlink" id="SVGID_12_" x1="-282.542" x2="407.913" y1="816.718" y2="126.263" gradientUnits="userSpaceOnUse" xlink:href="#lg1"/><linearGradient xmlns="http://www.w3.org/2000/svg" xmlns:xlink="http://www.w3.org/1999/xlink" id="SVGID_13_" x1="-472.91" x2="322.419" y1="992.037" y2="196.708" gradientUnits="userSpaceOnUse" xlink:href="#lg1"/><linearGradient xmlns="http://www.w3.org/2000/svg" id="lg2"><stop offset="0" stop-color="#ff3838"/><stop offset="1" stop-color="#ff9ceb"/></linearGradient><linearGradient xmlns="http://www.w3.org/2000/svg" xmlns:xlink="http://www.w3.org/1999/xlink" id="SVGID_14_" x1="114.734" x2="547.337" y1="397.313" y2="-35.29" gradientUnits="userSpaceOnUse" xlink:href="#lg2"/><linearGradient xmlns="http://www.w3.org/2000/svg" xmlns:xlink="http://www.w3.org/1999/xlink" id="SVGID_15_" x1="58.256" x2="463.419" y1="499.105" y2="93.943" gradientUnits="userSpaceOnUse" xlink:href="#lg2"/><linearGradient xmlns="http://www.w3.org/2000/svg" xmlns:xlink="http://www.w3.org/1999/xlink" id="SVGID_16_" x1="61.513" x2="311.138" y1="421.219" y2="171.594" gradientUnits="userSpaceOnUse" xlink:href="#lg2"/><g xmlns="http://www.w3.org/2000/svg"><circle cx="256" cy="256" r="256" fill="url(#SVGID_1_)" data-original="url(#SVGID_1_)"/><circle cx="256" cy="256" r="256" fill="url(#SVGID_2_)" data-original="url(#SVGID_2_)"/><path fill="url(#SVGID_3_)" d="m204.387 72.712c-16.24-2.634-32.072 8.918-35.387 25.572-13.882 70.405-27.24 140.446-38.775 209.884-2.726 16.412 8.706 32.335 25.35 35.564 20.105 3.87 40.182 7.684 60.224 11.412 15.123-90.52 31.934-181.464 47.675-272.324-19.752-3.545-39.45-6.925-59.087-10.108z" data-original="url(#SVGID_3_)"/><path fill="url(#SVGID_4_)" d="m412.585 112.004c-49.995-10.43-99.726-20.322-149.109-29.184-16.341-2.941-32.019 8.381-35.088 25.11-12.86 70.685-25.854 141.26-37.682 211.486-2.792 16.606 8.505 32.626 25.095 35.727 50.107 9.319 100.003 18.096 149.603 25.838 16.411 2.556 32.446-8.947 35.769-25.472 13.951-69.899 26.765-139.26 37.145-207.843 2.446-16.202-9.186-32.177-25.733-35.662z" data-original="url(#SVGID_4_)"/><path fill="url(#SVGID_5_)" d="m160.479 313.812c11.665-69.881 24.823-140.238 38.176-210.832 9.898 1.609 19.809 3.26 29.732 4.95 13.416 38.721 27.323 77.61 41.28 116.501-26.401 31.766-52.908 63.588-78.962 94.984-10.07-1.857-20.146-3.726-30.226-5.603z" data-original="url(#SVGID_5_)"/><path fill="url(#SVGID_6_)" d="m228.387 107.93c-12.86 70.685-25.854 141.26-37.682 211.486 60.422 11.151 120.652 21.914 180.547 31.438 13.543-70.24 26.279-140.067 36.909-209.244-60.263-12.033-120.236-23.544-179.774-33.68z" data-original="url(#SVGID_6_)"/><path fill="url(#SVGID_7_)" d="m412.585 112.004c-49.995-10.43-99.726-20.323-149.109-29.184-.051-.154-59.142-10.273-59.089-10.108-16.24-2.634-32.073 8.919-35.387 25.572-13.882 70.405-27.239 140.446-38.775 209.884-2.727 16.413 8.706 32.335 25.35 35.564 20.105 3.87 40.182 7.684 60.224 11.412.212.623 149.839 26.613 149.603 25.838 16.412 2.556 32.445-8.947 35.769-25.472 13.951-69.899 26.765-139.26 37.145-207.843 2.449-16.202-9.183-32.178-25.731-35.663z" data-original="url(#SVGID_7_)"/><path fill="url(#SVGID_8_)" d="m124.017 151.864c-16.837.412-30.885 14.238-31.209 30.779-1.319 70-.561 140 2.274 210 .694 16.537 14.803 30.676 31.342 31.396 20 .84 40 1.501 60 1.98-2.072-91.753-2.53-183.506-1.374-275.259-20.344.267-40.688.636-61.033 1.104z" data-original="url(#SVGID_8_)"/><path fill="url(#SVGID_9_)" d="m220.653 150.394c-11.867.088-23.735.209-35.603.365-16.838.236-30.75 14.123-30.964 30.913-.853 71.018-.363 142.037 1.471 213.055.458 16.79 14.328 30.88 30.868 31.291 50 1.199 100 1.271 150 .216 16.54-.362 30.372-14.437 30.792-31.257.757-32.182 1.263-64.365 1.518-96.548-49.058-48.714-99.264-98.94-148.082-148.035z" data-original="url(#SVGID_9_)"/><path fill="url(#SVGID_10_)" d="m337.634 150.64c-38.994-.451-77.987-.533-116.981-.245-.608 81.796 66.304 148.754 148.082 148.036.309-38.958.25-77.916-.176-116.873-.196-16.822-14.087-30.71-30.925-30.918z" data-original="url(#SVGID_10_)"/><path fill="url(#SVGID_11_)" d="m125.32 393.797c-2.334-70.564-2.958-141.128-1.872-211.691 10.213-.162 20.426-.306 30.639-.433 20 35.255 40.568 70.98 61.155 106.846-20.364 35.734-40.443 71.246-59.684 106.209-10.08-.273-20.159-.583-30.238-.931z" data-original="url(#SVGID_11_)"/><path fill="url(#SVGID_12_)" d="m223.645 181.077c-23.186.109-46.373.308-69.559.597-.853 71.018-.363 142.037 1.471 213.055 60.474 1.637 120.949 1.933 181.423.885.548-33.38.908-66.761 1.081-100.141-37.969-37.866-76.497-76.403-114.416-114.396z" data-original="url(#SVGID_12_)"/><path fill="url(#SVGID_13_)" d="m223.645 181.076c11.774 57.232 57.201 102.683 114.416 114.395.197-38.07.15-76.141-.14-114.211-38.092-.302-76.184-.363-114.276-.184z" data-original="url(#SVGID_13_)"/><path fill="url(#SVGID_14_)" d="m139.589 368.373c-2.176 4.963 1.652 10.775 7.171 10.922 2.808.073 5.616.143 8.424.211 4.714-14.689 9.533-29.429 14.434-44.21-5.095-.07-10.191-.145-15.286-.225-4.976 11.141-9.895 22.243-14.743 33.302z" data-original="url(#SVGID_14_)"/><path fill="url(#SVGID_15_)" d="m322.332 369.658c-15.28-34.444-31.026-69.111-46.839-103.813-15.954-23.152-31.948-46.33-47.803-69.407-1.739.002-3.478.005-5.217.009-3.008.006-5.748 1.771-7.01 4.513-20.698 45.02-41.365 89.862-61.13 134.112.225 14.812.51 29.623.852 44.435 2.751.066 5.501.13 8.252.192 2.97.067 5.63-1.619 6.812-4.311 4.387-9.987 8.824-20.004 13.302-30.044 1.207-2.706 3.903-4.42 6.893-4.386 26.897.306 53.794.449 80.691.429 2.991-.003 5.703 1.75 6.939 4.485 4.587 10.147 9.149 20.286 13.678 30.413 1.221 2.731 3.907 4.469 6.876 4.448 5.561-.039 11.122-.089 16.684-.148 5.516-.06 9.26-5.878 7.02-10.927zm-68.206-59.027c-15.645-.019-31.29-.074-46.935-.166-3.719-.022-6.217-3.885-4.69-7.258 7.736-17.08 15.55-34.21 23.392-51.367 1.824-3.989 7.498-3.99 9.324.001 7.847 17.168 15.714 34.356 23.553 51.54 1.548 3.397-.924 7.255-4.644 7.25z" data-original="url(#SVGID_15_)"/><path fill="url(#SVGID_16_)" d="m275.493 265.844c-9.864-21.647-19.755-43.308-29.576-64.936-1.241-2.733-3.959-4.484-6.958-4.483-3.756.002-7.512.006-11.269.011 8.882 27.527 25.751 51.565 47.803 69.408z" data-original="url(#SVGID_16_)"/></g></g></svg>