<svg xmlns="http://www.w3.org/2000/svg" xmlns:svgjs="http://svgjs.com/svgjs" xmlns:xlink="http://www.w3.org/1999/xlink" style="enable-background:new 0 0 512 512" width="512" height="512" x="0" y="0" version="1.1" viewBox="0 0 512 512" xml:space="preserve"><g><linearGradient xmlns="http://www.w3.org/2000/svg" id="SVGID_1_" x1="74.98" x2="437.019" y1="437.019" y2="74.98" gradientUnits="userSpaceOnUse"><stop offset="0" stop-color="#0056e0"/><stop offset="1" stop-color="#85ffe0"/></linearGradient><radialGradient xmlns="http://www.w3.org/2000/svg" id="SVGID_2_" cx="256" cy="256" r="256" gradientUnits="userSpaceOnUse"><stop offset="0" stop-color="#0072ff"/><stop offset=".095" stop-color="#0f82fc" stop-opacity=".905"/><stop offset=".527" stop-color="#4ec5ed" stop-opacity=".473"/><stop offset=".84" stop-color="#76efe4" stop-opacity=".16"/><stop offset="1" stop-color="#85ffe0" stop-opacity="0"/></radialGradient><linearGradient xmlns="http://www.w3.org/2000/svg" id="lg1"><stop offset="0" stop-color="#170794"/><stop offset="1" stop-color="#3ca1ff"/></linearGradient><linearGradient xmlns="http://www.w3.org/2000/svg" xmlns:xlink="http://www.w3.org/1999/xlink" id="SVGID_3_" x1="-21.739" x2="626.861" y1="481.562" y2="-167.038" gradientUnits="userSpaceOnUse" xlink:href="#lg1"/><linearGradient xmlns="http://www.w3.org/2000/svg" xmlns:xlink="http://www.w3.org/1999/xlink" id="SVGID_4_" x1="10.949" x2="528.227" y1="577.197" y2="59.919" gradientUnits="userSpaceOnUse" xlink:href="#lg1"/><linearGradient xmlns="http://www.w3.org/2000/svg" xmlns:xlink="http://www.w3.org/1999/xlink" id="SVGID_5_" x1="-130.735" x2="692.596" y1="653.837" y2="-169.493" gradientUnits="userSpaceOnUse" xlink:href="#lg1"/><linearGradient xmlns="http://www.w3.org/2000/svg" xmlns:xlink="http://www.w3.org/1999/xlink" id="SVGID_6_" x1="105.837" x2="680.011" y1="349.284" y2="-224.89" gradientUnits="userSpaceOnUse" xlink:href="#lg1"/><linearGradient xmlns="http://www.w3.org/2000/svg" xmlns:xlink="http://www.w3.org/1999/xlink" id="SVGID_7_" x1="114.63" x2="1034.161" y1="201.565" y2="-717.966" gradientUnits="userSpaceOnUse" xlink:href="#lg1"/><linearGradient xmlns="http://www.w3.org/2000/svg" xmlns:xlink="http://www.w3.org/1999/xlink" id="SVGID_8_" x1="40.274" x2="930.17" y1="348.719" y2="-541.177" gradientUnits="userSpaceOnUse" xlink:href="#lg1"/><linearGradient xmlns="http://www.w3.org/2000/svg" id="lg2"><stop offset="0" stop-color="#389fff"/><stop offset=".12" stop-color="#45affa"/><stop offset=".572" stop-color="#73e9e7"/><stop offset=".79" stop-color="#85ffe0"/><stop offset=".881" stop-color="#9dffe6"/><stop offset="1" stop-color="#c2fff0"/></linearGradient><linearGradient xmlns="http://www.w3.org/2000/svg" xmlns:xlink="http://www.w3.org/1999/xlink" id="SVGID_9_" x1="35.619" x2="536.045" y1="418.106" y2="-82.321" gradientUnits="userSpaceOnUse" xlink:href="#lg2"/><linearGradient xmlns="http://www.w3.org/2000/svg" xmlns:xlink="http://www.w3.org/1999/xlink" id="SVGID_10_" x1="-116.185" x2="508.961" y1="718.238" y2="93.092" gradientUnits="userSpaceOnUse" xlink:href="#lg2"/><linearGradient xmlns="http://www.w3.org/2000/svg" xmlns:xlink="http://www.w3.org/1999/xlink" id="SVGID_11_" x1="-85.862" x2="610.594" y1="621.035" y2="-75.421" gradientUnits="userSpaceOnUse" xlink:href="#lg2"/><linearGradient xmlns="http://www.w3.org/2000/svg" xmlns:xlink="http://www.w3.org/1999/xlink" id="SVGID_12_" x1="107.345" x2="459.299" y1="235.689" y2="-116.265" gradientUnits="userSpaceOnUse" xlink:href="#lg1"/><linearGradient xmlns="http://www.w3.org/2000/svg" xmlns:xlink="http://www.w3.org/1999/xlink" id="SVGID_13_" x1="92.085" x2="646.108" y1="367.513" y2="-186.511" gradientUnits="userSpaceOnUse" xlink:href="#lg1"/><linearGradient xmlns="http://www.w3.org/2000/svg" xmlns:xlink="http://www.w3.org/1999/xlink" id="SVGID_14_" x1="-14.721" x2="541.989" y1="550.298" y2="-6.412" gradientUnits="userSpaceOnUse" xlink:href="#lg1"/><linearGradient xmlns="http://www.w3.org/2000/svg" id="SVGID_15_" x1="-28.492" x2="329.14" y1="548.132" y2="190.5" gradientUnits="userSpaceOnUse"><stop offset="0" stop-color="#43dcc7"/><stop offset=".3" stop-color="#85ffe0"/><stop offset=".464" stop-color="#9dffe6"/><stop offset=".808" stop-color="#dafff6"/><stop offset="1" stop-color="#fff"/></linearGradient><linearGradient xmlns="http://www.w3.org/2000/svg" xmlns:xlink="http://www.w3.org/1999/xlink" id="SVGID_16_" x1="-23.167" x2="535.069" y1="542.849" y2="-15.387" gradientUnits="userSpaceOnUse" xlink:href="#lg1"/><g xmlns="http://www.w3.org/2000/svg"><circle cx="256" cy="256" r="256" fill="url(#SVGID_1_)" data-original="url(#SVGID_1_)"/><circle cx="256" cy="256" r="256" fill="url(#SVGID_2_)" data-original="url(#SVGID_2_)"/><path fill="url(#SVGID_3_)" d="m228.073 64.101c-18.191.376-36.382 1.12-54.573 2.232-16.542 1.044-30.388 15.646-30.828 32.167-2.646 105-2.646 210 0 315 .44 16.521 14.286 31.122 30.828 32.167 23.125 1.413 46.25 2.232 69.375 2.457-5.371-128.131-10.799-256.192-14.802-384.023z" data-original="url(#SVGID_3_)"/><path fill="url(#SVGID_4_)" d="m338.5 66.333c-7.566-.462-15.132-.861-22.698-1.196-2.941 127.023-8.368 254.511-14.802 382.3 12.5-.417 25-1.007 37.5-1.771 16.542-1.044 30.388-15.646 30.828-32.167 2.646-105 2.646-210 0-315-.44-16.52-14.286-31.121-30.828-32.166z" data-original="url(#SVGID_4_)"/><path fill="url(#SVGID_5_)" d="m331.552 415.687c1.847-111.461 1.76-222.922-.26-334.383-.16-8.502-7.103-15.791-15.49-16.168-29.243-1.295-58.486-1.641-87.729-1.036-8.387.176-15.271 7.355-15.366 15.922-1.162 112.278-1.212 224.557-.15 336.836.183 16.9 13.774 31.097 30.317 31.265 19.375.188 38.75-.04 58.125-.686 16.544-.57 30.252-14.984 30.553-31.75z" data-original="url(#SVGID_5_)"/><path fill="url(#SVGID_6_)" d="m354.218 97.52c-.186-8.325-7.091-15.54-15.401-16.013-2.513-.141-5.026-.275-7.539-.403.002.068.012.133.014.201-14.692 19.445-29.667 39.386-44.812 59.583 22.86.3 45.72.937 68.58 1.913-.234-15.094-.515-30.188-.842-45.281z" data-original="url(#SVGID_6_)"/><path fill="url(#SVGID_7_)" d="m205.829 84.519c-2.793-2.777-6.601-4.247-10.594-4.083-7.351.302-14.701.659-22.052 1.071-8.31.473-15.214 7.688-15.401 16.013-.328 15.093-.608 30.187-.842 45.28 28.575-1.219 57.15-1.91 85.725-2.074-10.126-16.611-20.166-33.131-30.07-49.471-2.26-2.253-4.515-4.499-6.766-6.736z" data-original="url(#SVGID_7_)"/><path fill="url(#SVGID_8_)" d="m331.292 81.305c-.001-.068-.011-.134-.014-.201-4.838-.246-9.675-.469-14.513-.668-3.993-.165-7.801 1.305-10.594 4.083-6.294 6.256-12.621 12.576-18.977 18.945-4.23 4.239-10.005 6.586-16.036 6.537-10.106-.084-20.211-.084-30.317 0-6.031.05-11.806-2.297-16.036-6.537-4.082-4.092-8.153-8.163-12.211-12.209-.161 16.615-.298 33.231-.41 49.846 40.005-.755 80.01-.476 120.015.837-.238-20.211-.541-40.422-.907-60.633z" data-original="url(#SVGID_8_)"/><path fill="url(#SVGID_9_)" d="m156.94 142.8c-1.248 80.498-1.165 160.996.25 241.493.151 8.326 7.072 15.461 15.439 15.853 13.264.61 26.527 1.074 39.791 1.392 29.292-45.246 59.574-91.897 89.704-137.882-30.087-45.906-60.41-92.555-89.828-137.877-13.301.285-26.603.7-39.904 1.246-8.392.353-15.319 7.449-15.452 15.775z" data-original="url(#SVGID_9_)"/><path fill="url(#SVGID_10_)" d="m339.609 127.027c-2.534-.104-5.067-.203-7.601-.298-19.657 44.869-40.127 90.841-60.634 136.955 20.492 46.096 40.89 92.014 60.418 136.795 2.526-.106 5.053-.216 7.579-.333 8.367-.392 15.289-7.528 15.439-15.853 1.414-80.498 1.498-160.996.25-241.493-.133-8.326-7.06-15.422-15.451-15.773z" data-original="url(#SVGID_10_)"/><path fill="url(#SVGID_11_)" d="m212.295 125.781c-.704 91.919-.662 183.839.124 275.758 39.791.956 79.582.603 119.372-1.06 1.368-91.25 1.44-182.5.216-273.75-39.903-1.487-79.807-1.803-119.712-.948z" data-original="url(#SVGID_11_)"/><path fill="url(#SVGID_12_)" d="m271.058 79.264c-10.038-.102-20.077-.102-30.115 0-4.157.042-7.546 3.535-7.569 7.776s3.343 7.63 7.516 7.592c10.074-.093 20.147-.093 30.221 0 4.174.038 7.54-3.351 7.516-7.592-.023-4.241-3.413-7.733-7.569-7.776z" data-original="url(#SVGID_12_)"/><path fill="url(#SVGID_13_)" d="m179.368 187.562c-.36 50.694-.32 101.389.12 152.083 10.839.26 21.678.464 32.518.614 14.538-25.331 29.261-50.947 43.994-76.572-14.734-25.625-29.479-51.259-44.063-76.627-10.857.123-21.713.29-32.569.502z" data-original="url(#SVGID_13_)"/><path fill="url(#SVGID_14_)" d="m332.632 187.562c-40.232-.787-80.464-.955-120.695-.502-.044 10.852-.078 21.703-.101 32.555 14.69 14.594 29.43 29.338 44.164 44.072-14.734 14.734-29.461 29.46-44.125 44.017.033 10.852.076 21.703.13 32.555 40.169.553 80.338.349 120.506-.614.441-50.694.481-101.388.121-152.083z" data-original="url(#SVGID_14_)"/><path fill="url(#SVGID_15_)" d="m211.836 219.615c-.063 29.363-.05 58.726.04 88.089 29.416.248 58.833.248 88.249 0 .089-29.363.102-58.726.04-88.089-29.444-.174-58.886-.174-88.329 0z" data-original="url(#SVGID_15_)"/><path fill="url(#SVGID_16_)" d="m240.63 279.052c-.005-10.246-.006-20.491-.005-30.737 10.25-.004 20.499-.004 30.749 0 .002 10.246 0 20.491-.005 30.737-10.246.014-20.492.014-30.739 0z" data-original="url(#SVGID_16_)"/></g></g></svg>