<svg xmlns="http://www.w3.org/2000/svg" version="1.1" xmlns:xlink="http://www.w3.org/1999/xlink" xmlns:svgjs="http://svgjs.com/svgjs" width="512" height="512" x="0" y="0" viewBox="0 0 512 512" style="enable-background:new 0 0 512 512" xml:space="preserve" class=""><g><linearGradient xmlns="http://www.w3.org/2000/svg" id="lg1"><stop offset="0" stop-color="#ff4d5e"></stop><stop offset="1" stop-color="#fff200"></stop></linearGradient><linearGradient xmlns="http://www.w3.org/2000/svg" id="SVGID_1_" gradientUnits="userSpaceOnUse" x1="74.98" x2="437.019" xmlns:xlink="http://www.w3.org/1999/xlink" xlink:href="#lg1" y1="437.019" y2="74.981"></linearGradient><radialGradient xmlns="http://www.w3.org/2000/svg" id="SVGID_2_" cx="-8547.445" cy="-5179.924" gradientTransform="matrix(.707 -.707 .608 .608 9450.051 -2637.863)" gradientUnits="userSpaceOnUse" r="340.5"><stop offset="0" stop-color="#ff4d5e" stop-opacity=".4"></stop><stop offset=".0553" stop-color="#ff5b56" stop-opacity=".378"></stop><stop offset=".2921" stop-color="#ff9038" stop-opacity=".283"></stop><stop offset=".513" stop-color="#ffba20" stop-opacity=".195"></stop><stop offset=".7115" stop-color="#ffd90e" stop-opacity=".115"></stop><stop offset=".8805" stop-color="#ffeb04" stop-opacity=".048"></stop><stop offset="1" stop-color="#fff200" stop-opacity="0"></stop></radialGradient><linearGradient xmlns="http://www.w3.org/2000/svg" id="SVGID_3_" gradientTransform="matrix(.708 -.707 .707 .708 -106.038 255.805)" gradientUnits="userSpaceOnUse" x1="230.842" x2="-484.353" y1="238.33" y2="238.33"><stop offset="0" stop-color="#fff200"></stop><stop offset="1" stop-color="#ffb11d"></stop></linearGradient><linearGradient xmlns="http://www.w3.org/2000/svg" id="SVGID_4_" gradientTransform="matrix(.708 -.707 .707 .708 -106.038 255.805)" gradientUnits="userSpaceOnUse" x1="-36.984" x2="415.84" y1="289.021" y2="289.021"><stop offset="0" stop-color="#ffb11d"></stop><stop offset=".2603" stop-color="#ffc315"></stop><stop offset="1" stop-color="#fff200"></stop></linearGradient><linearGradient xmlns="http://www.w3.org/2000/svg" id="SVGID_5_" gradientTransform="matrix(.708 -.707 .707 .708 -106.038 255.805)" gradientUnits="userSpaceOnUse" x1="-164.486" x2="292.603" y1="274.723" y2="274.723"><stop offset=".0263" stop-color="#ffb11d"></stop><stop offset=".2798" stop-color="#ffc315"></stop><stop offset="1" stop-color="#fff200"></stop></linearGradient><linearGradient xmlns="http://www.w3.org/2000/svg" id="SVGID_6_" gradientTransform="matrix(1 .001 -.001 1 .138 -.138)" gradientUnits="userSpaceOnUse" x1="240.03" x2="92.742" y1="271.968" y2="419.257"><stop offset="0" stop-color="#ff4d5e" stop-opacity=".4"></stop><stop offset=".0533" stop-color="#ff684f" stop-opacity=".379"></stop><stop offset=".1382" stop-color="#ff8d3a" stop-opacity=".345"></stop><stop offset=".2305" stop-color="#ffac28" stop-opacity=".308"></stop><stop offset=".3304" stop-color="#ffc619" stop-opacity=".268"></stop><stop offset=".4407" stop-color="#ffda0e" stop-opacity=".224"></stop><stop offset=".567" stop-color="#ffe706" stop-opacity=".173"></stop><stop offset=".7234" stop-color="#fff001" stop-opacity=".111"></stop><stop offset="1" stop-color="#fff200" stop-opacity="0"></stop></linearGradient><linearGradient xmlns="http://www.w3.org/2000/svg" id="SVGID_7_" gradientTransform="matrix(-.707 -.708 .708 -.707 255.805 618.039)" gradientUnits="userSpaceOnUse" x1="256" x2="256" y1="288.049" y2="66.303"><stop offset="0" stop-color="#fff200"></stop><stop offset="1" stop-color="#ff4d5e"></stop></linearGradient><linearGradient xmlns="http://www.w3.org/2000/svg" id="SVGID_8_" gradientTransform="matrix(.708 -.707 .707 .708 -106.038 255.805)" gradientUnits="userSpaceOnUse" x1="-206.441" x2="424.041" xmlns:xlink="http://www.w3.org/1999/xlink" xlink:href="#lg1" y1="256" y2="256"></linearGradient><radialGradient xmlns="http://www.w3.org/2000/svg" id="SVGID_9_" cx="49.748" cy="254.453" gradientTransform="matrix(.708 -.707 .707 .708 -106.038 255.805)" gradientUnits="userSpaceOnUse" r="97.998"><stop offset="0" stop-color="#fff200" stop-opacity="0"></stop><stop offset="1" stop-color="#ff4d5e" stop-opacity=".6"></stop></radialGradient><linearGradient xmlns="http://www.w3.org/2000/svg" id="lg2"><stop offset="0" stop-color="#fffa78"></stop><stop offset=".458" stop-color="#fffcb4"></stop><stop offset="1" stop-color="#fff"></stop></linearGradient><linearGradient xmlns="http://www.w3.org/2000/svg" id="SVGID_10_" gradientTransform="matrix(.708 -.707 .707 .708 -106.038 255.805)" gradientUnits="userSpaceOnUse" x1="86.646" x2="306.602" xmlns:xlink="http://www.w3.org/1999/xlink" xlink:href="#lg2" y1="277.377" y2="277.377"></linearGradient><linearGradient xmlns="http://www.w3.org/2000/svg" id="SVGID_11_" gradientTransform="matrix(.708 -.707 .707 .708 -106.038 255.805)" gradientUnits="userSpaceOnUse" x1="-267.881" x2="224.377" xmlns:xlink="http://www.w3.org/1999/xlink" xlink:href="#lg2" y1="240.646" y2="240.646"></linearGradient><linearGradient xmlns="http://www.w3.org/2000/svg" id="lg3"><stop offset="0" stop-color="#fff"></stop><stop offset=".542" stop-color="#fffcb4"></stop><stop offset="1" stop-color="#fffa78"></stop></linearGradient><linearGradient xmlns="http://www.w3.org/2000/svg" id="SVGID_12_" gradientTransform="matrix(-.707 -.708 .708 -.707 255.805 618.039)" gradientUnits="userSpaceOnUse" x1="219.236" x2="219.236" xmlns:xlink="http://www.w3.org/1999/xlink" xlink:href="#lg3" y1="723.565" y2="165.675"></linearGradient><linearGradient xmlns="http://www.w3.org/2000/svg" id="SVGID_13_" gradientTransform="matrix(-.707 -.708 .708 -.707 255.805 618.039)" gradientUnits="userSpaceOnUse" x1="282.011" x2="282.011" xmlns:xlink="http://www.w3.org/1999/xlink" xlink:href="#lg3" y1="409.005" y2="-18.682"></linearGradient><linearGradient xmlns="http://www.w3.org/2000/svg" id="lg4"><stop offset="0" stop-color="#fff200"></stop><stop offset="1" stop-color="#ff3838"></stop></linearGradient><linearGradient xmlns="http://www.w3.org/2000/svg" id="SVGID_14_" gradientTransform="matrix(-.707 -.708 .708 -.707 255.805 618.039)" gradientUnits="userSpaceOnUse" x1="219.237" x2="219.237" xmlns:xlink="http://www.w3.org/1999/xlink" xlink:href="#lg4" y1="1251.501" y2="227.036"></linearGradient><linearGradient xmlns="http://www.w3.org/2000/svg" id="SVGID_15_" gradientTransform="matrix(-.707 -.708 .708 -.707 255.805 618.039)" gradientUnits="userSpaceOnUse" x1="282.011" x2="282.011" xmlns:xlink="http://www.w3.org/1999/xlink" xlink:href="#lg4" y1="1037.854" y2="118.396"></linearGradient><g xmlns="http://www.w3.org/2000/svg"><circle cx="256" cy="256" fill="url(#SVGID_1_)" r="256" data-original="url(#SVGID_1_)"></circle><circle cx="256" cy="256" fill="url(#SVGID_2_)" r="256" data-original="url(#SVGID_2_)"></circle><path d="m177.032 274.474c-17.127 6.629-34.08 13.146-50.756 19.491-4.55 1.73-7.972 5.792-9.18 10.879-3.994 17.007-14.011 58.261-22.836 94.792-1.33 5.517.357 10.706 3.794 14.144 46.948-32.767 94.392-65.492 141.515-97.967-21.186-13.468-42.122-27.162-62.537-41.339z" fill="url(#SVGID_3_)" data-original="url(#SVGID_3_)"></path><path d="m158.335 406.486c-.031-.005 38.738-9.313 48.66-11.627 5.088-1.202 9.154-4.622 10.89-9.17 6.366-16.671 12.904-33.619 19.553-50.74-6.732-13.39-13.28-26.987-19.731-40.697-19.942 19.921-39.885 39.842-59.826 59.763-.067 17.814.033 35.368.454 52.471z" fill="url(#SVGID_4_)" data-original="url(#SVGID_4_)"></path><path d="m112.191 417.593c15.333-3.674 31.392-7.554 46.144-11.107 14.772-14.623 14.209-37.721-.455-52.471-19.942 19.921-39.884 39.843-59.826 59.765 3.433 3.442 8.62 5.137 14.137 3.813z" fill="url(#SVGID_5_)" data-original="url(#SVGID_5_)"></path><path d="m217.706 294.252c-13.703-6.466-27.292-13.03-40.674-19.778-17.127 6.629-34.08 13.146-50.756 19.491-4.549 1.731-7.972 5.792-9.18 10.879-3.995 17.008-14.011 58.262-22.836 94.792-1.329 5.516.357 10.706 3.794 14.143 3.431 3.443 8.62 5.136 14.137 3.813 15.333-3.674 31.392-7.554 46.144-11.107-.031-.004 38.738-9.313 48.66-11.627 5.087-1.203 9.154-4.622 10.889-9.17 6.366-16.671 12.904-33.619 19.553-50.74-6.731-13.388-13.279-26.985-19.731-40.696z" fill="url(#SVGID_6_)" data-original="url(#SVGID_6_)"></path><path d="m163.287 359.377c3.629-3.617 7.257-7.235 10.885-10.853 3.007-2.996 3.004-7.825.023-10.809-2.982-2.983-7.808-2.991-10.807.011-3.622 3.624-7.243 7.249-10.864 10.874 3.554 3.628 7.141 7.22 10.763 10.777z" fill="url(#SVGID_7_)" data-original="url(#SVGID_7_)"></path><path d="m141.564 370.314c2.96 2.964 7.83 2.91 10.837-.086l10.887-10.851c3.007-2.996 3.006-7.816.031-10.795-2.976-2.979-7.795-2.985-10.794.019-3.621 3.625-7.242 7.25-10.862 10.875-2.997 3.002-3.061 7.874-.099 10.838z" fill="url(#SVGID_8_)" data-original="url(#SVGID_8_)"></path><path d="m141.564 370.314c2.96 2.964 7.83 2.91 10.837-.086 7.258-7.234 14.515-14.468 21.772-21.704 3.007-2.996 3.004-7.825.023-10.809-2.982-2.983-7.808-2.991-10.807.011-7.243 7.249-14.485 14.498-21.726 21.749-2.997 3.003-3.061 7.875-.099 10.839z" fill="url(#SVGID_9_)" data-original="url(#SVGID_9_)"></path><path d="m215.384 313.619c7.281 7.18 14.632 14.29 22.054 21.331 6.154 5.823 16.01 5.726 21.934-.154 5.926-5.883 5.77-15.426-.309-21.349-6.705-20.685-13.129-41.694-19.583-62.675-8.024 20.957-16.093 41.968-24.096 62.847z" fill="url(#SVGID_10_)" data-original="url(#SVGID_10_)"></path><path d="m177.209 252.54c-5.885 5.918-5.994 15.773-.177 21.934 12.561 13.271 25.346 26.319 38.352 39.144 6.034 5.945 15.841 5.873 21.833-.093 5.992-5.968 5.94-15.628-.079-21.61.758-13.681 1.56-27.423 2.341-41.144-13.705.753-27.374 1.476-40.922 2.102-5.915-6.084-15.461-6.252-21.348-.333z" fill="url(#SVGID_11_)" data-original="url(#SVGID_11_)"></path><path d="m237.139 291.915c7.269 7.216 14.577 14.393 21.924 21.531 21.004-8.187 41.882-16.255 62.452-24.095 5.525-2.106 10.511-5.34 14.681-9.53-2.745-31.986-5.007-64.435-7.75-96.189-30.454 36.087-60.884 72.231-91.307 108.283z" fill="url(#SVGID_12_)" data-original="url(#SVGID_12_)"></path><path d="m222.719 190.45c-7.863 20.56-15.953 41.428-24.161 62.423 12.737 13.138 25.597 26.152 38.582 39.041 16.606-12.638 33.2-25.266 49.758-37.882 4.418-3.414 8.903-7.385 13.178-11.662 9.434-19.582 18.912-39.202 28.371-58.74-31.75-2.778-64.196-5.074-96.181-7.851-4.196 4.166-7.435 9.15-9.547 14.671z" fill="url(#SVGID_13_)" data-original="url(#SVGID_13_)"></path><path d="m328.447 183.631c-9.459 19.538-18.936 39.158-28.371 58.74 12.158 12.365 24.198 24.849 36.121 37.449 2.825-2.839 5.241-6.082 7.186-9.644 24.325-44.537 49.401-90.035 74.704-135.327 6.72-12.05 5.276-27.219-4.14-36.629-28.5 28.471-57 56.941-85.5 85.411z" fill="url(#SVGID_14_)" data-original="url(#SVGID_14_)"></path><path d="m300.076 242.371c2.895-2.898 5.66-5.902 8.211-8.924 31.913-37.799 63.869-75.702 95.889-113.543 8.513-10.065 12.523-18.929 9.77-21.684-9.394-9.43-24.558-10.891-36.615-4.184-45.318 25.257-90.847 50.29-135.413 74.569-3.564 1.941-6.81 4.354-9.652 7.176 22.996 21.803 45.599 44 67.81 66.59z" fill="url(#SVGID_15_)" data-original="url(#SVGID_15_)"></path></g></g></svg>