<svg xmlns="http://www.w3.org/2000/svg" xmlns:svgjs="http://svgjs.com/svgjs" xmlns:xlink="http://www.w3.org/1999/xlink" style="enable-background:new 0 0 512 512" width="512" height="512" x="0" y="0" version="1.1" viewBox="0 0 512 512" xml:space="preserve"><g><linearGradient xmlns="http://www.w3.org/2000/svg" id="SVGID_1_" x1="74.98" x2="437.019" y1="437.019" y2="74.98" gradientUnits="userSpaceOnUse"><stop offset="0" stop-color="#008547"/><stop offset="1" stop-color="#d3ff33"/></linearGradient><radialGradient xmlns="http://www.w3.org/2000/svg" id="SVGID_00000008129555885346247430000015837033204505281442_" cx="256" cy="256" r="256" gradientUnits="userSpaceOnUse"><stop offset="0" stop-color="#008547" stop-opacity=".8"/><stop offset="1" stop-color="#d3ff33" stop-opacity="0"/></radialGradient><linearGradient xmlns="http://www.w3.org/2000/svg" id="lg1"><stop offset="0" stop-color="#ddff59"/><stop offset="1" stop-color="#fff"/></linearGradient><linearGradient xmlns="http://www.w3.org/2000/svg" xmlns:xlink="http://www.w3.org/1999/xlink" id="SVGID_00000021824909922324762620000009634678151518141568_" x1="-442.549" x2="408.391" y1="954.55" y2="103.61" gradientUnits="userSpaceOnUse" xlink:href="#lg1"/><linearGradient xmlns="http://www.w3.org/2000/svg" id="lg2"><stop offset="0" stop-color="#00aa45"/><stop offset=".754" stop-color="#d3ff33"/><stop offset="1" stop-color="#f9fcca"/></linearGradient><linearGradient xmlns="http://www.w3.org/2000/svg" xmlns:xlink="http://www.w3.org/1999/xlink" id="SVGID_00000053536121814667837240000011876093817859478457_" x1="-379.848" x2="597.458" y1="891.848" y2="-85.458" gradientUnits="userSpaceOnUse" xlink:href="#lg2"/><linearGradient xmlns="http://www.w3.org/2000/svg" id="SVGID_00000096057546136995575120000006775528485317863869_" x1="-119.971" x2="656.856" y1="631.971" y2="-144.856" gradientUnits="userSpaceOnUse"><stop offset="0" stop-color="#006946"/><stop offset=".251" stop-color="#008547"/><stop offset=".342" stop-color="#128f45"/><stop offset=".524" stop-color="#41aa41"/><stop offset=".779" stop-color="#8cd63a"/><stop offset="1" stop-color="#d3ff33"/></linearGradient><linearGradient xmlns="http://www.w3.org/2000/svg" xmlns:xlink="http://www.w3.org/1999/xlink" id="SVGID_00000034059941998256571540000011503203906255109763_" x1="-215.307" x2="359.851" y1="727.307" y2="152.149" gradientUnits="userSpaceOnUse" xlink:href="#lg1"/><linearGradient xmlns="http://www.w3.org/2000/svg" xmlns:xlink="http://www.w3.org/1999/xlink" id="SVGID_00000120545618415895358830000013223207223440097955_" x1="142.621" x2="298.336" y1="369.853" y2="214.139" gradientUnits="userSpaceOnUse" xlink:href="#lg1"/><linearGradient xmlns="http://www.w3.org/2000/svg" id="lg3"><stop offset="0" stop-color="#006946"/><stop offset=".251" stop-color="#008547"/><stop offset=".342" stop-color="#128f45"/><stop offset=".523" stop-color="#41aa41"/><stop offset=".777" stop-color="#8cd63a"/><stop offset=".998" stop-color="#d3ff33"/></linearGradient><linearGradient xmlns="http://www.w3.org/2000/svg" xmlns:xlink="http://www.w3.org/1999/xlink" id="SVGID_00000013877051422245747960000009004952585299446694_" x1="47.475" x2="548.008" y1="464.525" y2="-36.008" gradientUnits="userSpaceOnUse" xlink:href="#lg3"/><linearGradient xmlns="http://www.w3.org/2000/svg" xmlns:xlink="http://www.w3.org/1999/xlink" id="SVGID_00000148650852286485350250000014344957713320777660_" x1="-129.024" x2="456.054" y1="678.483" y2="93.404" gradientUnits="userSpaceOnUse" xlink:href="#lg2"/><linearGradient xmlns="http://www.w3.org/2000/svg" xmlns:xlink="http://www.w3.org/1999/xlink" id="SVGID_00000023997695068382173750000001592292097939857581_" x1="6.308" x2="574.926" y1="470.493" y2="-98.124" gradientUnits="userSpaceOnUse" xlink:href="#lg3"/><linearGradient xmlns="http://www.w3.org/2000/svg" xmlns:xlink="http://www.w3.org/1999/xlink" id="SVGID_00000011710225616831478180000004647068875840732033_" x1="9.383" x2="577.986" y1="473.555" y2="-95.048" gradientTransform="matrix(-.707 -.707 .707 -.707 256 618.039)" gradientUnits="userSpaceOnUse" xlink:href="#lg3"/><linearGradient xmlns="http://www.w3.org/2000/svg" id="SVGID_00000129884203202395076760000018356481640205361324_" x1="-186.793" x2="812.536" y1="698.793" y2="-300.536" gradientUnits="userSpaceOnUse"><stop offset="0" stop-color="#00aa45"/><stop offset=".694" stop-color="#d3ff33"/><stop offset="1" stop-color="#f9fcca"/></linearGradient><linearGradient xmlns="http://www.w3.org/2000/svg" xmlns:xlink="http://www.w3.org/1999/xlink" id="SVGID_00000160908232684932399300000017029336934933831078_" x1="110.714" x2="300.683" y1="401.286" y2="211.317" gradientUnits="userSpaceOnUse" xlink:href="#lg2"/><g xmlns="http://www.w3.org/2000/svg"><path fill="url(#SVGID_1_)" d="m512 256c0 141.385-114.615 256-256 256s-256-114.615-256-256 114.615-256 256-256 256 114.615 256 256z" data-original="url(#SVGID_1_)"/><path fill="url(#SVGID_00000008129555885346247430000015837033204505281442_)" d="m512 256c0 141.385-114.615 256-256 256s-256-114.615-256-256 114.615-256 256-256 256 114.615 256 256z" data-original="url(#SVGID_00000008129555885346247430000015837033204505281442_)"/><path fill="url(#SVGID_00000021824909922324762620000009634678151518141568_)" d="m462.782 233.871c-.36-3.085-2.64-5.657-5.716-6.474-5.661-1.503-11.323-3.011-16.984-4.522-14.782-3.94-26.787-14.555-32.751-28.558-.062-.144-.121-.287-.184-.431-6.024-14.026-5.397-29.903 2.001-42.834 2.825-4.936 5.638-9.863 8.438-14.779 1.526-2.68 1.18-6.088-.858-8.584-4.783-5.858-9.912-11.546-15.39-17.025-5.48-5.479-11.167-10.607-17.025-15.39-2.496-2.036-5.904-2.384-8.584-.858-4.917 2.8-9.844 5.613-14.779 8.437-12.932 7.399-28.808 8.026-42.834 2.001-.143-.061-.287-.123-.43-.184-14.004-5.965-24.619-17.968-28.558-32.752-1.511-5.661-3.018-11.322-4.521-16.984-.817-3.077-3.388-5.355-6.474-5.716-7.273-.85-14.653-1.293-22.13-1.293s-14.857.445-22.13 1.293c-3.085.361-5.656 2.64-6.474 5.716-1.503 5.661-3.011 11.323-4.522 16.984-3.94 14.783-14.555 26.787-28.558 32.751-.144.061-.287.122-.431.184-14.026 6.024-29.902 5.398-42.834-2.002-4.936-2.825-9.863-5.638-14.779-8.437-2.68-1.526-6.088-1.181-8.584.858-5.858 4.782-11.546 9.912-17.025 15.39-5.479 5.479-10.607 11.167-15.39 17.025-2.038 2.496-2.384 5.904-.858 8.584 2.8 4.917 5.613 9.843 8.437 14.779 7.399 12.932 8.026 28.809 2.001 42.834-.062.143-.123.288-.184.43-5.964 14.003-17.969 24.618-32.752 28.559-5.661 1.511-11.322 3.018-16.984 4.521-3.076.818-5.356 3.388-5.716 6.474-.85 7.273-1.293 14.653-1.293 22.13s.443 14.857 1.293 22.13c.361 3.086 2.64 5.656 5.716 6.474 5.661 1.503 11.323 3.011 16.984 4.522 14.782 3.939 26.787 14.555 32.751 28.558.061.143.122.288.184.431 6.024 14.026 5.397 29.902-2.002 42.834-2.825 4.936-5.638 9.863-8.437 14.779-1.526 2.679-1.18 6.089.858 8.584 4.783 5.859 9.912 11.546 15.39 17.025 5.479 5.479 11.167 10.607 17.025 15.39 2.495 2.037 5.905 2.384 8.584.858 4.917-2.8 9.844-5.613 14.78-8.437 12.932-7.398 28.808-8.025 42.834-2.001.144.062.286.123.431.184 14.004 5.964 24.619 17.969 28.558 32.751 1.511 5.661 3.018 11.322 4.521 16.984.818 3.076 3.388 5.356 6.474 5.716 7.273.85 14.654 1.293 22.13 1.294 7.477 0 14.857-.444 22.129-1.293 3.085-.36 5.657-2.64 6.474-5.716 1.503-5.661 3.011-11.323 4.522-16.984 3.94-14.783 14.555-26.787 28.558-32.751.144-.061.287-.123.43-.184 14.026-6.024 29.902-5.398 42.834 2.002 4.936 2.825 9.863 5.638 14.779 8.438 2.679 1.527 6.089 1.18 8.584-.858 5.858-4.783 11.546-9.911 17.025-15.39s10.607-11.167 15.39-17.025c2.038-2.495 2.385-5.904.858-8.584-2.8-4.917-5.613-9.843-8.437-14.779-7.399-12.932-8.026-28.809-2.001-42.834.061-.143.123-.287.184-.43 5.964-14.004 17.969-24.619 32.751-28.558 5.661-1.511 11.322-3.018 16.984-4.521 3.077-.817 5.356-3.389 5.716-6.474.85-7.273 1.293-14.653 1.293-22.13.001-7.48-.443-14.859-1.292-22.132z" data-original="url(#SVGID_00000021824909922324762620000009634678151518141568_)"/><path fill="url(#SVGID_00000053536121814667837240000011876093817859478457_)" d="m256 107.375c-80.626.212-148.413 67.999-148.625 148.625.212 80.626 67.999 148.413 148.625 148.625 80.626-.212 148.413-67.999 148.625-148.625-.211-80.627-67.999-148.413-148.625-148.625z" data-original="url(#SVGID_00000053536121814667837240000011876093817859478457_)"/><path fill="url(#SVGID_00000096057546136995575120000006775528485317863869_)" d="m256 138.125c-64.374.106-117.77 53.501-117.875 117.875.106 64.374 53.501 117.77 117.875 117.875 64.373-.105 117.769-53.501 117.875-117.875-.106-64.374-53.501-117.769-117.875-117.875z" data-original="url(#SVGID_00000096057546136995575120000006775528485317863869_)"/><path fill="url(#SVGID_00000034059941998256571540000011503203906255109763_)" d="m256 168.875c-47.824.042-87.082 39.3-87.125 87.125.043 47.824 39.301 87.082 87.125 87.125 47.824-.043 87.082-39.301 87.125-87.125-.042-47.825-39.3-87.083-87.125-87.125z" data-original="url(#SVGID_00000034059941998256571540000011503203906255109763_)"/><path fill="url(#SVGID_00000120545618415895358830000013223207223440097955_)" d="m271.348 312.368c-47.973.016-87.162-39.122-87.059-87.028.02-7.856 1.11-15.465 3.098-22.714-11.562 14.782-18.512 33.282-18.511 53.375.043 47.824 39.301 87.082 87.125 87.125 40.015-.009 73.949-27.535 84.076-64.449-15.994 20.394-40.855 33.664-68.729 33.691z" data-original="url(#SVGID_00000120545618415895358830000013223207223440097955_)"/><path fill="url(#SVGID_00000013877051422245747960000009004952585299446694_)" d="m206.692 283.548c-.468.467-.935.934-1.403 1.401-5.992 5.985-5.965 15.698.05 21.712 6.014 6.014 15.727 6.042 21.712.05 1.391-1.392 2.782-2.784 4.173-4.177-.015-13.097-10.101-18.965-24.532-18.986z" data-original="url(#SVGID_00000013877051422245747960000009004952585299446694_)"/><path fill="url(#SVGID_00000148650852286485350250000014344957713320777660_)" d="m320.06 248.33c-18.791-.01-37.582-.016-56.373-.018v15.374c18.791-.001 37.582-.007 56.373-.018 4.243-.002 7.69-3.439 7.69-7.67 0-4.229-3.446-7.665-7.69-7.668z" data-original="url(#SVGID_00000148650852286485350250000014344957713320777660_)"/><path fill="url(#SVGID_00000023997695068382173750000001592292097939857581_)" d="m256 184.25c8.464 0 15.337 6.893 15.348 15.382.016 16.227.025 32.454.027 48.681-10.25-.001-20.499-.001-30.749 0 .002-16.227.011-32.454.027-48.681.01-8.489 6.882-15.381 15.347-15.382z" data-original="url(#SVGID_00000023997695068382173750000001592292097939857581_)"/><path fill="url(#SVGID_00000011710225616831478180000004647068875840732033_)" d="m231.224 302.534c10.055-10.064 20.131-20.145 30.211-30.226-7.246-7.247-14.495-14.496-21.742-21.742-11.008 11.007-22.015 22.008-33.001 32.983 6.952 7.696 15.262 14.143 24.532 18.985z" data-original="url(#SVGID_00000011710225616831478180000004647068875840732033_)"/><path fill="url(#SVGID_00000129884203202395076760000018356481640205361324_)" d="m279.062 256c0 12.731-10.331 23.061-23.062 23.062-12.731-.001-23.062-10.331-23.062-23.062.001-12.731 10.331-23.062 23.062-23.062 12.731.001 23.062 10.33 23.062 23.062z" data-original="url(#SVGID_00000129884203202395076760000018356481640205361324_)"/><path fill="url(#SVGID_00000160908232684932399300000017029336934933831078_)" d="m263.687 256c0 4.246-3.442 7.687-7.687 7.688-4.246 0-7.688-3.442-7.687-7.688.001-4.245 3.443-7.688 7.687-7.687 4.245 0 7.687 3.441 7.687 7.687z" data-original="url(#SVGID_00000160908232684932399300000017029336934933831078_)"/></g></g></svg>