<svg xmlns="http://www.w3.org/2000/svg" xmlns:svgjs="http://svgjs.com/svgjs" xmlns:xlink="http://www.w3.org/1999/xlink" style="enable-background:new 0 0 512 512" width="512" height="512" x="0" y="0" version="1.1" viewBox="0 0 512 512" xml:space="preserve"><g><linearGradient xmlns="http://www.w3.org/2000/svg" id="SVGID_1_" x1="74.98" x2="437.019" y1="437.019" y2="74.981" gradientUnits="userSpaceOnUse"><stop offset="0" stop-color="#ff4d5e"/><stop offset="1" stop-color="#fff200"/></linearGradient><radialGradient xmlns="http://www.w3.org/2000/svg" id="SVGID_2_" cx="201.239" cy="310.76" r="341.263" gradientUnits="userSpaceOnUse"><stop offset="0" stop-color="#ff4d5e" stop-opacity=".4"/><stop offset=".033" stop-color="#ff5c55" stop-opacity=".387"/><stop offset=".134" stop-color="#ff843f" stop-opacity=".347"/><stop offset=".241" stop-color="#ffa62b" stop-opacity=".304"/><stop offset=".354" stop-color="#ffc21c" stop-opacity=".258"/><stop offset=".476" stop-color="#ffd70f" stop-opacity=".21"/><stop offset=".611" stop-color="#ffe607" stop-opacity=".156"/><stop offset=".768" stop-color="#ffef02" stop-opacity=".093"/><stop offset="1" stop-color="#fff200" stop-opacity="0"/></radialGradient><linearGradient xmlns="http://www.w3.org/2000/svg" id="SVGID_3_" x1="59.372" x2="571.433" y1="470.277" y2="-41.784" gradientUnits="userSpaceOnUse"><stop offset="0" stop-color="#ffcb00"/><stop offset=".5" stop-color="#fff200"/><stop offset=".605" stop-color="#fff52f"/><stop offset=".879" stop-color="#fefca6"/><stop offset="1" stop-color="#feffd6"/></linearGradient><linearGradient xmlns="http://www.w3.org/2000/svg" id="lg1"><stop offset="0" stop-color="#ff2f2b"/><stop offset="1" stop-color="#fff200"/></linearGradient><linearGradient xmlns="http://www.w3.org/2000/svg" xmlns:xlink="http://www.w3.org/1999/xlink" id="SVGID_4_" x1="63.181" x2="621.598" y1="230.759" y2="-327.659" gradientUnits="userSpaceOnUse" xlink:href="#lg1"/><linearGradient xmlns="http://www.w3.org/2000/svg" xmlns:xlink="http://www.w3.org/1999/xlink" id="SVGID_5_" x1="41.019" x2="622.503" y1="331.114" y2="-250.37" gradientUnits="userSpaceOnUse" xlink:href="#lg1"/><linearGradient xmlns="http://www.w3.org/2000/svg" id="lg2"><stop offset="0" stop-color="#fffa78"/><stop offset=".458" stop-color="#fffcb4"/><stop offset="1" stop-color="#fff"/></linearGradient><linearGradient xmlns="http://www.w3.org/2000/svg" xmlns:xlink="http://www.w3.org/1999/xlink" id="SVGID_6_" x1="-141.781" x2="424.101" y1="871.841" y2="305.959" gradientUnits="userSpaceOnUse" xlink:href="#lg2"/><linearGradient xmlns="http://www.w3.org/2000/svg" xmlns:xlink="http://www.w3.org/1999/xlink" id="SVGID_7_" x1="37.263" x2="512.919" y1="614.605" y2="138.949" gradientUnits="userSpaceOnUse" xlink:href="#lg2"/><g xmlns="http://www.w3.org/2000/svg"><circle cx="256" cy="256" r="256" fill="url(#SVGID_1_)" data-original="url(#SVGID_1_)"/><circle cx="256" cy="256" r="256" fill="url(#SVGID_2_)" data-original="url(#SVGID_2_)"/><path fill="url(#SVGID_3_)" d="m256 256c-28.529-20.402-57.058-40.803-85.321-60.833-28.618 20.526-57.325 40.929-85.854 60.833 0 41.14.76 82.28 2.28 123.42.938 24.007 21.469 44.536 45.474 45.475 8.672.326 14.782-6.698 14.555-14.696-.064-2.19-.61-4.458-1.718-6.668-2.021-4.03-4.042-8.057-6.065-12.081-6.872-13.619 2.566-28.974 17.572-28.722 9.542.173 19.084.32 28.626.443 15.003.179 24.927 16.051 18.598 29.564-1.865 3.985-3.723 7.968-5.573 11.946-4.689 10.098 2.801 22.056 13.844 22.209 14.527.19 29.053.284 43.58.284 39.904-28.529 80.807-57.774 121.958-86.66-40.152-27.456-81.054-55.985-121.956-84.514z" data-original="url(#SVGID_3_)"/><path fill="url(#SVGID_4_)" d="m132.58 87.105c-24.005.939-44.537 21.469-45.474 45.475-1.52 41.14-2.28 82.28-2.28 123.42h44.669c10.25-56.298 21.529-112.966 33.086-169.869-10.001.28-20.001.605-30.001.974z" data-original="url(#SVGID_4_)"/><path fill="url(#SVGID_5_)" d="m222.277 137.615c3.958 1.915 7.921 3.836 11.889 5.763 10.09 4.892 21.846-2.544 21.834-13.884 0-9.765 0-19.53 0-29.294-.007-8.489-6.723-15.381-15-15.341-26.14.117-52.28.542-78.42 1.273-24.005.711-44.355 21.229-45.134 45.44-1.107 36.818-1.723 73.635-1.847 110.453-.026 7.577 6.118 14.003 13.826 13.976 11.375-.059 18.857 11.723 13.953 21.835-1.927 3.968-3.848 7.93-5.763 11.888-6.483 13.388 3.611 29.113 18.682 29.297 9.603.102 19.205.189 28.808.262 15.067.124 24.879-15.636 18.272-29.239-1.954-4.015-3.907-8.027-5.859-12.038-4.964-10.185 2.476-22 13.814-22.006h44.67c0-14.89 0-29.779 0-44.669-.006-11.341-11.82-18.777-22.005-13.815-4.011 1.952-8.023 3.905-12.038 5.86-13.605 6.605-29.361-3.207-29.239-18.272.073-9.603.16-19.205.262-28.808.181-15.068 15.908-25.165 29.295-18.681z" data-original="url(#SVGID_5_)"/><path fill="url(#SVGID_6_)" d="m382.506 256c-10.25 56.298-21.529 112.966-33.086 169.869 10-.28 20-.604 30-.974 24.004-.938 44.537-21.472 45.475-45.475 1.335-36.14 2.084-72.28 2.247-108.42.038-8.278-6.85-14.993-15.341-15-9.766 0-19.53 0-29.295 0z" data-original="url(#SVGID_6_)"/><path fill="url(#SVGID_7_)" d="m394.554 380.429c1.11-36.913 1.726-73.825 1.848-110.738.025-7.556-6.21-13.687-13.896-13.69-11.339.012-18.776-11.747-13.884-21.835 1.927-3.968 3.848-7.93 5.763-11.888 6.483-13.387-3.611-29.114-18.682-29.297-9.603-.102-19.205-.189-28.808-.262-15.067-.123-24.877 15.635-18.272 29.239 1.954 4.015 3.907 8.027 5.859 12.038 4.964 10.185-2.476 22-13.814 22.006-14.89 0-29.78 0-44.669 0v44.67c.005 11.339 11.82 18.778 22.005 13.814 4.011-1.952 8.024-3.906 12.039-5.86 13.604-6.606 29.361 3.205 29.239 18.272-.073 9.603-.16 19.205-.262 28.808-.183 15.07-15.911 25.165-29.297 18.681-3.958-1.915-7.921-3.836-11.888-5.763-10.089-4.892-21.847 2.543-21.835 13.884v44.669c31.14 0 62.28-.436 93.42-1.307 24.006-.712 44.356-21.23 45.134-45.441z" data-original="url(#SVGID_7_)"/></g></g></svg>