<svg xmlns="http://www.w3.org/2000/svg" version="1.1" xmlns:xlink="http://www.w3.org/1999/xlink" xmlns:svgjs="http://svgjs.com/svgjs" width="512" height="512" x="0" y="0" viewBox="0 0 512 512" style="enable-background:new 0 0 512 512" xml:space="preserve" class=""><g><linearGradient xmlns="http://www.w3.org/2000/svg" id="lg1"><stop offset="0" stop-color="#364aff"></stop><stop offset="1" stop-color="#fc54ff"></stop></linearGradient><linearGradient xmlns="http://www.w3.org/2000/svg" id="SVGID_1_" gradientUnits="userSpaceOnUse" x1="74.981" x2="437.019" xmlns:xlink="http://www.w3.org/1999/xlink" xlink:href="#lg1" y1="437.019" y2="74.981"></linearGradient><radialGradient xmlns="http://www.w3.org/2000/svg" id="SVGID_2_" cx="256" cy="256" gradientUnits="userSpaceOnUse" r="258.6"><stop offset=".095" stop-color="#8d00db" stop-opacity=".66"></stop><stop offset=".2822" stop-color="#9f0de1" stop-opacity=".523"></stop><stop offset=".6541" stop-color="#cc30f0" stop-opacity=".252"></stop><stop offset="1" stop-color="#fc54ff" stop-opacity="0"></stop></radialGradient><linearGradient xmlns="http://www.w3.org/2000/svg" id="lg2"><stop offset="0" stop-color="#fda0ff"></stop><stop offset="1" stop-color="#fff"></stop></linearGradient><linearGradient xmlns="http://www.w3.org/2000/svg" id="SVGID_3_" gradientUnits="userSpaceOnUse" x1="64.999" x2="312.235" xmlns:xlink="http://www.w3.org/1999/xlink" xlink:href="#lg2" y1="321.846" y2="74.611"></linearGradient><linearGradient xmlns="http://www.w3.org/2000/svg" id="SVGID_4_" gradientUnits="userSpaceOnUse" x1="4.538" x2="449.805" xmlns:xlink="http://www.w3.org/1999/xlink" xlink:href="#lg2" y1="543.707" y2="98.439"></linearGradient><linearGradient xmlns="http://www.w3.org/2000/svg" id="SVGID_5_" gradientUnits="userSpaceOnUse" x1="-15.516" x2="447.953" xmlns:xlink="http://www.w3.org/1999/xlink" xlink:href="#lg2" y1="545.606" y2="82.137"></linearGradient><linearGradient xmlns="http://www.w3.org/2000/svg" id="lg3"><stop offset="0" stop-color="#b31de7"></stop><stop offset="1" stop-color="#fda0ff"></stop></linearGradient><linearGradient xmlns="http://www.w3.org/2000/svg" id="SVGID_6_" gradientUnits="userSpaceOnUse" x1="28.142" x2="248.934" xmlns:xlink="http://www.w3.org/1999/xlink" xlink:href="#lg3" y1="348.143" y2="127.352"></linearGradient><linearGradient xmlns="http://www.w3.org/2000/svg" id="SVGID_7_" gradientUnits="userSpaceOnUse" x1="26.392" x2="417.67" xmlns:xlink="http://www.w3.org/1999/xlink" xlink:href="#lg3" y1="537.087" y2="145.809"></linearGradient><linearGradient xmlns="http://www.w3.org/2000/svg" id="SVGID_8_" gradientUnits="userSpaceOnUse" x1="174.256" x2="395.909" xmlns:xlink="http://www.w3.org/1999/xlink" xlink:href="#lg3" y1="450.277" y2="228.625"></linearGradient><linearGradient xmlns="http://www.w3.org/2000/svg" id="SVGID_9_" gradientUnits="userSpaceOnUse" x1="-2.175" x2="317.497" xmlns:xlink="http://www.w3.org/1999/xlink" xlink:href="#lg3" y1="418.316" y2="98.645"></linearGradient><linearGradient xmlns="http://www.w3.org/2000/svg" id="SVGID_10_" gradientUnits="userSpaceOnUse" x1="-127.799" x2="319.302" xmlns:xlink="http://www.w3.org/1999/xlink" xlink:href="#lg3" y1="590.482" y2="143.38"></linearGradient><radialGradient xmlns="http://www.w3.org/2000/svg" id="SVGID_11_" cx="256" cy="264.063" gradientUnits="userSpaceOnUse" r="131.677"><stop offset=".2961" stop-color="#230be0"></stop><stop offset=".3757" stop-color="#3411e2" stop-opacity=".887"></stop><stop offset=".5326" stop-color="#5f1fe9" stop-opacity=".664"></stop><stop offset=".7518" stop-color="#a537f3" stop-opacity=".353"></stop><stop offset="1" stop-color="#fc54ff" stop-opacity="0"></stop></radialGradient><linearGradient xmlns="http://www.w3.org/2000/svg" id="SVGID_12_" gradientUnits="userSpaceOnUse" x1="179.83" x2="392.085" xmlns:xlink="http://www.w3.org/1999/xlink" xlink:href="#lg3" y1="339.815" y2="127.56"></linearGradient><linearGradient xmlns="http://www.w3.org/2000/svg" id="SVGID_13_" gradientUnits="userSpaceOnUse" x1="174.569" x2="455.285" xmlns:xlink="http://www.w3.org/1999/xlink" xlink:href="#lg2" y1="345.268" y2="64.552"></linearGradient><linearGradient xmlns="http://www.w3.org/2000/svg" id="SVGID_14_" gradientUnits="userSpaceOnUse" x1="161.322" x2="314.818" xmlns:xlink="http://www.w3.org/1999/xlink" xlink:href="#lg1" y1="358.588" y2="205.093"></linearGradient><linearGradient xmlns="http://www.w3.org/2000/svg" id="SVGID_15_" gradientUnits="userSpaceOnUse" x1="179.851" x2="339.251" xmlns:xlink="http://www.w3.org/1999/xlink" xlink:href="#lg1" y1="340.201" y2="180.802"></linearGradient><g xmlns="http://www.w3.org/2000/svg"><circle cx="256" cy="256" fill="url(#SVGID_1_)" r="256" data-original="url(#SVGID_1_)"></circle><circle cx="256" cy="256" fill="url(#SVGID_2_)" r="256" data-original="url(#SVGID_2_)"></circle><path d="m97.516 149.325c-16.81.362-30.982 14.133-31.408 30.675-.249 10-.436 20-.563 30 15.039 25.208 30.548 50.738 46.242 76.478-14.988 25.466-29.567 50.677-43.451 75.522.843 16.542 15.13 30.533 31.664 31.12 15 .511 30 .948 45 1.311-2.965-81.965-3.554-163.93-1.767-245.895-15.239.218-30.478.482-45.717.789z" fill="url(#SVGID_3_)" data-original="url(#SVGID_3_)"></path><path d="m256 147.725c-37.589 0-75.178.27-112.767.81-16.811.259-30.856 14.092-31.183 30.816-1.144 61.312-.581 122.624 1.688 183.935.646 16.724 14.726 30.727 31.262 31.144 89 2.156 178 1.719 267-1.311 16.534-.586 30.821-14.578 31.664-31.12-59.067-68.649-124.677-141.841-187.664-214.274z" fill="url(#SVGID_4_)" data-original="url(#SVGID_4_)"></path><path d="m414.484 149.325c-52.828-1.067-105.656-1.6-158.484-1.6v138.375c63.418-25.625 127.285-51.617 190.454-76.1-.126-10-.314-20-.563-30-.425-16.543-14.597-30.312-31.407-30.675z" fill="url(#SVGID_5_)" data-original="url(#SVGID_5_)"></path><path d="m65.546 210c-.641 50.667.289 101.333 2.79 152 15.134.488 30.268.917 45.403 1.287 14.186-25.233 28.973-50.757 44.075-76.461-15.582-25.892-31.073-51.647-46.19-77.155-15.36.094-30.719.204-46.078.329z" fill="url(#SVGID_6_)" data-original="url(#SVGID_6_)"></path><path d="m325.059 209.327c-71.145-.21-142.29-.095-213.435.344-.486 51.205.219 102.411 2.115 153.616 109.975 2.688 219.95 2.259 329.926-1.287 1.028-20.827 1.79-41.654 2.287-62.481-39.647-29.218-80.291-59.585-120.893-90.192z" fill="url(#SVGID_7_)" data-original="url(#SVGID_7_)"></path><path d="m294.34 209.256c34.64 49.783 89.057 84.07 151.611 90.263.712-29.84.88-59.679.502-89.519-50.704-.413-101.408-.661-152.113-.744z" fill="url(#SVGID_8_)" data-original="url(#SVGID_8_)"></path><path d="m215.037 86.408c-6.064.056-11.593 3.854-14.02 9.614-24.301 57.501-52.576 123.737-52.449 123.687 56.251-.174 112.502-.211 168.754-.112-20.56-44.363-41.371-88.932-61.322-133.371-13.654-.001-27.308.06-40.963.182z" fill="url(#SVGID_9_)" data-original="url(#SVGID_9_)"></path><path d="m310.984 96.024c-2.427-5.76-7.957-9.563-14.021-9.616-13.654-.122-27.309-.183-40.963-.183-.074 50.287 17.041 96.611 45.954 133.348 20.492.027 40.985.072 61.477.136-17.282-41.009-35.032-82.31-52.447-123.685z" fill="url(#SVGID_10_)" data-original="url(#SVGID_10_)"></path><path d="m256 132.35c-71.405.18-131.909 59.905-131.641 131.444.8 71.53 61.305 131.81 131.641 131.981 70.336-.171 130.841-60.451 131.641-131.981.268-71.54-60.236-131.264-131.641-131.444z" fill="url(#SVGID_11_)" data-original="url(#SVGID_11_)"></path><path d="m256 147.725c-63.37.124-116.508 52.705-116.275 116.128.6 63.415 53.738 116.429 116.275 116.547 62.537-.118 115.674-53.131 116.275-116.547.233-63.423-52.904-116.004-116.275-116.128z" fill="url(#SVGID_12_)" data-original="url(#SVGID_12_)"></path><path d="m256 178.475c-46.966.05-85.694 38.535-85.541 85.474.299 46.935 39.026 85.654 85.541 85.701 46.515-.046 85.243-38.765 85.541-85.701.153-46.939-38.575-85.424-85.541-85.474z" fill="url(#SVGID_13_)" data-original="url(#SVGID_13_)"></path><path d="m256 193.85c-38.631.028-70.286 31.54-70.174 70.136.192 38.593 31.848 70.263 70.174 70.289 38.327-.025 69.982-31.696 70.174-70.289.112-38.595-31.544-70.109-70.174-70.136z" fill="url(#SVGID_14_)" data-original="url(#SVGID_14_)"></path><path d="m271.314 303.515c-38.549.034-70.148-31.532-70.148-70.187.004-5.152.586-10.169 1.655-15.006-10.615 12.291-17.056 28.226-16.995 45.665.192 38.593 31.848 70.263 70.174 70.289 33.25-.007 61.386-23.85 68.481-55.299-12.946 14.946-31.983 24.511-53.167 24.538z" fill="url(#SVGID_15_)" data-original="url(#SVGID_15_)"></path></g></g></svg>