<svg xmlns="http://www.w3.org/2000/svg" version="1.1" xmlns:xlink="http://www.w3.org/1999/xlink" xmlns:svgjs="http://svgjs.com/svgjs" width="512" height="512" x="0" y="0" viewBox="0 0 512 512" style="enable-background:new 0 0 512 512" xml:space="preserve" class=""><g><linearGradient xmlns="http://www.w3.org/2000/svg" id="SVGID_1_" gradientUnits="userSpaceOnUse" x1="74.98" x2="437.018" y1="437.018" y2="74.98"><stop offset="0" stop-color="#00aa45"></stop><stop offset="1" stop-color="#d3ff33"></stop></linearGradient><radialGradient xmlns="http://www.w3.org/2000/svg" id="SVGID_2_" cx="256" cy="255.999" gradientUnits="userSpaceOnUse" r="256"><stop offset="0" stop-color="#00aa45"></stop><stop offset="1" stop-color="#e6fe7f" stop-opacity="0"></stop></radialGradient><linearGradient xmlns="http://www.w3.org/2000/svg" id="lg1"><stop offset="0" stop-color="#d3ff33"></stop><stop offset="1" stop-color="#fff"></stop></linearGradient><linearGradient xmlns="http://www.w3.org/2000/svg" id="SVGID_3_" gradientUnits="userSpaceOnUse" x1="-151.017" x2="275.015" xmlns:xlink="http://www.w3.org/1999/xlink" xlink:href="#lg1" y1="403.538" y2="-22.494"></linearGradient><linearGradient xmlns="http://www.w3.org/2000/svg" id="lg2"><stop offset="0" stop-color="#008547"></stop><stop offset=".1212" stop-color="#128f45"></stop><stop offset=".3647" stop-color="#41aa41"></stop><stop offset=".7046" stop-color="#8cd63a"></stop><stop offset="1" stop-color="#d3ff33"></stop></linearGradient><linearGradient xmlns="http://www.w3.org/2000/svg" id="SVGID_4_" gradientUnits="userSpaceOnUse" x1="-.567" x2="636.46" xmlns:xlink="http://www.w3.org/1999/xlink" xlink:href="#lg2" y1="465.591" y2="-171.437"></linearGradient><linearGradient xmlns="http://www.w3.org/2000/svg" id="SVGID_5_" gradientTransform="matrix(-1 0 0 1 513.352 0)" gradientUnits="userSpaceOnUse" x1="373.839" x2="-36.825" xmlns:xlink="http://www.w3.org/1999/xlink" xlink:href="#lg1" y1="484.999" y2="74.335"></linearGradient><linearGradient xmlns="http://www.w3.org/2000/svg" id="lg3"><stop offset="0" stop-color="#5ccd38"></stop><stop offset="1" stop-color="#e6fe7f" stop-opacity="0"></stop></linearGradient><radialGradient xmlns="http://www.w3.org/2000/svg" id="SVGID_6_" cx="87.28" cy="213.174" gradientTransform="matrix(-1 0 0 1 513.352 0)" gradientUnits="userSpaceOnUse" r="44.663" xmlns:xlink="http://www.w3.org/1999/xlink" xlink:href="#lg3"></radialGradient><radialGradient xmlns="http://www.w3.org/2000/svg" id="SVGID_7_" cx="87.279" cy="213.174" gradientUnits="userSpaceOnUse" r="44.663" xmlns:xlink="http://www.w3.org/1999/xlink" xlink:href="#lg3"></radialGradient><linearGradient xmlns="http://www.w3.org/2000/svg" id="SVGID_8_" gradientTransform="matrix(-1 0 0 1 513.352 0)" gradientUnits="userSpaceOnUse" x1="607.576" x2="-349.373" xmlns:xlink="http://www.w3.org/1999/xlink" xlink:href="#lg2" y1="804.651" y2="-152.298"></linearGradient><linearGradient xmlns="http://www.w3.org/2000/svg" id="SVGID_9_" gradientUnits="userSpaceOnUse" x1="-272.831" x2="597.352" xmlns:xlink="http://www.w3.org/1999/xlink" xlink:href="#lg1" y1="659.29" y2="-210.893"></linearGradient><linearGradient xmlns="http://www.w3.org/2000/svg" id="lg4"><stop offset="0" stop-color="#5ccd38"></stop><stop offset="1" stop-color="#d3ff33"></stop></linearGradient><linearGradient xmlns="http://www.w3.org/2000/svg" id="SVGID_10_" gradientUnits="userSpaceOnUse" x1="-110.718" x2="376.9" xmlns:xlink="http://www.w3.org/1999/xlink" xlink:href="#lg4" y1="683.319" y2="195.701"></linearGradient><linearGradient xmlns="http://www.w3.org/2000/svg" id="lg5"><stop offset="0" stop-color="#d3ff33" stop-opacity="0"></stop><stop offset=".193" stop-color="#d0fe33" stop-opacity=".193"></stop><stop offset=".3354" stop-color="#c7fa34" stop-opacity=".335"></stop><stop offset=".4616" stop-color="#b7f435" stop-opacity=".462"></stop><stop offset=".5784" stop-color="#a0ea37" stop-opacity=".578"></stop><stop offset=".6888" stop-color="#83df3a" stop-opacity=".689"></stop><stop offset=".7943" stop-color="#5fd03d" stop-opacity=".794"></stop><stop offset=".8961" stop-color="#34bf41" stop-opacity=".896"></stop><stop offset=".9924" stop-color="#04ac45" stop-opacity=".992"></stop><stop offset="1" stop-color="#00aa45"></stop></linearGradient><linearGradient xmlns="http://www.w3.org/2000/svg" id="SVGID_11_" gradientUnits="userSpaceOnUse" x1="256.676" x2="256.676" xmlns:xlink="http://www.w3.org/1999/xlink" xlink:href="#lg5" y1="465.421" y2="262.107"></linearGradient><linearGradient xmlns="http://www.w3.org/2000/svg" id="SVGID_12_" gradientUnits="userSpaceOnUse" x1="256.676" x2="256.676" xmlns:xlink="http://www.w3.org/1999/xlink" xlink:href="#lg5" y1="591.947" y2="221.526"></linearGradient><linearGradient xmlns="http://www.w3.org/2000/svg" id="SVGID_13_" gradientUnits="userSpaceOnUse" x1="-78.024" x2="446.026" xmlns:xlink="http://www.w3.org/1999/xlink" xlink:href="#lg1" y1="733.62" y2="209.571"></linearGradient><linearGradient xmlns="http://www.w3.org/2000/svg" id="SVGID_14_" gradientUnits="userSpaceOnUse" x1="-172.552" x2="355.444" xmlns:xlink="http://www.w3.org/1999/xlink" xlink:href="#lg1" y1="888.7" y2="360.704"></linearGradient><linearGradient xmlns="http://www.w3.org/2000/svg" id="SVGID_15_" gradientUnits="userSpaceOnUse" x1="-661.562" x2="391.771" xmlns:xlink="http://www.w3.org/1999/xlink" xlink:href="#lg1" y1="1129.363" y2="76.03"></linearGradient><linearGradient xmlns="http://www.w3.org/2000/svg" id="SVGID_16_" gradientUnits="userSpaceOnUse" x1="196.739" x2="441.267" xmlns:xlink="http://www.w3.org/1999/xlink" xlink:href="#lg2" y1="394.536" y2="150.009"></linearGradient><linearGradient xmlns="http://www.w3.org/2000/svg" id="SVGID_17_" gradientUnits="userSpaceOnUse" x1="160.733" x2="380.52" xmlns:xlink="http://www.w3.org/1999/xlink" xlink:href="#lg2" y1="419.655" y2="199.869"></linearGradient><linearGradient xmlns="http://www.w3.org/2000/svg" id="SVGID_18_" gradientUnits="userSpaceOnUse" x1="216.111" x2="380.595" xmlns:xlink="http://www.w3.org/1999/xlink" xlink:href="#lg2" y1="424.178" y2="259.694"></linearGradient><linearGradient xmlns="http://www.w3.org/2000/svg" id="SVGID_19_" gradientUnits="userSpaceOnUse" x1="189.417" x2="353.933" xmlns:xlink="http://www.w3.org/1999/xlink" xlink:href="#lg2" y1="444.51" y2="279.994"></linearGradient><linearGradient xmlns="http://www.w3.org/2000/svg" id="SVGID_20_" gradientUnits="userSpaceOnUse" x1="-382.23" x2="660.977" xmlns:xlink="http://www.w3.org/1999/xlink" xlink:href="#lg1" y1="889.802" y2="-153.406"></linearGradient><linearGradient xmlns="http://www.w3.org/2000/svg" id="SVGID_21_" gradientUnits="userSpaceOnUse" x1="-12.447" x2="531.458" xmlns:xlink="http://www.w3.org/1999/xlink" xlink:href="#lg1" y1="371.847" y2="-172.057"></linearGradient><linearGradient xmlns="http://www.w3.org/2000/svg" id="SVGID_22_" gradientUnits="userSpaceOnUse" x1="-434.184" x2="625.737" xmlns:xlink="http://www.w3.org/1999/xlink" xlink:href="#lg1" y1="802.256" y2="-257.666"></linearGradient><linearGradient xmlns="http://www.w3.org/2000/svg" id="SVGID_23_" gradientUnits="userSpaceOnUse" x1="29.945" x2="220.915" xmlns:xlink="http://www.w3.org/1999/xlink" xlink:href="#lg4" y1="320.419" y2="129.448"></linearGradient><linearGradient xmlns="http://www.w3.org/2000/svg" id="SVGID_24_" gradientUnits="userSpaceOnUse" x1="27.328" x2="218.445" xmlns:xlink="http://www.w3.org/1999/xlink" xlink:href="#lg4" y1="292.68" y2="101.563"></linearGradient><linearGradient xmlns="http://www.w3.org/2000/svg" id="SVGID_25_" gradientUnits="userSpaceOnUse" x1="149.027" x2="337.005" xmlns:xlink="http://www.w3.org/1999/xlink" xlink:href="#lg4" y1="337.791" y2="149.813"></linearGradient><linearGradient xmlns="http://www.w3.org/2000/svg" id="SVGID_26_" gradientUnits="userSpaceOnUse" x1="148.503" x2="335.657" xmlns:xlink="http://www.w3.org/1999/xlink" xlink:href="#lg4" y1="307.396" y2="120.242"></linearGradient><linearGradient xmlns="http://www.w3.org/2000/svg" id="SVGID_27_" gradientUnits="userSpaceOnUse" x1="47.145" x2="406.743" xmlns:xlink="http://www.w3.org/1999/xlink" xlink:href="#lg2" y1="312.821" y2="-46.777"></linearGradient><linearGradient xmlns="http://www.w3.org/2000/svg" id="SVGID_28_" gradientTransform="matrix(-1 0 0 1 513.352 0)" gradientUnits="userSpaceOnUse" x1="231.265" x2="-126.671" xmlns:xlink="http://www.w3.org/1999/xlink" xlink:href="#lg2" y1="373.121" y2="15.186"></linearGradient><linearGradient xmlns="http://www.w3.org/2000/svg" id="SVGID_29_" gradientUnits="userSpaceOnUse" x1="-81.857" x2="793.4" xmlns:xlink="http://www.w3.org/1999/xlink" xlink:href="#lg2" y1="589.499" y2="-285.758"></linearGradient><linearGradient xmlns="http://www.w3.org/2000/svg" id="SVGID_30_" gradientUnits="userSpaceOnUse" x1="-141.643" x2="475.357" xmlns:xlink="http://www.w3.org/1999/xlink" xlink:href="#lg2" y1="649.148" y2="32.149"></linearGradient><linearGradient xmlns="http://www.w3.org/2000/svg" id="SVGID_31_" gradientUnits="userSpaceOnUse" x1="24.682" x2="216.584" xmlns:xlink="http://www.w3.org/1999/xlink" xlink:href="#lg4" y1="273.796" y2="81.893"></linearGradient><linearGradient xmlns="http://www.w3.org/2000/svg" id="SVGID_32_" gradientUnits="userSpaceOnUse" x1="26.429" x2="216.942" xmlns:xlink="http://www.w3.org/1999/xlink" xlink:href="#lg4" y1="309.516" y2="119.002"></linearGradient><linearGradient xmlns="http://www.w3.org/2000/svg" id="SVGID_33_" gradientUnits="userSpaceOnUse" x1="35.403" x2="224.359" xmlns:xlink="http://www.w3.org/1999/xlink" xlink:href="#lg4" y1="338.296" y2="149.34"></linearGradient><linearGradient xmlns="http://www.w3.org/2000/svg" id="SVGID_34_" gradientUnits="userSpaceOnUse" x1="90.624" x2="211.537" xmlns:xlink="http://www.w3.org/1999/xlink" xlink:href="#lg4" y1="343.69" y2="222.777"></linearGradient><linearGradient xmlns="http://www.w3.org/2000/svg" id="SVGID_35_" gradientUnits="userSpaceOnUse" x1="125.185" x2="226.458" xmlns:xlink="http://www.w3.org/1999/xlink" xlink:href="#lg4" y1="309.144" y2="207.871"></linearGradient><linearGradient xmlns="http://www.w3.org/2000/svg" id="SVGID_36_" gradientTransform="matrix(-1 0 0 1 513.352 0)" gradientUnits="userSpaceOnUse" x1="184.741" x2="-3.088" xmlns:xlink="http://www.w3.org/1999/xlink" xlink:href="#lg4" y1="312.712" y2="124.883"></linearGradient><linearGradient xmlns="http://www.w3.org/2000/svg" id="SVGID_37_" gradientTransform="matrix(-1 0 0 1 513.352 0)" gradientUnits="userSpaceOnUse" x1="187.438" x2="-2.058" xmlns:xlink="http://www.w3.org/1999/xlink" xlink:href="#lg4" y1="353.355" y2="163.859"></linearGradient><linearGradient xmlns="http://www.w3.org/2000/svg" id="SVGID_38_" gradientTransform="matrix(-1 0 0 1 513.352 0)" gradientUnits="userSpaceOnUse" x1="187.778" x2="-3.215" xmlns:xlink="http://www.w3.org/1999/xlink" xlink:href="#lg4" y1="391.354" y2="200.361"></linearGradient><linearGradient xmlns="http://www.w3.org/2000/svg" id="SVGID_39_" gradientUnits="userSpaceOnUse" x1="234.973" x2="355.611" xmlns:xlink="http://www.w3.org/1999/xlink" xlink:href="#lg4" y1="345.551" y2="224.913"></linearGradient><linearGradient xmlns="http://www.w3.org/2000/svg" id="SVGID_40_" gradientUnits="userSpaceOnUse" x1="271.447" x2="372.714" xmlns:xlink="http://www.w3.org/1999/xlink" xlink:href="#lg4" y1="309.093" y2="207.826"></linearGradient><g xmlns="http://www.w3.org/2000/svg"><circle cx="256" cy="256" fill="url(#SVGID_1_)" r="256" data-original="url(#SVGID_1_)"></circle><circle cx="256" cy="256" fill="url(#SVGID_2_)" r="256" data-original="url(#SVGID_2_)"></circle><path d="m77.432 228.368c-5.121.043-10.243.087-15.364.133.243-30 .799-60 1.668-90 .12-4.141 3.63-7.616 7.831-7.756 4.2-.14 7.51 3.123 7.401 7.282-.8 30.113-1.312 60.227-1.536 90.341z" fill="url(#SVGID_3_)" data-original="url(#SVGID_3_)"></path><path d="m168.159 288.996c-35.387-.103-70.773-.269-106.16-.496.058 10 .151 20 .278 30 .143 11.241 4.897 22.102 13.159 30.247 25.993 25.62 51.995 51.59 77.747 77.619 4.53-45.685 9.582-91.483 14.976-137.37z" fill="url(#SVGID_4_)" data-original="url(#SVGID_4_)"></path><path d="m435.92 228.368c5.121.043 10.243.087 15.364.133-.243-30-.799-60-1.668-90-.119-4.141-3.633-7.616-7.831-7.756-4.202-.14-7.509 3.123-7.401 7.282.8 30.113 1.312 60.227 1.536 90.341z" fill="url(#SVGID_5_)" data-original="url(#SVGID_5_)"></path><path d="m435.92 228.368c5.121.043 10.243.087 15.364.133-.243-30-.799-60-1.668-90-.119-4.141-3.633-7.616-7.831-7.756-4.202-.14-7.509 3.123-7.401 7.282.8 30.113 1.312 60.227 1.536 90.341z" fill="url(#SVGID_6_)" data-original="url(#SVGID_6_)"></path><path d="m77.431 228.368c-5.121.043-10.243.087-15.364.133.243-30 .799-60 1.668-90 .121-4.141 3.63-7.616 7.831-7.756s7.51 3.123 7.401 7.282c-.799 30.113-1.311 60.227-1.536 90.341z" fill="url(#SVGID_7_)" data-original="url(#SVGID_7_)"></path><path d="m345.193 288.996c35.387-.103 70.773-.269 106.16-.496-.058 10-.15 20-.278 30-.143 11.241-4.897 22.102-13.159 30.247-25.993 25.62-51.995 51.59-77.747 77.619-4.53-45.685-9.582-91.483-14.976-137.37z" fill="url(#SVGID_8_)" data-original="url(#SVGID_8_)"></path><path d="m233.205 57.983c-6.194 1.083-12.265 2.591-18.192 4.48-35.128 63.137-71.488 126.393-106.948 188.407 45.563-.112 91.126-.172 136.688-.181-4.029-64.254-7.963-128.495-11.548-192.706z" fill="url(#SVGID_9_)" data-original="url(#SVGID_9_)"></path><path d="m108.065 250.87c-.052 23.577.041 47.154.278 70.731.591 55.699 33.941 105.564 80.218 131.475 45.049.979 90.093 1.183 135.131.607 46.852-25.723 80.72-75.946 81.317-132.082.237-23.577.33-47.154.278-70.731-99.074-.243-198.148-.243-297.222 0z" fill="url(#SVGID_10_)" data-original="url(#SVGID_10_)"></path><path d="m108.065 250.87c-.052 23.577.041 47.154.278 70.731.591 55.699 33.941 105.564 80.218 131.475 45.049.979 90.093 1.183 135.131.607 46.852-25.723 80.72-75.946 81.317-132.082.237-23.577.33-47.154.278-70.731-99.074-.243-198.148-.243-297.222 0z" fill="url(#SVGID_11_)" data-original="url(#SVGID_11_)"></path><path d="m108.065 250.87c-.052 23.577.041 47.154.278 70.731.016 1.691.067 3.374.144 5.053 98.792 1.212 197.585 1.212 296.378 0 .076-1.678.127-3.362.144-5.053.237-23.577.33-47.154.278-70.731-99.074-.243-198.148-.243-297.222 0z" fill="url(#SVGID_12_)" data-original="url(#SVGID_12_)"></path><path d="m218.59 419.663c-5.052-.039-9.755 2.463-12.527 6.679-5.874 8.936-11.711 17.848-17.503 26.733 8.331 4.633 17.103 8.454 26.208 11.377 8.771-14.84 17.652-29.735 26.61-44.665-7.595-.023-15.192-.065-22.788-.124z" fill="url(#SVGID_13_)" data-original="url(#SVGID_13_)"></path><path d="m323.692 453.682c-5.88-9.071-11.807-18.171-17.772-27.293-2.77-4.234-7.482-6.754-12.549-6.716-17.331.132-34.661.17-51.992.115-6.336-.019-11.987 3.939-14.156 9.943-4.19 11.587-8.344 23.162-12.454 34.721 13.325 4.278 27.371 6.61 41.907 6.61 24.027.005 46.764-6.34 67.016-17.38z" fill="url(#SVGID_14_)" data-original="url(#SVGID_14_)"></path><path d="m256.676 55.938c-7.982 0-15.818.709-23.471 2.046-6.25 1.441-12.329 3.624-18.211 6.469-25.113 62.358-51 124.701-76.182 186.35 88.824-.172 177.65-.15 266.475.067-35.928-62.155-72.758-125.572-108.322-188.847-12.842-3.949-26.343-6.087-40.289-6.085z" fill="url(#SVGID_15_)" data-original="url(#SVGID_15_)"></path><path d="m194.799 358.077c.059 8.467 6.951 15.399 15.38 15.456 15.269.102 30.539.154 45.808.155-.001-7.688-.001-15.375-.002-23.063-20.411 2.561-40.807 5.051-61.186 7.452z" fill="url(#SVGID_16_)" data-original="url(#SVGID_16_)"></path><path d="m255.985 342.938c-15.32-.001-30.64-.038-45.96-.112-8.463-.04-15.285 6.783-15.226 15.251 20.396.156 40.792.234 61.187.236 0-5.125 0-10.25-.001-15.375z" fill="url(#SVGID_17_)" data-original="url(#SVGID_17_)"></path><path d="m255.988 373.688c15.27.001 30.539-.048 45.808-.146 8.43-.057 15.318-6.985 15.378-15.454-12.731-2.461-25.472-4.96-38.224-7.49-12.764 2.594-25.517 5.163-38.26 7.7.017 8.488 6.868 15.387 15.298 15.39z" fill="url(#SVGID_18_)" data-original="url(#SVGID_18_)"></path><path d="m301.946 342.832c-15.321.072-30.64.107-45.96.105-8.463 0-15.313 6.872-15.296 15.359 25.494.05 50.989-.02 76.484-.209.059-8.472-6.766-15.291-15.228-15.255z" fill="url(#SVGID_19_)" data-original="url(#SVGID_19_)"></path><path d="m405.287 250.87c-.033-15.156-.126-30.313-.278-45.47-.778-66.204-47.677-124.54-108.044-143.378.528 62.892.776 125.786.747 188.679 35.858.025 71.717.081 107.575.169z" fill="url(#SVGID_20_)" data-original="url(#SVGID_20_)"></path><path d="m215.014 62.463c-59.693 19.299-105.901 77.231-106.67 142.937-.153 15.157-.245 30.313-.278 45.47 35.325-.086 70.65-.142 105.975-.167.037-62.747.362-125.493.973-188.24z" fill="url(#SVGID_21_)" data-original="url(#SVGID_21_)"></path><path d="m214.994 64.452c-42.761 20.868-75.392 76.686-75.961 140.637-.121 15.238-.195 30.475-.221 45.713 25.076-.049 50.152-.082 75.228-.1.038-62.083.356-124.166.954-186.25z" fill="url(#SVGID_22_)" data-original="url(#SVGID_22_)"></path><path d="m191.54 166.394c-.03 4.235-3.479 7.692-7.706 7.728-4.225.035-7.625-3.36-7.587-7.587.04-4.226 3.492-7.692 7.711-7.735 4.216-.044 7.612 3.36 7.582 7.594z" fill="url(#SVGID_23_)" data-original="url(#SVGID_23_)"></path><path d="m191.797 135.728c-.039 4.235-3.482 7.702-7.695 7.749-4.211.048-7.588-3.337-7.537-7.563.051-4.227 3.501-7.703 7.7-7.759 4.2-.053 7.571 3.339 7.532 7.573z" fill="url(#SVGID_24_)" data-original="url(#SVGID_24_)"></path><path d="m328.08 166.448c.033 4.231-3.366 7.632-7.594 7.602-4.226-.031-7.671-3.488-7.698-7.725-.024-4.236 3.37-7.646 7.59-7.609 4.219.036 7.668 3.502 7.702 7.732z" fill="url(#SVGID_25_)" data-original="url(#SVGID_25_)"></path><path d="m327.798 135.8c.045 4.23-3.337 7.624-7.547 7.581-4.212-.041-7.651-3.507-7.686-7.744-.032-4.236 3.343-7.639 7.542-7.591 4.201.048 7.646 3.523 7.691 7.754z" fill="url(#SVGID_26_)" data-original="url(#SVGID_26_)"></path><path d="m85.525 190.596c-12.691.222-23.163 10.491-23.31 22.904-.29 25-.362 50-.217 75 .073 12.413 10.506 22.615 23.22 22.765 18.766.202 37.533.371 56.299.507-.261-40.649-.192-81.299.206-121.948-18.732.206-37.465.464-56.198.772z" fill="url(#SVGID_27_)" data-original="url(#SVGID_27_)"></path><path d="m427.827 190.596c12.692.222 23.163 10.491 23.31 22.904.29 25 .362 50 .217 75-.073 12.414-10.506 22.614-23.22 22.765-18.767.202-37.533.371-56.299.507.261-40.649.192-81.299-.206-121.948 18.732.206 37.465.464 56.198.772z" fill="url(#SVGID_28_)" data-original="url(#SVGID_28_)"></path><path d="m381.846 189.941c-83.447-1.004-166.893-1.004-250.34 0-12.692.163-23.121 10.492-23.234 23.037-.221 25.261-.276 50.522-.166 75.783.056 12.544 10.46 22.823 23.176 22.933 83.596.658 167.192.658 250.788 0 12.716-.111 23.118-10.388 23.176-22.933.11-25.261.055-50.522-.166-75.783-.115-12.545-10.541-22.874-23.234-23.037z" fill="url(#SVGID_29_)" data-original="url(#SVGID_29_)"></path><path d="m183.547 296.698c-25.447-.108-46.203-20.688-46.16-45.893.051-25.204 20.851-45.87 46.258-46.039 48.688-.271 97.375-.271 146.062 0 25.407.169 46.205 20.833 46.258 46.039.042 25.205-20.714 45.785-46.16 45.893-25.458.145-120.8.145-146.258 0z" fill="url(#SVGID_30_)" data-original="url(#SVGID_30_)"></path><path d="m92.92 213.137c-.039 4.173-3.507 7.588-7.747 7.627-4.241.038-7.65-3.297-7.605-7.453s3.522-7.574 7.758-7.631c4.237-.057 7.633 3.284 7.594 7.457z" fill="url(#SVGID_31_)" data-original="url(#SVGID_31_)"></path><path d="m92.691 250.909c-.01 4.172-3.453 7.56-7.7 7.563-4.246.002-7.685-3.364-7.673-7.52.011-4.158 3.466-7.542 7.712-7.564 4.244-.019 7.67 3.347 7.661 7.521z" fill="url(#SVGID_32_)" data-original="url(#SVGID_32_)"></path><path d="m92.737 288.682c.019 4.173-3.396 7.531-7.641 7.499-4.243-.033-7.705-3.431-7.729-7.586-.023-4.156 3.408-7.513 7.652-7.497 4.245.014 7.698 3.41 7.718 7.584z" fill="url(#SVGID_33_)" data-original="url(#SVGID_33_)"></path><path d="m214.255 250.703c-.013 16.969-13.763 30.708-30.741 30.673-16.977-.039-30.779-13.748-30.754-30.599.029-16.85 13.862-30.609 30.819-30.689 16.959-.077 30.683 13.646 30.676 30.615z" fill="url(#SVGID_34_)" data-original="url(#SVGID_34_)"></path><path d="m191.189 266.056c-16.981-.013-30.76-13.706-30.707-30.575.005-1.87.191-3.701.521-5.482-5.096 5.474-8.23 12.768-8.242 20.778-.025 16.852 13.777 30.558 30.754 30.599 15.097.03 27.63-10.827 30.236-25.167-5.62 6.059-13.644 9.849-22.562 9.847z" fill="url(#SVGID_35_)" data-original="url(#SVGID_35_)"></path><path d="m420.432 213.137c.039 4.173 3.506 7.588 7.747 7.627 4.242.038 7.65-3.297 7.605-7.453s-3.521-7.574-7.758-7.631c-4.238-.057-7.634 3.284-7.594 7.457z" fill="url(#SVGID_36_)" data-original="url(#SVGID_36_)"></path><path d="m420.661 250.909c.01 4.172 3.455 7.56 7.7 7.563 4.245.002 7.684-3.364 7.673-7.52-.01-4.158-3.467-7.542-7.712-7.564-4.244-.019-7.672 3.347-7.661 7.521z" fill="url(#SVGID_37_)" data-original="url(#SVGID_37_)"></path><path d="m420.615 288.682c-.019 4.173 3.397 7.531 7.641 7.499 4.242-.033 7.707-3.431 7.729-7.586.021-4.156-3.408-7.513-7.652-7.497-4.245.014-7.698 3.41-7.718 7.584z" fill="url(#SVGID_38_)" data-original="url(#SVGID_38_)"></path><path d="m360.591 250.777c.025 16.852-13.778 30.558-30.754 30.599-16.978.035-30.73-13.704-30.741-30.673-.007-16.969 13.716-30.692 30.675-30.615 16.959.081 30.79 13.837 30.82 30.689z" fill="url(#SVGID_39_)" data-original="url(#SVGID_39_)"></path><path d="m337.539 266.052c-16.982.012-30.745-13.733-30.772-30.694-.003-1.879.171-3.718.492-5.502-5.067 5.464-8.166 12.79-8.162 20.847.01 16.969 13.763 30.708 30.741 30.673 15.096-.032 27.671-10.885 30.258-25.126-5.612 6.016-13.641 9.798-22.557 9.802z" fill="url(#SVGID_40_)" data-original="url(#SVGID_40_)"></path></g></g></svg>