<svg xmlns="http://www.w3.org/2000/svg" viewBox="0 0 1415.5 906.21"><defs><style>.a,.b,.f,.l,.m{fill:none;stroke:#fff}.a,.b,.f{stroke-miterlimit:10}.b{stroke-dasharray:6.02 6.02}.c{fill:#9da0a8}.d{fill:#eef2ff}.e{fill:#e1e5f1}.f{stroke-dasharray:6}.g{fill:#3347ff}.h{fill:#fff}.i{fill:#ffd524}.j{fill:#252733}.k{fill:#21222d}.l,.m{stroke-linecap:round;stroke-linejoin:round}.l{stroke-width:2.05px}.m{stroke-width:1.52px}</style></defs><title>bg</title><path d="M833.34,949.87c.72.69,1.46,1.37,2.19,2" class="a" transform="translate(-429.33 -99.25)"/><path d="M840.05,955.9c37.87,32.21,90.33,46.79,139.37,38.28,52-9,98.88-43.8,122.61-90.94,12.42-24.69,18.39-55.11,5.57-79.6s-49.72-36.09-69.36-16.64c-16.09,15.94-12.87,44.51,1.89,61.69s37.66,25,60,29c76.83,13.74,155.32-9.55,227.87-38.34s144-63.68,221.26-74.66c48.26-6.86,99.74-3.52,142.06,20.66s73,72.51,66.15,120.78c-3.72,26.35-25.39,54.35-51.5,49.17-25.6-5.08-35.27-37.9-30.44-63.55,9-47.92,50.37-85.29,97.18-99.45" class="b" transform="translate(-429.33 -99.25)"/><path d="M1775.56,811.43c1-.27,1.93-.53,2.9-.78" class="a" transform="translate(-429.33 -99.25)"/><polygon points="373.72 842.79 345.53 821.74 366.21 808.42 373.72 842.79" class="c"/><polygon points="332.11 833.47 298.02 750.81 359.16 819.02 332.11 833.47" class="d"/><polygon points="391.75 801.58 298.02 750.81 407.55 793.13 391.75 801.58" class="d"/><polygon points="391.75 801.58 359.16 819.02 298.02 750.81 391.75 801.58" class="e"/><polygon points="391.75 801.58 373.72 842.79 359.16 819.02 391.75 801.58" class="e"/><polygon points="1295.23 351.53 1323.42 330.48 1302.73 317.16 1295.23 351.53" class="c"/><polygon points="1336.84 342.21 1370.93 259.55 1309.79 327.75 1336.84 342.21" class="d"/><polygon points="1277.2 310.32 1370.93 259.55 1261.4 301.86 1277.2 310.32" class="d"/><polygon points="1277.2 310.32 1309.79 327.75 1370.93 259.55 1277.2 310.32" class="e"/><polygon points="1277.2 310.32 1295.23 351.53 1309.79 327.75 1277.2 310.32" class="e"/><path d="M1704.27,447.33c-33.31,32.41-96.75,77.49-146.52,71.55-28.26-3.37-58-19.16-65.55-46.61a49.43,49.43,0,0,1,66.89-58.62c27.43,11.58,38.81,47.56,29.14,75.72s-35.67,48.22-63.67,58.33-58.23,11.77-88,13.63c-62.06,3.88-126.49,9.84-180,41.47-24.29,14.35-46.26,34.66-56.34,61s-5.92,59.26,15,78.22c17.85,16.2,45.79,19.51,67.6,9.22,17.18-8.11,30.93-25.44,30.48-44.43-.35-15.36-9.48-29.1-19.67-40.59-27.36-30.85-64.58-52.11-104.15-63.75" class="f" transform="translate(-429.33 -99.25)"/><polygon points="535.23 159.53 563.42 138.48 542.73 125.16 535.23 159.53" class="c"/><polygon points="576.84 150.21 610.93 67.55 549.79 135.75 576.84 150.21" class="d"/><polygon points="517.2 118.32 610.93 67.55 501.4 109.86 517.2 118.32" class="d"/><polygon points="517.2 118.32 549.79 135.75 610.93 67.55 517.2 118.32" class="e"/><polygon points="517.2 118.32 535.23 159.53 549.79 135.75 517.2 118.32" class="e"/><path d="M944.27,255.33c-33.31,32.41-96.75,77.49-146.52,71.55-28.26-3.37-58-19.16-65.55-46.61a49.43,49.43,0,0,1,66.89-58.62c27.43,11.58,38.81,47.56,29.14,75.72s-35.67,48.22-63.67,58.33-58.23,11.77-87.95,13.63c-62.06,3.88-126.49,9.84-180,41.47-24.29,14.35-46.26,34.66-56.34,61s-5.92,59.26,15,78.22c17.85,16.2,45.79,19.51,67.6,9.22,17.18-8.11,30.93-25.44,30.48-44.43-.35-15.36-9.48-29.1-19.67-40.59-27.36-30.85-64.58-52.11-104.15-63.75" class="f" transform="translate(-429.33 -99.25)"/><path d="M1630.71,267.31H1523.19A30.11,30.11,0,0,0,1498.07,314l-8.43,23a3.27,3.27,0,0,0,4.37,4.49l31.64-14h105.06a30.12,30.12,0,1,0,0-60.23Z" class="g" transform="translate(-429.33 -99.25)"/><path d="M1533,297a10.82,10.82,0,1,1-10.82-10.82A10.82,10.82,0,0,1,1533,297Z" class="h" transform="translate(-429.33 -99.25)"/><path d="M1569.41,297a10.83,10.83,0,1,1-10.82-10.82A10.82,10.82,0,0,1,1569.41,297Z" class="h" transform="translate(-429.33 -99.25)"/><path d="M1605.78,297A10.82,10.82,0,1,1,1595,286.19,10.81,10.81,0,0,1,1605.78,297Z" class="h" transform="translate(-429.33 -99.25)"/><path d="M1642.16,297a10.82,10.82,0,1,1-10.82-10.82A10.81,10.81,0,0,1,1642.16,297Z" class="h" transform="translate(-429.33 -99.25)"/><path d="M631.63,237.42H739.16a30.11,30.11,0,0,1,25.11,46.72l8.44,23a3.28,3.28,0,0,1-4.38,4.49l-31.63-14H631.63a30.12,30.12,0,0,1,0-60.23Z" class="i" transform="translate(-429.33 -99.25)"/><circle cx="310.81" cy="167.87" r="10.82" class="h"/><circle cx="274.43" cy="167.87" r="10.82" class="h"/><path d="M656.56,267.12a10.82,10.82,0,1,0,10.82-10.82A10.82,10.82,0,0,0,656.56,267.12Z" class="h" transform="translate(-429.33 -99.25)"/><path d="M620.18,267.12A10.82,10.82,0,1,0,631,256.3,10.82,10.82,0,0,0,620.18,267.12Z" class="h" transform="translate(-429.33 -99.25)"/><circle cx="588.97" cy="125.14" r="17.88" class="i" transform="translate(-345.32 353.86) rotate(-45)"/><path d="M590.46,135a3.75,3.75,0,0,1-2.66-1.1l-10.12-10.12A3.76,3.76,0,1,1,583,118.5l7.46,7.46,25.61-25.61a3.76,3.76,0,1,1,5.31,5.32l-28.27,28.27A3.74,3.74,0,0,1,590.46,135Z" class="g" transform="translate(-429.33 -99.25)"/><circle cx="1365.33" cy="888.33" r="17.88" class="i"/><path d="M1796.15,997.48a3.7,3.7,0,0,1-2.65-1.1l-10.12-10.12a3.75,3.75,0,0,1,5.31-5.31l7.46,7.46,25.61-25.61a3.76,3.76,0,1,1,5.32,5.31l-28.27,28.27A3.71,3.71,0,0,1,1796.15,997.48Z" class="g" transform="translate(-429.33 -99.25)"/><circle cx="1279.06" cy="534.12" r="104.1" class="j"/><circle cx="1279.05" cy="534.12" r="82.85" class="k"/><circle cx="1708.39" cy="633.38" r="61.6" class="j" transform="translate(274.14 2053.96) rotate(-76.87)"/><circle cx="1279.05" cy="534.12" r="40.35" class="k"/><circle cx="1279.05" cy="534.12" r="19.1" class="j"/><path d="M1802.06,540.15v-6.59a32.87,32.87,0,0,1,9.61-23.22l12.18-12.17v20.57Z" class="i" transform="translate(-429.33 -99.25)"/><path d="M1802.86,539.4h6.58a32.87,32.87,0,0,0,23.22-9.61l12.17-12.18h-20.57Z" class="i" transform="translate(-429.33 -99.25)"/><line x1="1279.05" x2="1398.59" y1="534.12" y2="414.59" class="l"/><circle cx="922.44" cy="831.88" r="77.33" class="j" transform="translate(-747.38 796.66) rotate(-45)"/><circle cx="922.44" cy="831.88" r="61.54" class="k" transform="translate(-747.38 796.66) rotate(-45)"/><circle cx="922.44" cy="831.88" r="45.76" class="j" transform="translate(-747.38 796.66) rotate(-45)"/><circle cx="922.44" cy="831.88" r="29.97" class="k" transform="translate(-747.38 796.66) rotate(-45)"/><path d="M908.25,831.88a14.19,14.19,0,1,0,14.19-14.19A14.18,14.18,0,0,0,908.25,831.88Z" class="j" transform="translate(-429.33 -99.25)"/><path d="M852.86,762.62v-4.89a24.38,24.38,0,0,0-7.14-17.24l-9.05-9v15.29Z" class="i" transform="translate(-429.33 -99.25)"/><path d="M852.26,762.07h-4.89a24.38,24.38,0,0,1-17.24-7.14l-9-9h15.28Z" class="i" transform="translate(-429.33 -99.25)"/><line x1="493.1" x2="404.31" y1="732.62" y2="643.83" class="m"/><path d="M1823.15,280.1h-5.72a23.24,23.24,0,0,0-2.64-6.21l3.93-3.93a2.07,2.07,0,0,0,0-2.93l-5.27-5.27a2.06,2.06,0,0,0-2.94,0l-4,3.94a23.76,23.76,0,0,0-6.34-2.62v-5.37a2.08,2.08,0,0,0-2.08-2.08h-7.46a2.08,2.08,0,0,0-2.08,2.08v5.37a23.78,23.78,0,0,0-6.48,2.71l-3.67-3.66a2.08,2.08,0,0,0-2.94,0l-5.27,5.27a2.06,2.06,0,0,0,0,2.94l3.69,3.69a23.27,23.27,0,0,0-2.69,6.62h-5a2.08,2.08,0,0,0-2.08,2.08v7.46a2.08,2.08,0,0,0,2.08,2.08h5.19a23.87,23.87,0,0,0,2.83,6.54l-3.59,3.6a2.07,2.07,0,0,0,0,2.93l5.27,5.29a2.11,2.11,0,0,0,2.95,0l3.75-3.76a23.63,23.63,0,0,0,6.54,2.56v5.24a2.08,2.08,0,0,0,2.08,2.08h7.46a2.08,2.08,0,0,0,2.08-2.08v-5.53a23.26,23.26,0,0,0,6.28-2.76l3.86,3.86a2.08,2.08,0,0,0,2.95,0l5.27-5.27a2.06,2.06,0,0,0,0-2.94l-4-4a23.94,23.94,0,0,0,2.49-6.29h5.58a2.07,2.07,0,0,0,2.07-2.08v-7.46A2.08,2.08,0,0,0,1823.15,280.1Zm-28.76,18a11.92,11.92,0,1,1,11.93-11.92A11.92,11.92,0,0,1,1794.39,298.11Z" class="g" transform="translate(-429.33 -99.25)"/><path d="M1802,286.19a7.58,7.58,0,1,1-7.59-7.58A7.58,7.58,0,0,1,1802,286.19Z" class="g" transform="translate(-429.33 -99.25)"/><path d="M900.09,188.93h-5.72a23,23,0,0,0-2.64-6.21l3.93-3.94a2.07,2.07,0,0,0,0-2.93l-5.27-5.27a2.06,2.06,0,0,0-2.94,0l-4,3.95a23.46,23.46,0,0,0-6.34-2.63v-5.37a2.08,2.08,0,0,0-2.08-2.08h-7.46a2.08,2.08,0,0,0-2.08,2.08v5.37a23.78,23.78,0,0,0-6.48,2.71L855.38,171a2.1,2.1,0,0,0-2.94,0l-5.27,5.27a2.08,2.08,0,0,0,0,2.95l3.69,3.68a23.27,23.27,0,0,0-2.69,6.62h-5a2.07,2.07,0,0,0-2.07,2.08V199a2.08,2.08,0,0,0,2.07,2.08h5.19a23.87,23.87,0,0,0,2.83,6.54l-3.59,3.6a2.08,2.08,0,0,0,0,2.94l5.27,5.28a2.11,2.11,0,0,0,2.95,0l3.75-3.76a23.63,23.63,0,0,0,6.54,2.56v5.25a2.08,2.08,0,0,0,2.08,2.07h7.46a2.08,2.08,0,0,0,2.08-2.07V218a23.78,23.78,0,0,0,6.29-2.76l3.86,3.86a2.08,2.08,0,0,0,2.94,0L896,213.8a2.08,2.08,0,0,0,0-3l-4-4a23.94,23.94,0,0,0,2.49-6.29h5.58a2.06,2.06,0,0,0,2.07-2.07V191A2.08,2.08,0,0,0,900.09,188.93Zm-28.76,18A11.92,11.92,0,1,1,883.26,195,11.91,11.91,0,0,1,871.33,206.93Z" class="g" transform="translate(-429.33 -99.25)"/><path d="M878.92,195a7.58,7.58,0,1,1-7.58-7.58A7.58,7.58,0,0,1,878.92,195Z" class="g" transform="translate(-429.33 -99.25)"/><path d="M1111.92,703.37h-5.71a23.91,23.91,0,0,0-2.64-6.21l3.92-3.93a2.05,2.05,0,0,0,0-2.93l-5.27-5.27a2.05,2.05,0,0,0-2.93,0l-4,3.94a23.69,23.69,0,0,0-6.35-2.62V681a2.07,2.07,0,0,0-2.08-2.08h-7.46a2.07,2.07,0,0,0-2.07,2.08v5.37a23.71,23.71,0,0,0-6.49,2.71l-3.66-3.66a2.08,2.08,0,0,0-2.94,0l-5.28,5.27a2.08,2.08,0,0,0,0,2.94l3.69,3.69a23.25,23.25,0,0,0-2.68,6.62h-5a2.08,2.08,0,0,0-2.08,2.08v7.46a2.08,2.08,0,0,0,2.08,2.08h5.18a24,24,0,0,0,2.84,6.54l-3.59,3.6a2.05,2.05,0,0,0,0,2.93l5.27,5.29a2.1,2.1,0,0,0,2.94,0l3.75-3.76a24,24,0,0,0,6.55,2.56v5.24A2.08,2.08,0,0,0,1080,740h7.46a2.08,2.08,0,0,0,2.08-2.08v-5.53a23.26,23.26,0,0,0,6.28-2.76l3.86,3.86a2.06,2.06,0,0,0,2.94,0l5.28-5.27a2.08,2.08,0,0,0,0-2.94l-4-4a23.4,23.4,0,0,0,2.49-6.29h5.58a2.08,2.08,0,0,0,2.08-2.08v-7.46A2.08,2.08,0,0,0,1111.92,703.37Zm-28.75,18a11.93,11.93,0,1,1,11.92-11.92A11.92,11.92,0,0,1,1083.17,721.38Z" class="g" transform="translate(-429.33 -99.25)"/><path d="M1090.75,709.46a7.58,7.58,0,1,1-7.58-7.58A7.57,7.57,0,0,1,1090.75,709.46Z" class="g" transform="translate(-429.33 -99.25)"/></svg>