<svg xmlns="http://www.w3.org/2000/svg" xmlns:xlink="http://www.w3.org/1999/xlink" viewBox="0 0 789.65 824.02"><defs><style>.a{fill:#1a8bfc}.b{fill:#9d91ff}.c{fill:#ffda22}.d{opacity:.35}.e{fill:#371a45}.f{opacity:.5}.g{fill:#fff}.h{fill:#95ebf9}.i{opacity:.7}.j{fill:#54c6d1}.k{fill:#4bc5d1}.l{clip-path:url(#a)}.m{opacity:.4}.n{opacity:.3}.o{fill:#22a7f0}.p{fill:#293856}.q{fill:#21102b}</style><clipPath id="a" transform="translate(-788.68 -121.98)"><path d="M1338.08,670.79c-6.78,21.93-29.94,32.72-51.89,32.72a63.57,63.57,0,0,1-14.69-1.7c-95.31-24.23-183.29-64.8-262.63-123-19.58-14.57-25-42.82-7.56-61.35a46.63,46.63,0,0,1,34-14.27,48.17,48.17,0,0,1,28.46,9.17q4.65,3.34,9.33,6.57c64.85,44.86,135.7,76.69,211.85,96.62,5.45,1.44,11,2.81,16.47,4.12C1324.15,624.66,1345.46,645.92,1338.08,670.79Z" class="a"/></clipPath></defs><title>bot</title><rect width="694.15" height="694.15" x="55.76" y="64.83" class="b" rx="347.07"/><path d="M1572.82,641.76a395.17,395.17,0,0,1-297.33,289.86c-213.14,47.76-424.63-86.35-472.36-299.48-26.51-118.37,3.08-236.28,71.18-325.87,12.71-16.76,39.44-8.82,40.73,12.18q.69,10.64,1.91,21.33a405.37,405.37,0,0,0,7,41A396.9,396.9,0,0,0,952,463c2.18,4.59,4.41,9.11,6.74,13.61q8.54,16.47,18.47,31.89,7.17,11.16,15,21.74c2.53,3.42,5.14,6.8,7.79,10.13q9.93,12.51,20.85,24.13,5.94,6.38,12.15,12.43c2.91,2.84,5.85,5.64,8.86,8.39a397.41,397.41,0,0,0,34.66,28.45c1.11.82,2.23,1.61,3.34,2.41q10.13,7.23,20.68,13.8c1.64,1,3.27,2,4.92,3q10.53,6.39,21.43,12.06c3.94,2.07,7.9,4.06,11.91,6,.84.41,1.68.82,2.54,1.21l1.78.84c1.29.61,2.6,1.19,3.89,1.77q10.34,4.7,20.94,8.78c2.12.83,4.26,1.61,6.4,2.39,2.3.84,4.62,1.67,6.94,2.47,6.1,2.1,12.3,4.06,18.51,5.86q14.52,4.26,29.39,7.34,15.24,3.18,30.78,5.15a392.14,392.14,0,0,0,81.41,1.82c2.72-.22,5.45-.46,8.18-.74q8.79-.9,17.62-2.19,14.49-2.15,29.06-5.38c.64-.15,1.28-.28,1.91-.45a395.18,395.18,0,0,0,78.81-27,391.43,391.43,0,0,0,60.76-35.16C1554.88,605.67,1577.92,621.44,1572.82,641.76Z" class="c" transform="translate(-788.68 -121.98)"/><g class="d"><path d="M848.77,344.26a394,394,0,0,0-39.63,277.36c47.73,213.12,259.23,347.22,472.35,299.49A393.88,393.88,0,0,0,1507.26,778a393.66,393.66,0,0,1-182.45,95.83c-127.13,28.48-253.7-7.77-345.25-86.89a40.92,40.92,0,0,0,13.62-7.77c-.73.63-1.47,1.23-2.23,1.79-1.8-1.5-3.6-3-5.37-4.54a41,41,0,0,0,16-10,42.56,42.56,0,0,0,3.24-3.74v0c9.47-23.48,1.14-57-22.53-82.76-29-31.54-70.2-39.26-91.91-17.24a40.42,40.42,0,0,0-4.31,5.15,396.19,396.19,0,0,1,5.78-370.56,22.23,22.23,0,0,0-17.6,9,397.65,397.65,0,0,0-46.35,78.22A396.49,396.49,0,0,1,848.77,344.26Z" class="e" transform="translate(-788.68 -121.98)"/></g><g class="d"><ellipse cx="1387.07" cy="766.56" class="e" rx="44.55" ry="38" transform="matrix(1, -0.01, 0.01, 1, -797.09, -106.56)"/></g><g class="d"><ellipse cx="1152.02" cy="710" class="e" rx="32.95" ry="52.9" transform="translate(-522.09 1611.38) rotate(-80.78)"/></g><ellipse cx="1150.96" cy="720.51" class="c" rx="20.76" ry="46.17" transform="translate(-533.35 1619.16) rotate(-80.78)"/><ellipse cx="1396.26" cy="779.83" class="c" rx="33.47" ry="27.01" transform="matrix(0.95, -0.3, 0.3, 0.95, -957.3, 327.99)"/><path d="M1213.6,849.87a42.13,42.13,0,0,1-1.45,11.09c-6.94,26-36.64,40.18-66.33,31.62-22.3-6.44-38.26-23.86-41.87-43.14Z" class="c" transform="translate(-788.68 -121.98)"/><path d="M1215,849.87c1.22,13.5-5.13,27.63-15.9,36.47a52.86,52.86,0,0,1-18.25,9.84,60.89,60.89,0,0,1-20.51,2.51,64.3,64.3,0,0,1-37.81-14.54,57.77,57.77,0,0,1-13.23-15.46,48.81,48.81,0,0,1-6.44-19,1.12,1.12,0,0,1,2.19-.44v0a56.14,56.14,0,0,0,21.27,30,62.92,62.92,0,0,0,34.35,12,56.36,56.36,0,0,0,18.06-2.11,49.21,49.21,0,0,0,16.23-8,42.93,42.93,0,0,0,11.88-13.61,46.17,46.17,0,0,0,3.63-8.48,45,45,0,0,0,1.74-9.21,1.39,1.39,0,0,1,1.51-1.27A1.37,1.37,0,0,1,1215,849.87Z" class="e" transform="translate(-788.68 -121.98)"/><path d="M931,627.73c-13.89-1.89-27.31.24-38.79,7-20.8,12.25-29.29,36.12-27.13,64,1.41,18.3,7.9,38,19.65,56.48,29.68,46.68,81.65,68.08,116.08,47.79,12.82-7.55,21.4-19.81,25.6-34.63,7.07-25,.51-56.55-18.12-85.86Z" class="c" transform="translate(-788.68 -121.98)"/><path d="M892.22,634.74a54,54,0,0,0-13.62,13.82,57.2,57.2,0,0,0-7.87,17.34,77.19,77.19,0,0,0-2.63,18.83,107,107,0,0,0,1.28,19c.49,3.14,1.15,6.25,1.93,9.33s1.66,6.13,2.62,9.16a126.87,126.87,0,0,0,7.38,17.56,141.3,141.3,0,0,0,21.59,31.28,128.79,128.79,0,0,0,13.77,13.07,113.56,113.56,0,0,0,15.56,10.78,96.53,96.53,0,0,0,17.11,7.86c1.47.54,3,.93,4.48,1.41s3,.79,4.55,1.11,3.06.68,4.6.89,3.08.44,4.64.59a61.08,61.08,0,0,0,18.54-1.08,52.3,52.3,0,0,0,17.21-7.17,53.11,53.11,0,0,0,13.85-13,69.72,69.72,0,0,0,9.21-17.18,61.35,61.35,0,0,1-7,18.65,54.67,54.67,0,0,1-13.33,15.34,57.05,57.05,0,0,1-18.36,9.43,64.37,64.37,0,0,1-20.6,2.47,77.7,77.7,0,0,1-20.39-3.46,104.29,104.29,0,0,1-19-7.94,122.65,122.65,0,0,1-32-25.32,138.12,138.12,0,0,1-22.66-33.77c-5.72-12.32-9.85-25.5-11.17-39.08s-.39-27.41,4.29-40.27a58.57,58.57,0,0,1,10.24-17.5A49.43,49.43,0,0,1,892.22,634.74Z" class="e" transform="translate(-788.68 -121.98)"/><path d="M1386.23,807.67a51.89,51.89,0,0,1-28.06-6.77,47.23,47.23,0,0,1-11.52-9.46,40.81,40.81,0,0,1-7.62-13.1c-3.46-9.73-2.28-20.88,2.49-30a42.93,42.93,0,0,1,9.49-11.94,49.23,49.23,0,0,1,12.66-8.26,59.65,59.65,0,0,1,14.39-4.26,61.75,61.75,0,0,1,14.94-.32,60.92,60.92,0,0,1,14.49,3.61,50.22,50.22,0,0,1,12.9,7.56,40.1,40.1,0,0,1,15,25.29,35.06,35.06,0,0,1-.91,14.78,35.73,35.73,0,0,1-2.71,6.83,53,53,0,0,1-4,6.09,1.12,1.12,0,0,1-1.91-1.15l.08-.15a50.62,50.62,0,0,0,3.08-6,33.27,33.27,0,0,0,2.5-13,34.79,34.79,0,0,0-15-27.74c-14-10.48-34.09-12-49.8-4.69-7.81,3.67-14.75,9.43-18.77,16.91a31.75,31.75,0,0,0-2.68,24.44c2.45,8.15,8.27,15.26,15.6,20.17a52.39,52.39,0,0,0,25.34,8.43h0a1.39,1.39,0,0,1,0,2.78Z" class="e" transform="translate(-788.68 -121.98)"/><path d="M1445.41,743a49.33,49.33,0,0,1,9,26.82,51.83,51.83,0,0,1-7.34,27.85,61.26,61.26,0,0,1-20.2,20.61,74.83,74.83,0,0,1-26.85,10.36,79.66,79.66,0,0,1-28.68-.21,71.48,71.48,0,0,1-26.51-10.84,60.67,60.67,0,0,1-19.5-20.83,50.51,50.51,0,0,1-6.17-27.47,1.12,1.12,0,0,1,2.24,0v0a51,51,0,0,0,8,25,58.63,58.63,0,0,0,18.81,18c14.94,9.17,33.39,12,50.54,8.91a69.52,69.52,0,0,0,24.23-9.24,62.53,62.53,0,0,0,10.3-7.87c.79-.74,1.48-1.57,2.23-2.35s1.52-1.53,2.16-2.4l2-2.57c.33-.43.68-.84,1-1.29l.84-1.37,1.71-2.74c.53-.94.94-1.94,1.42-2.9a42.56,42.56,0,0,0,2.38-6,18.61,18.61,0,0,0,.86-3.11l.74-3.15c.21-2.15.56-4.3.65-6.47a49.44,49.44,0,0,0-6.17-25.36,1.4,1.4,0,0,1,.57-1.89A1.38,1.38,0,0,1,1445.41,743Z" class="e" transform="translate(-788.68 -121.98)"/><g class="d"><path d="M1123.45,849.31c2,11.39,11.93,21.48,26,25,18.8,4.63,38-4.23,42.77-19.78a24.51,24.51,0,0,0,1.1-6.6c1.16-24.43-19.8-35.37-37.2-35.75C1136.5,811.73,1120.06,824.09,1123.45,849.31Z" class="e" transform="translate(-788.68 -121.98)"/></g><path d="M1125.38,850.68c2,11.39,11.92,21.48,26,25,18.8,4.63,37.94-4.23,42.77-19.78a24.11,24.11,0,0,0,1.09-6.6c-5-7.7-13.52-13.83-24.3-16.5C1151.89,828.07,1132.46,836,1125.38,850.68Z" class="c" transform="translate(-788.68 -121.98)"/><path d="M1166.72,812a40.43,40.43,0,0,1,20,10.92,37.89,37.89,0,0,1,6.88,9.6,33.41,33.41,0,0,1,3.31,11.59,28.44,28.44,0,0,1-1.33,12.16,31.47,31.47,0,0,1-6,10.78,36.39,36.39,0,0,1-21.07,11.52c-15.92,2.7-32.79-4.23-41.92-17.35a33.5,33.5,0,0,1-6.11-22.57,29.29,29.29,0,0,1,3.63-11.15,28.43,28.43,0,0,1,7.62-8.61,1.12,1.12,0,0,1,1.47,1.69,26.88,26.88,0,0,0-8,18.41,29.36,29.36,0,0,0,6.43,18.58,37.82,37.82,0,0,0,35.63,13.64,29.65,29.65,0,0,0,16.82-9,24.71,24.71,0,0,0,6.23-17.61,30.63,30.63,0,0,0-7.44-18.13A40.81,40.81,0,0,0,1166,814.66h0a1.39,1.39,0,0,1,.79-2.66Z" class="e" transform="translate(-788.68 -121.98)"/><g class="d"><ellipse cx="946.8" cy="718.52" class="e" rx="55.29" ry="76.08" transform="translate(-1029.33 648.04) rotate(-39.68)"/></g><ellipse cx="940.15" cy="733.82" class="c" rx="41.57" ry="65.92" transform="translate(-1033.81 744.1) rotate(-44.34)"/><path d="M958.7,786.4a47.78,47.78,0,0,0,20-2.36,38.06,38.06,0,0,0,16.08-11,42.44,42.44,0,0,0,8.86-17.36,60.93,60.93,0,0,0,1.73-19.81,89,89,0,0,0-12.15-38.29,98.91,98.91,0,0,0-26.59-30.33c-10.72-8.06-23.51-13.62-36.52-14.3a40,40,0,0,0-18.72,3.38,37,37,0,0,0-14.66,12,47,47,0,0,0-7.72,18,67.27,67.27,0,0,0-1,20.21c1.22,13.66,6,27,12.85,39.24h0a1.44,1.44,0,0,1-2.42,1.54A94.84,94.84,0,0,1,882,707.15a72,72,0,0,1,0-22.22,52.64,52.64,0,0,1,8.17-21.21,44.17,44.17,0,0,1,17.5-15.23,49,49,0,0,1,22.71-4.67,65,65,0,0,1,22.28,4.75,85.8,85.8,0,0,1,10.2,4.85,102.43,102.43,0,0,1,9.43,6.09,106.1,106.1,0,0,1,29.1,33.38,104.44,104.44,0,0,1,8.7,20.48,86,86,0,0,1,3.71,22,68.26,68.26,0,0,1-2.77,22.37,49.73,49.73,0,0,1-11.34,19.73,43.36,43.36,0,0,1-19.42,11.63,47.33,47.33,0,0,1-11.1,1.67,54.82,54.82,0,0,1-11-.88,1.79,1.79,0,0,1,.45-3.54Z" class="e" transform="translate(-788.68 -121.98)"/><g class="d"><path d="M1341.44,688.64c-.15.42-.31.85-.48,1.27a35.47,35.47,0,0,1-1.39,7.74c-8.35,27-41.42,37.07-66.6,31q-17.67-4.5-35-9.75a10.86,10.86,0,0,1-1,3l-9.68,19.39c-4.69,9.4-17.39,12.57-28.35,7.11s-16-17.56-11.36-27l8.3-16.6a747.78,747.78,0,0,1-127.48-60.7,11.21,11.21,0,0,1-2.27,4.68l-13.72,16.77c-6.66,8.13-19.75,8.43-29.23.67s-11.78-20.65-5.12-28.79l13.7-16.74q-10.8-7.37-21.4-15.14c-15.63-11.62-22.22-32-15.39-49.13a37.67,37.67,0,0,1,5.09-16.16q9.93,12.51,20.85,24.13,5.94,6.38,12.15,12.43c2.91,2.84,5.85,5.64,8.86,8.39a397.41,397.41,0,0,0,34.66,28.45c1.11.82,2.23,1.61,3.34,2.41q10.13,7.23,20.68,13.8c1.64,1,3.27,2,4.92,3q10.53,6.39,21.43,12.06c3.94,2.07,7.9,4.06,11.91,6,.84.41,1.68.82,2.54,1.21l1.78.84c1.29.61,2.6,1.19,3.89,1.77q10.34,4.7,20.94,8.78c2.12.83,4.26,1.61,6.4,2.39,2.3.84,4.62,1.67,6.94,2.47,6.1,2.1,12.3,4.06,18.51,5.86q14.52,4.26,29.39,7.34,15.24,3.18,30.78,5.15a392.14,392.14,0,0,0,81.41,1.82Z" class="e" transform="translate(-788.68 -121.98)"/></g><path d="M1110.37,686.78c-4.58,4.18-7.82,9.62-7.94,15.35l0,2.12.28,2.11a9,9,0,0,0,.17,1l.3,1a21,21,0,0,0,.64,2,26.22,26.22,0,0,0,1.89,3.88c.38.62.69,1.28,1.13,1.87l1.33,1.77a47.93,47.93,0,0,0,13.69,11.6,73.88,73.88,0,0,0,16.86,7.34c1.49.41,3,.88,4.47,1.24l4.54,1,4.59.69c1.53.19,3.08.31,4.62.48a74.36,74.36,0,0,0,18.44-.86,45.56,45.56,0,0,0,17-6.38,27.3,27.3,0,0,0,6.7-6l1.29-1.84a13.5,13.5,0,0,0,1.07-2A22.29,22.29,0,0,0,1203,719l.06-.17a1.11,1.11,0,0,1,2.15.5,23.82,23.82,0,0,1-3.2,9.79,29.67,29.67,0,0,1-6.93,7.71,46.74,46.74,0,0,1-18.46,8.65,72.52,72.52,0,0,1-20.16,1.89,82.32,82.32,0,0,1-19.94-3.3,76.67,76.67,0,0,1-18.58-8.23,63,63,0,0,1-8.24-6.17c-1.28-1.16-2.48-2.42-3.7-3.66l-1.67-2a17.13,17.13,0,0,1-1.57-2.1l-1.46-2.22c-.48-.73-.83-1.57-1.25-2.35a30.47,30.47,0,0,1-2-5,26.9,26.9,0,0,1-.6-2.66l-.26-1.33a12.26,12.26,0,0,1-.11-1.36l-.12-2.73.28-2.72a22.4,22.4,0,0,1,4-9.91,27.36,27.36,0,0,1,7.48-7.09,1.4,1.4,0,0,1,1.7,2.21Z" class="e" transform="translate(-788.68 -121.98)"/><path d="M1140.39,758.63a67.21,67.21,0,0,0,23.79,2.89,75,75,0,0,0,23.15-5.14,63.68,63.68,0,0,0,20-12.32c5.72-5.32,10.08-12.16,11-20.22v0a1.13,1.13,0,0,1,2.24,0,27,27,0,0,1-1.69,13.18,37.66,37.66,0,0,1-7.08,11.38,58.41,58.41,0,0,1-21.72,15,70.1,70.1,0,0,1-12.67,3.76,63.83,63.83,0,0,1-13.16,1.06,50.09,50.09,0,0,1-25.06-7,1.4,1.4,0,0,1-.46-1.92,1.41,1.41,0,0,1,1.61-.61Z" class="e" transform="translate(-788.68 -121.98)"/><g class="f"><path d="M1571.08,626.06c-4.83-12.84-21.31-19.84-34.37-10.63a396,396,0,0,1-394.56,35.32c2,1.58,4.07,3.11,6.11,4.61l-1.19-.53c-1.29-.58-2.6-1.16-3.89-1.77l-1.78-.84c-.86-.39-1.7-.8-2.54-1.21q-4.56-2.18-9-4.49c-1-.49-1.93-1-2.89-1.48q-10.18-5.32-20.09-11.26l-1.34-.8c-1.65-1-3.28-2-4.92-3q-10.55-6.56-20.68-13.8c-1.11-.8-2.23-1.59-3.34-2.41q-9-6.62-17.72-13.73-4.33-3.56-8.57-7.23t-8.37-7.49q-1.73-1.59-3.43-3.2c-1.07-1-2.13-2-3.19-3-.74-.72-1.5-1.43-2.24-2.16q-6.21-6.06-12.15-12.43c-1.36-1.45-2.7-2.92-4-4.39q-8.72-9.58-16.81-19.74-1.47-1.85-2.91-3.72c-1.65-2.12-3.28-4.25-4.88-6.41l-1-1.42q-3.87-5.25-7.56-10.63c-2.19-3.19-4.35-6.42-6.45-9.69q-9.94-15.42-18.47-31.89c-1.5-2.89-3-5.81-4.38-8.73-.79-1.63-1.59-3.25-2.36-4.88a396.9,396.9,0,0,1-28.09-82.18c-1.14-5.13-2.15-10.26-3.09-15.39-1.56-8.55-2.88-17.11-3.88-25.63-.16-1.39-.28-2.77-.42-4.15-.61-5.73-1.12-11.47-1.49-17.18a22.44,22.44,0,0,0-22.6-21.23,22.25,22.25,0,0,0-3.81.31c-.79.13-1.58.3-2.36.51a22,22,0,0,0-2.69.94c-.55.24-1.09.49-1.63.77s-1.17.65-1.75,1a23.26,23.26,0,0,0-5.89,5.5c-.25.32-.48.66-.73,1,13-4,28.46,4.37,29.43,20.22q.69,10.63,1.91,21.33a405.42,405.42,0,0,0,7,41A397.47,397.47,0,0,0,940,472c2.18,4.59,4.42,9.11,6.74,13.61q8.53,16.47,18.47,31.89,7.18,11.16,15,21.74,3.81,5.13,7.79,10.13,9.94,12.51,20.86,24.13,5.93,6.38,12.15,12.43c2.91,2.84,5.85,5.64,8.86,8.39a395.79,395.79,0,0,0,34.65,28.45c1.11.82,2.24,1.61,3.35,2.41q10.13,7.23,20.67,13.8c1.64,1,3.27,2,4.92,3q10.53,6.39,21.44,12.06,5.89,3.11,11.9,6c.84.41,1.69.82,2.54,1.21l1.79.84c1.29.61,2.59,1.19,3.88,1.77q10.35,4.7,20.94,8.78c2.13.83,4.26,1.61,6.4,2.39,2.31.84,4.62,1.67,6.94,2.47,6.1,2.1,12.3,4.06,18.51,5.86q11.26,3.3,22.74,5.89c149.79,56.39,311.72-42,332.79-38.14,13.28,2.42,10.37,22.57,4.32,41.74a397.34,397.34,0,0,1-127.79,174.1l1-.7,0,0c1-.71,1.93-1.45,2.9-2.16q5-3.69,9.86-7.53,6.18-4.86,12.15-9.95,13.67-11.69,26.19-24.49,7.83-8,15.18-16.47t14.2-17.28c2.28-2.94,4.53-5.92,6.72-8.92a398.19,398.19,0,0,0,29.72-47.24q2.85-5.32,5.55-10.75,1.35-2.71,2.66-5.45a394.71,394.71,0,0,0,26.77-74.21A22,22,0,0,0,1571.08,626.06Z" class="g" transform="translate(-788.68 -121.98)"/></g><path d="M1189.63,946A401.64,401.64,0,0,1,804.37,656.43c-1.16-4.07-2.15-7.71-3-11.13s-1.8-7.26-2.72-11.29c-.65-2.88-1.29-5.85-1.89-8.83s-1.16-5.88-1.69-8.82-1-5.71-1.45-8.56c-.24-1.54-.48-3.1-.71-4.66-.17-1.15-.32-2.28-.48-3.41l-.13-.88c-.2-1.53-.39-3-.57-4.53s-.37-2.94-.53-4.41-.32-2.93-.46-4.4-.29-2.91-.42-4.38-.26-2.94-.37-4.4l0-.63c-.1-1.26-.2-2.51-.27-3.76,0-.48-.08-1-.11-1.6l-.2-3.39c-.09-1.42-.16-2.88-.22-4.35-.32-7-.44-14.16-.38-21.16l0-3.17c0-1.86.07-3.68.14-5.51V533c0-.91,0-1.82.09-2.73.24-6.16.62-12.43,1.15-18.61.07-.87.15-1.75.23-2.64l.06-.63q.06-.76.15-1.53c.12-1.31.27-2.74.43-4.17.58-5.47,1.32-11.17,2.19-16.92.2-1.39.43-2.81.66-4.22,1.79-11,4.1-22.21,6.86-33.17.66-2.63,1.34-5.24,2-7.86,1.55-5.63,3.18-11.11,4.84-16.29.35-1.12.72-2.28,1.11-3.43,1.78-5.42,3.76-11,5.87-16.59.9-2.38,1.82-4.73,2.77-7.08,1.32-3.33,2.73-6.71,4.18-10.05q1.1-2.54,2.22-5h0c5-11.07,10.51-22.07,16.5-32.71,2-3.63,4.18-7.27,6.34-10.82,1.23-2,2.49-4.08,3.76-6.1,1.36-2.17,2.74-4.31,4.15-6.46,2.43-3.71,5-7.47,7.84-11.5,1.64-2.33,3.42-4.77,5.43-7.48.91-1.23,1.84-2.47,2.76-3.69a25.32,25.32,0,0,1,1.87-2.21l.46-.5c.27-.28.55-.54.83-.8a5,5,0,0,1,.47-.44l.46-.4.27-.23a8.49,8.49,0,0,1,.76-.59l.3-.24c.17-.14.35-.28.54-.41l.21-.15a26.59,26.59,0,0,1,14.82-4.88l.34,0h.85a26.18,26.18,0,0,1,3.45.29,27.36,27.36,0,0,1,23.54,23.71c.09.63.14,1.28.19,1.94.12,2,.26,4,.42,6,.09,1.26.2,2.47.31,3.69.19,2.13.39,4.26.62,6.38.13,1.37.28,2.67.43,4,.85,7.49,1.93,15,3.21,22.38.22,1.3.44,2.54.67,3.79s.48,2.62.74,3.91c.68,3.49,1.33,6.62,2,9.6l-4.66,1.23,4.69-1.08c0,.11.05.22.07.32l.3,1.3q.36,1.65.75,3.3l.22.94c.31,1.31.62,2.63,1,4,.21.88.41,1.7.62,2.5.32,1.25.63,2.45.95,3.65.09.36.15.63.23.9l0,.17q.65,2.46,1.34,4.89.76,2.76,1.56,5.43c.72,2.43,1.47,4.81,2.22,7.2.39,1.23.79,2.48,1.2,3.72.17.54.35,1.06.53,1.59l.28.85a385.52,385.52,0,0,0,89.11,146.42,392.26,392.26,0,0,0,248.46,118.38,387.58,387.58,0,0,0,66.41-.06l2.51-.22,1.36-.13,2-.21c1.47-.14,2.88-.29,4.29-.45l2.59-.31c2.41-.28,4.77-.59,7.14-.93,2.92-.4,5.9-.85,9.11-1.36l5.37-.92c1.89-.33,3.77-.68,5.66-1.05l.28,0c1.86-.37,3.74-.74,5.6-1.13l5.32-1.14c9.59-2.14,19.27-4.67,28.75-7.55,1.55-.47,3.12-.95,4.67-1.44s3.13-1,4.68-1.52,3.06-1,4.57-1.53a389.51,389.51,0,0,0,81.65-39.25l1.23-.78c.91-.58,1.83-1.16,2.73-1.75l3.16-2.09c1.66-1.1,3.3-2.2,4.92-3.32l3.91-2.73a27.5,27.5,0,0,1,10.6-4.57c.61-.12,1.24-.21,1.86-.28a23.2,23.2,0,0,1,3.6-.2l1.16,0a26.71,26.71,0,0,1,5.87,1,28.71,28.71,0,0,1,10.47,5.6,27.46,27.46,0,0,1,8.6,13,27,27,0,0,1,.77,12c0,.34-.13.82-.22,1.27s-.2.89-.31,1.31c-.82,3.31-1.76,6.82-2.84,10.68q-.75,2.67-1.53,5.32c-1.55,5.22-3.24,10.54-5,15.81-1.33,3.89-2.55,7.3-3.72,10.42A404.27,404.27,0,0,1,1544.43,730q-1.17,2.25-2.34,4.45l-.16.3c-.84,1.56-1.69,3.13-2.56,4.68s-1.66,3-2.5,4.48c-2.2,3.84-4.16,7.16-6,10.17-3.83,6.3-7.9,12.58-12.09,18.65-.23.35-.48.72-.75,1.08l-1.25,1.8-1.42,2c-.1.15-.2.29-.31.43l-.68,1c-.43.62-.87,1.23-1.31,1.83l-1,1.38c-.25.36-.52.72-.79,1.07-.48.67-1,1.34-1.47,2l-.12.15c-.33.46-.68.92-1,1.36-.45.63-.93,1.25-1.4,1.85l-1.2,1.57c-.27.38-.55.73-.85,1.08s-.32.43-.48.63c-1,1.24-1.92,2.46-2.9,3.68a4.79,4.79,0,0,1-.42.52c-.61.78-1.22,1.54-1.84,2.29l-.26.33-1.19,1.44c-1.07,1.32-2.23,2.71-3.4,4.09l-3.81-2.95,3.71,3.07c-.1.11-.19.23-.3.34l-.53.62c-.47.57-.94,1.11-1.41,1.65s-1,1.16-1.51,1.75l-.72.84-.33.37a3,3,0,0,1-.25.28c-.7.81-1.4,1.6-2.11,2.38l-.6.67c-.81.9-1.68,1.86-2.55,2.8-.3.35-.62.7-.93,1l-.37.41-2.1,2.23-.14.16-.87.92-1.63,1.73-1.07,1.11-1.73,1.78-.87.9c-1,1-2.06,2.08-3.1,3.11-.1.11-.26.28-.45.46l-.92.9-1.62,1.59c-.21.22-.5.51-.81.79l-2,2c-.77.75-1.55,1.49-2.33,2.22s-1.77,1.68-2.69,2.51c-.37.36-.75.7-1.13,1-1,.94-2,1.86-3.07,2.79l-1.2,1.08-.29.26-.81.71-.22.19c-.35.32-.74.67-1.16,1s-1.16,1-1.8,1.57l-.26.22c-.12.12-.25.22-.37.33l-.17.14q-1.71,1.49-3.46,3c-.34.3-.76.64-1.17,1-.88.74-1.84,1.53-2.81,2.33l-.79.64c-.15.14-.34.3-.55.46s-.64.53-1,.78c-.89.73-1.88,1.52-2.89,2.31a1.39,1.39,0,0,1-.19.15c-.14.13-.27.22-.34.28l-.75.59-2.36,1.83c-.34.27-.74.59-1.18.9q-1.74,1.35-3.51,2.67c-.64.49-1.34,1-2.07,1.55l-2.38,1.74h0l-4.73,3.4-.75.52-2.62,1.82-.95.65c-2.35,1.64-4.88,3.33-7.94,5.33-3.57,2.33-6.86,4.4-10,6.33-1.11.69-2.3,1.4-3.49,2.1a5.84,5.84,0,0,1-.57.35L1391.8,891c-.71.42-1.38.82-2.07,1.21-.91.53-1.87,1.08-2.84,1.62l-.81.46c-1.25.72-2.52,1.42-3.79,2.12-.16.1-.42.24-.69.37l-3,1.64-3.36,1.78-2.35,1.22c-.28.16-.56.3-.86.45l-1,.5c-.82.43-1.65.85-2.48,1.26-1.62.82-3.17,1.58-4.73,2.33-2.3,1.11-4.62,2.22-7,3.28l-4.25,2h0l-1.64.73-2.94,1.31,0,0h0l-3,1.28-1.62.69c-.76.31-1.45.6-2.15.87-.25.11-.51.22-.78.32l-1.22.5-1.18.47-1.74.68a3.81,3.81,0,0,1-.45.19l-1,.39c-.8.32-1.63.64-2.46.94l-.32.13-.82.31-.32.11c-.54.22-1.09.42-1.66.63l-1.33.5-.85.3c-.22.09-.45.18-.68.25l-1.09.39-2,.71-1.68.59c-.36.13-.72.26-1.09.37-.72.27-1.46.51-2.22.76l-1.67.57-3.11,1-3.43,1.1-3.24,1q-2.43.75-4.86,1.45c-.25.08-.5.16-.74.22l-2.34.67,0,0L1294,932l-3,.8-2.91.75c-.63.17-1.33.34-2,.51-.46.13-.91.24-1.37.35-.78.2-1.58.38-2.36.56-.4.11-.78.2-1.17.28l-1.85.44-.31.08c-.81.18-1.54.35-2.28.5-.55.14-1.2.28-1.85.42l-1.11.25-1.75.37-2,.41,0,.11-2.58.42c-1.19.25-2.36.47-3.54.7l-2,.37-.85.16-3.08.56-.46.07-.63.11c-1.38.25-2.87.49-4.35.73l-.2,0-.91.14c-1.12.18-2.22.36-3.33.51-.92.15-1.89.28-2.85.42l-1.51.22-3.21.42-1.21.16c-1.48.19-3,.37-4.43.54l-3.19.35-1.2.13A393,393,0,0,1,1189.63,946ZM880.48,306.59l-.12.11a6.82,6.82,0,0,0-.53.51l-.45.47c-.4.43-.79.9-1.17,1.4-.91,1.21-1.83,2.42-2.72,3.63-2,2.65-3.7,5-5.3,7.3-2.78,3.93-5.28,7.6-7.65,11.22-1.37,2.09-2.72,4.18-4,6.3s-2.47,4-3.68,6c-2.11,3.47-4.19,7-6.18,10.56-5.85,10.38-11.26,21.12-16.11,31.92h0c-.73,1.63-1.46,3.28-2.17,4.91-1.41,3.26-2.78,6.56-4.08,9.81-.93,2.31-1.82,4.6-2.7,6.91-2.06,5.45-4,10.9-5.74,16.21-.37,1.11-.72,2.2-1.06,3.3-1.64,5.09-3.22,10.44-4.73,15.94-.7,2.54-1.36,5.09-2,7.65-2.69,10.71-4.94,21.6-6.69,32.39-.23,1.37-.44,2.73-.64,4.08-.85,5.64-1.57,11.19-2.14,16.53-.16,1.39-.3,2.75-.43,4.13-.06.55-.1,1-.14,1.41l-.06.65c-.07.84-.15,1.71-.22,2.56-.52,6-.89,12.16-1.12,18.2,0,.9-.06,1.75-.09,2.6v.2c-.07,1.8-.11,3.56-.14,5.32l0,3.15c-.07,6.83.06,13.78.37,20.65.06,1.43.12,2.82.21,4.23l.19,3.31c0,.52.07,1,.11,1.55.08,1.27.17,2.47.26,3.67l.06.66c.1,1.43.23,2.85.36,4.27s.26,2.86.41,4.28.29,2.89.45,4.31.33,2.84.51,4.28.36,2.94.56,4.4l.12.85c.16,1.12.31,2.22.48,3.35.22,1.51.44,3,.69,4.55q.66,4.19,1.41,8.37t1.65,8.62c.59,2.89,1.21,5.79,1.85,8.6.89,3.94,1.76,7.54,2.65,11s1.83,6.9,3,10.88a390,390,0,0,0,374.91,282.65,394.31,394.31,0,0,0,40.89-2.13l1.18-.13,3.11-.34,4.3-.52,5.82-.79,2.81-.41c1.1-.15,2.15-.32,3.21-.49l1.11-.17c1.45-.24,2.87-.47,4.29-.72l.47-.08.62-.11,2.89-.52.9-.17c.62-.11,1.25-.22,1.88-.35l1.52-.29.08-.16,2.86-.42,3.45-.72c.67-.13,1.21-.25,1.75-.37l1.1-.24,1.82-.42,2.09-.46.19,0,2.07-.49.28-.06.62-.15.2,0,2.33-.55c.41-.1.77-.19,1.15-.3l.24-.06c.62-.14,1.24-.29,1.86-.47l2.91-.74,3-.79,2.75-.76c1.47-.41,3-.83,4.42-1.26l.51-.15q2.41-.69,4.84-1.44l3.17-1,3.31-1.06,3.07-1,1.57-.53c.82-.28,1.5-.5,2.16-.75l.28-.09.57-.19,1.47-.52.51-.18c.62-.21,1.21-.43,1.8-.65l.18-.06.88-.31.2-.08s0,0,0,0l.59-.24.84-.29,1.07-.41.15,0,1.57-.59.42-.16c.24-.08.47-.17.69-.26l.43-.16c.82-.3,1.59-.6,2.35-.9l1.34-.54,1.77-.7,1.09-.43,1.23-.51.8-.32c.67-.26,1.33-.54,2-.81l1.64-.7c1-.4,1.9-.79,2.8-1.18l1.66-.72,1.39-.6,3.41-1.53h0l2.09-1.2.24.12.08,0c2.3-1.05,4.55-2.12,6.79-3.2,1.52-.73,3-1.48,4.52-2.23.89-.44,1.69-.84,2.48-1.26l.16-.08c.26-.12.51-.25.76-.39l.22-.11.52-.26.15-.08,2.34-1.22,3.28-1.74c1-.54,2-1.06,2.93-1.59l.31-.16.22-.12c1.34-.75,2.57-1.43,3.8-2.13l.84-.47c.92-.53,1.85-1.05,2.77-1.59.67-.38,1.28-.74,1.89-1.11l.15-.08c.61-.36,1.22-.71,1.81-1.07l.37-.23c1.18-.68,2.35-1.39,3.49-2.1,3.15-1.91,6.34-3.92,9.82-6.19,3-2,5.44-3.59,7.73-5.18l1-.66,2.61-1.81c.23-.16.4-.27.55-.39l4.1-2.95c1-.73,2-1.47,3-2.21.69-.5,1.31-1,1.93-1.45,1.23-.91,2.37-1.78,3.51-2.66l.16-.12c.3-.21.58-.44.87-.67l2.38-1.85,1.1-.87c1.08-.84,2-1.61,3-2.4.32-.26.55-.43.75-.61l1.43-1.17c.94-.77,1.87-1.54,2.81-2.33l1-.87c1.2-1,2.31-2,3.42-2.91l.82-.71c.57-.49,1.14-1,1.7-1.48l1.13-1,.29-.26.66-.59.37-.32,1.12-1c1.06-1,2.06-1.86,3-2.77l.12-.11c.29-.25.57-.5.84-.77l.13-.12c.88-.8,1.75-1.62,2.61-2.44s1.51-1.43,2.26-2.15l2.12-2c.26-.24.43-.41.61-.6l1.65-1.62,1.27-1.26c1.07-1.06,2.07-2.06,3.05-3.06l.91-.94c.59-.59,1.14-1.16,1.69-1.73l1-1.06c.55-.57,1.09-1.14,1.63-1.72.31-.32.53-.56.76-.81l.21-.23c.71-.74,1.36-1.44,2-2.14l.38-.41c.26-.29.53-.58.79-.88l.1-.12c.86-.93,1.72-1.87,2.56-2.82l.61-.67c.64-.71,1.31-1.47,2-2.23l.21-.24-.1.12.47-.54.6-.7.14-.17c.49-.54,1-1.09,1.43-1.64s.89-1,1.31-1.54c.27-.31.53-.63.81-.93l.26-.31c1-1.23,2.15-2.56,3.25-3.92.43-.52.79-.95,1.14-1.39l.26-.31c.62-.77,1.26-1.55,1.89-2.36l.35-.43c1-1.17,1.87-2.35,2.8-3.55.12-.14.23-.29.34-.44l.31-.4c.18-.2.33-.41.49-.62l1.35-1.76c.43-.57.86-1.13,1.27-1.7l.18-.22c.3-.38.59-.77.88-1.16l.11-.15,1.44-2,.1-.13c.19-.25.39-.5.56-.75l1.12-1.53c.4-.56.81-1.12,1.21-1.69l1-1.4c.48-.68,1-1.36,1.45-2.05l.23-.34,1-1.5.63-.91c4.1-5.94,8.07-12.07,11.81-18.22,1.8-2.95,3.72-6.18,5.85-9.91l2.46-4.39q1.27-2.29,2.5-4.59l.15-.28c.76-1.42,1.52-2.88,2.29-4.35a394,394,0,0,0,19.4-43.68c1.15-3.05,2.33-6.36,3.63-10.16,1.76-5.14,3.41-10.33,4.92-15.42.51-1.72,1-3.46,1.49-5.19,1.06-3.78,2-7.2,2.78-10.46.09-.34.16-.63.22-.92s.08-.43.11-.67a17.54,17.54,0,0,0-.46-7.87,17.81,17.81,0,0,0-5.6-8.45,18.79,18.79,0,0,0-6.91-3.69,17.42,17.42,0,0,0-4.49-.67h-.48a13.88,13.88,0,0,0-1.77.13l-.18,0a9.51,9.51,0,0,0-1.07.16,17.78,17.78,0,0,0-6.92,3l-3.92,2.74c-1.69,1.17-3.4,2.32-5.1,3.44l-3.17,2.1c-1,.63-1.92,1.24-2.88,1.84l-1.21.78a398.89,398.89,0,0,1-83.65,40.21c-1.61.55-3.19,1.09-4.76,1.6s-3.16,1-4.77,1.55-3.17,1-4.77,1.47c-9.72,3-19.63,5.55-29.46,7.73-1.82.41-3.62.79-5.43,1.17s-3.86.79-5.79,1.16l-.28.06c-1.93.38-3.86.73-5.78,1.07l-5.47.94c-3.33.53-6.37,1-9.35,1.39q-3.64.52-7.32,1l-2.67.31c-1.45.17-2.93.33-4.39.47l-2.08.21L1347,693l-2.6.23a396.41,396.41,0,0,1-68,.06A401.87,401.87,0,0,1,1021.75,572a395.1,395.1,0,0,1-91.32-150.07l-.28-.83c-.19-.56-.38-1.12-.56-1.68-.41-1.25-.82-2.53-1.23-3.81-.77-2.45-1.54-4.89-2.26-7.36-.55-1.82-1.09-3.69-1.61-5.56-.46-1.65-.92-3.31-1.36-5-.12-.39-.21-.78-.31-1.17-.32-1.17-.64-2.41-1-3.67-.22-.82-.44-1.71-.65-2.58-.33-1.3-.65-2.68-1-4.06l-.2-.87c-.28-1.18-.54-2.32-.79-3.46l-.43-1.89c-.65-3-1.31-6.18-2-9.72-.27-1.34-.53-2.69-.77-4.05s-.47-2.59-.69-3.91c-1.31-7.51-2.41-15.23-3.29-22.9-.15-1.37-.3-2.72-.43-4.07-.24-2.13-.44-4.33-.64-6.53-.11-1.27-.22-2.53-.31-3.79-.17-2-.31-4-.44-6.08,0-.41-.06-.85-.12-1.3a17.89,17.89,0,0,0-15.37-15.44,16.84,16.84,0,0,0-2.16-.18l-.83,0a16.92,16.92,0,0,0-9.57,3.15Zm386.83,627.14h0l-.08-.34Zm55.82-21Zm27.14-11Zm80.84-49.2,0,0ZM828.13,384h0Z" class="e" transform="translate(-788.68 -121.98)"/><path d="M916.14,502.34a106.94,106.94,0,0,0-2.33-35.52C905.18,429,880,401.38,857.49,405.21s-33.69,37.62-25.06,75.47,33.85,65.43,56.32,61.6Z" class="c" transform="translate(-788.68 -121.98)"/><path d="M851.89,408.39a37.76,37.76,0,0,0-12.54,15.77A70.9,70.9,0,0,0,834,444a116.32,116.32,0,0,0-.71,20.78c.19,3.46.51,6.92,1,10.32.26,1.69.55,3.38.95,5s1,3.32,1.54,5a140.77,140.77,0,0,0,7.76,19.11,100.64,100.64,0,0,0,10.78,17.32,66.14,66.14,0,0,0,6.71,7.56,49.77,49.77,0,0,0,7.74,6.33,36.73,36.73,0,0,0,8.87,4.41,29,29,0,0,0,9.89,1.36h0a1.13,1.13,0,0,1,.34,2.21,26.22,26.22,0,0,1-11.23.55A36.6,36.6,0,0,1,867,540.26a53,53,0,0,1-9.33-6.3,72.65,72.65,0,0,1-7.87-7.92,86.85,86.85,0,0,1-11.86-18.61,85.34,85.34,0,0,1-4.17-10.16c-.61-1.72-1.16-3.46-1.67-5.21s-1-3.53-1.34-5.31-.77-3.56-1.09-5.35-.67-3.68-.89-5.5c-.45-3.63-.68-7.25-.78-10.88a115.73,115.73,0,0,1,1.46-21.67,72.81,72.81,0,0,1,6.49-20.84,40.31,40.31,0,0,1,14.45-16.45,1.39,1.39,0,0,1,1.53,2.33Z" class="e" transform="translate(-788.68 -121.98)"/><g class="d"><path d="M847.51,466.91a76.77,76.77,0,0,0,10.43,31.25c6.25,10.2,14.51,17.3,23,18.57,15.74,2.38,26.29-16.06,23.56-41.18-2.59-24-16.34-45.39-31.29-49.37a16,16,0,0,0-2.14-.45C855.33,423.35,844.78,441.79,847.51,466.91Z" class="e" transform="translate(-788.68 -121.98)"/></g><ellipse cx="880.22" cy="490.93" class="c" rx="20.54" ry="36.86" transform="translate(-915.32 323.9) rotate(-26.59)"/><path d="M902.64,492.11a72.77,72.77,0,0,0-3-23.6,75.24,75.24,0,0,0-4.1-11.1,70.83,70.83,0,0,0-5.81-10.14,49.35,49.35,0,0,0-7.6-8.47,24.21,24.21,0,0,0-9.23-5.22,13,13,0,0,0-9.33.69,17,17,0,0,0-7,7,34.77,34.77,0,0,0-3.77,10.38,55,55,0,0,0-1.1,11.44c-.07,1.94.15,3.89.23,5.83.27,1.94.38,3.89.79,5.82a83.9,83.9,0,0,0,2.79,11.43A80,80,0,0,0,860.06,497a58.2,58.2,0,0,0,6.49,9.75,34.51,34.51,0,0,0,8.71,7.53,18.38,18.38,0,0,0,10.87,2.7h0a1.12,1.12,0,0,1,.36,2.21,20.42,20.42,0,0,1-12.89-1.69,37.08,37.08,0,0,1-10.52-7.58,61.12,61.12,0,0,1-7.84-10.17,74.54,74.54,0,0,1-5.63-11.49l-1.06-3c-.37-1-.7-2-1-3.05l-.87-3.08-.68-3.13c-.5-2.08-.7-4.22-1-6.34-.16-2.14-.46-4.27-.45-6.44a55.41,55.41,0,0,1,1-13A42,42,0,0,1,850,437.52a23.7,23.7,0,0,1,10.26-10,20.48,20.48,0,0,1,14.6-1.06,31,31,0,0,1,11.86,7,51.3,51.3,0,0,1,8.44,10.07A75.12,75.12,0,0,1,901.05,455a81,81,0,0,1,3.63,12.21,66.25,66.25,0,0,1,.72,25.17,1.39,1.39,0,0,1-2.76-.3Z" class="e" transform="translate(-788.68 -121.98)"/><path d="M1048.37,649.77c-6.66,8.13-19.75,8.43-29.23.67s-11.78-20.65-5.12-28.79,19.74-8.42,29.23-.66S1055,641.64,1048.37,649.77Z" class="h" transform="translate(-788.68 -121.98)"/><g class="i"><path d="M1048.37,649.77a16.36,16.36,0,0,1-2.1,2.14c3.41-7.94.55-18.24-7.51-24.84-8.57-7-20.09-7.45-27.13-1.48a16.22,16.22,0,0,1,2.39-3.94c6.65-8.13,19.74-8.42,29.23-.66S1055,641.64,1048.37,649.77Z" class="g" transform="translate(-788.68 -121.98)"/></g><path d="M1051.94,641.71a16.78,16.78,0,0,1-3.57,8.06c-6.66,8.13-19.74,8.44-29.23.68s-11.78-20.67-5.12-28.8a16.2,16.2,0,0,1,2.43-2.4c-1.14,7.14,2,15.22,8.7,20.73C1033.58,646.89,1044.87,647.4,1051.94,641.71Z" class="j" transform="translate(-788.68 -121.98)"/><path d="M1036.51,642.39c-2.6,3.17-7.71,3.29-11.41.26s-4.6-8.06-2-11.23,7.7-3.29,11.41-.26S1039.1,639.22,1036.51,642.39Z" class="e" transform="translate(-788.68 -121.98)"/><path d="M1060.49,617a11.37,11.37,0,0,1,1.6,16l-13.72,16.77c6.65-8.13,4.36-21-5.12-28.78s-22.58-7.46-29.23.66l13.72-16.76a11.36,11.36,0,0,1,16-1.6Z" class="k" transform="translate(-788.68 -121.98)"/><path d="M1034.32,659.83a28.67,28.67,0,0,1-27.5-23,20.92,20.92,0,0,1,20.66-25.23,28.63,28.63,0,0,1,28.08,23,21.36,21.36,0,0,1-4.28,17.56h0a21.37,21.37,0,0,1-16.38,7.67Zm-6.26-40.71h-.41a13.43,13.43,0,0,0-13.43,16.41,21.12,21.12,0,0,0,20.51,16.78,14,14,0,0,0,10.73-4.92h0a14,14,0,0,0,2.7-11.49,21.17,21.17,0,0,0-20.1-16.78Z" class="e" transform="translate(-788.68 -121.98)"/><path d="M1051.28,652.15l-5.82-4.76a14,14,0,0,0,2.7-11.49,21.15,21.15,0,0,0-20.51-16.78,14,14,0,0,0-10.72,4.91l-5.82-4.76h0l13.72-16.76a15.13,15.13,0,0,1,21.28-2.13l16.76,13.72a15.14,15.14,0,0,1,2.13,21.28l-13.71,16.76Zm-23.22-40.55a28.67,28.67,0,0,1,27.5,23l.06.38,3.56-4.35a7.6,7.6,0,0,0-1.07-10.7l-16.76-13.72a7.62,7.62,0,0,0-10.71,1.07l-3.56,4.35h1Z" class="e" transform="translate(-788.68 -121.98)"/><path d="M1223.25,725.46c-4.7,9.41-17.39,12.59-28.35,7.11s-16.06-17.54-11.36-26.94,17.39-12.58,28.36-7.1S1227.94,716.07,1223.25,725.46Z" class="h" transform="translate(-788.68 -121.98)"/><g class="i"><path d="M1223.25,725.46a16.54,16.54,0,0,1-1.42,2.32c1-8.23-4-17.11-13-21.59-10-5-21.43-2.79-26.94,4.75a16.73,16.73,0,0,1,1.62-5.31c4.69-9.4,17.4-12.58,28.37-7.1S1227.94,716.07,1223.25,725.46Z" class="g" transform="translate(-788.68 -121.98)"/></g><path d="M1223.25,725.46c-4.7,9.41-17.4,12.59-28.36,7.12s-16-17.55-11.35-27a4.82,4.82,0,0,1,.27-.5c1.13,6.53,5.76,12.81,12.84,16.34,10.77,5.38,23.21,2.41,28.08-6.61A17.08,17.08,0,0,1,1223.25,725.46Z" class="j" transform="translate(-788.68 -121.98)"/><path d="M1227.85,690.84a11.36,11.36,0,0,1,5.08,15.24l-9.68,19.38c4.69-9.39-.39-21.46-11.35-26.93s-23.67-2.3-28.36,7.1l9.68-19.38a11.36,11.36,0,0,1,15.25-5.09Z" class="k" transform="translate(-788.68 -121.98)"/><path d="M1206,739a28.65,28.65,0,0,1-12.76-3.06A27.78,27.78,0,0,1,1179.88,722a20.93,20.93,0,0,1,14.57-29.18,28.65,28.65,0,0,1,32.46,16.22,21.31,21.31,0,0,1-.3,18.07h0C1222.82,734.73,1214.76,739,1206,739Zm-5.2-39.4a18.3,18.3,0,0,0-4.5.55,13.4,13.4,0,0,0-9.47,19,20.23,20.23,0,0,0,9.76,10.1c9.1,4.54,19.55,2.11,23.32-5.43h0A13.91,13.91,0,0,0,1220,712a20.23,20.23,0,0,0-9.76-10.1A21.1,21.1,0,0,0,1200.78,699.6Z" class="e" transform="translate(-788.68 -121.98)"/><path d="M1226.61,727.14l-6.72-3.36h0A14,14,0,0,0,1220,712a21.11,21.11,0,0,0-23.7-11.84,13.94,13.94,0,0,0-9.38,7.15l-6.72-3.35,9.68-19.38a15.12,15.12,0,0,1,20.29-6.77l19.38,9.68a15.15,15.15,0,0,1,6.77,20.28l-9.69,19.38Zm-25.83-35.06a28.72,28.72,0,0,1,12.8,3.09,27.78,27.78,0,0,1,13.33,13.9l.15.36,2.51-5a7.61,7.61,0,0,0-3.4-10.2l-19.38-9.68a7.61,7.61,0,0,0-10.21,3.41l-2.51,5,.38-.1A26.43,26.43,0,0,1,1200.78,692.08Z" class="e" transform="translate(-788.68 -121.98)"/><path d="M1268.94,712.81c-95.32-24.24-183.29-64.8-262.62-123-19.59-14.57-25-42.82-7.57-61.35h0c16.16-17.1,43.68-18.88,62.47-5.1,72,51.65,151.52,86.88,237.65,107.31,22.72,5,44,26.29,36.66,51.16h0C1327.18,708.74,1294.11,718.85,1268.94,712.81Z" class="g" transform="translate(-788.68 -121.98)"/><path d="M1283.78,717.89a66.91,66.91,0,0,1-15.63-1.81h0c-96.89-24.64-185.64-66.22-263.79-123.59A47.66,47.66,0,0,1,985,558.64a41.51,41.51,0,0,1,11.25-32.52c17.1-18.09,46.49-20.5,66.92-5.51,70,50.21,149.55,86.13,236.44,106.75,14.61,3.22,28.11,12.69,35.19,24.68a38,38,0,0,1,3.92,30.7C1331.46,706.3,1307.13,717.89,1283.78,717.89Zm-14-8.35c24.12,5.78,55-4.39,62.56-28.75a31.27,31.27,0,0,0-3.28-25.33c-6.15-10.44-18-18.69-30.88-21.54-87.8-20.83-168.16-57.11-238.9-107.86-17.77-13-43.26-11-58,4.68a34.86,34.86,0,0,0-9.45,27.3,40.89,40.89,0,0,0,16.58,29C1085.75,643.9,1173.71,685.11,1269.75,709.54Z" class="e" transform="translate(-788.68 -121.98)"/><path d="M1186.16,389.52a92.14,92.14,0,0,1-26.33.75c-28.11-2.83-60.54-15.56-92.72-29.52-21.7-9.42-42.13-5.17-44.77-12.1-3.8-9.95,15.09-12.52,15.09-12.52s2.61-5.25-24.7-16.42c-22.05-9-19.76-24.26,4.15-27.2,44.2-5.44,84.63,13.51,121.29,27.91,9.89,3.89,19.5,7.44,28.84,10.1,14,4,27.45,6,40.26,4l-14.93,38.93Z" class="g" transform="translate(-788.68 -121.98)"/><g class="d"><path d="M1012.73,319.71c-14.62-6-18.54-14.7-12.55-20.75,1.11,4.34,4.61,8.08,11.14,10.16,38.81,12.39,37.3,24.13,37.3,24.13A96.85,96.85,0,0,1,1030,338a39.65,39.65,0,0,1,7.4-1.89S1040,330.88,1012.73,319.71Z" class="e" transform="translate(-788.68 -121.98)"/></g><g class="d"><path d="M1186.16,389.52a92.14,92.14,0,0,1-26.33.75c-28.11-2.83-60.54-15.56-92.72-29.52-21.7-9.42-42.13-5.17-44.77-12.1a6.68,6.68,0,0,1-.49-2.94c12.64,6.38,36,2.71,54.66,10.81,32.18,14,64.76,10.07,92.87,12.9A93.89,93.89,0,0,0,1194,369l-1.7,4.45Z" class="e" transform="translate(-788.68 -121.98)"/></g><path d="M1171.11,395.35c-32.49,0-71.21-15.46-105.79-30.47-10.33-4.48-20.38-5.69-28.46-6.66-9.19-1.1-16.45-2-18.74-8a10.55,10.55,0,0,1,.66-9.42c2.3-3.87,6.91-6.18,10.94-7.52-3-2.11-8.51-5.27-18.7-9.43-12.46-5.1-19-12.58-17.94-20.52s9.55-13.65,23.25-15.34c40.72-5,78.51,10.17,111.86,23.56,28.27,11.36,55,22.09,78.38,18.43a4.51,4.51,0,1,1,1.39,8.91c-25.85,4-53.67-7.14-83.13-19-33.92-13.62-69-27.71-107.4-23-10.06,1.24-15,4.8-15.41,7.58s3.32,7.26,12.41,11c16.26,6.64,25.12,12.43,27.11,17.71a6.07,6.07,0,0,1-.07,4.89,4.56,4.56,0,0,1-3.43,2.46c-3.94.55-10.14,2.54-11.5,4.84-.14.24-.35.59,0,1.5,1.17,1.09,7.09,1.81,11.43,2.33,8.2,1,19.43,2.33,31,7.34,39.2,17,83.75,34.64,116.41,28.48A4.51,4.51,0,0,1,1187,394,85.72,85.72,0,0,1,1171.11,395.35Z" class="e" transform="translate(-788.68 -121.98)"/><path d="M1037.07,331.65c.77.12,1.75.18,2.63.23s1.82.07,2.72.05a20.52,20.52,0,0,0,5.06-.61l.27-.08a2.26,2.26,0,0,1,2,3.94,24.24,24.24,0,0,1-5.84,3.32c-1,.42-2,.79-3,1.15s-2,.66-3.14,1l-.31.07a4.61,4.61,0,1,1-2.24-8.95A4.73,4.73,0,0,1,1037.07,331.65Z" class="e" transform="translate(-788.68 -121.98)"/><path d="M1118.57,384.63a3.76,3.76,0,0,1-3.31-5.53c12.51-23.42,11.48-61.23,11.47-61.61a3.76,3.76,0,1,1,7.51-.24c0,1.63,1.11,40.18-12.35,65.39A3.76,3.76,0,0,1,1118.57,384.63Z" class="e" transform="translate(-788.68 -121.98)"/><path d="M1312.47,348.12,1308,365.35l-2.29,8.77-39.42,151.32s10.47,2.1,24.74,3.79c2.79.33,5.72.65,8.75.93,22.59,2.1,50.45,2.29,62.8-7.24,18.46-14.24,36.43-97.15,28.87-132.73-3.46-16.32-34-28.8-56.13-35.79-2.46-.78-4.83-1.49-7-2.13C1319,349.56,1312.47,348.12,1312.47,348.12Z" class="g" transform="translate(-788.68 -121.98)"/><g class="d"><path d="M1308,365.35l-2.29,8.77-31.3,120.15-8.12,31.17.63.12.41.08.39.07.3.06.13,0,.62.11.15,0,.58.11.85.15.67.12.72.12,1,.17,2.14.35,2.09.33,2.63.41c3.38.5,7.26,1,11.47,1.54l2.49.29,1.8.19c1.45.16,3,.31,4.46.45,22.6,2.11,50.45,2.29,62.79-7.24,15.21-11.73,30.08-70,30.64-110.1-5.11,34-16.37,69.28-27.84,78.11-5.66,4.37-15.16,6.54-26,7.4a5.93,5.93,0,0,1-5.68-8.65l0-.1a104.27,104.27,0,0,0,9.13-27.31c4.52-23.16,7.73-57.13-12.18-89C1330.19,372.54,1320.15,369.24,1308,365.35Z" class="e" transform="translate(-788.68 -121.98)"/></g><path d="M1322.53,535.79c-27,0-55.25-5.57-57.15-5.95l-4.66-.94,48.49-186.1,4.22.94c7.82,1.72,76.49,17.67,82.4,45.51,4.33,20.39.42,52.77-4.69,76.26-2.51,11.57-11.8,50.14-25.84,61C1356.1,533.58,1339.55,535.79,1322.53,535.79Zm-50.7-13.88c22.87,4.08,72.08,9.72,88-2.54,15.71-12.12,34.91-92.1,27.23-128.25-3.37-15.9-43.86-31-71.33-37.64Z" class="e" transform="translate(-788.68 -121.98)"/><path d="M1373.48,461.05,1343,457a6,6,0,0,0-6.39,3.68c-3.8,9.3-11.46,31.25-3.63,40.7,6.5,7.84,19.34,9.8,28.1,5.08,9.81-5.27,15.31-27.22,17.5-38.2A6,6,0,0,0,1373.48,461.05Z" class="g" transform="translate(-788.68 -121.98)"/><g class="d"><path d="M1336.62,460.63c-3.8,9.3-11.46,31.25-3.63,40.69,6.5,7.85,19.34,9.81,28.11,5.09,6-3.24,10.43-12.8,13.43-22.22-2.37,4.52-5.32,8-8.5,10-18.23,11.49-25.85-8.22-25.85-8.22s-2.85,3.79-4.46,3.69c-6.73-.39-1-20.53,2.13-30.89A6.07,6.07,0,0,0,1336.62,460.63Z" class="e" transform="translate(-788.68 -121.98)"/></g><path d="M1350.51,512c-7.57,0-15.16-3.09-19.84-8.72-8.57-10.35-1.69-31.86,3.17-43.76a9,9,0,0,1,9.57-5.52l30.47,4.11a9,9,0,0,1,7.66,10.72c-3.06,15.34-8.84,34.79-19,40.26A25.4,25.4,0,0,1,1350.51,512Zm-8.31-52.07a3,3,0,0,0-2.79,1.87c-7.3,17.86-8.84,31.93-4.11,37.64,5.43,6.55,16.59,8.54,24.37,4.36,6.15-3.31,12.12-16.82,16-36.15a3,3,0,0,0-.5-2.35,3,3,0,0,0-2.06-1.24h0l-30.48-4.1A2.69,2.69,0,0,0,1342.2,459.9Z" class="e" transform="translate(-788.68 -121.98)"/><path d="M1345.1,511.05a10.67,10.67,0,0,1-1.22-1.26,14.91,14.91,0,0,1-1-1.22,20.64,20.64,0,0,1-1.59-2.54,25.56,25.56,0,0,1-2.18-5.4,32.75,32.75,0,0,1-1.13-11.17,57.45,57.45,0,0,1,1.9-10.69c.45-1.73,1-3.45,1.58-5.14a27,27,0,0,1,2.28-5,.9.9,0,0,1,1.57.86l0,.11a26.89,26.89,0,0,0-1.58,4.74c-.41,1.66-.74,3.35-1,5.05a54.05,54.05,0,0,0-.78,10.15,28.1,28.1,0,0,0,1.92,9.54,20.73,20.73,0,0,0,2.18,4.15,16.71,16.71,0,0,0,1.39,1.79c.24.29.5.54.75.79a6.18,6.18,0,0,0,.66.56,3,3,0,1,1-3,5.27,3,3,0,0,1-.5-.35Z" class="e" transform="translate(-788.68 -121.98)"/><path d="M1346.82,376c3.83.23,7.6.55,11.39.93s7.58.83,11.37,1.38,7.59,1.18,11.39,2a80.47,80.47,0,0,1,11.51,3.27,4.5,4.5,0,1,1-3.19,8.41c-.14-.06-.27-.11-.4-.18h0a72.79,72.79,0,0,0-9.92-3.86c-3.47-1.12-7.06-2.07-10.66-3s-7.26-1.68-10.92-2.42-7.36-1.4-11-2h0a2.32,2.32,0,0,1,.5-4.6Z" class="e" transform="translate(-788.68 -121.98)"/><path d="M1338.08,670.79c-6.78,21.93-29.94,32.72-51.89,32.72a63.57,63.57,0,0,1-14.69-1.7c-95.31-24.23-183.29-64.8-262.63-123-19.58-14.57-25-42.82-7.56-61.35a46.63,46.63,0,0,1,34-14.27,48.17,48.17,0,0,1,28.46,9.17q4.65,3.34,9.33,6.57c64.85,44.86,135.7,76.69,211.85,96.62,5.45,1.44,11,2.81,16.47,4.12C1324.15,624.66,1345.46,645.92,1338.08,670.79Z" class="a" transform="translate(-788.68 -121.98)"/><g class="l"><polygon points="343.58 424.17 357.21 536.5 384.43 550.81 369.28 438.97 343.58 424.17" class="g"/><polygon points="289.46 397.12 303.1 509.44 330.31 523.75 315.16 411.91 289.46 397.12" class="g"/><polygon points="397.7 443.72 411.33 556.04 438.55 570.36 423.4 458.51 397.7 443.72" class="g"/></g><g class="m"><path d="M1301.43,618.14c-5.51-1.31-11-2.68-16.47-4.12-76.15-19.93-147-51.76-211.85-96.62q-4.68-3.24-9.33-6.57a48.18,48.18,0,0,0-28.46-9.18,46.64,46.64,0,0,0-34,14.28,38,38,0,0,0-10.5,26.18,38.38,38.38,0,0,1,9-15.66,46.65,46.65,0,0,1,34-14.27,48.12,48.12,0,0,1,28.45,9.17q4.65,3.33,9.34,6.57c64.85,44.86,135.69,76.69,211.84,96.62q8.19,2.16,16.48,4.12c19.46,4.3,37.88,20.53,38.12,40.74l0-.11C1345.46,644.42,1324.15,623.16,1301.43,618.14Z" class="g" transform="translate(-788.68 -121.98)"/></g><g class="n"><path d="M1285,615.52c-6.83,27.4-26.16,46.51-52,45.41-65.46-2.79-47.36-49-46-60.21,1-8.46-41.22-27.84-62.23-14.55-18.46,11.66-49,5.41-65.26-14.8-19.93-24.8-.64-46.1,13.62-52.47C1138,563.76,1208.81,595.59,1285,615.52Z" class="e" transform="translate(-788.68 -121.98)"/></g><path d="M1286.34,706.9a66.91,66.91,0,0,1-15.63-1.81h0c-96.89-24.64-185.64-66.22-263.79-123.59a47.66,47.66,0,0,1-19.28-33.84,41.51,41.51,0,0,1,11.25-32.52c17.1-18.09,46.49-20.51,66.92-5.51,70,50.21,149.55,86.13,236.44,106.74,14.62,3.23,28.12,12.7,35.19,24.69a37.91,37.91,0,0,1,3.92,30.7C1334,695.3,1309.69,706.9,1286.34,706.9Zm-14-8.35c24.13,5.78,55-4.39,62.56-28.75a31.27,31.27,0,0,0-3.28-25.33c-6.15-10.44-18-18.69-30.88-21.54-87.8-20.82-168.16-57.11-238.89-107.86-17.78-13-43.27-11-58.06,4.68a34.85,34.85,0,0,0-9.45,27.3,40.89,40.89,0,0,0,16.58,29C1088.31,632.91,1176.28,674.12,1272.31,698.55Z" class="e" transform="translate(-788.68 -121.98)"/><path d="M1308.58,516.81c-14.08,13.88-27.34,20.35-28,46.74-.42,16.29,5.62,26.1-2.49,48.34-11.59,31.8-30.81,49.28-65.2,33.42-20.92-9.65-20.59-29-13-44.77a57.74,57.74,0,0,1,12.58-17.11c-10.44-11.4-18.81-31.36-12.35-64.34,0,0-.09-.13-.28-.37a21.93,21.93,0,0,0-10.78-6.93c-25.18-7.73-31.08,3.19-36.89,21.92-1.86,6-4.61,24.49-13,31.51-17.61,14.77-49.72,25.48-73.51-.87-10.93-12.11-9.89-23.38-2.91-32.53,5.71-7.55,15.45-13.66,25.8-17.64-9.59-64.13,61.51-71.73,61.51-71.73s34.83-66.2,42.73-120.55L1326,332.38c9.64,37.18,14.1,66.54,15,90.07C1342.91,476.53,1325.8,499.86,1308.58,516.81Z" class="g" transform="translate(-788.68 -121.98)"/><g class="n"><path d="M1214.58,499.71a50,50,0,0,0-14.72,19,21.93,21.93,0,0,0-10.78-6.93c-25.18-7.73-31.08,3.19-36.89,21.92-1.86,6-4.61,24.49-13,31.51-17.61,14.77-49.72,25.48-73.51-.87-10.93-12.11-9.89-23.38-2.91-32.53,4.47,16.21,14.77,30.81,28.89,32.45,19.6,2.28,35.87,1.89,47-18.34,11.84-21.62,4.09-47.76,12.55-57.4s27.93-7.28,41.09-1.95A92.17,92.17,0,0,1,1214.58,499.71Z" class="e" transform="translate(-788.68 -121.98)"/></g><g class="n"><path d="M1308.58,516.81c-14.08,13.88-27.34,20.35-28,46.74-.42,16.29,5.62,26.1-2.49,48.34-11.59,31.8-30.81,49.28-65.2,33.42-20.92-9.65-20.59-29-13-44.77-.64,7-.5,15.82,2.92,22.28,7.67,14.48,35.28,17.37,49.47,4.78,11.15-9.9,21.62-25.71,17.91-45s-9.18-39.75-1.82-53c4.92-8.88,27.09-13.46,33.53-30.47,2.63-6.93-15.78-13.05-28.77-16.45a19.42,19.42,0,0,0-17.07,4,16,16,0,0,1-15.74,2.53l-69.61-26.34a16.07,16.07,0,0,1-9.31-20.66l2.92-7.71,11.1-29.33a16.07,16.07,0,0,1,20.67-9.32l69.59,26.35a15.16,15.16,0,0,1,2.88,1.43A16.11,16.11,0,0,1,1275,442.8l-7.08,18.71c17.3,2.21,52.87,10.11,53.79,7.58,7.4-20.26,8-22.32,6.84-45.53a63.35,63.35,0,0,1,8.93-1.65,8.55,8.55,0,0,1,3.44.54C1342.91,476.53,1325.8,499.86,1308.58,516.81Z" class="e" transform="translate(-788.68 -121.98)"/></g><path d="M1184.05,367.21c-1.61,6.73-3.41,13.44-5.56,20s-4.44,13.12-6.94,19.58-5.18,12.84-8.08,19.13-6,12.47-9.4,18.6l-1.25,2.23-2.24.14h0c-1.87.23-4.07.64-6.11,1.07s-4.14,1-6.18,1.56a90.12,90.12,0,0,0-12,4.32,64.75,64.75,0,0,0-20.57,13.92,47.06,47.06,0,0,0-7.32,9.74,49.23,49.23,0,0,0-4.53,11.27,64.12,64.12,0,0,0-.87,24.73l.52,3.55-3.35,1.31a71.36,71.36,0,0,0-13,6.54,43.56,43.56,0,0,0-10.51,9.2,19.62,19.62,0,0,0-4.65,11.54c-.14,4,1.4,8.1,4,11.83a34.42,34.42,0,0,0,4.52,5.3l2.54,2.52c.89.77,1.84,1.46,2.76,2.2a45.16,45.16,0,0,0,5.86,3.85c1,.53,2.11.95,3.16,1.44.54.23,1.06.49,1.6.7l1.66.5c1.12.3,2.19.76,3.34,1l3.43.61c1.15.18,2.32.17,3.48.27.59,0,1.17.1,1.75.09l1.76-.08a52.57,52.57,0,0,0,7-.75,61.44,61.44,0,0,0,20-8c1.06-.59,2-1.34,3-2a34,34,0,0,0,2.9-2.15l1.43-1.11,1-1a18.35,18.35,0,0,0,1.88-2.43c2.38-3.64,4-8.3,5.41-13,.68-2.39,1.28-4.83,1.89-7.33l.94-3.85c.16-.64.39-1.43.59-2.07l.6-1.9c1.68-5,3.42-10.25,6.82-15.3a30.44,30.44,0,0,1,2.91-3.63,23.68,23.68,0,0,1,3.82-3,21.62,21.62,0,0,1,4.42-2.18,25.43,25.43,0,0,1,4.65-1c6.21-.75,11.85.42,17.1,1.85l2,.54c.69.23,1.43.45,2.14.73a27.35,27.35,0,0,1,4.16,2,26.38,26.38,0,0,1,3.8,2.69c.6.52,1.18,1,1.74,1.63.28.29.56.6.83.91l.42.51c.15.19.25.31.49.65l1,1.49-.35,1.9a127.78,127.78,0,0,0-2,16.21,84.32,84.32,0,0,0,.69,16.07,59.65,59.65,0,0,0,4.24,15.16,47.54,47.54,0,0,0,8.37,13l3,3.33-3.26,3a53,53,0,0,0-14.08,22,34.18,34.18,0,0,0-1.72,12.51,21.43,21.43,0,0,0,3.85,11.13,22,22,0,0,0,4.09,4.39,30.82,30.82,0,0,0,2.48,1.86c.9.54,1.78,1.12,2.73,1.6A62.11,62.11,0,0,0,1219,643c1,.42,2.1.82,3.16,1.16s2.13.68,3.2,1a41.35,41.35,0,0,0,12.82,1.59,32.61,32.61,0,0,0,6.17-.94,30.91,30.91,0,0,0,5.77-2.24c7.41-3.85,13.15-11,17.45-18.93a97.29,97.29,0,0,0,5.69-12.53,74.56,74.56,0,0,0,3.77-13,55.4,55.4,0,0,0,.75-13.26c-.28-4.53-1-9.22-1.4-14.24-.22-2.49-.29-5.06-.26-7.62,0-1.28.13-2.55.19-3.82a35.69,35.69,0,0,1,.37-3.83,46.27,46.27,0,0,1,13.25-28c3.52-3.71,7.23-6.9,10.71-10.09a121.55,121.55,0,0,0,18.54-20.58c1.21-1.93,2.57-3.78,3.67-5.77l3.22-6,2.69-6.31a28.17,28.17,0,0,0,1.15-3.23l1.07-3.28c.34-1.09.74-2.17,1-3.28l.78-3.38.78-3.37a32.34,32.34,0,0,0,.7-3.39c.6-4.61,1.54-9.16,1.71-13.85,1.46-18.63-.06-37.59-2.73-56.34L1331,375.3l-2.83-14c-.49-2.32-.91-4.66-1.46-7l-1.67-6.95-3.36-13.89,0-.14a4.49,4.49,0,0,1,8.73-2.11l3.4,14.08,1.7,7c.56,2.35,1,4.74,1.48,7.1l2.88,14.23,2.3,14.36c2.73,19.2,4.33,38.73,2.79,58.38-.18,4.92-1.16,9.8-1.82,14.7a35.26,35.26,0,0,1-.75,3.65l-.84,3.64-.85,3.63c-.31,1.21-.75,2.39-1.12,3.58l-1.16,3.57a32.26,32.26,0,0,1-1.26,3.53l-3,6.93c-1.15,2.24-2.37,4.44-3.55,6.66s-2.71,4.24-4,6.37a130.4,130.4,0,0,1-19.87,22.11c-3.6,3.28-7.17,6.37-10.24,9.63a37.37,37.37,0,0,0-10.87,23,32.74,32.74,0,0,0-.32,3.32c0,1.13-.15,2.25-.17,3.37,0,2.23,0,4.47.23,6.76.35,4.54,1.1,9.34,1.41,14.39a63.86,63.86,0,0,1-.87,15.41,83.51,83.51,0,0,1-4.21,14.6,108.15,108.15,0,0,1-6.2,13.64,67.71,67.71,0,0,1-8.73,12.66,44.1,44.1,0,0,1-12.46,9.93,40.05,40.05,0,0,1-7.62,3,41.49,41.49,0,0,1-8,1.23A50.05,50.05,0,0,1,1223,653.8c-1.25-.34-2.49-.7-3.69-1.13s-2.41-.83-3.59-1.3a71,71,0,0,1-7-3.17c-1.18-.61-2.32-1.34-3.47-2a38.26,38.26,0,0,1-3.27-2.46,30.44,30.44,0,0,1-11.16-21.8,43.11,43.11,0,0,1,2.13-15.84,62.08,62.08,0,0,1,16.59-25.95l-.29,6.35a56.59,56.59,0,0,1-10-15.45,68.37,68.37,0,0,1-4.9-17.46,92.77,92.77,0,0,1-.78-17.83,134.18,134.18,0,0,1,2.2-17.49l.69,3.39c0,.08-.05-.06-.1-.12l-.2-.24c-.15-.17-.3-.35-.48-.52-.33-.35-.71-.69-1.09-1a16.1,16.1,0,0,0-2.52-1.78,18.41,18.41,0,0,0-2.83-1.36c-.49-.2-1-.34-1.53-.52l-1.76-.48c-4.67-1.31-9.43-2.13-13.53-1.6a16.48,16.48,0,0,0-2.91.62,12.55,12.55,0,0,0-2.51,1.26,13.71,13.71,0,0,0-2.24,1.77,21.87,21.87,0,0,0-1.92,2.43c-2.44,3.54-4.13,8.22-5.68,13l-.58,1.8c-.17.6-.31,1-.47,1.67l-.9,3.68c-.61,2.53-1.25,5.11-2,7.7-1.53,5.17-3.27,10.43-6.55,15.49a26.24,26.24,0,0,1-2.87,3.69c-.59.57-1.2,1.18-1.78,1.68l-1.63,1.28a41.39,41.39,0,0,1-3.33,2.46c-1.15.76-2.25,1.6-3.45,2.28a69.45,69.45,0,0,1-15,7,71,71,0,0,1-8.07,2.15,60.13,60.13,0,0,1-8.38.89l-2.12.09c-.7,0-1.41-.07-2.12-.1-1.42-.11-2.84-.12-4.25-.33l-4.21-.76a41.92,41.92,0,0,1-4.12-1.15l-2-.63c-.66-.26-1.31-.57-2-.85-1.3-.59-2.63-1.13-3.89-1.78a54.56,54.56,0,0,1-7.1-4.65c-1.1-.88-2.24-1.72-3.3-2.64l-3-2.94a42.58,42.58,0,0,1-5.51-6.51,33.36,33.36,0,0,1-4.07-8,25.29,25.29,0,0,1,.54-18.33,32.34,32.34,0,0,1,4.58-7.7,52.24,52.24,0,0,1,12.69-11.2A81,81,0,0,1,1087,510l-2.83,4.86a72.94,72.94,0,0,1,1-28.31,57.93,57.93,0,0,1,5.41-13.44,56,56,0,0,1,8.68-11.56,73.76,73.76,0,0,1,23.38-15.89,99.55,99.55,0,0,1,13.14-4.75c2.23-.64,4.49-1.2,6.76-1.7s4.5-.91,7-1.22h0l-3.5,2.37,8.64-18.44c2.88-6.17,5.76-12.35,8.57-18.56s5.59-12.44,8.32-18.69l8.12-18.84,0,0a2.25,2.25,0,0,1,4.26,1.42Z" class="e" transform="translate(-788.68 -121.98)"/><path d="M1290,302.67c-.19-.57-.38-1.16-.59-1.76l.87,1.47Z" class="g" transform="translate(-788.68 -121.98)"/><path d="M1253.49,555.77c-25.19,0-52.76-7.09-58.55-25a3.76,3.76,0,0,1,7.16-2.31c6.41,19.88,54.19,24.14,79.67,16.17a3.76,3.76,0,1,1,2.24,7.17C1275.83,554.31,1264.9,555.77,1253.49,555.77Z" class="e" transform="translate(-788.68 -121.98)"/><path d="M1163.24,516.7H1163c-14.87-.9-50.2-13.53-63.31-31.48-4.31-5.9-5.75-11.81-4.29-17.56a3.76,3.76,0,1,1,7.28,1.85c-.88,3.48.15,7.27,3.07,11.27,11.2,15.33,44.13,27.6,57.71,28.42a3.76,3.76,0,0,1-.23,7.51Z" class="e" transform="translate(-788.68 -121.98)"/><circle cx="375.08" cy="293.01" r="14.08" class="g"/><g class="d"><path d="M1150.32,410.8a14.08,14.08,0,1,0,26.88,8.38,13.91,13.91,0,0,0,.5-6.15,14.08,14.08,0,0,1-24.3-7.58A14.1,14.1,0,0,0,1150.32,410.8Z" class="e" transform="translate(-788.68 -121.98)"/></g><path d="M1163.78,432.84a17.86,17.86,0,0,1-17-23.16h0a17.83,17.83,0,1,1,17,23.16Zm-9.88-20.92a10.33,10.33,0,0,0,6.78,12.92,10.32,10.32,0,0,0,6.15-19.7,10.33,10.33,0,0,0-12.93,6.78Z" class="e" transform="translate(-788.68 -121.98)"/><path d="M1167.36,452.7,1237,479.05a16.07,16.07,0,0,0,20.66-9.32l14-37a16.08,16.08,0,0,0-6.44-19.22,15.5,15.5,0,0,0-2.88-1.44l-69.59-26.34a16.06,16.06,0,0,0-20.67,9.31L1161,424.34l-2.91,7.7A16.06,16.06,0,0,0,1167.36,452.7Z" class="g" transform="translate(-788.68 -121.98)"/><g class="d"><path d="M1167.36,452.7,1237,479.05a16.07,16.07,0,0,0,20.66-9.32l14-37a16.08,16.08,0,0,0-6.44-19.22l-8.09,1.86c-14.64,28.45-28.72,40.07-65.87,26.7-16-5.78-25.18-12-30.29-17.69l-2.91,7.7A16.06,16.06,0,0,0,1167.36,452.7Z" class="e" transform="translate(-788.68 -121.98)"/></g><path d="M1242.62,483.1a18.87,18.87,0,0,1-6.72-1.24l-69.6-26.34A19.05,19.05,0,0,1,1155.24,431l14-37.05a19.06,19.06,0,0,1,24.54-11.06l69.6,26.35a19.08,19.08,0,0,1,11.06,24.54l-14,37A19.07,19.07,0,0,1,1242.62,483.1Zm-55.55-95.45a13.05,13.05,0,0,0-12.19,8.41l-14,37.05a13,13,0,0,0,7.57,16.78l69.6,26.35a13.07,13.07,0,0,0,16.78-7.57l14-37a13.08,13.08,0,0,0-7.57-16.79l-69.6-26.35A13,13,0,0,0,1187.07,387.65Z" class="e" transform="translate(-788.68 -121.98)"/><path d="M1164.67,451.37a14.33,14.33,0,0,0,2.69,1.33L1237,479.05a16.06,16.06,0,0,0,17-3.65,15.76,15.76,0,0,0,3.68-5.67l6.23-16.45,2.06-5.43,5.74-15.16a16.07,16.07,0,0,0-9.32-20.66l-15-5.69a16.08,16.08,0,0,1,6.65,19.34l-7.57,20-6.45,17a16.09,16.09,0,0,1-20.67,9.32Z" class="g" transform="translate(-788.68 -121.98)"/><g class="d"><path d="M1164.67,451.37a14.33,14.33,0,0,0,2.69,1.33L1237,479.05a16.06,16.06,0,0,0,20.65-9.32l8.29-21.88c-3.21,3.2-8.15,6.76-13.38,5.35-2.86-.76-4.83-3.78-6.16-7.51l-6.45,17a16.09,16.09,0,0,1-20.67,9.32Z" class="e" transform="translate(-788.68 -121.98)"/></g><path d="M1242.61,483.1a18.8,18.8,0,0,1-6.71-1.24l-69.6-26.35a17.29,17.29,0,0,1-3.23-1.59l2.66-5.36,54.59,20.67a13,13,0,0,0,16.78-7.57l14-37a13,13,0,0,0-5.39-15.72l2.63-5.37,15,5.68a19.1,19.1,0,0,1,11.06,24.55l-14,37a18.88,18.88,0,0,1-10,10.6A19.09,19.09,0,0,1,1242.61,483.1Zm-9.69-8.79,5.11,1.93a13,13,0,0,0,16.78-7.57h0l14-37a13.06,13.06,0,0,0-7.56-16.79l-4.6-1.74a19,19,0,0,1,.08,13.65l-14,37A18.87,18.87,0,0,1,1232.92,474.31Z" class="e" transform="translate(-788.68 -121.98)"/><path d="M1219.37,434.12c-.51,1.37-2.71,13.17-2.71,13.17l7.82,2.91c5.39,2,11.83-1.95,14.39-8.83s.27-14.08-5.12-16.08l-7.82-2.91S1220.2,431.88,1219.37,434.12Z" class="o" transform="translate(-788.68 -121.98)"/><g class="d"><path d="M1219.37,434.12c-.51,1.37-2.71,13.17-2.71,13.17l7.82,2.91c5.39,2,11.83-1.95,14.39-8.83s.27-14.08-5.12-16.08l-7.82-2.91S1220.2,431.88,1219.37,434.12Z" class="e" transform="translate(-788.68 -121.98)"/></g><path d="M1227.42,453a10.55,10.55,0,0,1-3.72-.67l-9.6-3.57.35-1.86c.52-2.82,2.27-12.11,2.8-13.55h0c.88-2.37,6.15-11.12,6.75-12.12l1-1.6,9.58,3.56c6.54,2.44,9.43,10.95,6.44,19a17.54,17.54,0,0,1-7.06,8.88A12.52,12.52,0,0,1,1227.42,453Zm-8.19-7.14,6,2.24a7.13,7.13,0,0,0,6.29-.89,13,13,0,0,0,5.2-6.61c2.12-5.7.42-11.61-3.8-13.18l-6.06-2.25c-2.15,3.61-4.93,8.45-5.42,9.75C1221.21,435.67,1220.19,440.77,1219.23,445.84Z" class="e" transform="translate(-788.68 -121.98)"/><ellipse cx="1221.3" cy="434.83" class="o" rx="13.29" ry="10.4" transform="translate(-400.73 1305.91) rotate(-69.6)"/><g class="d"><path d="M1216.67,447.29c5.38,2,11.82-2,14.38-8.83a16.58,16.58,0,0,0,1-4.72c-3,5.14-8.45,7.8-13.06,6.08-4.15-1.54-6.47-6.17-6.14-11.36a17.3,17.3,0,0,0-1.31,2.74C1209,438.09,1211.28,445.28,1216.67,447.29Z" class="e" transform="translate(-788.68 -121.98)"/></g><g class="i"><path d="M1210.68,434.56c2.87-5.95,8.75-9.19,13.74-7.34,4.51,1.67,6.85,7,6,12.74.23-.48.44-1,.64-1.5,2.56-6.88.27-14.08-5.12-16.08s-11.83,1.95-14.38,8.82A16.16,16.16,0,0,0,1210.68,434.56Z" class="g" transform="translate(-788.68 -121.98)"/></g><path d="M1219.6,450.07a10.55,10.55,0,0,1-3.72-.67c-6.55-2.43-9.44-10.95-6.45-19h0c3-8,10.74-12.59,17.29-10.15s9.43,10.94,6.44,19a17.54,17.54,0,0,1-7.06,8.88A12.43,12.43,0,0,1,1219.6,450.07ZM1213.66,432c-2.12,5.7-.42,11.62,3.79,13.18a7.13,7.13,0,0,0,6.29-.89,12.93,12.93,0,0,0,5.19-6.61c2.12-5.7.42-11.61-3.79-13.18s-9.36,1.8-11.48,7.5Z" class="e" transform="translate(-788.68 -121.98)"/><path d="M1189.1,462.88a2.19,2.19,0,0,1-.75-.13,2.26,2.26,0,0,1-1.38-2.87l8.22-23.35a2.84,2.84,0,0,0-.41-2.64l-5.76-7.61a7.31,7.31,0,0,1-1-7l11.61-31a2.25,2.25,0,0,1,4.22,1.58l-11.61,31a2.81,2.81,0,0,0,.4,2.68l5.75,7.61a7.3,7.3,0,0,1,1.07,6.85l-8.21,23.35A2.26,2.26,0,0,1,1189.1,462.88Z" class="e" transform="translate(-788.68 -121.98)"/><path d="M1334.15,452.63a9.35,9.35,0,0,1,11.72,10.66,16.54,16.54,0,0,1-.69,2.51,20.21,20.21,0,0,1-12.33,12.52s-27.94,8.46-76.92-12.38a9.39,9.39,0,0,1-5.66-7.51c-.65-5.38.09-13.35,8.5-17.76a9.22,9.22,0,0,1,8.46,0C1277.4,445.9,1307.62,459.5,1334.15,452.63Z" class="g" transform="translate(-788.68 -121.98)"/><g class="d"><path d="M1251.55,464c51.69,23.26,81.3,14.3,81.3,14.3a20.21,20.21,0,0,0,12.33-12.52,13.35,13.35,0,0,0,.41-1.32,18.92,18.92,0,0,1-7.88,5.18s-26.76,8.11-73.82-11.09a14,14,0,0,1-8.62-15.35c0-.06,0-.13,0-.19C1246.44,450.83,1251.55,464,1251.55,464Z" class="e" transform="translate(-788.68 -121.98)"/></g><path d="M1316.62,483.8c-13.58,0-34.86-2.71-62.71-14.64a12,12,0,0,1-7.23-9.26c-1.6-10.32,2.38-18.64,10.89-22.84a12.23,12.23,0,0,1,11,.08c8.88,4.6,39.88,19,66,11.5h0a12.07,12.07,0,0,1,15.42,11.6,20,20,0,0,1-1.23,6.85,23.93,23.93,0,0,1-14.85,14.85C1333.36,482.09,1327.42,483.8,1316.62,483.8ZM1263,443.32a4.76,4.76,0,0,0-2.11.49c-5.61,2.76-7.89,7.79-6.79,14.95a4.65,4.65,0,0,0,2.77,3.49c47.21,20.23,74.63,12.55,74.9,12.47a16.46,16.46,0,0,0,9.88-10.21,12.61,12.61,0,0,0,.76-4.3,4.41,4.41,0,0,0-1.79-3.59,4.59,4.59,0,0,0-4-.76h0c-28.74,8.27-62-7.13-71.49-12A4.54,4.54,0,0,0,1263,443.32Z" class="e" transform="translate(-788.68 -121.98)"/><path d="M1216.56,501.22c-.16.11-.65.42-1,.67s-.73.58-1.09.91a24.71,24.71,0,0,0-2,2.06,32.55,32.55,0,0,0-3.42,4.85,47.36,47.36,0,0,0-2.69,5.38l-1.1,2.82-1,2.89,0,.16a4.52,4.52,0,1,1-8.57-2.85,4.6,4.6,0,0,1,.31-.72l1.64-3,1.81-3a52.4,52.4,0,0,1,4.15-5.61,38,38,0,0,1,5-5,29.28,29.28,0,0,1,2.93-2.09c.51-.32,1-.62,1.6-.91a16.78,16.78,0,0,1,1.9-.8,2.21,2.21,0,0,1,2,3.91Z" class="e" transform="translate(-788.68 -121.98)"/><g class="d"><path d="M1268.39,481.31c0,.26.11.52.17.77.43,0,.66,0,.66,0A8.94,8.94,0,0,1,1268.39,481.31Z" class="e" transform="translate(-788.68 -121.98)"/></g><path d="M1319.29,336s32.41,7.51,62.32,19.37c18,7.15,50.1,20.94,61.55,51.25,10.57,27.95-.89,61.48-.89,61.48l-45-4.41s-11.87-43.12-64.92-41.75" class="g" transform="translate(-788.68 -121.98)"/><g class="n"><path d="M1442.27,468.07l-45-4.42s-11.87-43.12-64.92-41.74h0c-8.81-1.24-16.59,5-16.4,1.36.36-6.93,11.41-11.77,9.15-14.89-5.45-7.54-9-16.86-5.13-16.4,34.29,4.12,50.89,35.07,81.55,37s42.74,15.4,42.74,15.4a106.61,106.61,0,0,0,3.39-13.79A118.7,118.7,0,0,1,1442.27,468.07Z" class="e" transform="translate(-788.68 -121.98)"/></g><path d="M1445.39,472.9l-51.69-5.06-.83-3c-.45-1.61-11.71-39.7-60.45-38.44a4.51,4.51,0,0,1-.24-9c47.5-1.2,64.26,31.77,68.33,42.05l38.5,3.77c2.43-8.95,7.9-34-.07-55-11.22-29.69-44.7-43-59-48.64-29.24-11.6-61.36-19.11-61.68-19.18a4.51,4.51,0,0,1,2-8.79c.32.08,33.08,7.73,63,19.58,15.4,6.11,51.47,20.43,64.1,53.84,11,29.14-.35,63.11-.84,64.54Z" class="e" transform="translate(-788.68 -121.98)"/><path d="M1370.71,434.65a3.76,3.76,0,0,1-3.65-2.87c-.34-1.41-8.28-34.77,6.2-55.62,6.22-9,15.57-14.22,27.78-15.65a3.76,3.76,0,0,1,.88,7.46c-10,1.17-17.54,5.36-22.47,12.46-12.56,18.05-5.16,49.26-5.09,49.57a3.74,3.74,0,0,1-2.76,4.54A3.87,3.87,0,0,1,1370.71,434.65Z" class="e" transform="translate(-788.68 -121.98)"/><path d="M1461.53,453.64c-2.82,10-10.23,18.88-22.75,19.78-17.9,1.27-39.4-4.36-39.4-4.36a32.1,32.1,0,0,1-22.22,1.18c-6.84-2.25-10.19-7.16-10.24-13-.08-7.39,5.14-16.25,15.26-23.07,18.1-12.19,13.57-25.87,28.32-30.12s46.09,16.61,50.88,30.57A32.68,32.68,0,0,1,1461.53,453.64Z" class="g" transform="translate(-788.68 -121.98)"/><g class="n"><path d="M1461.53,453.64c-2.82,10-10.23,18.88-22.75,19.78-17.9,1.27-39.4-4.36-39.4-4.36a32.1,32.1,0,0,1-22.22,1.18c-6.84-2.25-10.19-7.16-10.24-13,2.22,2.62,5.84,5.14,11.7,5.93,13.77,1.87,21.9-8.8,16.49-12.57,0,0-5.34-4.45,3.48-6.87s8.35-6.24,13.06-5.31,19.38,6.85,27,12.33C1444.5,455,1456,457.12,1461.53,453.64Z" class="e" transform="translate(-788.68 -121.98)"/></g><path d="M1433.22,478.65c-14.13,0-28.59-3.14-33.44-4.3a37.28,37.28,0,0,1-24.19.68c-7.61-2.5-12.54-8-13.53-15.21-1.42-10.24,5.21-21.66,17.31-29.81,7.84-5.28,10.78-10.69,13.62-15.93,3.22-5.95,6.56-12.11,16.11-14.86,17.45-5,51.36,17.24,57.05,33.78,3.46,10.06,1.7,23-4.38,32.19a29.1,29.1,0,0,1-22.64,13.26C1437.19,478.58,1435.2,478.65,1433.22,478.65Zm-34.36-14.92,1.8.46c.21.05,20.94,5.39,37.76,4.2a18.73,18.73,0,0,0,14.94-8.76c4.37-6.61,5.71-16.21,3.26-23.35-4-11.66-32.77-30.81-44.73-27.37-5.49,1.58-7.11,4.56-10,10-3.1,5.71-6.95,12.82-16.85,19.49s-13.67,14.89-13,20.05c.46,3.35,2.71,5.71,6.68,7a27.36,27.36,0,0,0,18.47-.93Z" class="e" transform="translate(-788.68 -121.98)"/><path d="M1388.09,445.09a17.33,17.33,0,0,1,2.71,0,18.11,18.11,0,0,1,2.61.4,15,15,0,0,1,5.11,2.22,12.77,12.77,0,0,1,4,4.44,19.12,19.12,0,0,1,1.12,2.57,20.32,20.32,0,0,1,.76,2.59,18.52,18.52,0,0,1,.41,5.62,14,14,0,0,1-6.28,10.73,19.63,19.63,0,0,1-5.47,2.49l-.14,0a5.06,5.06,0,1,1-2.84-9.71,6.36,6.36,0,0,1,.73-.16c2.19-.3,3.78-1,4.76-2.14a7.85,7.85,0,0,0,1.4-5.67,13.43,13.43,0,0,0-.24-1.77,11.71,11.71,0,0,0-.43-1.62,6.11,6.11,0,0,0-1.59-2.46,8.9,8.9,0,0,0-2.86-1.74,13.54,13.54,0,0,0-3.52-.81l-.26,0a2.51,2.51,0,0,1,0-5Z" class="e" transform="translate(-788.68 -121.98)"/><path d="M1409.93,416.07a33.4,33.4,0,0,0-2.3,9.52c-.21,3.1.47,5.73,2.13,7.28a8.78,8.78,0,0,0,3.19,2c1.62.68,3.24,1.33,4.9,2a96.65,96.65,0,0,1,10.3,4.38c.86.46,1.78,1,2.57,1.51s1.43.88,2.17,1.31c1.48.86,3,1.66,4.5,2.44a60.87,60.87,0,0,0,9.24,3.87c3,1,6.26,1.52,8.48,1.06a4.28,4.28,0,0,0,2.44-1.28,7.37,7.37,0,0,0,1.42-3.08l0-.11a3.76,3.76,0,0,1,7.36,1.48,14.23,14.23,0,0,1-2.8,6.69,12.21,12.21,0,0,1-6.64,4.09,18.87,18.87,0,0,1-6.76.31,34.53,34.53,0,0,1-5.94-1.29,64.67,64.67,0,0,1-10.58-4.41c-1.68-.86-3.3-1.79-4.91-2.76-.8-.49-1.6-1-2.41-1.52s-1.32-.85-2-1.25c-2.76-1.54-6-2.87-9.36-4.31-1.66-.71-3.34-1.45-5-2.22a16.17,16.17,0,0,1-5.53-4.13,13.28,13.28,0,0,1-2.93-6.47,17.39,17.39,0,0,1,.25-6.47,27.67,27.67,0,0,1,5-10.59,1.89,1.89,0,0,1,3.27,1.8Z" class="e" transform="translate(-788.68 -121.98)"/><path d="M1131.53,296.07c71,146.77,278.26,55.52,225.53-92.37C1288,51.74,1073.79,146.27,1131.53,296.07Z" class="g" transform="translate(-788.68 -121.98)"/><path d="M1131.53,296.07c71,146.77,278.26,55.52,225.53-92.37C1288,51.74,1073.79,146.27,1131.53,296.07Z" class="g" transform="translate(-788.68 -121.98)"/><path d="M1131.53,296.07c71,146.77,278.26,55.52,225.53-92.37C1288,51.74,1073.79,146.27,1131.53,296.07Z" class="g" transform="translate(-788.68 -121.98)"/><path d="M1241.62,373.72a119.06,119.06,0,0,1-38.84-6.44c-31.7-10.94-57.34-35.08-74.13-69.81l-.11-.25c-13.78-35.76-13.3-71,1.4-101.8,13.11-27.52,36.59-49.49,66.12-61.88s61.38-13.61,89.86-3.49c32.12,11.4,57.73,36.41,74.06,72.33l.1.25c28.17,79-15.88,138.82-68.73,161A128.91,128.91,0,0,1,1241.62,373.72ZM1134.47,294.8c35.48,73.22,103.1,84.35,154.41,62.87,50.13-21,91.9-77.73,65.21-152.76-34.35-75.41-104.7-86.8-155.55-65.47C1147.18,161,1105.25,218.79,1134.47,294.8Z" class="e" transform="translate(-788.68 -121.98)"/><g class="d"><path d="M1131.53,296.07c59.09,127.83,241.09,78.5,233.72-56.66-11.79,42.54-26.89,43-51.6,63-76.26,66.16-181.49,3.51-187.79-85.06A122,122,0,0,0,1131.53,296.07Z" class="e" transform="translate(-788.68 -121.98)"/></g><path d="M1241.62,375a120.29,120.29,0,0,1-39.26-6.51c-32-11.06-57.93-35.42-74.87-70.47l-.15-.34c-13.92-36.1-13.42-71.66,1.44-102.83,13.24-27.8,37-50,66.78-62.51s62-13.74,90.79-3.52c32.46,11.52,58.32,36.77,74.8,73l.14.35c12.73,35.69,11.57,70.69-3.35,101.22-13.33,27.3-36.81,49.09-66.09,61.35A130.33,130.33,0,0,1,1241.62,375Zm-106-80.73c35.11,72.43,102,83.44,152.72,62.2,49.57-20.75,90.88-76.88,64.51-151.09-34-74.57-103.57-85.86-153.86-64.76C1148.25,161.94,1106.78,219.11,1135.66,294.28Z" class="p" transform="translate(-788.68 -121.98)"/><path d="M1241.62,375a120.29,120.29,0,0,1-39.26-6.51c-32-11.06-57.93-35.42-74.87-70.47l-.15-.34c-13.92-36.1-13.42-71.66,1.44-102.83,13.24-27.8,37-50,66.78-62.51s62-13.74,90.79-3.52c32.46,11.52,58.32,36.77,74.8,73l.14.35c12.73,35.69,11.57,70.69-3.35,101.22-13.33,27.3-36.81,49.09-66.09,61.35A130.33,130.33,0,0,1,1241.62,375Zm-106-80.73c35.11,72.43,102,83.44,152.72,62.2,49.57-20.75,90.88-76.88,64.51-151.09-34-74.57-103.57-85.86-153.86-64.76C1148.25,161.94,1106.78,219.11,1135.66,294.28Z" class="e" transform="translate(-788.68 -121.98)"/><path d="M1147.29,323c111.63,89.59,235.74-37.84,155.11-133.77C1205.56,87.29,1063.51,204,1147.29,323Z" class="e" transform="translate(-788.68 -121.98)"/><path d="M1126.78,234.43c-19,128,162.57,165,199.15,50.91C1257.31,345.79,1152.16,301.34,1126.78,234.43Z" class="q" transform="translate(-788.68 -121.98)"/><path d="M1229.73,368.79a102.69,102.69,0,0,1-39.94-8c-26.1-11-47.19-33-61-63.51v0c-22.46-50.69-6.51-125.73,53-156.66l.47-.19c31.32-10,67-5.84,97.77,11.41s52.78,45.21,60.56,76.89c14.62,66.86-27.12,118.17-75.9,134.33A111.14,111.14,0,0,1,1229.73,368.79Zm-95.45-73.94c30.52,67.47,88.32,75.84,128.55,62.51,46.22-15.31,85.78-63.95,71.94-127.27-7.37-30-28.39-56.62-57.64-73s-63.08-20.4-92.76-11C1128,175.53,1113,246.72,1134.28,294.85Z" class="e" transform="translate(-788.68 -121.98)"/><path d="M1226.54,358c-28.1,0-56.35-10.79-82.06-31.43l-.5-.4-.36-.52c-20.31-28.86-29.1-59.76-25.42-89.35a103.08,103.08,0,0,1,37.13-67.36A101.27,101.27,0,0,1,1226.56,146c28.61,1.94,56,15.84,79.1,40.21l.18.2c19,22.64,28.26,48.51,26.69,74.82-1.42,23.82-11.75,46.72-29.1,64.47a107.1,107.1,0,0,1-70.73,32.13C1230.65,357.91,1228.6,358,1226.54,358Zm-75.94-38c56.64,45.12,114.31,32.29,146.4-.54,29.13-29.79,41-80.64,2-127.13-47.82-50.26-103.78-44.47-138-16.41C1125.83,204.68,1109,260.37,1150.6,319.92Z" class="e" transform="translate(-788.68 -121.98)"/><path d="M1376.89,293c-15.83,55.26-72.55,44-62.75-10.24C1328.62,224.2,1389.25,236.19,1376.89,293Z" class="g" transform="translate(-788.68 -121.98)"/><g class="d"><path d="M1335.27,329c-17-3.24-26.68-25.85-20.46-49.09,7.45,26.23,39-11.18,42.4-22.65C1399.76,274.29,1366.42,335.62,1335.27,329Z" class="e" transform="translate(-788.68 -121.98)"/></g><path d="M1340.27,333.8a29.37,29.37,0,0,1-6.61-.75c-15.84-3.69-29.39-20.93-23.94-51.12l.06-.28c8-32.49,30.25-45.3,48-41.16,16.09,3.73,30.3,22.05,23.47,53.44l-.07.28C1373.19,322.2,1355.55,333.8,1340.27,333.8Zm-21.73-50.13c-4.34,24.29,5.48,37.91,17.15,40.63,12.44,2.89,29.23-6,36.85-32.43,5.46-25.34-4.85-39.87-16.76-42.63C1342.3,246.1,1325.2,256.92,1318.54,283.67Zm58.35,9.3h0Z" class="e" transform="translate(-788.68 -121.98)"/><path d="M1378.69,296.41c-12.88,44.77-55.51,37.08-47.59-6.83C1342.74,241.57,1389.06,250,1378.69,296.41Z" class="g" transform="translate(-788.68 -121.98)"/><path d="M1349.84,330.22a21.55,21.55,0,0,1-4.78-.54c-12-2.79-22-16.48-17.66-40.76l0-.22c6.52-26.93,23.92-37.76,37.71-34.55,12.28,2.86,22.9,17.56,17.2,43.08l-.06.22C1375.64,320.59,1361.68,330.22,1349.84,330.22Zm-15.06-39.86c-3.46,19.36,3.52,30,12,32,9.25,2.16,22-5.34,28.28-26.88,4.53-20.46-2.83-32-11.59-34C1353.27,259.1,1340.17,268.26,1334.78,290.36Zm43.91,6.05h0Z" class="e" transform="translate(-788.68 -121.98)"/><g class="f"><path d="M1306.45,257.46c-9.38,21.79-34.31,11.5-29.37-8.69C1284.75,223.65,1314.32,235.29,1306.45,257.46Z" class="g" transform="translate(-788.68 -121.98)"/></g><g class="f"><path d="M1288,291.17c-4.07,8.13-15,3.84-11.45-5.4C1280.62,277.65,1291.61,281.94,1288,291.17Z" class="g" transform="translate(-788.68 -121.98)"/></g><g class="f"><path d="M1141.53,246.2c-3.94-90.54,89.42-90.59,114.94-68.29C1197.05,174.61,1166.42,207.73,1141.53,246.2Z" class="g" transform="translate(-788.68 -121.98)"/></g><g class="d"><path d="M1327.5,299.65a41.23,41.23,0,0,1,4.8-19c4.27,31.91,37.06,22.17,47,.91C1380.48,328.15,1331.36,343.68,1327.5,299.65Z" class="e" transform="translate(-788.68 -121.98)"/></g><path d="M1210.36,721.37c-1.82,3.67-6.78,4.93-11.06,2.8s-6.28-6.83-4.45-10.5,6.77-4.93,11.06-2.8S1212.18,717.7,1210.36,721.37Z" class="e" transform="translate(-788.68 -121.98)"/></svg>