<svg xmlns="http://www.w3.org/2000/svg" viewBox="0 0 512.97 741.27"><defs><style>.a{opacity:0.3;}.b{fill:#016;}.c{fill:#f70070;}.d{fill:#3185ff;}.e{opacity:0.6;}.f{fill:#fff;}.g{fill:#dddcef;}.h{fill:#5788ea;}.i{fill:#000070;}.j{fill:#04043a;}.k{fill:#b1b1f2;}</style></defs><title>bot</title><g class="a"><ellipse class="b" cx="257.23" cy="706.11" rx="255.75" ry="35.15"/></g><path class="c" d="M1309.18,476.93l20.76,24.59a10.24,10.24,0,0,1-.64,13.91l-1.14,1.13,8.34,11.89,3.06-3.12a23.54,23.54,0,0,0,1.67-31.15l-24-30.25" transform="translate(-936.62 -147.77)"/><path class="d" d="M1346.09,505.43l-1.91-3.26-9.28-16c23.9-16.46,8.78-44.84,8.78-44.84l16.26-20.05a62.53,62.53,0,0,1,3.06,6C1369.38,441.58,1380.77,478.05,1346.09,505.43Z" transform="translate(-936.62 -147.77)"/><path class="c" d="M1071.9,476.93l-20.76,24.59a10.26,10.26,0,0,0,.64,13.91l1.15,1.13-8.34,11.89-3.07-3.12a23.54,23.54,0,0,1-1.67-31.15l24-30.25" transform="translate(-936.62 -147.77)"/><path class="d" d="M1037.41,441.36s-15.13,28.39,8.77,44.83L1035,505.43c-44-34.73-13.85-84.12-13.85-84.12" transform="translate(-936.62 -147.77)"/><g class="e"><path class="f" d="M1032.82,503.65c-40.81-34.62-11.68-82.34-11.68-82.34l5.79,7.13C1023.26,435.09,1004.49,472.91,1032.82,503.65Z" transform="translate(-936.62 -147.77)"/></g><path class="c" d="M1166.86,792.9l7,.58a9.91,9.91,0,0,1,9.06,10.41l-1.6,29.77A9.9,9.9,0,0,1,1171,843l-6.12-.26" transform="translate(-936.62 -147.77)"/><path class="c" d="M1214.22,792.9l-7,.58a9.91,9.91,0,0,0-9.06,10.41l1.6,29.77a9.91,9.91,0,0,0,10.32,9.36l6.12-.26" transform="translate(-936.62 -147.77)"/><path class="g" d="M1383.18,723.82h0a22.08,22.08,0,0,1-2.36,1.65c-4.09,10-22.22,12.2-25.26-5-9.33,13.35-24,2.42-29.84-24.11a.92.92,0,0,1,0-.16l-1.77-18.3-1.6-16.63-.59-6.09,32.87-4.36,19.52-2.58C1391.45,669.82,1401.4,709.23,1383.18,723.82Z" transform="translate(-936.62 -147.77)"/><path class="h" d="M1375.4,644.85a17.06,17.06,0,0,1-1.26,3.39,20.83,20.83,0,0,1-6.58,7.66,43.62,43.62,0,0,1-8.41,4.65c-10.86,4.57-24.86,5.85-36.81.72l-.59-.25,0-.27-4.47-24.86,29.47-5.93,22.47-4.51C1374.9,631.6,1377.16,638.05,1375.4,644.85Z" transform="translate(-936.62 -147.77)"/><path class="g" d="M1054.93,696.35c-5.89,26.53-20.52,37.47-29.85,24.12-3,17.22-21.17,15-25.25,5-21.38-13-11.33-54.78,6.68-77.24l52.39,6.93Z" transform="translate(-936.62 -147.77)"/><g class="e"><path class="f" d="M1058.89,655.18l-.42,4.4-45.68-6.05c-18,22.46-28.06,64.22-6.68,77.25a10.45,10.45,0,0,0,.71,1.42,12.5,12.5,0,0,1-7-6.72c-21.37-13-11.33-54.78,6.68-77.24Z" transform="translate(-936.62 -147.77)"/></g><path class="h" d="M1058.9,661c-15.47,7-34.6,2.94-45.81-5.12a20,20,0,0,1-7.84-11c-1.77-6.8.49-13.25,6.21-19.4l52,10.44" transform="translate(-936.62 -147.77)"/><g class="e"><path class="f" d="M1011.65,649.86a19.1,19.1,0,0,0,4.38,7.95,33,33,0,0,1-2.94-1.91,20.06,20.06,0,0,1-7.85-11c-1.76-6.8.5-13.25,6.22-19.4l7.92,1.59C1013.63,633,1010.1,643.86,1011.65,649.86Z" transform="translate(-936.62 -147.77)"/></g><path class="g" d="M1322.84,865.19a22.79,22.79,0,0,1-14.64,5.07h-73.08a18.79,18.79,0,0,1-18.78-18.38c-.54-25.25-1.52-49.59-3.11-72.68-1.26-18.31-2.91-35.83-5-52.39a168.28,168.28,0,0,1-27.3.65c-2.68-.16-5.35-.37-8-.65-4.79,37.44-7.16,79.81-8.13,125.07A18.79,18.79,0,0,1,1146,870.26h-73.06a22.86,22.86,0,0,1-14.66-5.07c-17.58-14.58-2.36-46.63,16.59-55.93a302,302,0,0,1,2.5-66l.41-2.36L1121,490.37,1269,485.1s33.21,246.28,34.74,257.82l.06.44q2.12,14.29,2.85,28.6a299.5,299.5,0,0,1-.37,37.3C1325.22,818.56,1340.43,850.61,1322.84,865.19Z" transform="translate(-936.62 -147.77)"/><g class="e"><path class="f" d="M1085.69,868.1l-2.8,2.16h-10a22.86,22.86,0,0,1-14.66-5.07c-17.58-14.58-2.36-46.63,16.59-55.93a302,302,0,0,1,2.5-66l.41-2.36,11.7,4.12c-5.9,15.86-6.84,37-6.29,59.8C1055.49,828.57,1050.47,864.89,1085.69,868.1Z" transform="translate(-936.62 -147.77)"/></g><g class="e"><path class="f" d="M1218.73,722.12c1.52,1.21,8.79,146.1,7.72,146-.74-.08-7.72-11.33-7.72-11.33s-2.33-23.22-2.55-22.65-6.63-109.47-6.63-109.47Z" transform="translate(-936.62 -147.77)"/></g><path class="c" d="M1322.84,865.19a22.79,22.79,0,0,1-14.64,5.07h-73.08a18.79,18.79,0,0,1-18.78-18.38c-.54-25.25-1.52-49.59-3.11-72.68l.13-.21c25.55,9.25,66.08,10.72,93.26-7a299.5,299.5,0,0,1-.37,37.3C1325.22,818.56,1340.43,850.61,1322.84,865.19Z" transform="translate(-936.62 -147.77)"/><path class="c" d="M1057,865.19a22.83,22.83,0,0,0,14.64,5.07h73.08a18.79,18.79,0,0,0,18.79-18.38c.53-25.25,1.51-49.59,3.11-72.68l-.14-.21c-25.55,9.25-66.07,10.72-93.26-7a303.41,303.41,0,0,0,.37,37.3C1054.62,818.56,1039.41,850.61,1057,865.19Z" transform="translate(-936.62 -147.77)"/><path class="d" d="M1156.63,555c-13.24,59.2-19.81,127.2-22.75,200a365.89,365.89,0,0,1-37.89-8.07h0a229.77,229.77,0,0,1-42.58-15.89c1.17-31.87,3.84-61.44,8.91-87.27-19.5,3.71-42.18-2.2-50.89-19.24a25.25,25.25,0,0,1-1.56-18.32c14-49,37.53-91,74-123.29l45.55,14.68.39.4,23,23.85L1134.16,540Z" transform="translate(-936.62 -147.77)"/><g class="e"><path class="f" d="M1129.42,497.61l5.7,5.91-43.83-14.11c-36.5,32.33-60,74.3-74,123.29a25.12,25.12,0,0,0,1.54,18.31,31.29,31.29,0,0,0,4.15,6.17,33,33,0,0,1-11.57-12.64,25.25,25.25,0,0,1-1.56-18.32c14-49,37.53-91,74-123.29Z" transform="translate(-936.62 -147.77)"/></g><path class="d" d="M1369.69,624.54c-.16.31-.33.61-.51.91a34.6,34.6,0,0,1-15.37,14.2h0c-10.32,5.11-23.25,6.37-35,4.13q1.62,8.24,2.92,17c.83,5.57,1.58,11.3,2.23,17.15s1.26,12.07,1.77,18.3a.92.92,0,0,0,0,.16q1.33,16.8,2,34.69c-22.92,11.5-50.24,19.05-80.5,24,0-.51,0-1-.07-1.55-3-72.22-9.52-139.67-22.67-198.45l22.46-15-18.66-18.11,23.4-24.25,45.56-14.68c.64.57,1.28,1.14,1.91,1.74,35.41,32.07,58.32,73.43,72.1,121.55A25.2,25.2,0,0,1,1369.69,624.54Z" transform="translate(-936.62 -147.77)"/><g class="e"><path class="f" d="M1257.27,751.67l-10.14,1.79c-3-72.22-9.52-139.67-22.67-198.45l22.46-15-12.68,17.3C1241.31,583.23,1256,717.35,1257.27,751.67Z" transform="translate(-936.62 -147.77)"/></g><polygon class="c" points="305.93 531.61 282.11 531.61 282.11 510.08 303.91 510.08 305.93 531.61"/><polygon class="c" points="201.18 531.61 225 531.61 225 510.08 203.2 510.08 201.18 531.61"/><path class="h" d="M1156.63,502.28c0,37.62,67.83,37.62,67.83,0" transform="translate(-936.62 -147.77)"/><g class="e"><path class="f" d="M1089.43,532.56l6.56-8.64a1082,1082,0,0,0-33.7,209.3l-8.83-4.38C1060.92,653.56,1071.21,584.41,1089.43,532.56Z" transform="translate(-936.62 -147.77)"/></g><path class="i" d="M1133.88,758.91a4.46,4.46,0,0,1-.63,0c-33-5.35-59.67-13.31-81.62-24.32a3.89,3.89,0,0,1-2.15-3.63c1.19-32.34,3.8-59.41,8-82.5-18.46,1.81-40.3-4-49.52-22.1a28.88,28.88,0,0,1-1.83-21.16c15.12-52.79,39.71-93.72,75.18-125.14a3.9,3.9,0,1,1,5.17,5.84c-34.32,30.41-58.15,70.13-72.85,121.45a21.06,21.06,0,0,0,1.28,15.46c8,15.6,29.51,20.46,46.68,17.18a3.91,3.91,0,0,1,4.56,4.59c-4.57,23.26-7.43,50.8-8.75,84.14,19.84,9.61,43.72,16.75,72.79,21.76,3.31-77.63,10.54-141.06,22.08-193.66L1132,543.21a3.89,3.89,0,0,1-.55-6l15.87-15.4-20.69-21.46a3.9,3.9,0,1,1,5.61-5.41l23.4,24.26a3.89,3.89,0,0,1-.1,5.5l-15.2,14.75,18.46,12.36a3.9,3.9,0,0,1,1.64,4.09c-12,53.63-19.4,118.83-22.66,199.31a3.9,3.9,0,0,1-3.89,3.74Z" transform="translate(-936.62 -147.77)"/><path class="i" d="M1058.46,643q2.44-14.41,5.47-28.73t6.59-28.53q3.56-14.22,7.93-28.24A292.76,292.76,0,0,1,1088.57,530a1.67,1.67,0,0,1,3.15,1.09h0c-2.51,9.37-4.81,18.78-7,28.2s-4.33,18.87-6.41,28.34l-6,28.45c-2,9.5-4,19-6.11,28.48a3.9,3.9,0,0,1-7.66-1.49Z" transform="translate(-936.62 -147.77)"/><path class="i" d="M1038.05,582.92a19.1,19.1,0,0,1-7.94-1.75l-10.35-4.74a3.34,3.34,0,0,1,2.78-6.08l10.35,4.74a12.41,12.41,0,0,0,16.62-6.51l10-24a12.49,12.49,0,0,0-5-15.41l-7.19-4.33a3.34,3.34,0,0,1,3.44-5.73l7.2,4.34a19.2,19.2,0,0,1,7.77,23.71l-10,24A19,19,0,0,1,1045,581.59,19.46,19.46,0,0,1,1038.05,582.92Z" transform="translate(-936.62 -147.77)"/><path class="i" d="M1080.3,566.34a3.29,3.29,0,0,1-1.65-.44l-20.07-11.44a3.34,3.34,0,0,1,3.31-5.81L1082,560.09a3.34,3.34,0,0,1-1.66,6.25Z" transform="translate(-936.62 -147.77)"/><path class="i" d="M1076.21,582.36a3.38,3.38,0,0,1-1.67-.45l-22.09-12.83a3.34,3.34,0,1,1,3.36-5.78l22.09,12.82a3.35,3.35,0,0,1-1.69,6.24Z" transform="translate(-936.62 -147.77)"/><path class="i" d="M1108.5,535.9c-3.11,0-6.81-1.36-10.68-5.71a15.42,15.42,0,0,1-3.84-10.31V488.42a3.34,3.34,0,0,1,6.68,0v31.46a8.77,8.77,0,0,0,2.14,5.86c4,4.51,6.62,3.79,8.63,2.49a8.78,8.78,0,0,0,3.78-7.38V495a3.35,3.35,0,1,1,6.69,0v25.83a15.32,15.32,0,0,1-6.84,13A12.2,12.2,0,0,1,1108.5,535.9Z" transform="translate(-936.62 -147.77)"/><circle class="i" cx="171.8" cy="372.47" r="3.68"/><circle class="i" cx="198.75" cy="374.49" r="3.68"/><path class="i" d="M1113.64,689.57a7.71,7.71,0,0,1-2.4-.38h0l-36.61-11.66a8,8,0,0,1-1.25-14.68,7.89,7.89,0,0,1,6.08-.52L1116.06,674a8,8,0,0,1,5.19,10A8,8,0,0,1,1113.64,689.57Zm-.72-5.69a2.39,2.39,0,0,0,2.85-3.39,2.33,2.33,0,0,0-1.4-1.19l-36.61-11.66a2.34,2.34,0,0,0-1.83.16,2.37,2.37,0,0,0-1.18,1.4,2.41,2.41,0,0,0,1.56,3Z" transform="translate(-936.62 -147.77)"/><path class="i" d="M1041.86,668.53a54.15,54.15,0,0,1-30.61-9.46,23.93,23.93,0,0,1-9.34-13.24c-2.07-8,.33-15.72,7.13-23a3.9,3.9,0,1,1,5.71,5.3c-4.94,5.32-6.67,10.48-5.29,15.77a16.08,16.08,0,0,0,6.34,8.86c10,7.21,27.65,11.15,41.93,4.73a3.9,3.9,0,1,1,3.2,7.11A46.28,46.28,0,0,1,1041.86,668.53Z" transform="translate(-936.62 -147.77)"/><path class="i" d="M1012.41,737.12a17.2,17.2,0,0,1-15.2-9c-6.41-4.33-10.61-11.31-12.19-20.29-3.64-20.73,6.74-46.92,18.88-62.06a3.9,3.9,0,1,1,6.09,4.87c-12.67,15.81-20.1,39.82-17.29,55.84,1.28,7.28,4.51,12.54,9.6,15.64a4,4,0,0,1,1.58,1.86c1.39,3.43,5.49,5.69,9.52,5.26,4.34-.46,7.28-3.83,8.28-9.48a3.9,3.9,0,0,1,7-1.55c2.16,3.09,4.48,4.41,6.91,3.93,5-1,12.18-9.77,15.93-26.66a3.9,3.9,0,1,1,7.61,1.69c-4,18.23-12.48,30.73-22,32.62a12.87,12.87,0,0,1-9.91-2.1,16.19,16.19,0,0,1-13,9.31C1013.62,737.09,1013,737.12,1012.41,737.12Z" transform="translate(-936.62 -147.77)"/><path class="i" d="M1015.43,656.9a75.53,75.53,0,0,0-7.81,17.6c-1.71,6.12-2.61,12.55-1.8,18.61a20.16,20.16,0,0,0,2.65,8.14,7.12,7.12,0,0,0,2.35,2.45,3.35,3.35,0,0,0,2.49.35,5.63,5.63,0,0,0,1.44-.55,9.74,9.74,0,0,0,1.49-1.11c.25-.22.51-.41.75-.66l.7-.79a15.72,15.72,0,0,0,1.34-1.72,43.25,43.25,0,0,0,4.32-8.22,3.41,3.41,0,0,1,2.87-2.09h0a26.41,26.41,0,0,0,11.39-2,14,14,0,0,0,4.5-3.3,18.23,18.23,0,0,0,3.17-4.92v0a1.67,1.67,0,0,1,3.13,1.17,22.35,22.35,0,0,1-3,6.38,18.83,18.83,0,0,1-5.28,5,25.5,25.5,0,0,1-6.61,3,41.6,41.6,0,0,1-6.87,1.38h0l2.9-2.09a49.49,49.49,0,0,1-5.07,9.6,23,23,0,0,1-1.76,2.26l-1,1.09c-.35.35-.75.68-1.13,1a17.31,17.31,0,0,1-2.57,1.87,12.83,12.83,0,0,1-3.26,1.25,10.1,10.1,0,0,1-7.24-1.07,13.47,13.47,0,0,1-4.69-4.65A26.71,26.71,0,0,1,999.19,694a53.71,53.71,0,0,1,2-21.33,81.77,81.77,0,0,1,8.52-19.22,3.35,3.35,0,0,1,5.74,3.44Z" transform="translate(-936.62 -147.77)"/><path class="i" d="M1002.6,729.19a11.16,11.16,0,0,1-3.33-.52,3.34,3.34,0,0,1,2-6.38c2.63.82,4.36-.83,5.36-2.36,2-3.1,2.44-8.18-.32-11.32a3.34,3.34,0,1,1,5-4.41c5,5.72,4.23,14.25.9,19.37A11.46,11.46,0,0,1,1002.6,729.19Z" transform="translate(-936.62 -147.77)"/><path class="i" d="M1025,724.12a4,4,0,0,1-.68-.07,3.35,3.35,0,0,1-2.6-3.95c2.31-11.19-2.18-16.48-2.37-16.7a3.36,3.36,0,0,1,.26-4.7,3.31,3.31,0,0,1,4.67.19c.29.31,7,7.8,4,22.56A3.35,3.35,0,0,1,1025,724.12Z" transform="translate(-936.62 -147.77)"/><path class="i" d="M1308.2,872h-73.07a22.82,22.82,0,0,1-22.69-22.2c-1-47.75-3.51-87.36-7.63-120.92a172.14,172.14,0,0,1-28.54,0c-4.11,33.56-6.61,73.17-7.63,120.92A22.81,22.81,0,0,1,1146,872h-73.08a26.85,26.85,0,0,1-17.14-6c-7-5.77-10.11-14.52-8.91-24.64,1.68-14.18,11.77-29.39,23.93-36.54a307.31,307.31,0,0,1,2.71-64.29,3.9,3.9,0,0,1,7.71,1.15,299.16,299.16,0,0,0-2.47,65.1,3.89,3.89,0,0,1-2.17,3.78c-10.84,5.32-20.49,19.25-22,31.72-.62,5.24-.06,12.56,6.15,17.72a19,19,0,0,0,12.16,4.16H1146a15,15,0,0,0,14.88-14.57c1.06-49.81,3.73-90.85,8.17-125.48a3.89,3.89,0,0,1,4.27-3.38,166,166,0,0,0,34.52,0,3.9,3.9,0,0,1,4.28,3.38c4.43,34.63,7.1,75.67,8.16,125.48a15,15,0,0,0,14.89,14.57h73.07a19,19,0,0,0,12.16-4.16c6.21-5.16,6.77-12.48,6.15-17.72-1.48-12.47-11.13-26.4-22-31.72a3.9,3.9,0,0,1-2.17-3.78,299.16,299.16,0,0,0-2.47-65.1,3.9,3.9,0,0,1,7.71-1.15,306.63,306.63,0,0,1,2.71,64.29c12.16,7.15,22.25,22.36,23.93,36.54,1.21,10.12-2,18.87-8.91,24.64A26.85,26.85,0,0,1,1308.2,872Z" transform="translate(-936.62 -147.77)"/><path class="i" d="M1073.55,803.41a62.8,62.8,0,0,1,18-2.86,50,50,0,0,1,18,3.09,42.48,42.48,0,0,1,15.27,9.88,49.45,49.45,0,0,1,9.94,14.87,1.67,1.67,0,0,1-3,1.46l0,0a45.53,45.53,0,0,0-10-13.07,37.39,37.39,0,0,0-14-7.84,43.85,43.85,0,0,0-16-1.68,55.21,55.21,0,0,0-15.76,3.56,3.9,3.9,0,0,1-2.78-7.29l.23-.08Z" transform="translate(-936.62 -147.77)"/><path class="i" d="M1072.86,856.66a29.22,29.22,0,0,1-24.93-14,3.34,3.34,0,1,1,5.79-3.34,22.43,22.43,0,0,0,20.86,10.64h67.93c11.24-.21,17-3.85,19.27-12.18a3.34,3.34,0,1,1,6.45,1.74c-3,11.26-11.43,16.86-25.66,17.13H1075C1074.24,856.64,1073.55,856.66,1072.86,856.66Z" transform="translate(-936.62 -147.77)"/><path class="i" d="M1126.84,789.12c-18.89,0-38.54-4.1-54.31-14.42a3.34,3.34,0,1,1,3.66-5.6c25.48,16.69,64.76,16,90.39,6.74a3.34,3.34,0,0,1,2.27,6.29A126.47,126.47,0,0,1,1126.84,789.12Z" transform="translate(-936.62 -147.77)"/><circle class="i" cx="214.11" cy="657.1" r="6.82"/><path class="i" d="M1171.45,846.93h-.6l-6.12-.27a3.9,3.9,0,1,1,.34-7.79l6.12.27a6,6,0,0,0,6.25-5.68l1.61-29.78a6,6,0,0,0-5.5-6.3l-7-.58a3.9,3.9,0,1,1,.64-7.78l7,.59a13.74,13.74,0,0,1,12.64,14.49l-1.61,29.78A13.84,13.84,0,0,1,1171.45,846.93Z" transform="translate(-936.62 -147.77)"/><path class="i" d="M1177.33,842.47l-4,17.31a2.65,2.65,0,0,1-5.15.08l-2.45-9.45.7-7.94Z" transform="translate(-936.62 -147.77)"/><path class="i" d="M1044.59,532.35a3.87,3.87,0,0,1-2.78-1.17l-3.07-3.11a27.5,27.5,0,0,1-2-36.31l24-30.26a3.9,3.9,0,0,1,6.11,4.85l-24,30.25a19.67,19.67,0,0,0,1.39,26l3.07,3.11a3.9,3.9,0,0,1,0,5.52A3.86,3.86,0,0,1,1044.59,532.35Z" transform="translate(-936.62 -147.77)"/><path class="i" d="M1052.93,520.45a3.92,3.92,0,0,1-2.74-1.11l-1.14-1.13a14.2,14.2,0,0,1-.89-19.2l20.76-24.59a3.9,3.9,0,1,1,6,5L1054.12,504a6.37,6.37,0,0,0,.4,8.61l1.14,1.12a3.9,3.9,0,0,1-2.73,6.68Z" transform="translate(-936.62 -147.77)"/><path class="i" d="M1046.18,490.09a3.93,3.93,0,0,1-2.21-.68c-21.18-14.58-15.8-39-10-49.88a3.9,3.9,0,0,1,6.89,3.66h0c-.55,1-13.15,25.55,7.54,39.79a3.89,3.89,0,0,1-2.21,7.11Z" transform="translate(-936.62 -147.77)"/><path class="i" d="M1035,509.33a3.93,3.93,0,0,1-2.42-.84c-24.15-19.06-26.86-42.4-24.88-58.62a83.23,83.23,0,0,1,10.12-30.59,3.9,3.9,0,0,1,6.66,4.05h0a76.9,76.9,0,0,0-9.07,27.75c-2.43,20.59,5,37.85,22,51.29a3.9,3.9,0,0,1-2.41,7Z" transform="translate(-936.62 -147.77)"/><g class="e"><polygon class="f" points="317.73 348.97 300.54 382.73 291.64 374.09 317.73 348.97"/></g><path class="i" d="M1247.21,758.91a3.9,3.9,0,0,1-3.9-3.74c-3.25-80.48-10.67-145.68-22.66-199.31a3.9,3.9,0,0,1,1.64-4.09l18.46-12.36-15.2-14.75a3.9,3.9,0,0,1-.09-5.5l23.39-24.26a3.9,3.9,0,0,1,5.62,5.41l-20.7,21.46,15.87,15.4a3.9,3.9,0,0,1-.54,6l-20.26,13.56c11.54,52.6,18.77,116,22.08,193.66,29.08-5,53-12.15,72.79-21.76-1.31-33.34-4.18-60.88-8.74-84.14a3.91,3.91,0,0,1,4.55-4.59c17.17,3.28,38.72-1.58,46.69-17.18a21.11,21.11,0,0,0,1.27-15.46c-14.69-51.32-38.52-91-72.85-121.45a3.9,3.9,0,0,1,5.17-5.84c35.47,31.42,60.06,72.35,75.18,125.14a28.88,28.88,0,0,1-1.83,21.16c-9.21,18.05-31.05,23.91-49.52,22.1,4.17,23.09,6.78,50.16,8,82.5a3.9,3.9,0,0,1-2.14,3.63c-22,11-48.66,19-81.63,24.32A4.44,4.44,0,0,1,1247.21,758.91Z" transform="translate(-936.62 -147.77)"/><path class="i" d="M1315,644.52q-3.17-14.22-6.11-28.48l-6-28.45c-2.08-9.47-4.17-18.92-6.41-28.34s-4.54-18.83-7.05-28.2h0a1.68,1.68,0,0,1,3.16-1.09,292.69,292.69,0,0,1,10.11,27.58q4.39,14,7.94,28.24t6.59,28.53q3,14.31,5.46,28.73a3.9,3.9,0,0,1-7.65,1.49Z" transform="translate(-936.62 -147.77)"/><path class="i" d="M1343,582.92a19.18,19.18,0,0,1-17.64-11.76l-10-24a19.2,19.2,0,0,1,7.77-23.71l7.2-4.34a3.34,3.34,0,0,1,3.45,5.73l-7.2,4.33a12.49,12.49,0,0,0-5,15.41l10,24a12.41,12.41,0,0,0,16.62,6.51l10.36-4.74a3.34,3.34,0,0,1,2.78,6.08L1351,581.17A19.21,19.21,0,0,1,1343,582.92Z" transform="translate(-936.62 -147.77)"/><path class="i" d="M1300.78,566.34a3.34,3.34,0,0,1-1.65-6.25l20.06-11.44a3.34,3.34,0,0,1,3.31,5.81l-20.06,11.44A3.47,3.47,0,0,1,1300.78,566.34Z" transform="translate(-936.62 -147.77)"/><path class="i" d="M1304.87,582.36a3.35,3.35,0,0,1-1.68-6.24l22.08-12.82a3.34,3.34,0,0,1,3.36,5.78l-22.09,12.83A3.35,3.35,0,0,1,1304.87,582.36Z" transform="translate(-936.62 -147.77)"/><path class="i" d="M1272.59,535.9a12.21,12.21,0,0,1-6.57-2.06,15.32,15.32,0,0,1-6.84-13V495a3.35,3.35,0,1,1,6.69,0v25.83a8.78,8.78,0,0,0,3.78,7.38c2,1.3,4.61,2,8.63-2.49a8.77,8.77,0,0,0,2.14-5.86V488.42a3.35,3.35,0,0,1,6.69,0v31.46a15.47,15.47,0,0,1-3.84,10.31C1279.39,534.54,1275.7,535.9,1272.59,535.9Z" transform="translate(-936.62 -147.77)"/><circle class="i" cx="1272.66" cy="520.24" r="3.68" transform="translate(-1022.11 158.54) rotate(-13.28)"/><circle class="i" cx="1245.71" cy="522.26" r="3.68" transform="translate(-1023.29 152.4) rotate(-13.28)"/><path class="i" d="M1267.44,689.57A8,8,0,0,1,1265,674l36.6-11.66a8,8,0,0,1,10,5.19,8,8,0,0,1-5.19,10l-36.61,11.66h0A7.77,7.77,0,0,1,1267.44,689.57Zm1.56-3h0Zm35-19a2.25,2.25,0,0,0-.72.11l-36.61,11.66a2.42,2.42,0,0,0-1.56,3,2.4,2.4,0,0,0,3,1.56l36.61-11.66a2.4,2.4,0,0,0-.73-4.69Z" transform="translate(-936.62 -147.77)"/><path class="i" d="M1339.23,668.53a46.3,46.3,0,0,1-19.08-4,3.9,3.9,0,1,1,3.2-7.11c14.28,6.42,31.9,2.48,41.93-4.73a16.1,16.1,0,0,0,6.35-8.86c1.37-5.29-.36-10.45-5.3-15.77a3.9,3.9,0,1,1,5.71-5.3c6.8,7.31,9.2,15.06,7.13,23a23.93,23.93,0,0,1-9.34,13.24C1362.36,664.44,1351.09,668.53,1339.23,668.53Z" transform="translate(-936.62 -147.77)"/><path class="i" d="M1368.67,737.12c-.6,0-1.2,0-1.81-.09a16.19,16.19,0,0,1-13-9.31,12.85,12.85,0,0,1-9.9,2.1c-9.54-1.89-18-14.39-22-32.62a3.9,3.9,0,0,1,7.61-1.69c3.75,16.89,10.89,25.66,15.93,26.66,2.43.48,4.76-.84,6.91-3.93a3.9,3.9,0,0,1,7,1.55c1,5.65,3.94,9,8.29,9.48,4,.43,8.12-1.83,9.52-5.26a3.87,3.87,0,0,1,1.58-1.86c5.09-3.1,8.31-8.36,9.59-15.64,2.82-16-4.61-40-17.28-55.84a3.89,3.89,0,1,1,6.08-4.87c12.14,15.15,22.53,41.33,18.88,62.06-1.57,9-5.78,16-12.18,20.29A17.23,17.23,0,0,1,1368.67,737.12Z" transform="translate(-936.62 -147.77)"/><path class="i" d="M1371.37,653.44a81.77,81.77,0,0,1,8.52,19.22,53.71,53.71,0,0,1,2,21.33,26.56,26.56,0,0,1-3.65,10.87,13.44,13.44,0,0,1-4.68,4.65,10.13,10.13,0,0,1-7.25,1.07,12.76,12.76,0,0,1-3.25-1.25,16.9,16.9,0,0,1-2.58-1.87c-.38-.34-.78-.67-1.13-1l-1-1.09a23.08,23.08,0,0,1-1.77-2.26,50,50,0,0,1-5.07-9.6l2.9,2.09h0a41.81,41.81,0,0,1-6.87-1.38,25.29,25.29,0,0,1-6.6-3,19,19,0,0,1-5.29-5,22.06,22.06,0,0,1-3-6.38,1.67,1.67,0,0,1,3.13-1.17v0a18,18,0,0,0,3.16,4.92,14,14,0,0,0,4.5,3.3,26.44,26.44,0,0,0,11.39,2h0a3.42,3.42,0,0,1,2.88,2.09,43.22,43.22,0,0,0,4.31,8.22,15.72,15.72,0,0,0,1.34,1.72l.71.79c.24.25.5.44.74.66a9.81,9.81,0,0,0,1.5,1.11,5.57,5.57,0,0,0,1.43.55,3.34,3.34,0,0,0,2.49-.35,6.94,6.94,0,0,0,2.35-2.45,20.16,20.16,0,0,0,2.65-8.14c.81-6.06-.09-12.49-1.79-18.61a75.15,75.15,0,0,0-7.82-17.6l0,0a3.35,3.35,0,0,1,5.74-3.44Z" transform="translate(-936.62 -147.77)"/><path class="i" d="M1378.48,729.19a11.48,11.48,0,0,1-9.62-5.62c-3.32-5.12-4.14-13.65.9-19.37a3.34,3.34,0,1,1,5,4.41c-2.76,3.14-2.33,8.22-.31,11.32,1,1.53,2.73,3.18,5.35,2.36a3.34,3.34,0,1,1,2,6.38A11.06,11.06,0,0,1,1378.48,729.19Z" transform="translate(-936.62 -147.77)"/><path class="i" d="M1356.13,724.12a3.35,3.35,0,0,1-3.27-2.67c-3-14.76,3.7-22.25,4-22.56a3.34,3.34,0,0,1,4.93,4.51c-.25.29-4.66,5.58-2.37,16.7a3.35,3.35,0,0,1-2.6,3.95A3.92,3.92,0,0,1,1356.13,724.12Z" transform="translate(-936.62 -147.77)"/><path class="i" d="M1305,810.79a55.13,55.13,0,0,0-15.76-3.56,43.85,43.85,0,0,0-16,1.68,37.39,37.39,0,0,0-14,7.84,45.5,45.5,0,0,0-10,13.07l0,0a1.67,1.67,0,0,1-3-1.46,49.45,49.45,0,0,1,9.94-14.87,42.44,42.44,0,0,1,15.28-9.88,49.93,49.93,0,0,1,18-3.09,62.74,62.74,0,0,1,18,2.86h0a3.9,3.9,0,1,1-2.3,7.46Z" transform="translate(-936.62 -147.77)"/><path class="i" d="M1308.22,856.66c-.69,0-1.38,0-2.08-.07h-67.57c-14.28-.27-22.68-5.87-25.72-17.13a3.34,3.34,0,1,1,6.45-1.74c2.25,8.33,8,12,19.33,12.18h67.88a22.42,22.42,0,0,0,20.85-10.64,3.34,3.34,0,1,1,5.79,3.34A29.21,29.21,0,0,1,1308.22,856.66Z" transform="translate(-936.62 -147.77)"/><path class="i" d="M1254.25,789.12a126.54,126.54,0,0,1-42-7,3.35,3.35,0,1,1,2.28-6.29c25.62,9.29,64.9,9.95,90.39-6.74a3.34,3.34,0,0,1,3.66,5.6C1292.79,785,1273.13,789.12,1254.25,789.12Z" transform="translate(-936.62 -147.77)"/><circle class="i" cx="293.73" cy="657.1" r="6.82"/><path class="i" d="M1209.63,846.93a13.85,13.85,0,0,1-13.78-13.06l-1.6-29.78a13.73,13.73,0,0,1,12.63-14.49l7-.59a3.9,3.9,0,0,1,.65,7.78l-7,.58a6,6,0,0,0-5.49,6.3l1.6,29.78a6,6,0,0,0,6.25,5.68l6.12-.27a3.9,3.9,0,1,1,.34,7.79l-6.12.27Z" transform="translate(-936.62 -147.77)"/><path class="i" d="M1203.75,842.47l4,17.31a2.64,2.64,0,0,0,5.14.08l2.45-9.45-.69-7.94Z" transform="translate(-936.62 -147.77)"/><path class="i" d="M1336.5,532.35a3.9,3.9,0,0,1-2.78-6.64l3.06-3.11a19.69,19.69,0,0,0,1.4-26l-24-30.25a3.9,3.9,0,1,1,6.11-4.85l24,30.26a27.49,27.49,0,0,1-2,36.31l-3.07,3.11A3.86,3.86,0,0,1,1336.5,532.35Z" transform="translate(-936.62 -147.77)"/><path class="i" d="M1328.16,520.45a3.86,3.86,0,0,1-2.78-1.16,3.91,3.91,0,0,1,0-5.52l1.15-1.12A6.37,6.37,0,0,0,1327,504l-20.76-24.59a3.9,3.9,0,1,1,6-5L1332.92,499a14.21,14.21,0,0,1-.88,19.2l-1.15,1.13A3.91,3.91,0,0,1,1328.16,520.45Z" transform="translate(-936.62 -147.77)"/><path class="i" d="M1334.9,490.09a3.9,3.9,0,0,1-2.21-7.11c20.7-14.24,8.09-38.75,7.54-39.79a3.9,3.9,0,0,1,6.89-3.66c5.8,10.88,11.17,35.3-10,49.88A3.91,3.91,0,0,1,1334.9,490.09Z" transform="translate(-936.62 -147.77)"/><path class="i" d="M1346.09,509.33a3.9,3.9,0,0,1-2.42-7c17-13.44,24.44-30.7,22-51.29a77,77,0,0,0-9.06-27.75,3.9,3.9,0,0,1,6.66-4.05,83.53,83.53,0,0,1,10.11,30.59c2,16.22-.73,39.56-24.88,58.62A3.93,3.93,0,0,1,1346.09,509.33Z" transform="translate(-936.62 -147.77)"/><path class="i" d="M1207.45,720.82a83.61,83.61,0,0,0,12.88-2.2A29.9,29.9,0,0,0,1231.6,713a1.67,1.67,0,0,1,2.33,2.39,31.66,31.66,0,0,1-5.35,4.85,38.66,38.66,0,0,1-6.29,3.64,90.45,90.45,0,0,1-13.32,4.63,3.91,3.91,0,1,1-2.16-7.52,3.29,3.29,0,0,1,.61-.12Z" transform="translate(-936.62 -147.77)"/><path class="i" d="M1172.08,728.47a90.16,90.16,0,0,1-13.33-4.63,39,39,0,0,1-6.28-3.64,31.66,31.66,0,0,1-5.35-4.85,1.67,1.67,0,0,1,2.33-2.39,29.86,29.86,0,0,0,11.26,5.66,84,84,0,0,0,12.88,2.2h0a3.92,3.92,0,0,1-.89,7.78A4.13,4.13,0,0,1,1172.08,728.47Z" transform="translate(-936.62 -147.77)"/><rect class="c" x="225.01" y="501.38" width="57.1" height="38.54" rx="12.76"/><path class="i" d="M1206.66,691.6h-33a16,16,0,0,1-16-16V661.22a16,16,0,0,1,16-16h33a16,16,0,0,1,16,16v14.41A16,16,0,0,1,1206.66,691.6Zm-33-38.55a8.18,8.18,0,0,0-8.17,8.17v14.41a8.18,8.18,0,0,0,8.17,8.17h33a8.18,8.18,0,0,0,8.17-8.17V661.22a8.18,8.18,0,0,0-8.17-8.17Z" transform="translate(-936.62 -147.77)"/><rect class="i" x="237.4" y="511" width="32.32" height="19.31" rx="6.39"/><path class="i" d="M1162.11,661.75h-20.85a3.9,3.9,0,0,1,0-7.8h20.85a3.9,3.9,0,1,1,0,7.8Z" transform="translate(-936.62 -147.77)"/><path class="i" d="M1162.11,683.28h-20.85a3.9,3.9,0,0,1,0-7.8h20.85a3.9,3.9,0,1,1,0,7.8Z" transform="translate(-936.62 -147.77)"/><path class="i" d="M1239.59,661.75h-20.86a3.9,3.9,0,0,1,0-7.8h20.86a3.9,3.9,0,1,1,0,7.8Z" transform="translate(-936.62 -147.77)"/><path class="i" d="M1239.59,683.28h-20.86a3.9,3.9,0,0,1,0-7.8h20.86a3.9,3.9,0,1,1,0,7.8Z" transform="translate(-936.62 -147.77)"/><path class="i" d="M1190.54,534.4c-18.79,0-37.81-11-37.81-32.12a3.9,3.9,0,1,1,7.79,0c0,16.71,15.56,24.32,30,24.32s30-7.61,30-24.32a3.9,3.9,0,1,1,7.8,0C1228.36,523.37,1209.33,534.4,1190.54,534.4Z" transform="translate(-936.62 -147.77)"/><path class="c" d="M991.77,280.84a317.86,317.86,0,0,1,6.7-61.68,11.28,11.28,0,0,1,12.45-8.85h0a11.32,11.32,0,0,1,9.68,13.52,252,252,0,0,0-5.11,47l-2.25,5.6" transform="translate(-936.62 -147.77)"/><g class="e"><path class="f" d="M1018.43,214.57a9.86,9.86,0,0,0-1.13-.19,11.31,11.31,0,0,0-12.45,8.85,318.71,318.71,0,0,0-6.55,54.86l-6.54,2.75a318.66,318.66,0,0,1,6.71-61.68,11.3,11.3,0,0,1,20-4.59Z" transform="translate(-936.62 -147.77)"/></g><path class="c" d="M1394.09,280.84a318.64,318.64,0,0,0-6.7-61.68,11.28,11.28,0,0,0-12.45-8.85h0a11.32,11.32,0,0,0-9.68,13.52,252.82,252.82,0,0,1,5.11,47l1.69,5" transform="translate(-936.62 -147.77)"/><g class="e"><path class="f" d="M1388.69,225.81a11.31,11.31,0,0,0-21.39,6.93,253.72,253.72,0,0,1,5,43.21l-.27-.06-1.69-5a252,252,0,0,0-5.12-47,11.14,11.14,0,0,1-.22-2.28,11.31,11.31,0,0,1,22.36-2.39C1387.85,221.38,1388.29,223.59,1388.69,225.81Z" transform="translate(-936.62 -147.77)"/></g><path class="g" d="M980.31,292.15c-49.52-2.81-54.67,87.82-5.15,90.64" transform="translate(-936.62 -147.77)"/><g class="a"><path class="i" d="M977.05,349.35l-1.89,33.44c-28-1.59-38.48-31.18-33.44-56.13C948,340.48,959.94,350.55,977.05,349.35Z" transform="translate(-936.62 -147.77)"/></g><g class="a"><polygon class="i" points="40.46 201.58 40.43 201.58 40.45 201.36 40.46 201.58"/></g><g class="e"><path class="f" d="M980.31,292.15l-.5,8.88c-24.12-1.07-37.56,20.13-39.15,42.31C938.83,318.18,952.64,290.58,980.31,292.15Z" transform="translate(-936.62 -147.77)"/></g><path class="g" d="M1405.55,292.15c49.51-2.81,54.66,87.82,5.15,90.64" transform="translate(-936.62 -147.77)"/><g class="a"><path class="i" d="M1410.7,382.79l-1.79-31.51c19.07-2.68,29.21-19.12,31.1-37.26C1452.37,340.26,1443.6,380.92,1410.7,382.79Z" transform="translate(-936.62 -147.77)"/></g><path class="c" d="M1013.24,277.67c-30.45-2-40.41,15.92-35.63,48.1a97.09,97.09,0,0,1-2,36.39,44.68,44.68,0,0,0-.46,20.63c4.14,18.69,18.49,25.21,37.64,26" transform="translate(-936.62 -147.77)"/><g class="e"><path class="f" d="M1013.24,277.68l0,8.09c-26.23-.63-36,14.71-33.48,42l-1.79,1c-.11-1-.22-1.95-.34-2.94C972.83,293.59,982.79,275.69,1013.24,277.68Z" transform="translate(-936.62 -147.77)"/></g><g class="a"><path class="i" d="M1013.24,277.68l-.44,131.14c-19.16-.82-33.51-7.34-37.64-26a44.81,44.81,0,0,1,.46-20.63,93.74,93.74,0,0,0,1.9-9.66c5.93,13.2,18.83,18.1,35.28,18.8l.32-93.63Z" transform="translate(-936.62 -147.77)"/></g><path class="c" d="M1410.7,382.79c-4.13,18.69-18.49,25.21-37.64,26l-.15-47.32-.29-83.82c27.16-1.77,38,12.28,36.64,38.17a.82.82,0,0,1,0,.1c-.16,3.1-.49,6.38-1,9.82a96.9,96.9,0,0,0,2,36.39A44.81,44.81,0,0,1,1410.7,382.79Z" transform="translate(-936.62 -147.77)"/><g class="e"><path class="f" d="M1374.26,277.68l0,8.09c26.23-.63,36,14.71,33.48,42l1.79,1c.1-1,.21-1.95.34-2.94C1414.68,293.59,1404.72,275.69,1374.26,277.68Z" transform="translate(-936.62 -147.77)"/></g><path class="i" d="M1012.63,412.71c-23.67-1-37.17-10.52-41.28-29.08a48.7,48.7,0,0,1,.49-22.43,92.82,92.82,0,0,0,1.9-34.95c-2.94-19.81-.43-33.77,7.7-42.6,6.88-7.48,17.67-10.8,32-9.87l-.5,7.79c-11.92-.77-20.61,1.7-25.82,7.36-6.33,6.89-8.25,19.09-5.7,36.26a100.8,100.8,0,0,1-2.07,37.93,41,41,0,0,0-.44,18.82c3.34,15,13.82,22.12,34,23Z" transform="translate(-936.62 -147.77)"/><path class="i" d="M974.94,386.68c-14.31-.81-25.85-8.53-32.5-21.72-8.87-17.6-7.47-42.33,3.34-58.81,8.1-12.35,20.44-18.7,34.75-17.89l-.44,7.78c-14.61-.82-23.18,7.37-27.79,14.39-9.37,14.3-10.59,35.75-2.9,51,3.78,7.5,11.36,16.61,26,17.44Z" transform="translate(-936.62 -147.77)"/><path class="i" d="M995.67,280.88l-7.8-.08a323.16,323.16,0,0,1,6.78-62.43,15.21,15.21,0,0,1,29.77,6.23,250.54,250.54,0,0,0-5,46.3l-7.8-.09a257.54,257.54,0,0,1,5.19-47.75,7.42,7.42,0,0,0-1.26-5.87,7.3,7.3,0,0,0-5.08-3,7.4,7.4,0,0,0-8.15,5.77A315.69,315.69,0,0,0,995.67,280.88Z" transform="translate(-936.62 -147.77)"/><path class="i" d="M1275.61,472.82a19.93,19.93,0,0,1-10.4-2.92c-48-29.43-96.6-29.43-144.56,0a20,20,0,0,1-15.46,2.26c-51.52-13.59-84.33-39.22-100.29-78.34l6.19-2.53c15.12,37,46.45,61.39,95.81,74.41a13.2,13.2,0,0,0,10.25-1.5c50.28-30.86,101.27-30.86,151.56,0a13.2,13.2,0,0,0,10.25,1.5c49.35-13,80.69-37.36,95.81-74.41l6.19,2.53c-16,39.12-48.77,64.75-100.29,78.34A19.8,19.8,0,0,1,1275.61,472.82Z" transform="translate(-936.62 -147.77)"/><path class="g" d="M1194.32,151.67c102.77,0,181.62,67.6,187.93,180.87,5.59,100.39-42.71,166-189.32,172.89-146.61-6.87-194.92-72.5-189.32-172.89,6.31-113.27,85.16-180.87,187.93-180.87Z" transform="translate(-936.62 -147.77)"/><g class="a"><path class="i" d="M1192.93,505.43c-45.74-2.15-81.91-10-109.85-22.85a391.29,391.29,0,0,0,60.82,7.25c146.61-6.87,194.92-72.5,189.33-172.89-4.36-78.08-43.18-134.46-100.55-162,83.49,14.83,144.07,78.85,149.57,177.56C1387.85,432.93,1339.54,498.56,1192.93,505.43Z" transform="translate(-936.62 -147.77)"/></g><path class="i" d="M1377.86,392.55c-16.26,39.88-50.61,63.87-98,76.38a16.55,16.55,0,0,1-12.85-1.87q-74-45.45-148.06,0a16.57,16.57,0,0,1-12.86,1.87q-6.76-1.79-13.17-3.88l0,0c-40.61-13.33-70.13-36.4-84.85-72.48-7.08-35.56-6.52-70.29,2.23-104.13,64.58-89.65,192.17-111.72,287.41-65.23a207.88,207.88,0,0,1,78,65.23C1384.44,323.64,1384.58,358.31,1377.86,392.55Z" transform="translate(-936.62 -147.77)"/><g class="e"><path class="f" d="M1018.38,291.78c-8.76,33.84-9.32,68.56-2.23,104.13,12.5,30.65,35.69,51.91,67.27,65.78-35.23-13.74-61-35.82-74.38-68.72-7.09-35.57-6.53-70.3,2.23-104.13,62.52-86.8,184.1-110.25,278.2-69.46C1196.43,182.74,1079.33,207.15,1018.38,291.78Z" transform="translate(-936.62 -147.77)"/></g><path class="j" d="M1377.86,392.55c-16.26,39.88-50.61,63.87-98,76.38a16.55,16.55,0,0,1-12.85-1.87q-74-45.45-148.06,0a16.57,16.57,0,0,1-12.86,1.87q-6.76-1.79-13.17-3.88l0,0a157.57,157.57,0,0,1-25-10.19c162.85-16.36,274.74-72,229.82-231.65a207.88,207.88,0,0,1,78,65.23C1384.44,323.64,1384.58,358.31,1377.86,392.55Z" transform="translate(-936.62 -147.77)"/><g class="e"><path class="f" d="M1360.69,248.11c-32.39-56.05-91.39-87.56-161.55-87.56h-2.79c-79.73,0-145.07,40.69-173.3,111.85a201,201,0,0,0-12.82,16c21.87-86.47,92.69-136.74,181.31-136.74h2.78C1268.1,151.67,1329.56,186.52,1360.69,248.11Z" transform="translate(-936.62 -147.77)"/></g><g class="e"><path class="f" d="M1010.22,288.42h0c-.21.81-.41,1.61-.61,2.41Q1009.91,289.62,1010.22,288.42Z" transform="translate(-936.62 -147.77)"/></g><path class="i" d="M1192.93,509.33h-.18c-75.27-3.52-127.14-22.17-158.57-57-26.08-28.91-37.35-68.16-34.46-120,3.09-55.6,23.51-102.47,59-135.55,34.42-32.06,80.33-49,132.79-49h2.78c52.45,0,98.37,16.95,132.79,49,35.52,33.08,55.93,80,59,135.55,2.89,51.84-8.38,91.09-34.46,120-31.43,34.82-83.3,53.47-158.57,57Zm-1.39-353.76c-105.8,0-178,69.55-184,177.19-2.77,49.66,7.86,87.06,32.47,114.34,29.94,33.18,80,51,153,54.43,73-3.45,123-21.25,153-54.43,24.61-27.28,35.23-64.68,32.47-114.34-6-107.64-78.24-177.19-184-177.19Z" transform="translate(-936.62 -147.77)"/><path class="i" d="M1275.6,473.37a20.51,20.51,0,0,1-10.68-3c-47.77-29.32-96.21-29.32-144,0a20.54,20.54,0,0,1-15.89,2.32c-4.58-1.21-9.08-2.54-13.39-3.94l-1-.33c-43-14.32-72-39.35-86.33-74.41l7.23-2.94c13.62,33.4,40.4,56.31,81.86,70.05h1l.49.51c3.89,1.25,7.93,2.43,12,3.52a12.73,12.73,0,0,0,9.83-1.43c50.47-31,101.65-31,152.13,0a12.7,12.7,0,0,0,9.82,1.43c49.17-13,80.39-37.21,95.43-74.08l7.22,2.94c-16,39.31-49,65-100.66,78.68A20.46,20.46,0,0,1,1275.6,473.37Z" transform="translate(-936.62 -147.77)"/><path class="i" d="M1373.23,412.71l-.33-7.79c20.18-.86,30.66-7.94,34-23a40.84,40.84,0,0,0-.43-18.82,100.23,100.23,0,0,1-2.08-37.84c2.56-17.26.64-29.46-5.69-36.35-5.22-5.66-13.9-8.13-25.82-7.36l-.51-7.79c14.39-.94,25.18,2.39,32.06,9.87,8.13,8.83,10.64,22.79,7.69,42.69A92.67,92.67,0,0,0,1414,361.2a49,49,0,0,1,.49,22.43C1410.4,402.19,1396.89,411.71,1373.23,412.71Z" transform="translate(-936.62 -147.77)"/><path class="i" d="M1410.92,386.68l-.44-7.79a29.52,29.52,0,0,0,24-14c5.08-7.87,7.53-18.3,6.9-29.35-1.14-19.95-12.78-40.84-35.6-39.54l-.44-7.78a37,37,0,0,1,31.89,14c7,8.51,11.21,20.19,11.93,32.88s-2.16,24.77-8.13,34A37.06,37.06,0,0,1,1410.92,386.68Z" transform="translate(-936.62 -147.77)"/><path class="i" d="M1390.19,280.88a316.48,316.48,0,0,0-6.62-60.93,7.42,7.42,0,0,0-8.15-5.77,7.3,7.3,0,0,0-5.08,3,7.42,7.42,0,0,0-1.26,5.87,256.66,256.66,0,0,1,5.18,47.75l-7.79.09a249.72,249.72,0,0,0-5-46.3,15.21,15.21,0,0,1,29.78-6.23A324,324,0,0,1,1398,280.8Z" transform="translate(-936.62 -147.77)"/><path class="i" d="M1372.93,290.37c-39.49-54.8-106.74-87.52-179.88-87.52h0c-73.31,0-140.64,32.72-180.11,87.52l-5.42-3.9c40.72-56.54,110.08-90.3,185.52-90.31h0a243.77,243.77,0,0,1,102.88,22.51c33.65,15.79,61.38,38.6,82.42,67.8Z" transform="translate(-936.62 -147.77)"/><g class="e"><path class="k" d="M1130.26,260.86c10.13,18.57-20.63,17.48-44,41.79s-32.63,52-45.12,40-6.24-44.6,17.14-68.9S1122,245.65,1130.26,260.86Z" transform="translate(-936.62 -147.77)"/></g><g class="e"><ellipse class="k" cx="1305.38" cy="283.07" rx="20.33" ry="24.79" transform="translate(-863.67 650.34) rotate(-34.92)"/></g><g class="e"><ellipse class="k" cx="1325.39" cy="330.78" rx="10.63" ry="12.96" transform="translate(-887.38 670.38) rotate(-34.92)"/></g><g class="a"><path class="i" d="M1410.7,382.79c-4.13,18.69-18.49,25.21-37.64,26l7.89-44.06c3.55-1.95-.65-6.75,3.34-7.71,20.87-5,24.74-39,25-41.1-.16,3.1-.49,6.38-1,9.82a96.9,96.9,0,0,0,2,36.39A44.81,44.81,0,0,1,1410.7,382.79Z" transform="translate(-936.62 -147.77)"/></g><g class="a"><path class="i" d="M1089.43,532.56s-20.65,12.42-34.06,57.27-15.37,52.67-24.84,51.26l4.88,2.69c7.63,2.18,2.06,21.63-5.57,19.45,0,0,6.64,11.84-5.32,19.5,0,0-4.57-.42-6.52,5.43s-5.75,13.93-12.9,10.16c4.2,11,10.5,11.27,19.42-1.79l1.56-4.19,16-5.56c.76,12.7-4.34,21.49-15.4,26.31l.34,9.23c11.46,6.4,21.66,2.37,28.39-30.5C1065.26,629.33,1075.7,570.33,1089.43,532.56Z" transform="translate(-936.62 -147.77)"/></g><g class="a"><path class="i" d="M1156.63,555c-13.24,59.2-19.81,127.2-22.75,200a365.89,365.89,0,0,1-37.89-8.07c25.91,3.27,25-12.18,25-12.18,5.42-64.34,13.09-126.55,25.78-184l-22.14-16.15,10.7-12.34-16.54-25.51,11,1.27,23,23.85L1134.16,540Z" transform="translate(-936.62 -147.77)"/></g><g class="a"><path class="i" d="M1180.9,725.29c-2.68-.15-5.35-.36-8-.64-4.79,37.43-7.16,79.81-8.13,125.07A18.79,18.79,0,0,1,1146,868.1h-60.26c29.82-2.32,52-11.11,55.57-35.65,2-29.94,4.38-58.78,8-82.9l-13.91-4A1399.53,1399.53,0,0,1,1156.63,555l-22.47-15,18.66-18.11-18.66-23.26,21.17,5.16,12.38,20.17-16,13.25,24.81,20.09s-16.41,94-19.55,162.38Z" transform="translate(-936.62 -147.77)"/></g><g class="a"><path class="i" d="M1383.18,723.82c6.34-18.48-2.71-41.37-3.14-42.44.11.81,2.22,15.8-4,19.78a26.25,26.25,0,0,1-13.12,4c6.19-12.5,4.44-27.53-3.68-44.6h0l-10.28,2.17c4-2.34,5.43-7.22,5.75-11.9a43.5,43.5,0,0,0-.81-11.17h0l-13.71,3c5.51-3.46,6.64-8.83,6.62-12.71a18.72,18.72,0,0,0-.62-4.83q-9-65.07-51.2-90.69a1024.11,1024.11,0,0,1,32.81,196.61l-6.85,3.26-58.61,17.36c41-43.33,49.94-113.24,13.14-221.17,9.95-5.2,7.15-25.07,7.15-25.07l2,3.52,1.21-17.08,13.39-7.2c35.41,32.07,58.32,73.43,72.1,121.55a25.2,25.2,0,0,1-1.54,18.32c-.16.31-.33.61-.51.91,5.72,6.15,8,12.6,6.22,19.4a17.06,17.06,0,0,1-1.26,3.39C1391.45,669.82,1401.4,709.23,1383.18,723.82Z" transform="translate(-936.62 -147.77)"/></g><g class="a"><path class="i" d="M1322.84,863a22.79,22.79,0,0,1-14.64,5.07h-71c47.77-5.83,70.09-24.22,48.57-64.27l-15.07,3c1.12-28.92-5.35-55.19-5.35-55.19l38.39-10.91.06.43a301.6,301.6,0,0,1,2.48,65.91C1325.22,816.4,1340.43,848.45,1322.84,863Z" transform="translate(-936.62 -147.77)"/></g><g class="a"><path class="i" d="M1346.09,505.43l-1.91-3.26c.24-.46.48-.92.74-1.39,17.18-31.38,3.47-45.77,3.47-45.77L1363,427.35C1369.38,441.58,1380.77,478.05,1346.09,505.43Z" transform="translate(-936.62 -147.77)"/></g></svg>