<svg xmlns="http://www.w3.org/2000/svg" xmlns:xlink="http://www.w3.org/1999/xlink" viewBox="0 0 2078.56 577.63"><defs><style>.a{fill:#ea4230}.b,.k{fill:#fff}.c{fill:#cfcfe5;opacity:.4}.d,.h{fill:#1a272e}.e,.f{fill:#8d8db1}.e{opacity:.28}.g{fill:#bdbdd8}.h{opacity:.33}.i{clip-path:url(#a)}.j{fill:#c1271b}.k{opacity:.32}.l{clip-path:url(#b)}.m{fill:#f1bf46}</style><clipPath id="a" transform="translate(-676.49 -645.46)"><path d="M2391.71,865.42h18.39A20.89,20.89,0,0,1,2431,886.31v287.39a0,0,0,0,1,0,0h-60.17a0,0,0,0,1,0,0V886.31A20.89,20.89,0,0,1,2391.71,865.42Z" class="a"/></clipPath><clipPath id="b" transform="translate(-676.49 -645.46)"><circle cx="2400.9" cy="931.5" r="44.72" class="b" transform="translate(-173.71 989.69) rotate(-22.5)"/></clipPath></defs><title>4</title><ellipse cx="1254.88" cy="548.37" class="c" rx="823.68" ry="29.26"/><path d="M1791,980.21c0,240.28-134.68,219.64-300.83,219.64s-300.83,12-300.83-219.64c0-166.15,134.68-260.5,300.83-260.5S1791,814.06,1791,980.21Z" class="d" transform="translate(-676.49 -645.46)"/><path d="M1508.05,742.63s-250.28-22.92-269.7,281.44c0,0-19.57,181.33,251.77,175.78,0,0,231.83,8.87,243.2-141.62C1743.86,918.87,1732.41,757.4,1508.05,742.63Z" class="e" transform="translate(-676.49 -645.46)"/><circle cx="1490.12" cy="962.27" r="219.64" class="f" transform="translate(-920.48 690.06) rotate(-45)"/><circle cx="1490.12" cy="962.27" r="202.29" class="g" transform="translate(-920.48 690.06) rotate(-45)"/><path d="M1489.87,788.47H1526a7.64,7.64,0,0,1,7.12,10.39l-19.59,50.65L1497,892.13a7.64,7.64,0,0,1-14.25,0l-16.48-42.62-19.59-50.65a7.63,7.63,0,0,1,7.12-10.39Z" class="d" transform="translate(-676.49 -645.46)"/><path d="M1489.87,1134.55H1453.8a7.64,7.64,0,0,1-7.12-10.4l19.59-50.65,16.48-42.62a7.64,7.64,0,0,1,14.25,0l16.48,42.62,19.59,50.65a7.64,7.64,0,0,1-7.12,10.4Z" class="d" transform="translate(-676.49 -645.46)"/><path d="M1612.23,839.15l25.51,25.51a7.64,7.64,0,0,1-2.31,12.38l-49.67,22L1544,917.49a7.64,7.64,0,0,1-10.07-10.08l18.49-41.79,22-49.67a7.64,7.64,0,0,1,12.38-2.31Z" class="d" transform="translate(-676.49 -645.46)"/><path d="M1367.52,1083.86l-25.51-25.5a7.64,7.64,0,0,1,2.31-12.39l49.67-22,41.79-18.49a7.64,7.64,0,0,1,10.07,10.08l-18.48,41.79-22,49.67a7.64,7.64,0,0,1-12.39,2.31Z" class="d" transform="translate(-676.49 -645.46)"/><path d="M1662.91,961.51v36.07a7.63,7.63,0,0,1-10.39,7.12l-50.65-19.59-42.62-16.48a7.64,7.64,0,0,1,0-14.25l42.62-16.48,50.65-19.59a7.64,7.64,0,0,1,10.39,7.12Z" class="d" transform="translate(-676.49 -645.46)"/><path d="M1316.83,961.51V925.43a7.64,7.64,0,0,1,10.39-7.12l50.65,19.59,42.63,16.48a7.64,7.64,0,0,1,0,14.25l-42.63,16.48-50.65,19.59a7.64,7.64,0,0,1-10.39-7.12Z" class="d" transform="translate(-676.49 -645.46)"/><path d="M1612.23,1083.86l-25.51,25.51a7.63,7.63,0,0,1-12.38-2.31l-22-49.67-18.49-41.79a7.64,7.64,0,0,1,10.07-10.08l41.8,18.49,49.67,22a7.65,7.65,0,0,1,2.31,12.39Z" class="d" transform="translate(-676.49 -645.46)"/><path d="M1367.52,839.15l25.5-25.51a7.65,7.65,0,0,1,12.39,2.31l22,49.67,18.48,41.79a7.64,7.64,0,0,1-10.07,10.08L1394,899l-49.67-22a7.63,7.63,0,0,1-2.31-12.38Z" class="d" transform="translate(-676.49 -645.46)"/><circle cx="1490.12" cy="962.27" r="43.4" class="d" transform="translate(-465.27 1545.99) rotate(-76.72)"/><circle cx="813.62" cy="316.82" r="17.93" class="b"/><path d="M1324,781.7s-127.21,98.45-104.12,235.19C1219.84,1016.89,1170.57,877.45,1324,781.7Z" class="e" transform="translate(-676.49 -645.46)"/><path d="M1717.68,832.05s47.16,77.77,43.85,213.47C1761.53,1045.52,1784.7,903.2,1717.68,832.05Z" class="e" transform="translate(-676.49 -645.46)"/><path d="M2076.31,1087.53H1840.83V968.78l243.55-323.32h116.75V966.4h80.69v121.13h-80.69v112.76H2076.31Zm0-246.17-92,125h92Z" class="b" transform="translate(-676.49 -645.46)"/><path d="M912,1087.53H676.49L693,968.78,936.59,645.46h100.2V966.4h80.69v121.13h-80.69v112.76H912Zm0-246.17-92,125h92Z" class="b" transform="translate(-676.49 -645.46)"/><rect width="14.05" height="140.61" x="1717.38" y="99.7" class="g"/><rect width="149.03" height="12.78" x="1648.87" y="86.92" class="d"/><rect width="7.1" height="19.89" x="1647.05" y="83.37" class="d" rx="1.93"/><rect width="7.1" height="19.89" x="1794.35" y="83.37" class="d" rx="1.93"/><rect width="33.13" height="17.27" x="1707.6" y="84.68" class="g"/><polygon points="1717.38 101.95 1731.43 101.95 1717.38 109.77 1717.38 101.95" class="h"/><path d="M1715.21,220h18.39a20.89,20.89,0,0,1,20.89,20.89V528.23a0,0,0,0,1,0,0h-60.17a0,0,0,0,1,0,0V240.85A20.89,20.89,0,0,1,1715.21,220Z" class="a"/><g class="i"><rect width="41.4" height="328.78" x="1724.16" y="211.06" class="j"/></g><path d="M2452.79,1198.23H2350.16a25.86,25.86,0,0,1,25.86-25.86h50.91a25.86,25.86,0,0,1,25.86,25.86Z" class="d" transform="translate(-676.49 -645.46)"/><rect width="117.69" height="7.22" x="1665.99" y="551.29" class="d" rx="1.88"/><rect width="37.99" height="12.34" x="1705.41" y="211.06" class="d" rx="4.82"/><path d="M2385.26,1036.11h0a6,6,0,0,1-6-6V989.45a6,6,0,0,1,6-6h0a6,6,0,0,1,6,6v40.67A6,6,0,0,1,2385.26,1036.11Z" class="k" transform="translate(-676.49 -645.46)"/><path d="M2385.26,1055.65h0a6,6,0,0,1-6-6v-4.15a6,6,0,0,1,6-6h0a6,6,0,0,1,6,6v4.15A6,6,0,0,1,2385.26,1055.65Z" class="k" transform="translate(-676.49 -645.46)"/><circle cx="2400.9" cy="931.5" r="51" class="d" transform="translate(420.35 2506.73) rotate(-80.78)"/><circle cx="2400.9" cy="931.5" r="44.72" class="b" transform="translate(-850.21 344.23) rotate(-22.5)"/><g class="l"><path d="M2428.36,892.68s1.64,60.16-54.06,78.25c0,0,40,25.63,71.31-8.72S2428.36,892.68,2428.36,892.68Z" class="g" transform="translate(-676.49 -645.46)"/></g><circle cx="1724.83" cy="286.04" r="7.04" class="d"/><rect width="2.53" height="12.1" x="1723.57" y="247.22" class="d"/><rect width="2.53" height="12.1" x="1723.57" y="313.37" class="d"/><rect width="2.53" height="12.1" x="2433.14" y="925.76" class="d" transform="translate(2689.71 -2148.06) rotate(90)"/><rect width="2.53" height="12.1" x="2366.98" y="925.76" class="d" transform="translate(2623.56 -2081.91) rotate(90)"/><rect width="2.53" height="12.1" x="2423.45" y="902.37" class="d" transform="translate(676.04 -2093.92) rotate(45)"/><rect width="2.53" height="12.1" x="2376.67" y="949.14" class="d" transform="translate(695.41 -2047.15) rotate(45)"/><rect width="2.53" height="12.1" x="2423.45" y="949.14" class="d" transform="translate(4138.18 -729.38) rotate(135)"/><rect width="2.53" height="12.1" x="2376.67" y="902.37" class="d" transform="translate(4025.25 -776.15) rotate(135)"/><polygon points="1741.16 270.02 1725.9 282.02 1724.83 286.35 1729.16 285.28 1741.16 270.02" class="m"/><rect width="19.43" height="19.43" x="803.91" y="499.68" class="d"/><path d="M2096.69,1174.6c-39.43,0-76.69-10.92-113.89-33.4-32.91-19.88-61.71-45.78-92.19-73.2-58.88-53-119.77-107.72-211.59-114.23-49.64-3.52-90.25,9-120.71,37.07-59.83,55.22-61.43,153.37-61.44,154.35l-13.5-.11c0-1.07.31-26.49,8.46-59.43,7.56-30.6,23.64-73.6,57.27-104.67,33.31-30.78,77.34-44.46,130.88-40.67,96.44,6.84,159.08,63.17,219.65,117.65,59,53,114.68,103.15,197.06,103.15,95.75,0,138.77-19.6,173.34-35.36,26.55-12.1,49.48-22.55,86.79-19.63l-1.05,13.46c-33.85-2.65-54.28,6.66-80.15,18.45C2239.87,1154.33,2195.37,1174.6,2096.69,1174.6Z" class="a" transform="translate(-676.49 -645.46)"/><rect width="28.59" height="28.59" x="1665.5" y="453.1" class="d"/></svg>