<svg xmlns="http://www.w3.org/2000/svg" viewBox="0 0 3073.8 2614.74"><defs><style>.a{opacity:0.2;}.b{fill:#eecaff;}.c{fill:#ffb852;}.d{opacity:0.3;}.e{fill:#480763;}.f{opacity:0.6;}.g{fill:#fff;}.h{fill:#f78bec;}.i{fill:#ff5cdc;}.j{fill:#b55f54;}.k{fill:#ff2c7d;}.l{fill:#5fb0f2;}.m{fill:#ffe150;}.n{fill:#f9f9f9;}.o{opacity:0.35;}.p{fill:#f445db;}.q{fill:#f70200;}.r{opacity:0.5;}</style></defs><title>e</title><g class="a"><ellipse class="b" cx="1699.99" cy="2517.74" rx="1169.35" ry="97.01"/></g><path class="c" d="M583.21,2026.82c24,55,53.68,55.51,69.52,34.35,9.07-12.1,9.89-28.53,3.54-42.25l-17.62-38.1c60.52,17.29,86.63-26.87,86.63-26.87l-22.56-85.19s-83.36-38.48-90.45-33.16" transform="translate(-434.43 -794.27)"/><g class="d"><path class="e" d="M580.84,2022.73c24,55,53.68,55.51,69.52,34.35,9.07-12.11,9.89-28.53,3.54-42.26l-17.62-38.1c60.52,17.29,86.63-26.87,86.63-26.87l-22.56-85.19s-83.36-38.48-90.45-33.15" transform="translate(-434.43 -794.27)"/></g><path class="c" d="M965.24,2099l-7.61,5.33-26.76,18.78a59.48,59.48,0,0,1-70.45-1.44c-30.59-23.57-74.17-63.16-105.19-115.94l21-82.26,14-54.54v-.11l106.68,109.61,46.13-54.8Z" transform="translate(-434.43 -794.27)"/><path class="c" d="M808,1960.41a77.85,77.85,0,0,1-7.24,15.7c-11.81,19.74-29.85,32.24-45.49,29.58-13.46-2.23-25.12-15.75-29.43-45.49.11-10.75-5-23.79-13.94-34.8-11.12-13.78-28.14-24.42-48.42-23.68A62,62,0,0,0,641.1,1907c-30.49,25.27-53.64,48.58-57,110.41,1.06,26.92-27.3,42.51-50.5,24.79a.17.17,0,0,1-.05-.11c-5.85-4.41-11.33-11-16-20,2.82,18.36-9.63,25.49-19.05,30-12.08,5.75-26.66,1.23-34.64-9.52-22.93-31.07-13.83-79.44,6.65-134a138,138,0,0,1,15.7-30.17c22.88-33.25,50.49-60.92,85.24-80,79.39-38.74,168.4-15.27,218.74,70.55a245.23,245.23,0,0,1,14.69,29.37c1.27,3.09,2.39,6.17,3.35,9.37a89,89,0,0,1-.32,52.78Z" transform="translate(-434.43 -794.27)"/><g class="f"><path class="g" d="M759.64,1828.66c-48.57-34.47-109.29-38-165.21-10.74-34.74,19.1-62.36,46.77-85.24,80a140.2,140.2,0,0,0-15.69,30.17c-18.79,50-28,94.71-11.76,125.79a29.54,29.54,0,0,1-17.83-11.39c-22.93-31.07-13.83-79.44,6.65-134a138,138,0,0,1,15.7-30.17c22.88-33.25,50.49-60.92,85.24-80C636.63,1766.57,708.19,1776.63,759.64,1828.66Z" transform="translate(-434.43 -794.27)"/></g><path class="e" d="M487.29,2070.5a45.24,45.24,0,0,1-36.2-18.5c-30.26-40.92-13.47-101.17,4.54-149.07a156.37,156.37,0,0,1,17.45-33.6c26.17-38,55.84-65.78,90.7-85,.22-.13.46-.25.69-.36,46.51-22.71,96.94-25.88,142-9,49.7,18.68,88.83,59.14,113.15,117,12.91,30.71,11,65.19-5.22,92.24-16.09,26.87-40.85,41.35-63.08,36.91-12.64-2.54-34.82-13.53-41.37-58.73a15.44,15.44,0,0,1-.16-2.45c.1-10.13-8.15-26.14-22.13-35.4-11.84-7.84-24.7-9.12-38.25-3.83-27.88,23.31-46.34,43.44-49.35,96.78.53,22.11-13.32,41.22-33.92,46.63-12.19,3.2-28.47,1.47-43-10a60,60,0,0,1-17.74,12.22A42,42,0,0,1,487.29,2070.5Zm91.53-258c-30.25,16.73-56.25,41.24-79.44,74.91a123.77,123.77,0,0,0-13.86,26.72c-22.23,59.11-25,96.88-8.76,118.86,3.65,4.92,10.06,6.89,14.95,4.58,10.33-4.9,11-7.49,10.11-13.12a16,16,0,0,1,30-9.71c8.48,16.55,19.14,20.44,26.25,18.57,4.89-1.29,10.47-6.06,10.1-15.3,0-.5,0-1,0-1.5,3.63-67.56,30.56-95.15,62.72-121.84a16,16,0,0,1,3.83-2.35c24.14-10.5,49.21-8.49,70.6,5.68,21.22,14,36,38.93,36.41,60.94,2.73,17.7,8.78,29.52,15.89,30.94s19.73-5.82,29.41-22c11-18.36,12.18-42.08,3.19-63.47-20.83-49.58-53.67-84-95-99.49C658.6,1791.17,617.27,1793.87,578.82,1812.53Z" transform="translate(-434.43 -794.27)"/><path class="e" d="M501.66,2022.9c3.14-62.88,27.5-129.14,79.41-167.43l10.13-7.17c2.61-1.85,5.74,1.87,3.34,4.1-3.12,2.91-10.29,9.65-13.29,12.45l-3.86,4.54c-26,29.29-39.33,68-43.4,106.49-1.49,14.88-2,30.61-.45,45.33,1.93,22.51-31.37,24.4-31.88,1.69Z" transform="translate(-434.43 -794.27)"/><path class="e" d="M629.79,2090.08a38.91,38.91,0,0,1-4.68-.28c-15.29-1.77-37.5-13-56.53-56.59a16,16,0,0,1,29.26-12.77c11.56,26.45,23.56,36.79,30.95,37.65,4.79.53,8.72-3.22,11.17-6.49,5.19-6.94,5.91-17.14,1.82-26l-17.62-38.1a16,16,0,0,1,18.87-22c46.54,13.3,66.47-16.35,68.59-19.78a16,16,0,0,1,27.4,16.38c-9,15.24-34.26,38.6-73.58,38.65l5.32,11.5c9.08,19.64,7.07,42.06-5.25,58.52C656.18,2083.2,643.36,2090.08,629.79,2090.08Z" transform="translate(-434.43 -794.27)"/><path class="e" d="M896.54,2150a74.93,74.93,0,0,1-45.87-15.69c-32-24.71-77-65.68-109.2-120.52A16,16,0,0,1,769,1997.6C798.6,2048,840.35,2086,870.17,2109a43.3,43.3,0,0,0,51.51,1l26.49-18.58-16.39-129.69-22.63,26.9a16,16,0,0,1-23.66.86L778.78,1879.89a16,16,0,1,1,22.87-22.27l94.42,97,34.76-41.32a16,16,0,0,1,28,8.28L981.05,2097a15.94,15.94,0,0,1-6.67,15.07L940,2136.16A75.62,75.62,0,0,1,896.54,2150Z" transform="translate(-434.43 -794.27)"/><path class="e" d="M911.91,1972.86l6.14,55.15a2.75,2.75,0,0,1-5,1.83L882,1983.9a16.45,16.45,0,0,1,4.4-22.84c9.86-7,24.51-.15,25.56,11.8Z" transform="translate(-434.43 -794.27)"/><path class="c" d="M2996.37,1045.28a63.25,63.25,0,0,0-41.08-16.34c-80.71-1.33-131.26,30.92-131.26,30.92S1824,844.47,1488.71,921.09s-434.82,466.8-434.82,466.8-2.18,666.59,82.95,1031.07,318.35,415.93,318.35,415.93c210.86,150.26,581.35,209.59,930.4,156.17,430.51-65.87,781.26-381.67,881.24-805.58C3373.73,1732.52,3239.43,1264.07,2996.37,1045.28ZM2423.58,2150.1l-186.12-.85c-243.64,13.14-339.74-124-339.74-124-31.87-44.59-53.1-85.93-66.19-124-74.49-216.34,113.92-326.86,113.92-326.86l16.12-9.42c.69-28.84,32.41-49.11,75.72-59.22,88.64-20.7,226,1.28,244.86,79.44,7.67,31.82,160.48,79.6,191.34,130.79s92.16,144.3,92.16,144.3Z" transform="translate(-434.43 -794.27)"/><g class="d"><path class="e" d="M2996.37,1045.28a63.25,63.25,0,0,0-41.08-16.34c-80.71-1.33-131.26,30.92-131.26,30.92s-13.83-3-38.74-8.09c205.71,236.93,310.63,665.48,212.57,1081-100,423.91-450.73,739.7-881.24,805.57A1687.78,1687.78,0,0,1,1698,2949.61c200.7,61.83,449.18,77.95,687.61,41.45,430.51-65.87,781.26-381.67,881.24-805.58C3373.73,1732.52,3239.43,1264.07,2996.37,1045.28Z" transform="translate(-434.43 -794.27)"/></g><path class="c" d="M1796.63,3275.62H1625.45c-18.62-10.48-28-28.95-27.88-49.27.22-38.31,34-83.43,102.38-94.4,0,0-35.49-38.15-95.78-99.34-36.66-37.24-34.05-74.59-26.39-98.16a94,94,0,0,1,12-24.64l216.93,67.84S1847.17,3044.16,1911,3116C1956.89,3197.88,1897.72,3275.62,1796.63,3275.62Z" transform="translate(-434.43 -794.27)"/><g class="d"><path class="e" d="M2037.29,1505.74c-43.31,10.11-75,30.38-75.72,59.22l-16.12,9.42S1757,1684.9,1831.53,1901.24c-88.54,1.7-130,100.09-130,100.09l-211.08-198.95c-13.3-18.62,0-50.55,73.8-164.84s171-151.86,210.87-180,135.73-59,135.73-59,37.2,15.43,119.46,99.87C2032.71,1500.85,2035.05,1503.3,2037.29,1505.74Z" transform="translate(-434.43 -794.27)"/></g><path class="e" d="M2128.28,3026.55c-267.79,0-518.41-63-679.92-176.93-13.9-3.73-68.2-20.83-130.77-73.86-64.74-54.86-151.35-160.67-196.32-353.19-84.58-362.1-83.35-1028.05-83.33-1034.73a16,16,0,0,1,.49-3.89c1-4.08,26.23-101.19,93.53-209.18,89.66-143.86,211.77-237,353.14-269.27,325.11-74.27,1244.87,118,1336.27,137.48,16.29-8.8,64.66-31.26,134.15-30a79.15,79.15,0,0,1,51.59,20.44c123.28,111,219.59,285.09,271.19,490.23,54.37,216.13,55.78,446.24,4.06,665.46-49.64,210.43-160.8,399-321.47,545.21-159.7,145.37-357.81,239.6-572.91,272.51A1721.22,1721.22,0,0,1,2128.28,3026.55ZM1069.86,1390c0,41.29,1.11,676.84,82.5,1025.3,42.71,182.85,123.78,283,184.27,334.73,65.35,55.94,121.45,69.13,122,69.26a16.12,16.12,0,0,1,5.78,2.58c206.34,147,567,207.23,918.73,153.4,429.15-65.66,769.92-377.12,868.14-793.49,99.84-423.24-11.84-896.22-265.55-1124.64a47.22,47.22,0,0,0-30.76-12.24c-74.38-1.24-122,28.14-122.43,28.44a16.1,16.1,0,0,1-11.91,2.12c-10-2.14-1000.32-213.79-1328.43-138.85C1181.61,1007.58,1077.77,1361.34,1069.86,1390Z" transform="translate(-434.43 -794.27)"/><path class="h" d="M2852.37,1145.33c11.12-116.33-91.81-98.28-91.81-98.28-20.4-79.81-73.6-102.87-73.6-102.87-110-45.22-160.52,18.63-160.52,18.63C2514,824.46,2397.86,818.26,2397.86,818.26c-97.55-12.42-176.26,52.36-176.26,52.36s-18.62-20-85.8-37.29-111.73,59.86-163,30.6S1873.09,818.7,1840.5,837s-81.15,22.25-139-4.35S1616.9,837,1616.9,837l-72.44,88.79L1715,1145.33s313.44,185.17,373.1,158.8,276,17.34,297.33,27.34,434.81-117.7,434.81-117.7" transform="translate(-434.43 -794.27)"/><g class="d"><path class="e" d="M1930.76,1098.7s68-42.44,152.37-97c21.1-13.66,34.5-21.55,42.74-25.73,24.69-12.51,2.86,8.54,2.86,8.54s63.59,154.37,148.31,77.77l-29.68-51.34c163.4,164.34,278.87,175.26,328.63-24.09,0,0,73.09,80.49,63.78,126.79s145.94,44.72,145.94,44.72-269.28,194.45-338,182.48-139.19-14.64-152.5-16" transform="translate(-434.43 -794.27)"/></g><g class="f"><path class="g" d="M2852.39,1145.31l-.37.8c-18-61.73-88.49-49.33-88.49-49.33-20.38-79.81-73.59-102.9-73.59-102.9-110-45.23-160.53,18.62-160.53,18.62C2517,874.16,2400.81,868,2400.81,868c-97.53-12.46-176.23,52.35-176.23,52.35s-18.62-20-85.82-37.3S2027,942.9,1975.83,913.64s-99.76-45.23-132.38-26.93-81.14,22.3-139-4.31-84.6,4.31-84.6,4.31l-54.17,66.41-21.23-27.3,72.42-88.8s26.76-31,84.6-4.37,106.42,22.67,139,4.37,81.15-2.34,132.33,26.92,95.78-47.89,163-30.59,85.77,37.3,85.77,37.3,78.7-64.81,176.28-52.41c0,0,116.16,6.22,128.55,144.56,0,0,50.55-63.85,160.53-18.62,0,0,53.21,23,73.59,102.85C2760.55,1047,2863.51,1029,2852.39,1145.31Z" transform="translate(-434.43 -794.27)"/></g><path class="i" d="M1945.77,1584.12l0,0c1.33,21.6,7.76,36.66,17.82,47,.91.9,1.81,1.81,2.77,2.61Zm1241.35,240.66s16-41.66-18.62-93.11,27.51-157.82,12.4-220.82-55-71.83-99.29-125-23.94-70.93-24.85-162.29-113.49-109.92-113.49-109.92-54.11,60.28-130.36,17.71c-18.31,20.92-37.25,36.82-56.83,48-51.4,29.32-107.16,25.86-166.65-5.43-96,89-191.18,74.44-286-8.51-123,69.22-215.07,39.69-280.68-74.6-112.27,29-188.09-15-233.53-120.41-99.61,34.16-166.33-.64-174.15-158.3,0,0-120.41-25.27-164.95,101.74s-95.14,141-167,151S1162.11,1124,1166.1,1176.54s-33.25,152.28-100.51,202.19c-67.09,49.91-77.73,97.11-79.81,240.08-1.91,143-38.47,149.57-45.81,218.79S932,2105,998.5,2251.35s13.3,217.25,29.26,283.76S1076.5,2638,1182.07,2638s125,50.55,130.36,107.27-29.27,209.32,55.87,219.06,58.53-82.48,86.89-129.46c9.25-15.32,21.6-19.53,35.49-18.67,28.68,1.59,63.85,24.68,91.3,15.11,40.81-14.21,99.34-78.91,152.55-18.63s78.06,121.48,220.82,79.82,153.4-18.63,248.32,21.28,303.29-48.79,344.95-86,45.23-30.11,77.15-18.62,127.7,8,149.89-78c5-19.27,12.45-34.17,21.13-45.07,29.95-37.83,73.74-27.56,73.74,15.8,0,27.35.22,53.58,9.26,71.3,9.42,18.52,28.52,27.72,67,19.16,75.4-16.87-3.51-219.07,37.25-299.78s112.64-102.85,113.54-192.4-55.86-176.5-12.45-238.59S3187.12,1824.78,3187.12,1824.78Zm-818.5,203.1c7.34,59.86-30.6,121.74-111.15,119.72-80.4-2-126.27,96.41-158.89,108.44-20.06,7.34-51.87,11.65-80.5-1.33,0,0-.11,0-.11-.06-17.93-8.14-34.64-23.14-46.39-48.52-30.71-65.88-102.54-58.53-139.78-53.21s-92.37,18-115-48.53,11.23-91.14-50-157-16.55-91.15-16.55-91.15c56.56-71.73,74.87-142,27-209.75-11.6-27.88-13.14-75.23,60.13-70.92,98.43,8.62,83.11-62.52,134.08-108.18,46-29.85,90.78,11.5,77.53,75a157.86,157.86,0,0,0-3.62,32c0,3.35,0,6.6.27,9.69,1.33,21.6,7.76,36.66,17.82,47,.91.9,1.81,1.81,2.77,2.61,11,9.68,25.54,14.63,42.25,16.86,78.37,7.56,80.45-47.3,81.78-102.85.37-16.81,8.67-32.83,23-41.66,8.62-5.32,18.73-7.93,28.79-6.28h.11c10.26,1.7,20.43,7.72,29,19.63l.38.54a87.93,87.93,0,0,1,9,16.7c33.52,94,55,83.59,128.87,104.88s62.41,75.77,51.77,127,18.62,83.16,33.36,120.41C2409.11,1926.14,2361.22,1968,2368.62,2027.88Z" transform="translate(-434.43 -794.27)"/><g class="f"><path class="g" d="M2458.65,1909.38c-14.69-37.24-44-69.17-33.31-120.41s22-105.72-51.83-127c-14.79-4.25-27.45-7.23-38.57-10,45.22,25.54,35.49,72.25,26.28,116.58-10.64,51.24,18.62,83.16,33.36,120.41,14.53,37.24-33.36,79.12-26,139s-30.6,121.74-111.15,119.72c-80.4-2-126.27,96.41-158.89,108.44a118.75,118.75,0,0,1-35.91,6.91c32.51,27.14,75.24,22.62,100,13.57,32.61-12,78.48-110.46,158.93-108.44s118.44-59.86,111.1-119.72S2473.23,1946.63,2458.65,1909.38Zm-214-352.29c-16.76-40.33-46.34-43.53-67.3-30.6a10,10,0,0,0-1.23.86,91.73,91.73,0,0,1,4.42,9.25c31.29,87.64,52.09,84.5,114.66,100.94C2275.77,1625.89,2261.83,1605.14,2244.69,1557.09Zm-629.61-745s-120.41-25.27-164.95,101.74-95.14,141-167,151S1162.11,1124,1166.1,1176.54s-33.25,152.28-100.51,202.19c-67.09,49.91-77.73,97.11-79.81,240.08-1.91,143-38.47,149.57-45.81,218.79S932,2105,998.5,2251.35s13.3,217.25,29.26,283.76c13.68,56.94,39.64,91.84,113.12,100.67-27-17.39-40.49-44.42-49.05-80.18-16-66.51,37.24-137.44-29.27-283.76s-65.87-344.53-58.53-413.75,43.9-75.77,45.87-218.79,12.66-190.17,79.81-240.08S1234.16,1249.6,1230.17,1197s45.23-101.74,117.06-111.74,122.38-24,167-151c23-65.5,66.09-90.45,102.54-99.28C1616,827.65,1615.45,820,1615.08,812.06ZM1376.49,2765.77c-4.84-51.66-21.5-98.22-104.13-106.09,28.63,20.06,36.88,51.71,40.07,85.61,5.32,56.77-29.27,209.32,55.87,219.06,10.16,1.17,18.73.85,26-.64C1359.46,2917.84,1380.75,2811.16,1376.49,2765.77Z" transform="translate(-434.43 -794.27)"/></g><g class="f"><path class="g" d="M1226,2052.35a151,151,0,0,1-16.44.8c-70.71.11-42.56-114.4-66.51-148.13-16.49-23.2-31.5-43-33-66.19l.85-14.58v0l17.19-49.06s-12.67,59.8,30.54,89.07C1200.69,1892.73,1165.2,2039.16,1226,2052.35Z" transform="translate(-434.43 -794.27)"/></g><g class="d"><path class="e" d="M3085.12,2061.56c-43.41,62.09,13.31,149,12.45,238.59s-72.73,111.73-113.54,192.4,38.15,282.91-37.25,299.78c-38.47,8.56-57.57-.64-67-19.16,80.4-43.74,30.54-160.26,30.54-160.26s-105.77-209-22.24-268.12,109.93-154,69-283.23,65.82-296.43,115.46-409.65S2955.45,1492,2943.27,1332c-10-130.58-139.83-150-187.19-152.71,19.58-11.18,38.52-27.08,56.83-48,76.25,42.57,130.36-17.71,130.36-17.71s112.59,18.62,113.49,109.92-19.52,109.08,24.85,162.29,84.23,62.1,99.29,125-47,169.42-12.4,220.82,18.62,93.11,18.62,93.11S3128.6,1999.52,3085.12,2061.56Z" transform="translate(-434.43 -794.27)"/></g><g class="d"><path class="e" d="M2820.25,2545.54l-23.46,140.53c-8.68,10.9-16.18,25.8-21.13,45.07-22.19,86-118,89.54-149.89,78s-35.49-18.62-77.15,18.62-250.08,125.95-344.95,86-105.56-63-248.32-21.28-167.61-19.53-220.82-79.82-111.74,4.42-152.55,18.63c-27.45,9.57-62.62-13.52-91.3-15.11-.22-6-.22-9.26-.22-9.26s42.14,19.68,126.27-68.11,174.36-26.6,293.23,41.5,188.78-18,327.55-1.59,152.18-98.44,328.14-69.17S2820.25,2545.54,2820.25,2545.54Z" transform="translate(-434.43 -794.27)"/></g><path class="e" d="M1380.36,2981a120.89,120.89,0,0,1-13.9-.84c-79.85-9.13-74.42-113.38-70.82-182.36,1-19.93,2-38.76.87-51.07-4.59-48.9-16.79-92.79-114.47-92.79-118,0-153.24-46-169.83-115.14-6.22-25.92-3.11-52,.18-79.62,5.82-49,13.08-109.9-28.45-201.26-69.6-153.13-66.82-356.57-59.87-422,3-28.39,10.52-47,18.47-66.69,12.25-30.31,26.12-64.67,27.3-150.63,2.09-147.65,13.67-198.72,86.26-252.67,63.55-47.2,97.61-141.41,94.06-188.17-4.73-62.37,51.49-117.72,130.77-128.76,68.33-9.51,112.32-21.39,154.11-140.48,48.61-138.62,182-112.35,183.29-112.07A16,16,0,0,1,1631,811.25c3.71,74.2,20.93,122.22,51.19,142.71,23.88,16.18,57.21,16.6,101.9,1.28a16,16,0,0,1,19.83,8.78c43.55,101,113.82,137.43,214.82,111.28a16,16,0,0,1,17.85,7.51c62.6,109,147.31,131.51,259,68.63a16,16,0,0,1,18.34,1.9c96.26,84.22,180.35,87,264.63,8.82a16,16,0,0,1,18.28-2.42c78.41,41.24,145.15,28.5,204-38.94a16,16,0,0,1,19.8-3.44c63.78,35.61,108.87-12.44,110.75-14.5a16.07,16.07,0,0,1,14.44-5c43.53,7.2,126.07,42.7,126.85,125.53.26,26.57-1.24,47.2-2.45,63.77-2.93,40.23-4,55.29,23.6,88.45,14.61,17.54,28.55,29.86,42,41.77,25.47,22.51,49.53,43.77,60.57,89.76,7.57,31.67-1.54,70.67-10.35,108.4-9.7,41.51-19.72,84.43-4.38,107.23,37.19,55.32,22.4,101.79,20.46,107.27-3.14,9.35-60,177.91-103.95,240.69-22.75,32.49-12.47,75.56-.57,125.44,8,33.41,16.22,68,15.85,104.15-.61,60.78-30.4,93.4-61.94,127.94-18.87,20.67-38.38,42-53.27,71.5-16,31.57-10.88,88.19-6,142.94,7.05,78.55,13.7,152.74-42,165.22-30.94,6.89-53.81,4-69.95-9-25.8-20.68-25.8-59.51-25.8-97.06,0-13.25-5.46-21.86-14.61-23-16.11-2-38.71,17-48.84,56.27-9,34.67-29.93,61.58-60.67,77.8-37.27,19.68-84.54,20.46-110.1,11.23-3.21-1.16-6.17-2.28-8.9-3.32-20.59-7.82-21.82-8.29-52.19,18.83-43,38.4-259.39,131.91-361.78,88.85-14.06-5.92-26.39-11.51-37.27-16.44-62.93-28.54-84.12-38.15-200.39-4.23-134.91,39.38-175.57-10.08-218.61-62.44-6-7.26-12.14-14.77-18.64-22.14-29.23-33.11-57-20.32-99.28,4.67-12.56,7.42-24.42,14.43-36,18.47-21.81,7.6-45.16.09-65.76-6.53-32.91-10.56-43.8-11.42-52.68,3.27-7.69,12.75-10.86,31.59-13.93,49.82C1448.57,2930.51,1440.06,2981,1380.36,2981Zm209.45-2155.2c-33.44,0-96,11.66-124.64,93.23-46.86,133.52-101.62,150.65-179.83,161.54-61.34,8.54-106.73,50.15-103.34,94.72,4.65,61.27-38.09,165.14-106.86,216.21-59,43.83-71.31,82.1-73.37,227.49-1.27,91.94-17,130.87-29.62,162.15-7.4,18.33-13.79,34.15-16.33,58.1-6.24,58.82-9.13,259.57,57.18,405.46,45.22,99.49,37.38,165.34,31.09,218.26-3.07,25.77-5.72,48-.83,68.39,14.11,58.8,40.41,90.66,138.78,90.66,118.82,0,140.61,61.54,146.25,121.74,1.37,14.63.38,33.67-.77,55.71-4.08,78.38-3.7,143.69,42.56,149,40.57,4.64,45.66-15.3,53.33-60.84,3.56-21.16,7.25-43,18.08-61,23.27-38.52,61.71-26.18,89.77-17.16,16.61,5.33,33.78,10.85,45.5,6.77,8.57-3,19.1-9.21,30.25-15.8,36.11-21.34,90.67-53.59,139.46,1.68,6.88,7.79,13.23,15.52,19.38,23,40.81,49.66,70.3,85.53,185,52.06,127.62-37.24,157.35-23.75,222.51,5.8,10.69,4.85,22.81,10.34,36.47,16.09,86.1,36.21,288.12-47.45,328.13-83.22,40.44-36.12,52.93-37,84.79-24.88,2.58,1,5.36,2,8.41,3.13,15.93,5.77,53.73,6.75,84.36-9.42,22.9-12.09,37.93-31.45,44.66-57.55,15.54-60.27,54.26-83.73,83.77-80,25.43,3.23,42.52,25.2,42.52,54.69,0,28.62,0,61.06,13.84,72.15,8,6.39,22.45,7.3,43,2.72,28.4-6.36,22.71-69.83,17.2-131.21-5.31-59.23-10.8-120.47,9.28-160.19,16.86-33.36,38.81-57.41,58.19-78.63,29.66-32.49,53.09-58.15,53.59-106.73.32-32.28-7.46-64.89-15-96.42-13.11-55-25.51-106.91,5.47-151.16,41.6-59.44,99.32-231,99.89-232.69l.18-.5c.57-1.6,12.1-35.47-16.91-78.64-23.1-34.33-11.47-84.14-.22-132.31,8-34.11,16.2-69.38,10.39-93.7-8.68-36.18-26.29-51.74-50.66-73.27-13.71-12.12-29.25-25.85-45.42-45.27-35.87-43.06-34-68.71-30.91-111.19,1.17-16,2.62-35.89,2.36-61.15-.6-64.78-68.83-87-92.4-92.69-24.09,21.77-73.78,46.18-131.83,20-64.72,68.36-140.17,82.48-224.57,42-91.08,79.15-188.75,76.32-290.56-8.39-60.42,31.88-115.59,41.18-164.14,27.62-47.09-13.15-88.17-47.86-122.25-103.23-106.67,23.53-185.46-16.52-234.46-119.2-47.72,13.71-86.79,10.55-116.29-9.43-37.46-25.37-58.57-75.89-64.34-154.2C1597,826,1593.59,825.83,1589.81,825.83Zm468.63,1453.08c-36.17,0-77.67-14.95-101.37-66.08-23.86-51.28-78.26-50.52-123-44.12l-6.65,1c-37.47,5.63-100.18,15-125.76-60.18-9.13-26.87-9.81-47.39-10.41-65.49-.93-28.25-1.61-48.67-36.07-85.74-27.53-29.62-39.61-56.75-35.92-80.62a50.64,50.64,0,0,1,20-33.2c56.63-72.67,64.56-132.69,25-188.74a16,16,0,0,1-1.7-3.09c-10.43-25.2-9.35-50.51,2.89-67.71,13.4-18.82,38-27.3,72.92-25.26,55,4.82,66.15-16.45,83.05-48.62,9.4-17.87,20-38.14,39.45-55.51a15.13,15.13,0,0,1,2-1.51c24.41-15.81,51.65-16.57,72.86-2,26.18,17.94,37.28,53.83,29,93.66a146.57,146.57,0,0,0-3.23,28.8c-.36,44.31,19.29,56.15,48.92,60.2,21.63,2,36.73-1,46.13-9.35,16.34-14.49,17.11-46.79,17.86-78,.51-22.84,11.93-43.36,30.56-54.86,15.07-9.3,32-11.63,47.68-6.57,12.76,4.12,30.53,15.2,42.76,44.62.1.26.2.51.29.77,25.4,71.32,38.41,74.56,86.8,86.61,9.22,2.3,19.66,4.9,31.4,8.28,88,25.38,73.58,94.85,63,145.57-6.75,32.53,5.53,56.42,18.54,81.72,4.87,9.48,9.91,19.28,14,29.62,9.51,24.3-.36,48.45-9.9,71.8-9,22-18.3,44.8-15.08,71.09h0c4.57,37.27-6.27,73.48-29.75,99.35-16.48,18.16-46.82,39.49-97.59,38.27-45.73-1.21-80.22,37.33-107.94,68.25-16.91,18.85-30.26,33.75-45.07,39.21A136,136,0,0,1,2058.44,2278.91Zm-187.77-145.22c38.77,0,89.78,10.73,115.35,65.69,31.13,67.13,99.38,44.46,107.06,41.65,7.33-2.7,20-16.86,32.3-30.56,30.41-33.91,72.1-80.3,132.51-78.85,30.66.74,56-8.84,73.15-27.8s25.15-46,21.71-74h0c-4.24-34.55,7.65-63.66,17.21-87,8.14-19.94,14.58-35.68,9.73-48.06-3.48-8.83-7.94-17.5-12.66-26.69-14.28-27.77-30.46-59.23-21.41-102.78,11.75-56.59,16.07-92.08-40.62-108.43-11.18-3.22-21.32-5.75-30.28-8-55.4-13.8-79.12-22.75-109-106.47-6-14.18-13.88-23.21-22.93-26.12s-17.06.86-21.1,3.35c-9.25,5.7-15.15,16.6-15.41,28.43-.87,36.32-1.85,77.46-28.6,101.17-16.44,14.59-39.55,20.22-70.67,17.22l-.6-.07c-51.45-6.93-77.32-37.91-76.88-92.09a178,178,0,0,1,3.89-35.09c5.55-26.6-.64-50.46-15.76-60.83-10.26-7-23.16-6.37-36.42,1.84-14.55,13.39-23.19,29.83-31.55,45.74-17.79,33.85-38,72.24-113.64,65.59-15.57-.9-36.36.39-44.58,11.94-6.56,9.22-4.41,24.07,0,35.45,46.68,67.52,37,144-28.63,227.27a16,16,0,0,1-4.66,4h0a19,19,0,0,0-7.4,12.92c-1.73,13.32,8.15,32.31,27.82,53.48,42.59,45.81,43.57,75.25,44.6,106.42.55,16.65,1.12,33.88,8.73,56.27,15.77,46.38,47.58,45.36,90.79,38.88q3.52-.54,6.87-1A282.57,282.57,0,0,1,1870.67,2133.69Z" transform="translate(-434.43 -794.27)"/><path class="c" d="M3143.49,2066.93c-2.12-6.17-4.15-12.5-6.06-19a83.78,83.78,0,0,1-3.25-30.39l4.42-55.65s103.86-38.63,106.36-46.61,52.15,35.22,52.15,35.22l57.41,138.93c.21,2,.37,4,.53,6.06C3369,2274,3215.17,2279.61,3143.49,2066.93Z" transform="translate(-434.43 -794.27)"/><path class="c" d="M2591.69,2941.89c-9.55,34.82-32.16,54.62-64.14,63.68-8,103.09-71,180.94-157.63,99.1-55.87-66.51-173.33-186.57-89.12-280,0,0,55.2-65.18,113.06,9.31,3.73-74.42,101.13-131.49,184.37,13.2C2594.73,2875.85,2600.44,2910,2591.69,2941.89Z" transform="translate(-434.43 -794.27)"/><g class="d"><path class="e" d="M2591.67,2941.89c-9.53,34.8-32.14,54.65-64.12,63.69-8,103.07-71,180.91-157.6,99.08-15.38-18.25-35.39-40.6-54.54-65.29,83,71.41,142.92-5,150.69-105.35,32-9.05,54.59-28.84,64.11-63.64,8.78-31.92,3-66.08-13.46-94.76-.21-.38-.43-.75-.64-1.12,20.49,13.94,41.72,37.25,62.1,72.68C2594.75,2875.86,2600.45,2910,2591.67,2941.89Z" transform="translate(-434.43 -794.27)"/></g><g class="f"><path class="g" d="M2572.09,2837c-75.56-90.46-152.76-38.1-156.06,28-57.84-74.49-113.07-9.31-113.07-9.31-50.6,56.18-28.36,122,9.63,180-49.48-64.54-91.73-144.51-31.77-211,0,0,55.18-65.19,113.07,9.31C2397.46,2761.36,2490.31,2705.22,2572.09,2837Z" transform="translate(-434.43 -794.27)"/></g><path class="e" d="M2438.94,3154.84c-21.51,0-48.7-9-80-38.57a14.37,14.37,0,0,1-1.26-1.33c-4.45-5.3-9.3-10.94-14.4-16.88-60.29-70.21-161.21-187.71-74.36-284.08.8-1,27.26-31.68,65.38-31.68l1.51,0c17.18.36,33.48,6.77,48.73,19.09,10.87-28.57,34-50.58,62.62-57.48,23.8-5.71,85.54-7.88,144.89,95.28,19.07,33.16,24.55,72.12,15,106.9h0c-9.58,34.95-31.3,58.91-64.63,71.37-7.55,66.65-36.31,116.86-76.34,132.31A75.16,75.16,0,0,1,2438.94,3154.84Zm-57.4-61.16c19,17.77,46.85,36.46,73.08,26.32,29.63-11.43,52.55-57.91,57-115.66a16,16,0,0,1,11.56-14.13c28.62-8.1,45.49-24.8,53.09-52.54,7.3-26.62,3-56.71-11.89-82.54-34.23-59.48-74.23-88.69-109.75-80.16-24.94,6-43.38,30.59-44.84,59.8a16,16,0,0,1-28.55,9c-14.9-19.19-30.35-29.12-45.92-29.53-23.44-.55-42.23,20.58-42.41,20.8-63.07,70,2.28,158,74.59,242.22C2372.47,3083,2377.19,3088.51,2381.54,3093.68Zm210.15-151.79h0Z" transform="translate(-434.43 -794.27)"/><path class="e" d="M2406.89,2824.75a904.54,904.54,0,0,1,65.89,144.48,2.68,2.68,0,0,1-1.63,3.41,2.7,2.7,0,0,1-3.23-1.23q-19.1-34.17-41-66.35c-14.4-21.14-30-42.47-46.17-62-14-18.2,13.75-37.71,26.15-18.33Z" transform="translate(-434.43 -794.27)"/><path class="e" d="M2511.75,3007.85c-.4-32.38-1.11-65.12-4.08-97.43a2.68,2.68,0,0,1,5.17-1.25c5.94,15.39,11.14,31,16.16,46.74s9.76,31.41,14.35,47.38c5.44,23.65-30.12,28.81-31.6,4.56Z" transform="translate(-434.43 -794.27)"/><path class="c" d="M3426.14,2025.22c22.61,66.51-59,94.07-64.33,36.34-3.67,48.79-45.87,70.45-69.86,50.18-7.83-6.66-11.66-16.87-11.6-27.14.1-19.53-.43-38.63-2.51-56.77l-.05-.06q-1-10.14-2.87-19.79a62.24,62.24,0,0,0-18.73-33.9c-.85-.85-1.76-1.65-2.61-2.39-21.71-19.1-51.77-25.54-79.81-18.57l-90.4,22.4c-31.87,12.08-81.78-29.48-42.57-80,12.35-16,30.12-26.93,49.64-32.14l150.8-40.38c74.81-26,137.86,2.44,184.52,52.41,26.82,28.78,48.26,64.64,63.32,101.41C3506.38,2048.68,3448.27,2066,3426.14,2025.22Z" transform="translate(-434.43 -794.27)"/><g class="f"><path class="g" d="M3489.56,1979.09c-45-89.87-128.34-165.06-235.92-127.7l-150.74,40.38c-19.53,5.22-37.3,16.18-49.7,32.14-10.91,14.1-14.9,27.45-14.31,39.16-14.32-15-19.53-39.91,1.91-67.52,12.35-16,30.12-26.93,49.64-32.14l150.8-40.38c117.85-40.92,206.61,53.2,247.84,153.82C3489.24,1977.6,3489.46,1978.34,3489.56,1979.09Z" transform="translate(-434.43 -794.27)"/></g><path class="e" d="M3312.77,2135.27a47.69,47.69,0,0,1-31.12-11.38c-11.07-9.38-17.37-23.74-17.27-39.4.2-30.52-1.44-53.88-5.17-73.54a45.91,45.91,0,0,0-13.88-25.2c-.77-.71-1.55-1.42-2.33-2.1h0c-17.31-15.27-41.77-20.89-65.41-15L3088,1990.83c-22.55,8-50.07-1.53-65.82-22.85-17.66-23.9-15.43-54.63,6-82.21,14-18.06,34.66-31.47,58.15-37.77l150.21-40.26c129.69-44.62,225,59.89,267.31,163.08a15.32,15.32,0,0,1,.75,2.32c12.22,50.75-8.51,78.4-30,86.65a45.52,45.52,0,0,1-29.87,1.06,60.6,60.6,0,0,1-17.18,32.43c-14.55,14.19-35,19.28-52.12,13a42,42,0,0,1-9.28-4.79c-7.75,13.43-18.94,23.81-32.5,29.48A54,54,0,0,1,3312.77,2135.27Zm-48.66-175.57c1,.87,2,1.77,3,2.68a77.59,77.59,0,0,1,23.5,42.62c4.12,21.74,5.94,47.06,5.73,79.7,0,6.08,2.19,11.63,6,14.83,6.83,5.79,14.87,3.72,19.05,2,10.7-4.48,22.78-17.64,24.56-41.14a16,16,0,0,1,31.81-.26c.46,5,2.22,13.79,8.77,16.2,5.46,2,13.18-.41,18.79-5.88,9.24-9,11.33-23.61,5.73-40.08a16,16,0,0,1,29.14-12.76c5.71,10.52,15,15.49,23,12.41,10-3.85,17.12-20.24,10.68-48.22-39-94.34-119.06-181.29-227.38-143.68-.37.13-.73.24-1.1.34l-150.76,40.41c-16.8,4.5-31.43,13.91-41.2,26.5-12.47,16.08-14.43,31.59-5.51,43.66,7.29,9.87,20.68,15.08,29.83,11.61a15.81,15.81,0,0,1,1.81-.56l90.38-22.42c33.84-8.38,69-.13,94.21,22.07Z" transform="translate(-434.43 -794.27)"/><path class="e" d="M3211.93,1949.53a1068.45,1068.45,0,0,1-11,125,2.23,2.23,0,0,1-4.43-.26,1052.79,1052.79,0,0,0-11.07-123c-2.18-19.08,26.13-21,26.55-1.8Z" transform="translate(-434.43 -794.27)"/><path class="e" d="M3345.93,2060c7.12-46-5.34-95.77-37.32-130.35-2.32-2.3,1-6.08,3.55-4,9.76,7.9,19.51,16.42,27.27,26.74,20.49,25.65,32.35,57.49,36.78,89.93a145.34,145.34,0,0,1,1.49,21.22c-1.34,23.26-35.61,19.48-31.77-3.57Z" transform="translate(-434.43 -794.27)"/><path class="e" d="M3410.51,2028.6c-5.29-39.53-19-79-42.31-111.67-1.83-2.49,1.79-5.67,4-3.49,32.11,29.31,55,67.65,69.56,108.52,6.35,22.69-27.8,30-31.25,6.64Z" transform="translate(-434.43 -794.27)"/><path class="e" d="M3285.94,2243.92c-54,0-124.07-57.24-163.84-191.48a99.49,99.49,0,0,1-3.83-36.2l4.39-55.65a16,16,0,1,1,31.83,2.51l-4.39,55.65a67.81,67.81,0,0,0,2.61,24.62c35.93,121.26,98.07,176.26,140.93,167.91,33.8-6.59,51.47-53.84,45-120.37a16,16,0,0,1,31.78-3.08c9.91,102-30,146.86-70.68,154.78A71.92,71.92,0,0,1,3285.94,2243.92Z" transform="translate(-434.43 -794.27)"/><path class="e" d="M1117.31,1804.83c-13.52,35.29,4.54,61.1,27,88,14.91,15.76,18.5,37.5,21.32,57.49,5.1,27.38,4.55,88.43,41.69,87.65a31.2,31.2,0,0,0,4.73-.14c6.64-.49,13.63-.63,20-2.08,5.71-1.29,13-4.35,15.46-8.12,6.27-8.59,6.58-23.51,8-35.39,2.27-34.44,7.87-77.55,45.85-91.4a65.41,65.41,0,0,1,29.36-4c5.82.76,15.23,2,21,1.71,56.24-.41,78.06-51.73,64.91-101.29-4.39-22.88-6.4-46-7.53-69.16,6.63,23.93,12.65,48,21.12,71.22.89,2.94,2.88,8.68,3.75,11.61,15.08,57.11-20.41,112.36-81.09,115.26-7.29.7-17.45-.09-24.8-.7-16.92-.48-30.41,9.92-35.15,27.53-1.93,6-2.78,13.28-3.58,19.64-3.81,25.55-.14,51.57-17.08,74.65a52.23,52.23,0,0,1-9.27,8.92,63.22,63.22,0,0,1-17.68,8.18A104.09,104.09,0,0,1,1219,2068c-6.58.28-13.78.51-20.31-.78-53-8.82-53.55-73.26-55.31-114.79-1.33-15.44-.68-32.6-9.28-45.34-20.85-31.93-40-66.83-16.77-102.3Z" transform="translate(-434.43 -794.27)"/><path class="e" d="M2843.92,2114.77c20.32,50.65,20.15,124.31-33,155.36-34.18,15.91-74,6.7-104.9-11.94-5.67-2.83-14.74-6.19-20.35-4.7-6.82,3.14-8.91,14.39-10.21,22.07-.57,8.69-5.56,21.08-9.72,28.78-34.58,64.61-95.94,68.28-138.54,9a205.71,205.71,0,0,1-18.28-29.4c15.74,15.59,32,31.92,51.47,42.07,29.14,16.71,55.53,6.06,72-21.47,5.18-8.27,9.68-18,11.81-26.48,2.05-20.7,7.53-46.05,30.79-54.45,22.31-7.41,41.69,4.11,60.09,14.32,17.2,8.94,36.94,13.18,55.93,9.74a56.71,56.71,0,0,0,8.69-2.26c44.25-24.1,47.22-84.28,44.21-130.63Z" transform="translate(-434.43 -794.27)"/><g class="d"><path class="e" d="M2259.07,2422.3l-35.48-15.68h0a28,28,0,0,0-37.06,14.55l-65.24,151.46a28.12,28.12,0,0,0,12.77,35.93l39.35,20.53a28,28,0,0,0,39.06-14.6l61.37-156.32A28,28,0,0,0,2259.07,2422.3Z" transform="translate(-434.43 -794.27)"/><path class="e" d="M2119.4,2724.16l-163.94-18a28.18,28.18,0,0,0-30.6,22.76l-8.09,43.65a28,28,0,0,0,25.42,33l167.44,12.82q1.1.09,2.19.09a28,28,0,0,0,27.78-24.72l4.58-38.52a28,28,0,0,0-24.78-31.17Z" transform="translate(-434.43 -794.27)"/><path class="e" d="M1628.76,2266a28,28,0,0,0-37.53-9.81L1557.36,2275a28,28,0,0,0-10.71,38.36l81.66,143.28a28.13,28.13,0,0,0,24.44,14.13,27.68,27.68,0,0,0,11.94-2.7l40.09-19.06a28,28,0,0,0,11.85-40Z" transform="translate(-434.43 -794.27)"/><path class="e" d="M1333.45,2340.46a28,28,0,0,0-37.53-9.81l-33.87,18.89a28,28,0,0,0-10.71,38.35L1333,2531.17a28.13,28.13,0,0,0,24.44,14.13,27.68,27.68,0,0,0,11.94-2.7l40.1-19.06a28,28,0,0,0,11.84-40Z" transform="translate(-434.43 -794.27)"/><path class="e" d="M1365.06,2084.35h0a28,28,0,0,0,27.53,23.09,28.53,28.53,0,0,0,5.26-.49l162.05-30.59a28.12,28.12,0,0,0,22.65-30.68l-5-44.11a28,28,0,0,0-33.94-24.21l-163.92,36.51a28,28,0,0,0-21.49,32.29Z" transform="translate(-434.43 -794.27)"/><path class="e" d="M1276.48,1688a28,28,0,0,0,5.48-22.15l-29.57-165.31a28,28,0,0,0-31.36-22.83l-38.44,5.22h0a28,28,0,0,0-24,31.8L1182.36,1678a28.15,28.15,0,0,0,27.74,24c.65,0,1.3,0,2-.08l44.28-3.11A28,28,0,0,0,1276.48,1688Z" transform="translate(-434.43 -794.27)"/><path class="e" d="M1492.53,1206.88l135.65,93.79a28.13,28.13,0,0,0,37.74-5.46l27.88-34.54a28,28,0,0,0-6.63-41.17L1546,1128.57a27.93,27.93,0,0,0-38.08,7.41l-22.36,31.7a28,28,0,0,0,7,39.2Z" transform="translate(-434.43 -794.27)"/><path class="e" d="M2046.63,1483a27.82,27.82,0,0,0,19.8,8.19h.16a27.83,27.83,0,0,0,19.86-8.41L2201.87,1365a28.14,28.14,0,0,0,1-38.12l-29.32-33.33a28.08,28.08,0,0,0-20.74-9.52,27.67,27.67,0,0,0-21,9.08l-113.56,123.72a28,28,0,0,0,.85,38.77Z" transform="translate(-434.43 -794.27)"/><path class="e" d="M2713.21,2089.85a27.86,27.86,0,0,0,16.34-5.25l36-26a28,28,0,0,0,4.47-41.46l-112.17-125a28,28,0,0,0-38.68-2.9L2589.24,1914a28,28,0,0,0-3.63,39.65L2691.7,2079.9A28,28,0,0,0,2713.21,2089.85Z" transform="translate(-434.43 -794.27)"/><path class="e" d="M2841.9,2434.47a28,28,0,0,0-38.59-15.77l-151.15,73.17a28,28,0,0,0-13.51,36.37l15.42,35.59a27.78,27.78,0,0,0,15.53,15,27.8,27.8,0,0,0,21.57-.49l150.69-67a28.14,28.14,0,0,0,15-35.07Z" transform="translate(-434.43 -794.27)"/><path class="e" d="M2988.34,1603.52,2959,1570.19a28.07,28.07,0,0,0-20.75-9.51,27.65,27.65,0,0,0-20.94,9.07l-113.56,123.71a28,28,0,0,0,.85,38.79l27.45,27.4a27.83,27.83,0,0,0,19.8,8.2h.16a27.81,27.81,0,0,0,19.86-8.42l115.42-117.78A28.15,28.15,0,0,0,2988.34,1603.52Z" transform="translate(-434.43 -794.27)"/></g><path class="j" d="M2194.83,2385.29l35.48,15.68a12.05,12.05,0,0,1,6.35,15.44l-61.36,156.32a12.07,12.07,0,0,1-16.81,6.28l-39.36-20.53a12.06,12.06,0,0,1-5.5-15.47l65.24-151.46A12.07,12.07,0,0,1,2194.83,2385.29Z" transform="translate(-434.43 -794.27)"/><path class="e" d="M2164.07,2596.34a28,28,0,0,1-13-3.18l-39.35-20.53a28.14,28.14,0,0,1-12.78-35.94l65.24-151.45a28,28,0,0,1,37.07-14.55l35.48,15.68a28,28,0,0,1,14.76,35.88l-61.37,156.31a28,28,0,0,1-26.08,17.78ZM2129.73,2546l32.29,16.85,58.42-148.79L2192,2401.48Zm94.13-130.43h0Z" transform="translate(-434.43 -794.27)"/><path class="k" d="M2106,2717.51l-4.58,38.52a12.05,12.05,0,0,1-12.9,10.6l-167.44-12.82a12.07,12.07,0,0,1-10.94-14.23l8.09-43.65a12.06,12.06,0,0,1,13.17-9.79l163.94,18A12.06,12.06,0,0,1,2106,2717.51Z" transform="translate(-434.43 -794.27)"/><path class="e" d="M2089.51,2782.63c-.72,0-1.45,0-2.19-.08l-167.44-12.82a28,28,0,0,1-25.41-33.05l8.08-43.65a28.15,28.15,0,0,1,30.62-22.76l163.93,18a28,28,0,0,1,24.78,31.16h0l-4.58,38.52A28,28,0,0,1,2089.51,2782.63Zm-162.86-44.4,159.38,12.2,3.68-30.9-156.42-17.13ZM2106,2717.51h0Z" transform="translate(-434.43 -794.27)"/><path class="j" d="M1542.82,2253.06l33.88-18.9a12.07,12.07,0,0,1,16.15,4.23l87.87,143.11a12.06,12.06,0,0,1-5.1,17.2l-40.09,19.07a12.07,12.07,0,0,1-15.66-4.93l-81.66-143.27A12.06,12.06,0,0,1,1542.82,2253.06Z" transform="translate(-434.43 -794.27)"/><path class="e" d="M1630.45,2434.87a28.11,28.11,0,0,1-24.45-14.12l-81.66-143.28a28,28,0,0,1,10.71-38.36l33.88-18.88a28,28,0,0,1,37.53,9.81l87.86,143.11a28,28,0,0,1-11.84,40l-40.1,19.06A27.63,27.63,0,0,1,1630.45,2434.87ZM1554,2265.08l77.91,136.72,32.91-15.65-83.64-136.22Zm-3.44,1.92Zm-7.77-13.94h0Z" transform="translate(-434.43 -794.27)"/><path class="l" d="M1247.51,2327.55l33.88-18.89a12.07,12.07,0,0,1,16.16,4.22L1385.41,2456a12.07,12.07,0,0,1-5.1,17.21l-40.09,19.06a12.07,12.07,0,0,1-15.66-4.92l-81.65-143.28A12.07,12.07,0,0,1,1247.51,2327.55Z" transform="translate(-434.43 -794.27)"/><path class="e" d="M1335.14,2509.36a28.16,28.16,0,0,1-24.45-14.12L1229,2352a28,28,0,0,1,10.7-38.35l33.88-18.89a28,28,0,0,1,37.53,9.81L1399,2447.64a28,28,0,0,1-11.85,40l-40.09,19.07A27.8,27.8,0,0,1,1335.14,2509.36Zm-76.42-169.79,77.92,136.72,32.9-15.65-83.64-136.22Zm-3.44,1.92Zm-7.77-13.94h0Z" transform="translate(-434.43 -794.27)"/><path class="g" d="M1358.47,2045.61l-6.84-38.18a12.06,12.06,0,0,1,9.25-13.9L1524.8,1957a12.06,12.06,0,0,1,14.61,10.42l5,44.11a12.08,12.08,0,0,1-9.75,13.21l-162.06,30.58A12.07,12.07,0,0,1,1358.47,2045.61Z" transform="translate(-434.43 -794.27)"/><path class="e" d="M1370.28,2071.52a28,28,0,0,1-27.52-23.09l-6.84-38.19a28,28,0,0,1,21.49-32.29l163.92-36.52a28,28,0,0,1,33.94,24.22l5,44.11a28.14,28.14,0,0,1-22.65,30.68L1375.54,2071A27.56,27.56,0,0,1,1370.28,2071.52Zm3.9-28.74v0h0Zm-6.17-34.49,5.48,30.63,154.63-29.18-4.09-36.2Z" transform="translate(-434.43 -794.27)"/><path class="m" d="M1162.44,1462.86l38.43-5.23a12.07,12.07,0,0,1,13.5,9.83l29.57,165.31a12,12,0,0,1-11,14.15l-44.29,3.12a12.06,12.06,0,0,1-12.78-10.3l-23.73-163.2A12.06,12.06,0,0,1,1162.44,1462.86Z" transform="translate(-434.43 -794.27)"/><path class="e" d="M1187.79,1666a28.16,28.16,0,0,1-27.74-24l-23.72-163.2a28,28,0,0,1,24-31.8h0l38.43-5.23a28,28,0,0,1,31.36,22.84L1259.66,1630a28,28,0,0,1-25.62,32.89l-44.29,3.11C1189.1,1666,1188.44,1666,1187.79,1666Zm-19.31-187.89,22.64,155.72,36.35-2.55L1199.32,1474Zm-3.89.53Z" transform="translate(-434.43 -794.27)"/><path class="l" d="M1476.3,1140.94l22.36-31.7a12.07,12.07,0,0,1,16.39-3.19L1656.22,1197a12.07,12.07,0,0,1,2.86,17.72l-27.88,34.55a12.07,12.07,0,0,1-16.25,2.34l-135.65-93.78A12.07,12.07,0,0,1,1476.3,1140.94Z" transform="translate(-434.43 -794.27)"/><path class="e" d="M1621.75,1269.67a27.84,27.84,0,0,1-15.88-4.94L1470.22,1171a28,28,0,0,1-7-39.21l22.35-31.7a28,28,0,0,1,38.08-7.4l141.18,90.94a28,28,0,0,1,6.63,41.16l-27.88,34.54A28.07,28.07,0,0,1,1621.75,1269.67Zm-130.14-122.74,129.44,89.48,22.88-28.35-134.38-86.56Zm-15.31-6h0Z" transform="translate(-434.43 -794.27)"/><path class="k" d="M2035.6,1435.74l-27.45-27.4a12.08,12.08,0,0,1-.36-16.7l113.56-123.71a12,12,0,0,1,17.94.19l29.32,33.33a12.06,12.06,0,0,1-.44,16.41l-115.43,117.79A12.06,12.06,0,0,1,2035.6,1435.74Z" transform="translate(-434.43 -794.27)"/><path class="e" d="M2044.12,1455.23a27.82,27.82,0,0,1-19.8-8.19l-27.45-27.41a28,28,0,0,1-.84-38.78l113.56-123.72a28,28,0,0,1,41.69.45l29.31,33.33a28.14,28.14,0,0,1-1,38.13l-115.42,117.78a27.81,27.81,0,0,1-19.86,8.41Zm2.76-30.78h0Zm-24.8-24.77,22,22,110.13-112.4-24.06-27.35Z" transform="translate(-434.43 -794.27)"/><path class="m" d="M2577.09,1890.37l29.93-24.68a12.07,12.07,0,0,1,16.65,1.25l112.17,125a12.08,12.08,0,0,1-1.92,17.85l-36,26a12.06,12.06,0,0,1-16.29-2l-106.1-126.25A12.07,12.07,0,0,1,2577.09,1890.37Z" transform="translate(-434.43 -794.27)"/><path class="e" d="M2690.9,2053.92a28,28,0,0,1-21.5-10l-106.1-126.25a28,28,0,0,1,3.63-39.66l29.93-24.68a28,28,0,0,1,38.69,2.91l112.17,125a28,28,0,0,1-4.47,41.46l-36,26A27.86,27.86,0,0,1,2690.9,2053.92Zm-100.62-153.74,101.23,120.47,29.55-21.3-106.77-119Zm-3,2.5h0Zm-10.16-12.31h0Z" transform="translate(-434.43 -794.27)"/><path class="g" d="M2646.42,2521.55,2631,2486a12.08,12.08,0,0,1,5.82-15.66L2788,2397.13a12.07,12.07,0,0,1,16.61,6.79l15,41.79a12.07,12.07,0,0,1-6.45,15.1l-150.71,67A12.06,12.06,0,0,1,2646.42,2521.55Z" transform="translate(-434.43 -794.27)"/><path class="e" d="M2657.5,2544.8a28.14,28.14,0,0,1-25.73-16.9h0l-15.42-35.6a28,28,0,0,1,13.5-36.36L2781,2382.77a28,28,0,0,1,38.6,15.77l15,41.79a28.14,28.14,0,0,1-15,35.06l-150.7,67A28,28,0,0,1,2657.5,2544.8Zm3.56-29.6ZM2647.13,2483l12.37,28.55,143.8-63.9-12.29-34.3Z" transform="translate(-434.43 -794.27)"/><path class="g" d="M2821,1712.43,2793.59,1685a12.07,12.07,0,0,1-.36-16.69l113.55-123.72a12.07,12.07,0,0,1,17.95.19l29.32,33.34a12.05,12.05,0,0,1-.44,16.4l-115.43,117.79A12.06,12.06,0,0,1,2821,1712.43Z" transform="translate(-434.43 -794.27)"/><path class="e" d="M2829.56,1731.91a27.78,27.78,0,0,1-19.8-8.19l-27.45-27.4a28,28,0,0,1-.84-38.79L2895,1533.82a28,28,0,0,1,41.68.44l29.32,33.33a28.14,28.14,0,0,1-1,38.13L2849.58,1723.5a27.77,27.77,0,0,1-19.86,8.41Zm2.76-30.78h0Zm-24.8-24.76,22,22L2939.67,1586l-24.06-27.36Z" transform="translate(-434.43 -794.27)"/><path class="e" d="M2204.57,2166.07c-225,0-316-126.08-320-131.71-72.5-101.51-99.68-198.24-80.67-287.38,26-122.15,129.08-183.82,133.45-186.38a16,16,0,0,1,16.17,27.53c-1.25.74-95.61,57.75-118.48,165.87-16.9,79.92,8.54,168,75.59,261.93,1,1.37,94.91,129.81,326,117.34a16,16,0,0,1,1.72,31.88Q2221,2166.08,2204.57,2166.07Z" transform="translate(-434.43 -794.27)"/><ellipse class="e" cx="1059.3" cy="617.06" rx="110.01" ry="134.14"/><ellipse class="n" cx="1531.88" cy="1385.05" rx="40.43" ry="53.95" transform="translate(-557.42 -644.7) rotate(-5.37)"/><g class="o"><ellipse class="n" cx="1446.31" cy="1454.87" rx="30.7" ry="49.35" transform="translate(-748.68 -392.44) rotate(-14.28)"/></g><path class="e" d="M2673.84,1426.81c0,32.82-8.11,63.08-21.75,87.57-59.52-32.5-122.19-21-167.88,17.53-20.52-26.74-33.2-64-33.2-105.1,0-81.48,49.87-147.6,111.45-147.6S2673.84,1345.33,2673.84,1426.81Z" transform="translate(-434.43 -794.27)"/><ellipse class="n" cx="2524.1" cy="1391.72" rx="36.38" ry="52.12" transform="translate(-524.99 -615.6) rotate(-3.98)"/><g class="o"><ellipse class="n" cx="2619.39" cy="1435.93" rx="43.3" ry="27.15" transform="translate(432.88 3061.02) rotate(-82.82)"/></g><path class="e" d="M2701.77,1549.39c-72.57-32-145.22-39.12-216.81-2a332.51,332.51,0,0,0-30,17.55c7.94-23.26,25.58-42.6,46.55-56.55,62.94-42.5,160.84-25.31,200.22,41Z" transform="translate(-434.43 -794.27)"/><path class="e" d="M2508.87,1579.32c26,6,50.49,10.9,76.41,8.12,14.09-1.24,27.34-5,40.77-9.65,5.69-1.83,11-4.52,17.42-6.3a86.23,86.23,0,0,1-5.48,7.84c-30.3,40.19-98.52,39.34-129.12,0Z" transform="translate(-434.43 -794.27)"/><path class="e" d="M2852.39,1161.29c-.51,0-1,0-1.53-.07a16,16,0,0,1-14.38-17.41c3-31.24-2.68-53.77-16.85-67-21.12-19.67-56-14.1-56.37-14a16,16,0,0,1-18.17-11.78c-18-70.46-62.7-91.36-64.59-92.22-96.18-39.56-139.82,11.83-141.62,14a16,16,0,0,1-28.33-8.59c-11.06-123.15-109.37-129.81-113.55-130-.39,0-.77-.06-1.16-.11-89.69-11.41-163.36,48.26-164.09,48.86a16,16,0,0,1-21.83-1.45h0s-18.25-17.31-78.1-32.71c-27.1-7-50.26,5.06-74.79,17.81-27.42,14.24-58.49,30.38-92.1,11.19-54.09-30.91-93.33-39.94-116.61-26.85-24.41,13.72-76.82,31.48-153.5-3.77-45.23-20.79-65.22-.36-66,.53a15.83,15.83,0,0,1-22.41,1.53,16.11,16.11,0,0,1-1.54-22.64c1.41-1.63,35.35-39.68,103.34-8.43,46.6,21.43,92,23.23,124.51,5,34.24-19.25,82.68-10.42,148.1,27,17.63,10.08,34,2.48,61.54-11.8,26.08-13.55,58.54-30.41,97.47-20.4,44.33,11.41,69.19,24.28,82,32.75,25.42-17.7,94.64-58.71,177.81-48.23,10.66,1,113.44,13.24,138.44,130.05,27.34-17.28,78.3-34.56,155-3,2.6,1.12,55,24.63,79.28,100.7,17.26-.4,46.65,2.61,68.86,23.15,22,20.31,31.09,51.79,27.1,93.58A16,16,0,0,1,2852.39,1161.29Z" transform="translate(-434.43 -794.27)"/><path class="e" d="M1753.36,991.63a16,16,0,0,1-12.62-25.73c71-91.8,167.77-64.88,200.76-52,19-20.09,41.87-40.3,68.26-60.21A16,16,0,1,1,2029,879.2c-28.48,21.48-52.53,43.18-71.48,64.5a16,16,0,0,1-19.4,3.51c-4.1-2.15-102.36-52-172.11,38.22A15.94,15.94,0,0,1,1753.36,991.63Z" transform="translate(-434.43 -794.27)"/><path class="e" d="M2182.34,997a16,16,0,0,1-15.9-14.77c-5.11-67.89,41.34-120.09,43.32-122.28a16,16,0,0,1,23.71,21.38h0c-.4.44-39.26,44.52-35.19,98.5a16,16,0,0,1-14.72,17.12C2183.15,997,2182.75,997,2182.34,997Z" transform="translate(-434.43 -794.27)"/><path class="e" d="M2043.35,1026.21c49-59.77,134.9-86.43,197-28.08a161.15,161.15,0,0,1,41.79,72.65c-17.83-17.18-34.18-33.9-52.09-47-60.88-47.34-121.47-22.09-186.69,2.4Z" transform="translate(-434.43 -794.27)"/><path class="e" d="M2447.74,994.29c50.71-59.45,147.48-45.68,176.79,28.25a128.82,128.82,0,0,1,8.11,66.86c-17.76-36.45-35.42-73.45-70.65-92.3-35-18.44-75.34-14.27-114.25-2.81Z" transform="translate(-434.43 -794.27)"/><path class="e" d="M2943.25,1129.54a16,16,0,0,1-10.27-28.18c28.51-23.94,32-39.1,31.58-46a16.65,16.65,0,0,0-6.11-11.61,16,16,0,0,1,17.25-26.86,48.17,48.17,0,0,1,20.72,36.44c1.47,23-13,47.33-42.91,72.47A15.87,15.87,0,0,1,2943.25,1129.54Z" transform="translate(-434.43 -794.27)"/><path class="e" d="M1796.6,3291.57H1625.45a15.94,15.94,0,0,1-7.81-2c-27.19-15.24-40.49-45-34.69-77.67,5.63-31.71,31.7-71.16,86.47-89-16.27-17.11-42.55-44.47-76.63-79-55.3-56.11-34.56-118.44-15.87-143.56a16,16,0,0,1,25.62,19.07c-1.47,2-36.62,51.75,13,102.08,59.77,60.65,95.74,99.27,96.09,99.66a16,16,0,0,1-9.15,26.63c-57.53,9.26-83.4,43.36-88.09,69.73-3.14,17.75,2.66,33.24,15.61,42.21H1796.6c47,0,85.77-18.42,103.86-49.28,14.63-25,13.7-55.15-2.58-85.12C1834.5,3053.69,1794.71,2988.73,1793,2986a16,16,0,0,1,27.26-16.61c.4.66,40.57,66.19,102.63,136a16.16,16.16,0,0,1,2,2.8c22.5,40.15,23.62,83.28,3.08,118.33C1904.13,3267.24,1855,3291.57,1796.6,3291.57Z" transform="translate(-434.43 -794.27)"/><path class="e" d="M1817.77,3000.88l-66.9,11.93c-2.83.6-4.41-3.49-1.94-4.95l57.18-36.71c22.71-12.53,36.85,23.48,11.66,29.73Z" transform="translate(-434.43 -794.27)"/><path class="e" d="M1704.54,3116.66l60.9,32.24c2.6,1.28,1.31,5.48-1.53,5.1l-68.58-6.78c-25.51-4.26-14.43-41.1,9.21-30.56Z" transform="translate(-434.43 -794.27)"/><path class="p" d="M2890.91,3102.69c-26.55-12.29-24.15-54.22-16.49-89.82.9-4.41,1.91-8.67,3-12.82a60.23,60.23,0,0,1,51.82-45,55.93,55.93,0,0,1,26.93,3.72c16.28,6.5,29.9,20.12,32.35,46.77C2995.15,3078.75,2939.7,3125.3,2890.91,3102.69Z" transform="translate(-434.43 -794.27)"/><g class="f"><path class="g" d="M2884.53,3015.53a74.44,74.44,0,0,1-10.11-2.66c.9-4.41,1.91-8.67,3-12.82a60.23,60.23,0,0,1,51.82-45S2944.81,3027.08,2884.53,3015.53Z" transform="translate(-434.43 -794.27)"/></g><g class="d"><path class="e" d="M2890.91,3102.69c-15.06-7-20.85-23.57-21.55-43.15,47.36,17.88,99-27.4,93.28-97.64,13.3,7.34,23.73,20.65,25.86,43.68C2995.15,3078.75,2939.7,3125.3,2890.91,3102.69Z" transform="translate(-434.43 -794.27)"/></g><path class="e" d="M2916.52,3124.43a76.63,76.63,0,0,1-32.31-7.27c-21.75-10.08-43.26-39.27-22.26-121.06h0a76.59,76.59,0,0,1,39.46-49.19A73.72,73.72,0,0,1,2962,2944c17.45,7,39,23,42.34,60.13,4,43.73-12.39,84.15-42.71,105.51C2947.72,3119.45,2932.18,3124.43,2916.52,3124.43ZM2892.88,3004h0c-11.78,45.85-10,77.31,4.76,84.15,15.16,7,31.38,5.38,45.63-4.66,21-14.8,32.25-44.12,29.3-76.52-1.57-17.3-8.68-27.91-22.36-33.36a41.14,41.14,0,0,0-34.34,1.73A44.61,44.61,0,0,0,2892.88,3004Z" transform="translate(-434.43 -794.27)"/><g class="d"><path class="e" d="M2018,2254.65c-13.56-2.92-50.44-6.54-151.06-4-157,4-223.47-59.86-207.51-118.39s-24.79-111.73-24.79-111.73c-101.63-117.44-67-133-54.17-196.29s77.63-55.12,36.29-157.55-19.85-133,45-168.3,73.48,18,145.31-49.86,141,26.66,141,26.66l15.48,155.85c-11.49-11.81-18.3-29.74-18.09-56.67a157.86,157.86,0,0,1,3.62-32c13.25-63.47-31.5-104.82-77.53-75-51,45.66-35.65,116.8-134.08,108.18-73.27-4.31-71.73,43-60.13,70.92,47.84,67.79,29.53,138-27,209.75,0,0-44.64,25.27,16.55,91.15s27.35,90.45,50,157,77.74,53.85,115,48.53,109.07-12.67,139.78,53.21C1983.33,2231.51,2000,2246.51,2018,2254.65Z" transform="translate(-434.43 -794.27)"/></g><g class="d"><path class="e" d="M1411.94,1745.65s114.44,195.07,10.68,246.95c0,0-66.51,17.29-89.12-9.31,0,0,26.6,188.42-114.4,72.26,0,0,16.39,11,6.86-77.17s107.54-41.91,142.12-109.62S1411.94,1745.65,1411.94,1745.65Z" transform="translate(-434.43 -794.27)"/></g><g class="d"><path class="e" d="M2529.33,2309.22s69.94,42.27,100.67-129.06c0,0,50.12,19.69,95.13,70.37,0,0,103.47-45,64.92-179.39,0,0,73.12,3.31,57.19,121.34s-66.36,160.61-108.32,134S2631.73,2468.87,2529.33,2309.22Z" transform="translate(-434.43 -794.27)"/></g><g class="d"><path class="e" d="M2142.11,1499.73c-10.06-1.65-20.17,1-28.79,6.28-14.31,8.83-22.61,24.85-23,41.66-1.33,55.55-3.41,110.41-81.78,102.85-16.71-2.23-31.29-7.18-42.25-16.86l-20.54-49.54c1.86,2.13,56.29,62.84,91.52-43.42C2060.49,1470.57,2110.13,1482.6,2142.11,1499.73Z" transform="translate(-434.43 -794.27)"/></g><path class="e" d="M2171.64,1519.74a.45.45,0,0,1,0,.16l-.38-.54A3.52,3.52,0,0,0,2171.64,1519.74Z" transform="translate(-434.43 -794.27)"/><g class="d"><path class="e" d="M663.44,1901.72A62,62,0,0,0,641.1,1907c-30.49,25.27-53.64,48.58-57,110.41,1.06,26.92-27.3,42.51-50.5,24.79a.17.17,0,0,1-.05-.11s9.79-20.21,21.55-77.41C565.33,1915.29,611.57,1883.74,663.44,1901.72Z" transform="translate(-434.43 -794.27)"/></g><g class="d"><path class="e" d="M957.63,2104.29l-26.76,18.78a59.48,59.48,0,0,1-70.45-1.44c-30.59-23.57-74.17-63.16-105.19-115.94-13.46-2.23-25.12-15.75-29.43-45.49.11-10.75-5-23.79-13.94-34.8,23.84,7.61,46.61,4.15,64.39-2a143.37,143.37,0,0,0,32-15.8c2.55-1.76,3.88-2.82,3.88-2.82L811,1919.65,808,1960.41l-1.23,16.28,90.19,83.75,52.15-38.36Z" transform="translate(-434.43 -794.27)"/></g><g class="d"><path class="e" d="M3426.14,2025.22c22.61,66.51-59,94.07-64.33,36.34-3.67,48.79-45.87,70.45-69.86,50.18-7.83-6.66-11.66-16.87-11.6-27.14.1-19.53-.43-38.63-2.51-56.77,36,79.12,75.3-33.21,75.3-33.21l9,30.6c49.32,17.08,44.16-55,44.16-55l5.86,13.09c66.56-52.31,3.88-100.41,3.88-100.41l9.68-7.44c26.82,28.78,48.26,64.64,63.32,101.41C3506.38,2048.68,3448.27,2066,3426.14,2025.22Z" transform="translate(-434.43 -794.27)"/></g><g class="d"><path class="e" d="M3143.49,2066.93c5.27,4,11.18,11.39,17.72,22.94,66.51,117.11,133,0,133,0l9.69,35.33,51.13-29.75C3369,2274,3215.17,2279.61,3143.49,2066.93Z" transform="translate(-434.43 -794.27)"/></g><g class="d"><path class="e" d="M1796.63,3275.62H1625.45c-18.62-10.48-28-28.95-27.88-49.27,2.34.21,4.79.42,7.29.69,166.28,17.29,246.09-23.94,188.89-141s-212.83-121-212.83-121l-3.14-30.59a94,94,0,0,1,12-24.64l216.93,67.84S1847.17,3044.16,1911,3116C1956.89,3197.88,1897.72,3275.62,1796.63,3275.62Z" transform="translate(-434.43 -794.27)"/></g><path class="q" d="M858.56,1225a219,219,0,0,0,31.06-137c-12.41-120.81-120.41-208.7-241.22-196.3S439.69,1012.15,452.09,1133s120.41,208.7,241.23,196.3A219.05,219.05,0,0,0,785,1298.49l101.77,22.82Z" transform="translate(-434.43 -794.27)"/><g class="r"><path class="g" d="M652.72,933.82c112.86-11.59,214.51,64.35,237.52,172.89a221.09,221.09,0,0,0-1.11-23.47c-12.41-120.81-120.41-208.7-241.23-196.3s-208.7,120.41-196.3,241.23a221.32,221.32,0,0,0,3.67,23.3C455.7,1040.48,539.82,945.41,652.72,933.82Z" transform="translate(-434.43 -794.27)"/></g><path class="g" d="M577.39,1095.48a91.26,91.26,0,0,0,44.66,78.43V1202a6.6,6.6,0,0,0,6.63,6.62h5.53a6.6,6.6,0,0,0,6.63-6.62v-19.48c1.95.59,4,1.14,6,1.64V1202a6.64,6.64,0,0,0,6.63,6.62H659a6.6,6.6,0,0,0,6.62-6.62v-15.25c1.09,0,2.18.18,3.27.18s2.13-.14,3.22-.18V1202a6.6,6.6,0,0,0,6.63,6.62h5.54a6.6,6.6,0,0,0,6.62-6.62v-17.84c2-.5,4-1.05,6-1.64V1202a6.6,6.6,0,0,0,6.63,6.62h5.53a6.6,6.6,0,0,0,6.63-6.62v-28.1a91.44,91.44,0,1,0-138.34-78.43Zm101.48,10.85a28,28,0,1,1,28,28.05A28,28,0,0,1,678.87,1106.33Zm-76.06,0a28,28,0,1,1,28.05,28.05A28,28,0,0,1,602.81,1106.33Z" transform="translate(-434.43 -794.27)"/><g class="d"><path class="e" d="M828.89,1228.59c-54,50.31-128.87,71.78-203.63,50.49-82.91-23.61-144.51-93.79-167.25-178.4a243.8,243.8,0,0,0,1.11,34c12.41,120.82,111,209.68,220.18,198.47A182.35,182.35,0,0,0,762,1303.35l92.3,23.79-26.49-96.45C828.17,1230,828.51,1229.28,828.89,1228.59Z" transform="translate(-434.43 -794.27)"/></g><path class="e" d="M670.68,1346.39c-119.33,0-222-90.56-234.47-211.79A235.86,235.86,0,0,1,646.76,875.87C776.19,862.59,892.21,957,905.5,1086.41a233.67,233.67,0,0,1-29.67,140.79l26.29,89.62a16,16,0,0,1-18.82,20.07l-95.6-21.44a233.82,233.82,0,0,1-92.75,29.7A239.55,239.55,0,0,1,670.68,1346.39ZM671,906.55a206.31,206.31,0,0,0-21,1.07A204,204,0,0,0,468,1131.34c11.49,111.87,111.86,193.57,223.72,182.05a202.13,202.13,0,0,0,85-28.54,16,16,0,0,1,11.79-1.93l75.34,16.89-20.62-70.28a16,16,0,0,1,1.7-12.82,202,202,0,0,0,28.8-127C863,984.86,774.18,906.55,671,906.55Z" transform="translate(-434.43 -794.27)"/></svg>