<svg xmlns="http://www.w3.org/2000/svg" viewBox="0 0 230.81 230.81"><defs><style>.a{fill:#5e6c7a;}.b{fill:#0f227a;}.c{opacity:0.55;}.d{fill:#fff;}.e{opacity:0.3;}.f{fill:#d0d4d8;}.g{fill:#102770;}.h{fill:#e5c62c;}.i{fill:#e52c5c;}.j{fill:#5e7def;}.k{fill:#55bc5c;}</style></defs><title>lg</title><path class="a" d="M358.47,200.4a13.77,13.77,0,0,1-11.56,10.48c-10.46,1.44-24.72,1-39.66.18-7.8-.73-14.73,1.23-20.1,8l-52.07,52.07c-6.75,5.36-8.72,12.3-8,20.1l.06,1.2c.76,14.5,1.15,28.28-.24,38.45a13.82,13.82,0,0,1-10.49,11.57c-13.73,3.26-26.08-4.09-37.23-17.15l-.32-.37c-2.27-2.67-4.47-5.58-6.63-8.68a.1.1,0,0,1,0-.05l-.5-.73c-9.91-14.39-18.81-32.79-26.87-51.26-2.39-5.46-4.7-10.93-6.94-16.31-.65-1.55-1.31-3.1-1.94-4.63l1.92-7.1-.16-.31-2.6-4.55a7.73,7.73,0,0,1-.57-6.47A117.7,117.7,0,0,1,148,198.15l.43-.63a7.81,7.81,0,0,1,4.59-3.14l8.18-2a14.56,14.56,0,0,0,6.89-3.86L204.58,152a14.53,14.53,0,0,0,3.85-6.89l2-8.17a7.84,7.84,0,0,1,3.14-4.59,117.72,117.72,0,0,1,27.31-13.85,7.79,7.79,0,0,1,6.48.56l4.85,2.77,7.1-1.92,4.94,2.06c23.75,9.91,49.36,21.2,68,34.2S362.41,183.73,358.47,200.4Z" transform="translate(-131.27 -115.24)"/><path class="b" d="M223.18,339a14,14,0,0,1-6.69,3.71c-12.74,3-25-2.61-37.47-17.22l-.31-.36c-2.2-2.59-4.37-5.43-6.66-8.72,0,0,0,0-.05-.06l-.24-.35-.25-.36c-11-16-20.63-37-26.89-51.3-2.08-4.76-4.28-10-6.94-16.31l-.9-2.15-1-2.49,0-.08,1.92-7.08-.12-.23-2.6-4.54a7.92,7.92,0,0,1-.58-6.67A117.93,117.93,0,0,1,147.78,198l.06-.09c.12-.19.24-.36.37-.54a8,8,0,0,1,4.72-3.23l8.19-2a14.24,14.24,0,0,0,6.77-3.79l36.52-36.52a14.31,14.31,0,0,0,3.79-6.77l2-8.18a8,8,0,0,1,3.24-4.73,118,118,0,0,1,27.36-13.87,8.07,8.07,0,0,1,6.68.57l4.76,2.73,7.08-1.92.08,0c1.63.68,3.29,1.36,4.94,2.06C288.86,132,314.09,143.25,332.37,156c21.28,14.84,29.9,29.38,26.33,44.46h0a14.1,14.1,0,0,1-11.76,10.67c-10.61,1.46-25.35.95-39.7.18-8.54-.8-15.05,1.78-19.9,7.9l-52.09,52.09c-6.14,4.87-8.72,11.38-7.91,19.91l.06,1.15v.06c.72,13.8,1.19,28-.24,38.5A14.15,14.15,0,0,1,223.18,339Zm-50.75-22.88v0c2.28,3.27,4.45,6.11,6.63,8.66a4.3,4.3,0,0,0,.31.37c12.35,14.47,24.45,20.05,37,17.08a13.51,13.51,0,0,0,10.31-11.37c1.42-10.44.95-24.63.23-38.4v-.07c0-.38,0-.76-.06-1.14-.82-8.69,1.82-15.33,8.07-20.3L287,218.88c4.95-6.23,11.59-8.87,20.3-8,14.31.76,29,1.27,39.6-.18a13.65,13.65,0,0,0,11.36-10.3h0c3.51-14.87-5-29.25-26.14-44-18.25-12.73-43.45-23.95-68-34.18-1.63-.69-3.26-1.36-4.87-2l-7.11,1.93-4.94-2.82a7.54,7.54,0,0,0-6.27-.55,118.08,118.08,0,0,0-27.26,13.82,7.64,7.64,0,0,0-3.05,4.45l-2,8.18a14.77,14.77,0,0,1-3.91,7l-36.52,36.52a14.8,14.8,0,0,1-7,3.92l-8.19,2a7.56,7.56,0,0,0-4.44,3c-.13.18-.24.35-.36.53l-.07.1a118.43,118.43,0,0,0-13.4,26.63,7.56,7.56,0,0,0,.55,6.28l2.82,4.94-1.93,7.11,1,2.42.9,2.14c2.66,6.37,4.86,11.55,6.94,16.31,6.25,14.33,15.84,35.24,26.85,51.22l.25.36.25.36Z" transform="translate(-131.27 -115.24)"/><g class="c"><path class="d" d="M332.15,156.11c-18.64-13-44.26-24.29-68-34.2q-2.47-1.05-4.94-2.06l-7.09,1.92L247.26,119a7.79,7.79,0,0,0-6.48-.56,117.49,117.49,0,0,0-27.31,13.84,7.89,7.89,0,0,0-3.15,4.59l-2,8.18c0,.13-.08.27-.11.4a1.85,1.85,0,0,0-1.1,2.84,14.39,14.39,0,0,1-2.65,3.65L168,188.46a14.88,14.88,0,0,1-1.53,1.33,1.88,1.88,0,0,0-3.24,1.77l0,.06a14.31,14.31,0,0,1-2.13.69l-8.19,2a7.91,7.91,0,0,0-4.58,3.14l-.43.63a117.57,117.57,0,0,0-13.42,26.69,7.73,7.73,0,0,0,.56,6.47l2.6,4.55.17.31-1.92,7.09c.63,1.53,1.29,3.09,1.93,4.64,2.25,5.38,4.56,10.84,6.94,16.31,8.06,18.46,17,36.86,26.87,51.26l.51.72a.09.09,0,0,0,0,0c2.17,3.11,4.37,6,6.64,8.68.11.13.21.26.32.38a78.36,78.36,0,0,0,6.23,6.55c-.93-1-1.84-2-2.75-3.07-.11-.11-.21-.24-.32-.37-2.27-2.67-4.47-5.58-6.63-8.68l0-.05-.5-.73c-9.91-14.39-18.81-32.79-26.87-51.26-2.38-5.46-4.7-10.93-6.94-16.31-.65-1.55-1.31-3.1-1.94-4.63l1.93-7.1-.17-.31-2.6-4.54a7.73,7.73,0,0,1-.57-6.47,117.19,117.19,0,0,1,13.43-26.69c.14-.22.28-.43.43-.63a7.76,7.76,0,0,1,4.58-3.14l8.18-2,2.79,8.63a1.88,1.88,0,0,0,2.37,1.21,2.05,2.05,0,0,0,.75-.46,1.89,1.89,0,0,0,.46-1.91l-2.85-8.82a14.71,14.71,0,0,0,3.37-2.51L208,155.42a14.32,14.32,0,0,0,3.37-5.32l9.64,3.12a1.88,1.88,0,0,0,1.91-.47,1.7,1.7,0,0,0,.46-.75,1.88,1.88,0,0,0-1.21-2.37l-9.82-3.17,1.48-6.1a7.84,7.84,0,0,1,3.14-4.59,117.59,117.59,0,0,1,27.32-13.85,7.81,7.81,0,0,1,6.47.56l4.85,2.77,7.1-1.92c1.63.68,3.29,1.36,4.94,2.06,23.75,9.91,49.36,21.2,68,34.2a109,109,0,0,1,12.12,9.69A97.56,97.56,0,0,0,332.15,156.11Z" transform="translate(-131.27 -115.24)"/></g><g class="e"><path class="b" d="M202.56,154l.63.4,17.34,4.26,1.08-3.08c-3.77-11.47,4.62-17.79,4.62-17.79l-11.44-5.54-.68-.28-.63.43a7.86,7.86,0,0,0-3.14,4.58l-2,8.19a14.59,14.59,0,0,1-3.85,6.89Z" transform="translate(-131.27 -115.24)"/></g><g class="e"><path class="b" d="M170,186.6l.4.63,4.27,17.33-3.09,1.09c-11.47-3.77-17.79,4.61-17.79,4.61l-5.54-11.43-.28-.68.43-.63a7.81,7.81,0,0,1,4.59-3.14l8.18-2a14.56,14.56,0,0,0,6.89-3.86Z" transform="translate(-131.27 -115.24)"/></g><path class="d" d="M332.23,156.19c-18.64-13-44.25-24.29-68-34.2l-4.94-2.06-7.1,1.92h0l-22.75,13.54a18.57,18.57,0,0,0-9.05,16.55l.48,15.25a14.26,14.26,0,0,1-4.17,10.55L205.24,189.2l-11.47,11.47a14.26,14.26,0,0,1-10.55,4.17L168,204.35a18.58,18.58,0,0,0-16.54,9.06l-13.55,22.75-1.92,7.1c.63,1.53,1.29,3.08,1.94,4.63,2.24,5.38,4.55,10.85,6.94,16.31,8.06,18.47,17,36.87,26.87,51.26l.5.73,0,.05c2.16,3.1,4.36,6,6.63,8.68l.32.37c11.15,13.06,23.5,20.41,37.23,17.15a13.82,13.82,0,0,0,10.49-11.57c1.39-10.17,1-23.95.24-38.45l-.06-1.2c-.74-7.8,1.23-14.74,8-20.1l52.07-52.07c5.37-6.76,12.3-8.72,20.1-8,14.94.8,29.2,1.26,39.66-.18a13.77,13.77,0,0,0,11.56-10.48C362.41,183.73,350.77,169.11,332.23,156.19Z" transform="translate(-131.27 -115.24)"/><g class="e"><path class="b" d="M358.47,200.4a13.78,13.78,0,0,1-11.56,10.48c-10.46,1.45-24.72,1-39.66.18-7.8-.73-14.74,1.23-20.09,8l-52.08,52.07c-6.76,5.36-8.72,12.29-8,20.09,0,.41,0,.82.07,1.22.75,14.49,1.15,28.27-.24,38.44a13.79,13.79,0,0,1-10.49,11.56c-13.73,3.26-26.08-4.08-37.23-17.14a3.79,3.79,0,0,1-.31-.37c-.34-.4-.68-.8-1-1.22,8.35,6.49,17.31,9.45,27,7.15a13.79,13.79,0,0,0,10.49-11.56c1.39-10.17,1-24,.24-38.44,0-.41,0-.82-.07-1.22-.73-7.8,1.23-14.73,8-20.09l52.08-52.08a21.94,21.94,0,0,1,5.35-4.92s0,0,0,0A17.72,17.72,0,0,0,271.58,186l-.85-.43a2.77,2.77,0,0,1,.79-5.28,4.4,4.4,0,0,1,.51-.05,17.56,17.56,0,0,1,18.87,14.95,5.17,5.17,0,0,0,4.72,4.3h.05c14.93.81,29.19,1.27,39.66-.17a13.77,13.77,0,0,0,11.55-10.48c2.29-9.66-.66-18.64-7.16-27C353.77,173.33,361.85,186.11,358.47,200.4Z" transform="translate(-131.27 -115.24)"/></g><path class="b" d="M356.82,209a16.64,16.64,0,0,1-9.53,4.71c-10.81,1.49-25.7,1-40.18.2H307c-7.69-.73-13.3,1.47-17.63,6.93l-.21.23-52.07,52.07-.24.22c-5.46,4.33-7.66,9.93-6.93,17.63a.37.37,0,0,0,0,.11c.77,14.48,1.28,29.37-.21,40.19a16.54,16.54,0,0,1-12.63,13.93c-16.73,3.95-32.66-5.72-48.67-29.56-13.17-19.61-24.54-46-35.06-71.29a2.78,2.78,0,0,1-.11-1.82l1.61-6-2.18-3.84a10.58,10.58,0,0,1-.78-8.82,121,121,0,0,1,14.19-28,10.62,10.62,0,0,1,6.24-4.29l8.19-2a11.85,11.85,0,0,0,5.55-3.11L202.58,150a11.77,11.77,0,0,0,3.11-5.55l2-8.19a10.62,10.62,0,0,1,4.29-6.24,121,121,0,0,1,28-14.19,10.6,10.6,0,0,1,8.83.77l3.84,2.19,6-1.62a2.84,2.84,0,0,1,1.82.12c25.32,10.52,51.68,21.88,71.29,35.06,23.84,16,33.51,31.93,29.56,48.67A16.46,16.46,0,0,1,356.82,209Zm-49.36-.72c14.19.76,28.73,1.26,39.06-.17a10.89,10.89,0,0,0,9.21-8.33c7.84-33.2-54.66-59.41-96.64-76.84l-6.16,1.66a2.81,2.81,0,0,1-2.14-.27l-4.85-2.76a4.93,4.93,0,0,0-4.12-.37,114.9,114.9,0,0,0-26.66,13.52,5,5,0,0,0-2,2.93l-2,8.18a17.45,17.45,0,0,1-4.61,8.22l-36.52,36.52a17.36,17.36,0,0,1-8.21,4.6l-8.19,2a5,5,0,0,0-2.92,2,115.71,115.71,0,0,0-13.53,26.66,5,5,0,0,0,.37,4.13l2.76,4.85a2.86,2.86,0,0,1,.28,2.14l-1.67,6.16c17.43,42,43.64,104.48,76.84,96.64a10.93,10.93,0,0,0,8.34-9.21c1.42-10.33.92-24.88.16-39.06-.88-9.55,2-16.89,8.92-22.42L285,217.16C290.57,210.28,297.91,207.36,307.46,208.25Z" transform="translate(-131.27 -115.24)"/><path class="b" d="M218.47,179.52l-22.92,22.92a16.84,16.84,0,0,1-12.41,4.91l-15.25-.49a16.07,16.07,0,0,0-14.31,7.83L140,237.44a2.51,2.51,0,0,1-4.31-2.57l13.54-22.74a21.06,21.06,0,0,1,18.78-10.28l15.25.48a11.79,11.79,0,0,0,8.7-3.44L214.92,176a11.83,11.83,0,0,0,3.45-8.7L217.88,152a21.06,21.06,0,0,1,10.28-18.78l22.75-13.54a2.51,2.51,0,0,1,2.56,4.31l-22.74,13.54a16.08,16.08,0,0,0-7.84,14.31l.49,15.25A16.84,16.84,0,0,1,218.47,179.52Z" transform="translate(-131.27 -115.24)"/><path class="b" d="M169.3,205.69a1.91,1.91,0,0,1-.75.45,1.88,1.88,0,0,1-2.37-1.21L162,192.06a1.88,1.88,0,0,1,3.58-1.15l4.16,12.87A1.9,1.9,0,0,1,169.3,205.69Z" transform="translate(-131.27 -115.24)"/><path class="b" d="M221.72,153.26a1.87,1.87,0,0,1-1.91.46L207,149.56A1.88,1.88,0,1,1,208.1,146L221,150.14a1.88,1.88,0,0,1,1.21,2.37A1.76,1.76,0,0,1,221.72,153.26Z" transform="translate(-131.27 -115.24)"/><circle class="f" cx="86.98" cy="129.19" r="18.19"/><path class="b" d="M231.28,257.46a18.43,18.43,0,1,1,0-26.06A18.46,18.46,0,0,1,231.28,257.46Zm-25.72-25.72a17.95,17.95,0,1,0,25.38,0A18,18,0,0,0,205.56,231.74Z" transform="translate(-131.27 -115.24)"/><g class="e"><path class="g" d="M221.1,226.47a18.18,18.18,0,0,0,4.23,34.71,18.19,18.19,0,1,1-4.23-34.71Z" transform="translate(-131.27 -115.24)"/><path class="b" d="M226.41,261.05l-1,.41a18.49,18.49,0,1,1-4.3-35.29l1,.17-1,.4a17.89,17.89,0,0,0,4.16,34.15ZM205.6,231.78a17.89,17.89,0,0,0,18.65,29.51A18.49,18.49,0,0,1,220,226.63,17.92,17.92,0,0,0,205.6,231.78Z" transform="translate(-131.27 -115.24)"/></g><path class="b" d="M232.38,258.55a20,20,0,1,1,0-28.25A20,20,0,0,1,232.38,258.55Zm-25.73-25.72a16.4,16.4,0,1,0,23.2,0A16.43,16.43,0,0,0,206.65,232.83Z" transform="translate(-131.27 -115.24)"/><circle class="a" cx="129.95" cy="86.23" r="12.96"/><path class="b" d="M270.59,210.84a13.26,13.26,0,1,1,0-18.75A13.27,13.27,0,0,1,270.59,210.84Zm-18.33-18.33a12.66,12.66,0,1,0,17.91,0A12.67,12.67,0,0,0,252.26,192.51Z" transform="translate(-131.27 -115.24)"/><circle class="f" cx="129.95" cy="86.23" r="12.96"/><path class="b" d="M270.55,210.8a13.2,13.2,0,1,1,0-18.67A13.23,13.23,0,0,1,270.55,210.8Zm-18.33-18.33a12.72,12.72,0,1,0,18,0A12.74,12.74,0,0,0,252.22,192.47Z" transform="translate(-131.27 -115.24)"/><path class="b" d="M271.64,211.89a14.74,14.74,0,1,1,0-20.85A14.76,14.76,0,0,1,271.64,211.89Zm-18.33-18.33a11.18,11.18,0,1,0,15.81,0A11.21,11.21,0,0,0,253.31,193.56Z" transform="translate(-131.27 -115.24)"/><circle class="b" cx="129.95" cy="86.23" r="6.17"/><circle class="a" cx="40.98" cy="123.51" r="12.96"/><path class="b" d="M181.63,248.12a13.26,13.26,0,1,1,0-18.75A13.27,13.27,0,0,1,181.63,248.12ZM163.3,229.79a12.66,12.66,0,1,0,17.91,0A12.67,12.67,0,0,0,163.3,229.79Z" transform="translate(-131.27 -115.24)"/><g class="e"><path class="b" d="M196.48,227.25a17.61,17.61,0,0,1-12.81,29.05c-2.12-.45-2.24-2.19-1-3.37a17.66,17.66,0,0,0,2.67-26c-.21-.23-.43-.46-.65-.68a2.77,2.77,0,0,1,2.57-4.69l.5.12A17.57,17.57,0,0,1,196.48,227.25Z" transform="translate(-131.27 -115.24)"/></g><circle class="f" cx="40.98" cy="123.51" r="12.96"/><path class="b" d="M183.21,249.7a15.5,15.5,0,1,1,0-21.91A15.52,15.52,0,0,1,183.21,249.7Zm-18.33-18.33a10.43,10.43,0,1,0,14.74,0A10.44,10.44,0,0,0,164.88,231.37Z" transform="translate(-131.27 -115.24)"/><circle class="b" cx="40.98" cy="123.51" r="6.17"/><circle class="h" cx="115.08" cy="31.44" r="7.17"/><path class="b" d="M224.87,233.27l4.54,4.54a1.43,1.43,0,0,1,0,2l-4.3,4.3,4.3,4.3a1.43,1.43,0,0,1,0,2L224.88,255a1.45,1.45,0,0,1-2,0l-4.31-4.3-4.3,4.3a1.45,1.45,0,0,1-2,0l-4.54-4.54a1.45,1.45,0,0,1,0-2l4.3-4.3-4.3-4.31a1.45,1.45,0,0,1,0-2l4.54-4.53a1.43,1.43,0,0,1,2,0l4.3,4.3,4.3-4.3A1.43,1.43,0,0,1,224.87,233.27Z" transform="translate(-131.27 -115.24)"/><circle class="i" cx="135.93" cy="31.44" r="7.17"/><circle class="j" cx="115.08" cy="52.29" r="7.17"/><g class="e"><path class="b" d="M258,142.13a7.17,7.17,0,0,1-8.18,11.54,7.18,7.18,0,0,0,3-11.95,7.19,7.19,0,0,0-2-1.4A7.16,7.16,0,0,1,258,142.13Z" transform="translate(-131.27 -115.24)"/><path class="b" d="M278.87,163a7.18,7.18,0,0,1-8.18,11.54,7.19,7.19,0,0,0,1.07-13.35A7.16,7.16,0,0,1,278.87,163Z" transform="translate(-131.27 -115.24)"/><path class="b" d="M278.87,142.13a7.17,7.17,0,0,1-8.18,11.54,7.08,7.08,0,0,0,3-1.81,7.17,7.17,0,0,0,0-10.14,7.51,7.51,0,0,0-2-1.4A7.19,7.19,0,0,1,278.87,142.13Z" transform="translate(-131.27 -115.24)"/><path class="b" d="M258,163a7.18,7.18,0,0,1-8.18,11.54,7.08,7.08,0,0,0,3-1.81,7.17,7.17,0,0,0,0-10.14,7.28,7.28,0,0,0-2-1.4A7.16,7.16,0,0,1,258,163Z" transform="translate(-131.27 -115.24)"/></g><circle class="k" cx="135.93" cy="52.29" r="7.17"/><g class="c"><path class="d" d="M246.52,139.51a6.84,6.84,0,0,0-1.54,1.16,7.17,7.17,0,0,0,4.9,12.24,7.17,7.17,0,1,1-3.36-13.4Z" transform="translate(-131.27 -115.24)"/></g><g class="c"><path class="d" d="M267.36,139.51a7,7,0,0,0-1.53,1.16,7.17,7.17,0,0,0,4.9,12.24,7.17,7.17,0,1,1-3.37-13.4Z" transform="translate(-131.27 -115.24)"/></g><g class="c"><path class="d" d="M246.52,160.36a6.56,6.56,0,0,0-1.54,1.16,7.17,7.17,0,0,0,4.9,12.24,7.17,7.17,0,1,1-3.36-13.4Z" transform="translate(-131.27 -115.24)"/></g><g class="c"><path class="d" d="M267.37,160.36a7.17,7.17,0,0,0,3.37,13.4,7.17,7.17,0,1,1-3.37-13.4Z" transform="translate(-131.27 -115.24)"/></g><path class="b" d="M273.76,174.09a9.28,9.28,0,1,1,0-13.13A9.29,9.29,0,0,1,273.76,174.09ZM263.62,164a5.06,5.06,0,1,0,7.16,0A5.06,5.06,0,0,0,263.62,164Z" transform="translate(-131.27 -115.24)"/><path class="b" d="M252.91,153.24a9.28,9.28,0,1,1,0-13.13A9.28,9.28,0,0,1,252.91,153.24ZM242.77,143.1a5.06,5.06,0,1,0,7.16,0A5.08,5.08,0,0,0,242.77,143.1Z" transform="translate(-131.27 -115.24)"/><path class="b" d="M273.76,153.24a9.28,9.28,0,1,1,0-13.13A9.28,9.28,0,0,1,273.76,153.24ZM263.62,143.1a5.06,5.06,0,1,0,7.16,0A5.06,5.06,0,0,0,263.62,143.1Z" transform="translate(-131.27 -115.24)"/><path class="b" d="M252.91,174.09a9.28,9.28,0,1,1,0-13.13A9.29,9.29,0,0,1,252.91,174.09ZM242.77,164a5.06,5.06,0,1,0,7.16,0A5.08,5.08,0,0,0,242.77,164Z" transform="translate(-131.27 -115.24)"/><circle class="b" cx="79.18" cy="94.88" r="4.74"/><circle class="b" cx="94.88" cy="79.18" r="4.74"/><g class="e"><path class="b" d="M217.94,206.63a4.73,4.73,0,0,1-5.26,7.67,4.65,4.65,0,0,0,1.12-.83,4.74,4.74,0,0,0,0-6.7,4.53,4.53,0,0,0-1.43-1A4.72,4.72,0,0,1,217.94,206.63Z" transform="translate(-131.27 -115.24)"/><path class="b" d="M233.64,190.93a4.73,4.73,0,0,1-5.26,7.67,4.65,4.65,0,0,0,1.12-.83,4.74,4.74,0,0,0,0-6.7,4.53,4.53,0,0,0-1.43-1A4.72,4.72,0,0,1,233.64,190.93Z" transform="translate(-131.27 -115.24)"/></g></svg>