<svg xmlns="http://www.w3.org/2000/svg" xmlns:xlink="http://www.w3.org/1999/xlink" viewBox="0 0 319.88 304"><defs><style>.a{fill:url(#a)}.b{fill:url(#b)}.c{fill:url(#c)}.d{fill:url(#d)}.e{fill:url(#e)}.f{fill:url(#f)}.g{fill:url(#g)}.h{fill:url(#h)}.i{fill:url(#i)}</style><linearGradient id="a" x1="274.67" x2="274.67" y1="10.89" y2="284.4" gradientUnits="userSpaceOnUse"><stop offset="0" stop-color="#02f2ff"/><stop offset=".51" stop-color="#0da9fd"/><stop offset="1" stop-color="#0062fd"/></linearGradient><linearGradient id="b" x1="143.45" x2="143.45" y1="10.89" y2="284.38" xlink:href="#a"/><linearGradient id="c" x1="305.26" x2="305.26" y1="10.89" y2="284.4" xlink:href="#a"/><linearGradient id="d" x1="242.7" x2="242.7" y1="10.89" y2="284.39" xlink:href="#a"/><linearGradient id="e" x1="960.17" x2="960.17" y1="358.58" y2="632.12" xlink:href="#a"/><linearGradient id="f" x1="930.02" x2="930.02" y1="358.59" y2="632.1" xlink:href="#a"/><linearGradient id="g" x1="934.95" x2="934.95" y1="358.66" y2="632.09" xlink:href="#a"/><linearGradient id="h" x1="867.96" x2="867.96" y1="358.58" y2="632.11" xlink:href="#a"/><linearGradient id="i" x1="970.79" x2="970.79" y1="358.61" y2="632.09" xlink:href="#a"/></defs><title>logo</title><polygon points="257.58 133.07 240.47 103.45 257.58 73.84 291.78 73.84 308.88 103.45 291.78 133.07 257.58 133.07" class="a"/><polygon points="129.59 65.99 115.69 41.96 129.59 17.93 157.32 17.93 171.2 41.96 157.32 65.99 129.59 65.99" class="b"/><polygon points="297.95 25.31 290.65 12.65 297.95 0 312.56 0 319.88 12.65 312.56 25.31 297.95 25.31" class="c"/><polygon points="230.97 41.84 219.24 21.53 230.97 1.21 254.42 1.21 266.16 21.53 254.42 41.84 230.97 41.84" class="d"/><path d="M967.06,485.74a6.89,6.89,0,1,0-6.9,6.89A6.9,6.9,0,0,0,967.06,485.74Z" class="e" transform="translate(-788.99 -347.7)"/><path d="M987.17,556.61l25.13,41.25,16.67,4.58,42.08-72.88-15-26h-24.6L1001,450.77l12.3-21.31-12.72-22H976.88L960.09,436.5H904.77L888,407.43H859.5l-24.42,42.3,32.07,49.79c.28,0,.53-.08.82-.08a17.22,17.22,0,1,1-17.23,17.22,17,17,0,0,1,4-10.92l-27.45-42.56L789,529.56l37,64.09,77.69-51.11,9.71-35.37,2.29-1.42,27.57-17.11a16.39,16.39,0,0,1-.3-2.9,17.23,17.23,0,1,1,7.66,14.32,27.86,27.86,0,0,1-3,2.06L925.26,516l-9.71,35.32L832.89,605.6l19.19,33.24,65.73-41.55c0-.26-.08-.52-.08-.79A17.23,17.23,0,1,1,935,613.72a17,17,0,0,1-11-4l-65,41.1.52.92h141l21.31-36.92-18.39-5.06-1.43-2.28S974.2,561.84,973.68,561a17.16,17.16,0,1,1,11.43-7.38A30,30,0,0,1,987.17,556.61Z" class="f" transform="translate(-788.99 -347.7)"/><path d="M941.84,596.5a6.89,6.89,0,1,0-6.89,6.88A6.9,6.9,0,0,0,941.84,596.5Z" class="g" transform="translate(-788.99 -347.7)"/><path d="M874.86,516.66a6.9,6.9,0,1,0-6.89,6.89A6.9,6.9,0,0,0,874.86,516.66Z" class="h" transform="translate(-788.99 -347.7)"/><path d="M963.9,544.09a6.9,6.9,0,1,0,6.88-6.89A6.89,6.89,0,0,0,963.9,544.09Z" class="i" transform="translate(-788.99 -347.7)"/></svg>