<svg id="Text Landscape" xmlns="http://www.w3.org/2000/svg" viewBox="0 0 569 464">
    <defs>
        <linearGradient id="grad" x1="0%" y1="0%" x2="100%" y2="100%">
            <stop offset="0%" style="stop-color: #F5F7FA; stop-opacity: 1" />
            <stop offset="100%" style="stop-color: #B8C6DB; stop-opacity: 1" />
        </linearGradient>

        <style>
            svg {
                opacity: 0;
                visibility: hidden;
                transition: all 0.3s ease;
            }

            svg.loaded {
                opacity: 1;
                visibility: visible;
            }

            svg.loaded path {
                fill: none;
                stroke: url(#grad);
                stroke-linecap: round;
                stroke-linejoin: round;
                stroke-width: 8px;
                opacity: 0;
            }

            @keyframes line {
                0% {
                    stroke-dasharray: 10;
                    opacity: 0;
                }
                10% {
                    opacity: 1;
                }
                100% {
                    stroke-dashoffset: 0;
                    opacity: 1;
                }
            }

            svg.loaded path#D {
                stroke-dasharray: 1034;
                stroke-dashoffset: 1034;
                animation: line 15s cubic-bezier(0.5, 0, 0.8, 0.48) forwards 0.2s;
            }
            svg.loaded path#E {
                stroke-dasharray: 1010;
                stroke-dashoffset: 1010;
                animation: line 15s cubic-bezier(0.5, 0, 0.8, 0.48) forwards 0.6s;
            }
            svg.loaded path#V {
                stroke-dasharray: 798;
                stroke-dashoffset: 798;
                animation: line 15s cubic-bezier(0.5, 0, 0.8, 0.48) forwards 1.2s;
            }

            svg.loaded path#H {
                stroke-dasharray: 1032;
                stroke-dashoffset: 1032;
                animation: line 15s cubic-bezier(0.5, 0, 0.8, 0.48) forwards 1.5s;
            }
            svg.loaded path#U {
                stroke-dasharray: 946;
                stroke-dashoffset: 946;
                animation: line 15s cubic-bezier(0.5, 0, 0.8, 0.48) forwards 1.8s;
            }
            svg.loaded path#B {
                stroke-dasharray: 1102;
                stroke-dashoffset: 1102;
                animation: line 15s cubic-bezier(0.5, 0, 0.8, 0.48) forwards 2.0s;
            }
        </style>
    </defs>

    <script>
		window.addEventListener("load", () => {
			var svg = document.querySelector('svg');

			setTimeout(() => {
				svg.setAttribute("class", "loaded");
			}, 1000);
		});
	</script>

    <title>Dev Hub</title>

    <g id="DEV">
        <path id="D" d="M878,499V459h77.21A94.79,94.79,0,0,1,1050,553.79v2.42A94.79,94.79,0,0,1,955.21,651H878V545a53,53,0,0,1,53-53h16.93A61.06,61.06,0,0,1,1009,553.06v3.88A61.06,61.06,0,0,1,947.94,618H920V511" transform="translate(-871 -455)"/>
        <path id="E" d="M1086,506V458h134v33h-71.56A61.44,61.44,0,0,0,1087,552.44V651h136V619h-95V568h79V536h-78V513" transform="translate(-871 -455)"/>
        <path id="V" d="M1380,618l-12,33h-39l-69-192h45l48.59,130.77A18.51,18.51,0,0,0,1371,602h0a18.51,18.51,0,0,0,17.41-12.23L1437,459h-39l-37,102" transform="translate(-871 -455)"/>
    </g>
    <g id="HUB">
        <path id="H" d="M928,831H916v83H874V722h42v56c0,34,27,52,58,52h22v84h42V722H996v76H939" transform="translate(-871 -455)"/>
        <path id="U" d="M1072,837v4.72A74.27,74.27,0,0,0,1146.28,916h8.44A74.27,74.27,0,0,0,1229,841.72V721h-35V837.4a41.59,41.59,0,0,1-41.6,41.6h-.59C1096,879,1074,832,1074,791.19V722h41V839" transform="translate(-871 -455)"/>
        <path id="B" d="M1320,831h43.86A23.14,23.14,0,0,1,1387,854.14v3.72A23.14,23.14,0,0,1,1363.86,881H1306V830m0-55v23h43.5a21.51,21.51,0,0,0,21.5-21.5h0a21.51,21.51,0,0,0-21.5-21.5H1312c-47,10-48,65-48,65v95h103.92a56.11,56.11,0,0,0,35.1-12.18c59.35-47.48,0-95.82,0-95.82,24.59-44.41-.75-68.28-19.28-79a53.44,53.44,0,0,0-26.66-7H1264v50" transform="translate(-871 -455)"/>
    </g>

</svg>
