<svg xmlns="http://www.w3.org/2000/svg" id="Banner" viewBox="0 0 1497.18 803.19"><style>.fill_svg{fill:#21222d}</style><title>Wave SVG</title><g id="wave_curve"><path d="M1857,244.67c-42.07-34.08-83.5-31.12-122.42,6.51-32.66,31.56-49.62,84.86-94,94.64-51.69,11.4-90.6-45.23-138.57-67.59-33.15-15.44-73.8-13.57-105.39,4.85s-53.22,52.9-56.09,89.35c-2.26,28.65,6.34,56.93,9,85.55s-2.35,61-25,78.71c-28.52,22.33-69.51,11.45-104.42,1.8s-79.12-14.11-100.91,14.82c-33.38,44.3,21.75,118.49-15.15,159.9-20.69,23.23-58.62,19.57-86.59,6s-52.3-35.09-82.23-43.56c-52-14.71-112.69,19.88-126.53,72.13-6.29,23.78-3.83,49-7.31,73.32S786,871.4,762.74,879.47c-22.67,7.88-47.63-4.17-65.67-20s-32.59-35.81-52.82-48.72-49.66-16.55-66.52.54c-13.29,13.47-15.06,35.84-29.69,47.84-26.48,21.73-52,2.53-86.09-.41-14.28-1.23-29.8,3.36-44.36,11.58-36,20.32-57.73,48.91-57.73,90.22v63.59H1857" class="fill_svg" transform="translate(-359 -200)"/></g></svg>