<svg xmlns="http://www.w3.org/2000/svg" id="Banner" viewBox="0 0 647.09 223.85"><style>.fill_svg{fill:#21222d}</style><title>Wave SVG</title><g id="wave_curve"><path d="M407,54l643.39,0c.63,1.36-.36-1.51.21-.13,11.62,28-7.2,62.78-35.83,68.09-14,2.58-29.22-1.19-41.93,5.41-16.24,8.43-21.27,29.55-29.85,46.29-21.06,41.08-74.66,59.59-114.9,39.68-18.37-9.09-33.18-24.52-50.64-35.42s-40.43-16.76-57.62-5.43c-22,14.49-23,48-39,69.46-11.05,14.81-29.13,22.89-47.06,23.32s-35.59-6.28-50.52-16.71c-10-7-19-15.7-29.56-21.87S530.28,217,519,221.49c-14.74,5.85-22.06,22.74-32.79,34.85-19.57,22.07-54.08,27.53-79,12.49Z" class="fill_svg" transform="translate(-407 -54)"/></g></svg>